M48
; DRILL file {KiCad 6.0.11-2627ca5db0~126~ubuntu22.04.1} date Sun 25 Jun 2023 15:32:34 BST
; FORMAT={-:-/ absolute / metric / decimal}
; #@! TF.CreationDate,2023-06-25T15:32:34+01:00
; #@! TF.GenerationSoftware,Kicad,Pcbnew,6.0.11-2627ca5db0~126~ubuntu22.04.1
; #@! TF.FileFunction,Plated,1,4,PTH
FMAT,2
METRIC
; #@! TA.AperFunction,Plated,PTH,ViaDrill
T1C0.400
; #@! TA.AperFunction,Plated,PTH,ComponentDrill
T2C0.762
; #@! TA.AperFunction,Plated,PTH,ComponentDrill
T3C1.000
; #@! TA.AperFunction,Plated,PTH,ComponentDrill
T4C1.020
; #@! TA.AperFunction,Plated,PTH,ComponentDrill
T5C1.300
%
G90
G05
T1
X49.35Y-75.04
X50.05Y-84.74
X52.65Y-92.84
X52.67Y-99.92
X57.25Y-96.602
X57.25Y-132.24
X58.01Y-97.38
X58.05Y-163.94
X58.75Y-98.54
X58.75Y-163.14
X59.55Y-108.04
X59.55Y-111.24
X60.35Y-114.24
X60.75Y-127.04
X61.55Y-93.84
X62.05Y-86.94
X62.45Y-89.84
X63.65Y-144.84
X63.75Y-157.14
X64.15Y-77.44
X64.25Y-105.34
X64.25Y-110.23
X64.35Y-112.14
X64.35Y-117.34
X64.396Y-118.942
X65.35Y-99.94
X66.15Y-164.639
X66.25Y-113.54
X66.25Y-146.44
X66.35Y-115.14
X66.35Y-117.44
X66.45Y-120.44
X68.05Y-75.14
X68.05Y-84.74
X68.05Y-138.44
X68.95Y-97.14
X69.49Y-77.1
X69.75Y-83.74
X69.75Y-87.24
X70.25Y-96.44
X70.45Y-151.24
X70.55Y-110.04
X70.75Y-83.04
X70.75Y-88.04
X70.79Y-117.7
X71.05Y-79.24
X71.25Y-131.14
X71.25Y-153.94
X71.25Y-157.94
X71.45Y-97.14
X71.55Y-82.14
X71.65Y-85.24
X71.75Y-114.441
X71.75Y-122.84
X72.495Y-125.757
X72.55Y-81.44
X72.55Y-92.44
X72.75Y-111.94
X72.75Y-113.94
X72.75Y-119.739
X72.75Y-152.24
X72.85Y-108.84
X73.15Y-78.54
X73.55Y-80.54
X73.555Y-93.045
X73.75Y-155.44
X73.85Y-125.757
X73.95Y-164.74
X74.249Y-108.84
X74.25Y-98.34
X74.55Y-91.641
X74.95Y-123.479
X75.05Y-129.94
X75.05Y-134.34
X75.05Y-153.14
X75.15Y-79.34
X75.15Y-127.14
X75.25Y-97.04
X75.35Y-104.44
X76.35Y-151.24
X76.35Y-155.34
X76.65Y-122.081
X76.732Y-124.258
X76.75Y-93.74
X76.85Y-87.14
X77.15Y-134.24
X77.25Y-110.34
X77.25Y-114.039
X77.55Y-143.34
X77.65Y-89.74
X77.67Y-118.392
X78.05Y-76.04
X78.05Y-85.24
X78.206Y-135.18
X78.35Y-114.04
X78.85Y-107.54
X78.85Y-111.84
X79.95Y-91.44
X79.95Y-96.84
X80.35Y-137.54
X80.35Y-150.94
X81.55Y-137.54
X83.65Y-114.739
X83.65Y-117.0
X83.85Y-154.84
X84.05Y-131.14
X84.15Y-91.34
X84.75Y-119.04
X85.35Y-114.34
X86.65Y-134.04
X87.75Y-119.54
X87.75Y-131.44
X87.95Y-111.17
X88.75Y-120.44
X88.95Y-111.558
X88.95Y-116.54
X89.05Y-152.24
X89.35Y-88.74
X89.831Y-136.579
X89.834Y-120.486
X90.35Y-115.84
X90.55Y-99.221
X91.25Y-91.64
X91.35Y-119.739
X91.55Y-116.84
X91.75Y-134.04
X92.05Y-78.24
X92.05Y-90.14
X92.15Y-99.221
X92.15Y-104.34
X92.75Y-105.239
X93.15Y-120.54
X93.45Y-85.24
X93.849Y-99.221
X94.15Y-79.34
X94.25Y-134.74
X94.35Y-98.34
X95.45Y-120.54
X95.65Y-78.34
X95.65Y-105.239
X96.65Y-138.44
X96.65Y-150.94
X97.85Y-119.739
X98.25Y-85.34
X98.45Y-102.04
X100.65Y-101.24
X100.65Y-120.539
X101.75Y-122.74
X101.75Y-153.14
X101.95Y-136.74
X102.05Y-89.14
X102.35Y-116.84
X102.35Y-119.24
X102.45Y-165.24
X102.85Y-101.94
X103.15Y-91.74
X104.35Y-131.44
X104.45Y-117.0
X105.097Y-112.141
X105.25Y-101.94
X106.05Y-112.54
X106.95Y-111.139
X107.05Y-91.24
X108.241Y-116.331
X108.35Y-111.74
X109.35Y-131.24
X109.45Y-163.34
X109.55Y-117.0
X110.65Y-144.34
X110.75Y-119.34
X111.75Y-101.54
X111.85Y-134.04
X112.65Y-113.64
X112.75Y-104.44
X113.35Y-111.54
X114.25Y-116.94
X114.55Y-125.34
X114.55Y-136.74
X114.65Y-81.04
X114.65Y-87.34
X114.65Y-139.34
X115.41Y-137.252
X115.65Y-112.34
X115.65Y-116.84
X115.85Y-143.24
X117.05Y-119.84
X117.25Y-83.84
X117.45Y-133.04
X117.45Y-136.579
X117.55Y-141.239
X118.25Y-125.04
X118.35Y-113.54
X118.35Y-116.84
X119.45Y-120.54
X119.524Y-139.405
X119.55Y-133.04
X119.55Y-137.94
X119.85Y-80.24
X119.85Y-90.14
X120.389Y-112.748
X120.45Y-111.64
X120.45Y-131.24
X120.984Y-113.64
X121.15Y-99.14
X122.207Y-113.64
X122.65Y-142.94
X123.45Y-111.64
X123.45Y-134.04
X124.55Y-100.62
X124.996Y-115.139
X125.55Y-101.14
X125.95Y-165.14
X127.25Y-125.04
X127.45Y-78.34
X127.45Y-163.24
X128.45Y-136.579
X128.45Y-165.139
X129.75Y-111.54
X129.95Y-78.64
X130.75Y-97.94
X131.65Y-165.14
X131.75Y-163.44
X131.95Y-77.54
X131.95Y-80.24
X132.035Y-85.14
X132.035Y-91.14
X132.035Y-125.04
X132.035Y-154.84
X134.75Y-89.44
X134.75Y-91.94
X135.85Y-90.14
X136.35Y-146.54
X136.35Y-147.84
X136.35Y-149.14
X136.35Y-150.34
X136.35Y-151.44
X136.35Y-152.44
X136.35Y-153.64
X136.35Y-154.84
X136.35Y-156.04
X136.35Y-157.24
X136.35Y-158.84
X136.35Y-161.04
X136.35Y-162.24
X136.35Y-164.44
X136.448Y-128.44
X136.448Y-123.94
X136.45Y-118.04
X136.45Y-119.04
X136.45Y-120.34
X136.45Y-121.64
X136.45Y-122.94
X136.45Y-124.94
X136.45Y-126.14
X136.45Y-127.24
X136.45Y-130.44
X136.45Y-131.54
X136.45Y-132.84
X136.45Y-134.14
X136.45Y-135.54
X136.45Y-136.74
X136.45Y-137.84
X136.45Y-139.14
X136.45Y-140.44
X136.45Y-141.64
X136.45Y-142.94
X136.45Y-144.14
X136.45Y-145.24
X136.55Y-105.94
X136.55Y-110.44
X136.55Y-111.74
X136.55Y-112.94
X136.55Y-114.44
X136.55Y-115.84
X136.65Y-94.94
X136.65Y-95.94
X136.65Y-97.34
X136.65Y-98.54
X136.65Y-99.94
X136.65Y-101.44
X136.65Y-103.44
X136.65Y-104.64
X141.25Y-87.54
X141.45Y-106.24
T2
X50.39Y-94.84
X50.39Y-97.38
X50.39Y-99.92
X50.39Y-102.46
X50.39Y-105.0
X50.39Y-107.54
X50.39Y-110.08
X50.39Y-112.62
X50.39Y-115.16
X50.39Y-117.7
X50.39Y-120.24
X50.39Y-122.78
X50.39Y-125.32
X50.39Y-127.86
X50.39Y-130.4
X50.39Y-132.94
X50.39Y-135.48
X50.39Y-138.02
X50.39Y-140.56
X50.39Y-143.1
X50.39Y-145.64
X50.39Y-148.18
X50.39Y-150.72
X50.39Y-153.26
X50.39Y-155.8
X50.39Y-158.34
X50.39Y-160.88
X50.39Y-163.42
X55.39Y-94.84
X55.39Y-97.38
X55.39Y-99.92
X55.39Y-102.46
X55.39Y-105.0
X55.39Y-107.54
X55.39Y-110.08
X55.39Y-112.62
X55.39Y-115.16
X55.39Y-117.7
X55.39Y-120.24
X55.39Y-122.78
X55.39Y-125.32
X55.39Y-127.86
X55.39Y-130.4
X55.39Y-132.94
X55.39Y-135.48
X55.39Y-138.02
X55.39Y-140.56
X55.39Y-143.1
X55.39Y-145.64
X55.39Y-148.18
X55.39Y-150.72
X55.39Y-153.26
X55.39Y-155.8
X55.39Y-158.34
X55.39Y-160.88
X55.39Y-163.42
T3
X50.25Y-89.74
X61.615Y-101.24
X64.155Y-101.24
X66.695Y-101.24
X69.235Y-101.24
X70.75Y-73.84
X70.95Y-105.74
X71.775Y-101.24
X73.75Y-73.84
X74.315Y-101.24
X76.855Y-101.24
X76.95Y-73.94
X79.395Y-101.24
X81.935Y-101.24
X84.475Y-101.24
X91.65Y-168.24
X96.45Y-168.24
X106.825Y-168.04
X109.365Y-168.04
X111.905Y-168.04
X123.375Y-166.94
X125.915Y-166.94
X128.455Y-166.94
X130.995Y-166.94
X133.535Y-166.94
X135.35Y-74.94
X135.35Y-77.48
X135.35Y-80.02
X135.35Y-82.56
X135.35Y-85.1
X135.35Y-87.64
X138.45Y-168.24
X142.275Y-73.74
X142.275Y-78.24
X142.375Y-84.74
X142.375Y-89.24
T4
X63.665Y-141.95
X63.665Y-159.73
X63.895Y-148.3
X63.895Y-150.84
X63.895Y-153.38
X66.205Y-141.95
X66.205Y-159.73
X68.745Y-141.95
X68.745Y-159.73
X71.285Y-141.95
X71.285Y-159.73
X73.825Y-141.95
X73.825Y-159.73
X76.365Y-141.95
X76.365Y-159.73
X78.905Y-141.95
X78.905Y-159.73
X81.445Y-141.95
X81.445Y-159.73
X81.52Y-108.95
X81.52Y-126.73
X81.665Y-75.95
X81.665Y-93.73
X81.75Y-115.3
X81.75Y-117.84
X81.75Y-120.38
X81.895Y-82.3
X81.895Y-84.84
X81.895Y-87.38
X83.985Y-141.95
X83.985Y-159.73
X84.06Y-108.95
X84.06Y-126.73
X84.205Y-75.95
X84.205Y-93.73
X86.525Y-141.95
X86.525Y-159.73
X86.6Y-108.95
X86.6Y-126.73
X86.745Y-75.95
X86.745Y-93.73
X89.065Y-141.95
X89.065Y-159.73
X89.14Y-108.95
X89.14Y-126.73
X89.285Y-75.95
X89.285Y-93.73
X91.605Y-141.95
X91.605Y-159.73
X91.68Y-108.95
X91.68Y-126.73
X91.825Y-75.95
X91.825Y-93.73
X94.145Y-141.95
X94.145Y-159.73
X94.22Y-108.95
X94.22Y-126.73
X94.365Y-75.95
X94.365Y-93.73
X96.685Y-141.95
X96.685Y-159.73
X96.76Y-108.95
X96.76Y-126.73
X96.905Y-75.95
X96.905Y-93.73
X99.225Y-141.95
X99.225Y-159.73
X99.3Y-108.95
X99.3Y-126.73
X99.445Y-75.95
X99.445Y-93.73
X101.765Y-141.95
X101.765Y-159.73
X101.84Y-108.95
X101.84Y-126.73
X101.985Y-75.95
X101.985Y-93.73
X104.305Y-141.95
X104.305Y-159.73
X104.38Y-108.95
X104.38Y-126.73
X104.525Y-75.95
X104.525Y-93.73
X106.845Y-141.95
X106.845Y-159.73
X106.92Y-108.95
X106.92Y-126.73
X107.065Y-75.95
X107.065Y-93.73
X109.385Y-141.95
X109.385Y-159.73
X109.46Y-108.95
X109.46Y-126.73
X109.605Y-75.95
X109.605Y-93.73
X111.925Y-141.95
X111.925Y-159.73
X112.0Y-108.95
X112.0Y-126.73
X112.145Y-75.95
X112.145Y-93.73
X114.54Y-108.95
X114.54Y-126.73
X114.685Y-75.95
X114.685Y-93.73
X117.08Y-108.95
X117.08Y-126.73
X117.225Y-75.95
X117.225Y-93.73
X119.62Y-108.95
X119.62Y-126.73
X119.765Y-75.95
X119.765Y-93.73
X122.16Y-108.95
X122.16Y-126.73
X122.305Y-75.95
X122.305Y-93.73
X124.7Y-108.95
X124.7Y-126.73
X124.845Y-75.95
X124.845Y-93.73
X127.24Y-108.95
X127.24Y-126.73
X127.385Y-75.95
X127.385Y-93.73
X129.78Y-108.95
X129.78Y-126.73
X129.925Y-75.95
X129.925Y-93.73
T5
X139.775Y-72.49
X139.775Y-79.49
X139.875Y-83.49
X139.875Y-90.49
T0
M30
