%TF.GenerationSoftware,KiCad,Pcbnew,6.0.11-2627ca5db0~126~ubuntu22.04.1*%
%TF.CreationDate,2023-06-25T15:32:36+01:00*%
%TF.ProjectId,srom,73726f6d-2e6b-4696-9361-645f70636258,v1.3 to v1.4*%
%TF.SameCoordinates,Original*%
%TF.FileFunction,Drillmap*%
%TF.FilePolarity,Positive*%
%FSLAX45Y45*%
G04 Gerber Fmt 4.5, Leading zero omitted, Abs format (unit mm)*
G04 Created by KiCad (PCBNEW 6.0.11-2627ca5db0~126~ubuntu22.04.1) date 2023-06-25 15:32:36*
%MOMM*%
%LPD*%
G01*
G04 APERTURE LIST*
%ADD10C,0.100000*%
%ADD11C,0.200000*%
%ADD12C,0.040000*%
%ADD13C,0.076200*%
%ADD14C,0.102000*%
%ADD15C,0.130000*%
G04 APERTURE END LIST*
D10*
X4542000Y-7022000D02*
X14538000Y-7022000D01*
X14538000Y-7022000D02*
X14538000Y-17007000D01*
X14538000Y-17007000D02*
X4542000Y-17007000D01*
X4542000Y-17007000D02*
X4542000Y-7022000D01*
D11*
D12*
X4915000Y-7484000D02*
X4955000Y-7524000D01*
X4955000Y-7484000D02*
X4915000Y-7524000D01*
X4985000Y-8454000D02*
X5025000Y-8494000D01*
X5025000Y-8454000D02*
X4985000Y-8494000D01*
X5245000Y-9264000D02*
X5285000Y-9304000D01*
X5285000Y-9264000D02*
X5245000Y-9304000D01*
X5247000Y-9972000D02*
X5287000Y-10012000D01*
X5287000Y-9972000D02*
X5247000Y-10012000D01*
X5705000Y-9640150D02*
X5745000Y-9680150D01*
X5745000Y-9640150D02*
X5705000Y-9680150D01*
X5705000Y-13204000D02*
X5745000Y-13244000D01*
X5745000Y-13204000D02*
X5705000Y-13244000D01*
X5781000Y-9718000D02*
X5821000Y-9758000D01*
X5821000Y-9718000D02*
X5781000Y-9758000D01*
X5785000Y-16374000D02*
X5825000Y-16414000D01*
X5825000Y-16374000D02*
X5785000Y-16414000D01*
X5855000Y-9834000D02*
X5895000Y-9874000D01*
X5895000Y-9834000D02*
X5855000Y-9874000D01*
X5855000Y-16294000D02*
X5895000Y-16334000D01*
X5895000Y-16294000D02*
X5855000Y-16334000D01*
X5935000Y-10784000D02*
X5975000Y-10824000D01*
X5975000Y-10784000D02*
X5935000Y-10824000D01*
X5935000Y-11104000D02*
X5975000Y-11144000D01*
X5975000Y-11104000D02*
X5935000Y-11144000D01*
X6015000Y-11404000D02*
X6055000Y-11444000D01*
X6055000Y-11404000D02*
X6015000Y-11444000D01*
X6055000Y-12684000D02*
X6095000Y-12724000D01*
X6095000Y-12684000D02*
X6055000Y-12724000D01*
X6135000Y-9364000D02*
X6175000Y-9404000D01*
X6175000Y-9364000D02*
X6135000Y-9404000D01*
X6185000Y-8674000D02*
X6225000Y-8714000D01*
X6225000Y-8674000D02*
X6185000Y-8714000D01*
X6225000Y-8964000D02*
X6265000Y-9004000D01*
X6265000Y-8964000D02*
X6225000Y-9004000D01*
X6345000Y-14464000D02*
X6385000Y-14504000D01*
X6385000Y-14464000D02*
X6345000Y-14504000D01*
X6355000Y-15694000D02*
X6395000Y-15734000D01*
X6395000Y-15694000D02*
X6355000Y-15734000D01*
X6395000Y-7724000D02*
X6435000Y-7764000D01*
X6435000Y-7724000D02*
X6395000Y-7764000D01*
X6405000Y-10514000D02*
X6445000Y-10554000D01*
X6445000Y-10514000D02*
X6405000Y-10554000D01*
X6405000Y-11002950D02*
X6445000Y-11042950D01*
X6445000Y-11002950D02*
X6405000Y-11042950D01*
X6415000Y-11194000D02*
X6455000Y-11234000D01*
X6455000Y-11194000D02*
X6415000Y-11234000D01*
X6415000Y-11714000D02*
X6455000Y-11754000D01*
X6455000Y-11714000D02*
X6415000Y-11754000D01*
X6419585Y-11874190D02*
X6459585Y-11914190D01*
X6459585Y-11874190D02*
X6419585Y-11914190D01*
X6515000Y-9974000D02*
X6555000Y-10014000D01*
X6555000Y-9974000D02*
X6515000Y-10014000D01*
X6595000Y-16443950D02*
X6635000Y-16483950D01*
X6635000Y-16443950D02*
X6595000Y-16483950D01*
X6605000Y-11334000D02*
X6645000Y-11374000D01*
X6645000Y-11334000D02*
X6605000Y-11374000D01*
X6605000Y-14624000D02*
X6645000Y-14664000D01*
X6645000Y-14624000D02*
X6605000Y-14664000D01*
X6615000Y-11494000D02*
X6655000Y-11534000D01*
X6655000Y-11494000D02*
X6615000Y-11534000D01*
X6615000Y-11724000D02*
X6655000Y-11764000D01*
X6655000Y-11724000D02*
X6615000Y-11764000D01*
X6625000Y-12024000D02*
X6665000Y-12064000D01*
X6665000Y-12024000D02*
X6625000Y-12064000D01*
X6785000Y-7494000D02*
X6825000Y-7534000D01*
X6825000Y-7494000D02*
X6785000Y-7534000D01*
X6785000Y-8454000D02*
X6825000Y-8494000D01*
X6825000Y-8454000D02*
X6785000Y-8494000D01*
X6785000Y-13824000D02*
X6825000Y-13864000D01*
X6825000Y-13824000D02*
X6785000Y-13864000D01*
X6875000Y-9694000D02*
X6915000Y-9734000D01*
X6915000Y-9694000D02*
X6875000Y-9734000D01*
X6929000Y-7690000D02*
X6969000Y-7730000D01*
X6969000Y-7690000D02*
X6929000Y-7730000D01*
X6955000Y-8354000D02*
X6995000Y-8394000D01*
X6995000Y-8354000D02*
X6955000Y-8394000D01*
X6955000Y-8704000D02*
X6995000Y-8744000D01*
X6995000Y-8704000D02*
X6955000Y-8744000D01*
X7005000Y-9624000D02*
X7045000Y-9664000D01*
X7045000Y-9624000D02*
X7005000Y-9664000D01*
X7025000Y-15104000D02*
X7065000Y-15144000D01*
X7065000Y-15104000D02*
X7025000Y-15144000D01*
X7035000Y-10984000D02*
X7075000Y-11024000D01*
X7075000Y-10984000D02*
X7035000Y-11024000D01*
X7055000Y-8284000D02*
X7095000Y-8324000D01*
X7095000Y-8284000D02*
X7055000Y-8324000D01*
X7055000Y-8784000D02*
X7095000Y-8824000D01*
X7095000Y-8784000D02*
X7055000Y-8824000D01*
X7059000Y-11750000D02*
X7099000Y-11790000D01*
X7099000Y-11750000D02*
X7059000Y-11790000D01*
X7085050Y-7904000D02*
X7125050Y-7944000D01*
X7125050Y-7904000D02*
X7085050Y-7944000D01*
X7105000Y-13094000D02*
X7145000Y-13134000D01*
X7145000Y-13094000D02*
X7105000Y-13134000D01*
X7105000Y-15374000D02*
X7145000Y-15414000D01*
X7145000Y-15374000D02*
X7105000Y-15414000D01*
X7105000Y-15774000D02*
X7145000Y-15814000D01*
X7145000Y-15774000D02*
X7105000Y-15814000D01*
X7125000Y-9694050D02*
X7165000Y-9734050D01*
X7165000Y-9694050D02*
X7125000Y-9734050D01*
X7135000Y-8194000D02*
X7175000Y-8234000D01*
X7175000Y-8194000D02*
X7135000Y-8234000D01*
X7145000Y-8504000D02*
X7185000Y-8544000D01*
X7185000Y-8504000D02*
X7145000Y-8544000D01*
X7155000Y-11424050D02*
X7195000Y-11464050D01*
X7195000Y-11424050D02*
X7155000Y-11464050D01*
X7155000Y-12264000D02*
X7195000Y-12304000D01*
X7195000Y-12264000D02*
X7155000Y-12304000D01*
X7229500Y-12555750D02*
X7269500Y-12595750D01*
X7269500Y-12555750D02*
X7229500Y-12595750D01*
X7235000Y-8124000D02*
X7275000Y-8164000D01*
X7275000Y-8124000D02*
X7235000Y-8164000D01*
X7235000Y-9224000D02*
X7275000Y-9264000D01*
X7275000Y-9224000D02*
X7235000Y-9264000D01*
X7255000Y-11174000D02*
X7295000Y-11214000D01*
X7295000Y-11174000D02*
X7255000Y-11214000D01*
X7255000Y-11374000D02*
X7295000Y-11414000D01*
X7295000Y-11374000D02*
X7255000Y-11414000D01*
X7255000Y-11953950D02*
X7295000Y-11993950D01*
X7295000Y-11953950D02*
X7255000Y-11993950D01*
X7255000Y-15204000D02*
X7295000Y-15244000D01*
X7295000Y-15204000D02*
X7255000Y-15244000D01*
X7265000Y-10864000D02*
X7305000Y-10904000D01*
X7305000Y-10864000D02*
X7265000Y-10904000D01*
X7295000Y-7834050D02*
X7335000Y-7874050D01*
X7335000Y-7834050D02*
X7295000Y-7874050D01*
X7335000Y-8034000D02*
X7375000Y-8074000D01*
X7375000Y-8034000D02*
X7335000Y-8074000D01*
X7335538Y-9284538D02*
X7375538Y-9324538D01*
X7375538Y-9284538D02*
X7335538Y-9324538D01*
X7355000Y-15524000D02*
X7395000Y-15564000D01*
X7395000Y-15524000D02*
X7355000Y-15564000D01*
X7365000Y-12555750D02*
X7405000Y-12595750D01*
X7405000Y-12555750D02*
X7365000Y-12595750D01*
X7375000Y-16454000D02*
X7415000Y-16494000D01*
X7415000Y-16454000D02*
X7375000Y-16494000D01*
X7404950Y-10864000D02*
X7444950Y-10904000D01*
X7444950Y-10864000D02*
X7404950Y-10904000D01*
X7405000Y-9814000D02*
X7445000Y-9854000D01*
X7445000Y-9814000D02*
X7405000Y-9854000D01*
X7435000Y-9144050D02*
X7475000Y-9184050D01*
X7475000Y-9144050D02*
X7435000Y-9184050D01*
X7475000Y-12327950D02*
X7515000Y-12367950D01*
X7515000Y-12327950D02*
X7475000Y-12367950D01*
X7485000Y-12974000D02*
X7525000Y-13014000D01*
X7525000Y-12974000D02*
X7485000Y-13014000D01*
X7485000Y-13414000D02*
X7525000Y-13454000D01*
X7525000Y-13414000D02*
X7485000Y-13454000D01*
X7485000Y-15294000D02*
X7525000Y-15334000D01*
X7525000Y-15294000D02*
X7485000Y-15334000D01*
X7495000Y-7914000D02*
X7535000Y-7954000D01*
X7535000Y-7914000D02*
X7495000Y-7954000D01*
X7495000Y-12694000D02*
X7535000Y-12734000D01*
X7535000Y-12694000D02*
X7495000Y-12734000D01*
X7505000Y-9684000D02*
X7545000Y-9724000D01*
X7545000Y-9684000D02*
X7505000Y-9724000D01*
X7515000Y-10424000D02*
X7555000Y-10464000D01*
X7555000Y-10424000D02*
X7515000Y-10464000D01*
X7615000Y-15104000D02*
X7655000Y-15144000D01*
X7655000Y-15104000D02*
X7615000Y-15144000D01*
X7615000Y-15514000D02*
X7655000Y-15554000D01*
X7655000Y-15514000D02*
X7615000Y-15554000D01*
X7645000Y-12188050D02*
X7685000Y-12228050D01*
X7685000Y-12188050D02*
X7645000Y-12228050D01*
X7653200Y-12405800D02*
X7693200Y-12445800D01*
X7693200Y-12405800D02*
X7653200Y-12445800D01*
X7655000Y-9354000D02*
X7695000Y-9394000D01*
X7695000Y-9354000D02*
X7655000Y-9394000D01*
X7665000Y-8694000D02*
X7705000Y-8734000D01*
X7705000Y-8694000D02*
X7665000Y-8734000D01*
X7695000Y-13404000D02*
X7735000Y-13444000D01*
X7735000Y-13404000D02*
X7695000Y-13444000D01*
X7705000Y-11014000D02*
X7745000Y-11054000D01*
X7745000Y-11014000D02*
X7705000Y-11054000D01*
X7705000Y-11383950D02*
X7745000Y-11423950D01*
X7745000Y-11383950D02*
X7705000Y-11423950D01*
X7735000Y-14314000D02*
X7775000Y-14354000D01*
X7775000Y-14314000D02*
X7735000Y-14354000D01*
X7745000Y-8954000D02*
X7785000Y-8994000D01*
X7785000Y-8954000D02*
X7745000Y-8994000D01*
X7746963Y-11819193D02*
X7786963Y-11859193D01*
X7786963Y-11819193D02*
X7746963Y-11859193D01*
X7785000Y-7584000D02*
X7825000Y-7624000D01*
X7825000Y-7584000D02*
X7785000Y-7624000D01*
X7785000Y-8504000D02*
X7825000Y-8544000D01*
X7825000Y-8504000D02*
X7785000Y-8544000D01*
X7800550Y-13498050D02*
X7840550Y-13538050D01*
X7840550Y-13498050D02*
X7800550Y-13538050D01*
X7815000Y-11384000D02*
X7855000Y-11424000D01*
X7855000Y-11384000D02*
X7815000Y-11424000D01*
X7865000Y-10734000D02*
X7905000Y-10774000D01*
X7905000Y-10734000D02*
X7865000Y-10774000D01*
X7865000Y-11164000D02*
X7905000Y-11204000D01*
X7905000Y-11164000D02*
X7865000Y-11204000D01*
X7975000Y-9124000D02*
X8015000Y-9164000D01*
X8015000Y-9124000D02*
X7975000Y-9164000D01*
X7975000Y-9664000D02*
X8015000Y-9704000D01*
X8015000Y-9664000D02*
X7975000Y-9704000D01*
X8015000Y-13734000D02*
X8055000Y-13774000D01*
X8055000Y-13734000D02*
X8015000Y-13774000D01*
X8015000Y-15074000D02*
X8055000Y-15114000D01*
X8055000Y-15074000D02*
X8015000Y-15114000D01*
X8135000Y-13734000D02*
X8175000Y-13774000D01*
X8175000Y-13734000D02*
X8135000Y-13774000D01*
X8345000Y-11453950D02*
X8385000Y-11493950D01*
X8385000Y-11453950D02*
X8345000Y-11493950D01*
X8345000Y-11680050D02*
X8385000Y-11720050D01*
X8385000Y-11680050D02*
X8345000Y-11720050D01*
X8365000Y-15464000D02*
X8405000Y-15504000D01*
X8405000Y-15464000D02*
X8365000Y-15504000D01*
X8385000Y-13094000D02*
X8425000Y-13134000D01*
X8425000Y-13094000D02*
X8385000Y-13134000D01*
X8395000Y-9114000D02*
X8435000Y-9154000D01*
X8435000Y-9114000D02*
X8395000Y-9154000D01*
X8455000Y-11884000D02*
X8495000Y-11924000D01*
X8495000Y-11884000D02*
X8455000Y-11924000D01*
X8515000Y-11413950D02*
X8555000Y-11453950D01*
X8555000Y-11413950D02*
X8515000Y-11453950D01*
X8645000Y-13384000D02*
X8685000Y-13424000D01*
X8685000Y-13384000D02*
X8645000Y-13424000D01*
X8755000Y-11934000D02*
X8795000Y-11974000D01*
X8795000Y-11934000D02*
X8755000Y-11974000D01*
X8755000Y-13124000D02*
X8795000Y-13164000D01*
X8795000Y-13124000D02*
X8755000Y-13164000D01*
X8775000Y-11097050D02*
X8815000Y-11137050D01*
X8815000Y-11097050D02*
X8775000Y-11137050D01*
X8855000Y-12024000D02*
X8895000Y-12064000D01*
X8895000Y-12024000D02*
X8855000Y-12064000D01*
X8875000Y-11135800D02*
X8915000Y-11175800D01*
X8915000Y-11135800D02*
X8875000Y-11175800D01*
X8875000Y-11634000D02*
X8915000Y-11674000D01*
X8915000Y-11634000D02*
X8875000Y-11674000D01*
X8885000Y-15204000D02*
X8925000Y-15244000D01*
X8925000Y-15204000D02*
X8885000Y-15244000D01*
X8915000Y-8854000D02*
X8955000Y-8894000D01*
X8955000Y-8854000D02*
X8915000Y-8894000D01*
X8963050Y-13637950D02*
X9003050Y-13677950D01*
X9003050Y-13637950D02*
X8963050Y-13677950D01*
X8963436Y-12028607D02*
X9003436Y-12068607D01*
X9003436Y-12028607D02*
X8963436Y-12068607D01*
X9015000Y-11564000D02*
X9055000Y-11604000D01*
X9055000Y-11564000D02*
X9015000Y-11604000D01*
X9035000Y-9902050D02*
X9075000Y-9942050D01*
X9075000Y-9902050D02*
X9035000Y-9942050D01*
X9105000Y-9144000D02*
X9145000Y-9184000D01*
X9145000Y-9144000D02*
X9105000Y-9184000D01*
X9115000Y-11953950D02*
X9155000Y-11993950D01*
X9155000Y-11953950D02*
X9115000Y-11993950D01*
X9135000Y-11664050D02*
X9175000Y-11704050D01*
X9175000Y-11664050D02*
X9135000Y-11704050D01*
X9155000Y-13383950D02*
X9195000Y-13423950D01*
X9195000Y-13383950D02*
X9155000Y-13423950D01*
X9185000Y-7804000D02*
X9225000Y-7844000D01*
X9225000Y-7804000D02*
X9185000Y-7844000D01*
X9185000Y-8994000D02*
X9225000Y-9034000D01*
X9225000Y-8994000D02*
X9185000Y-9034000D01*
X9195000Y-9902050D02*
X9235000Y-9942050D01*
X9235000Y-9902050D02*
X9195000Y-9942050D01*
X9195000Y-10413950D02*
X9235000Y-10453950D01*
X9235000Y-10413950D02*
X9195000Y-10453950D01*
X9255000Y-10503950D02*
X9295000Y-10543950D01*
X9295000Y-10503950D02*
X9255000Y-10543950D01*
X9295000Y-12034050D02*
X9335000Y-12074050D01*
X9335000Y-12034050D02*
X9295000Y-12074050D01*
X9325000Y-8504000D02*
X9365000Y-8544000D01*
X9365000Y-8504000D02*
X9325000Y-8544000D01*
X9364950Y-9902050D02*
X9404950Y-9942050D01*
X9404950Y-9902050D02*
X9364950Y-9942050D01*
X9395000Y-7914000D02*
X9435000Y-7954000D01*
X9435000Y-7914000D02*
X9395000Y-7954000D01*
X9405000Y-13454000D02*
X9445000Y-13494000D01*
X9445000Y-13454000D02*
X9405000Y-13494000D01*
X9415000Y-9813950D02*
X9455000Y-9853950D01*
X9455000Y-9813950D02*
X9415000Y-9853950D01*
X9525000Y-12034050D02*
X9565000Y-12074050D01*
X9565000Y-12034050D02*
X9525000Y-12074050D01*
X9545000Y-7814000D02*
X9585000Y-7854000D01*
X9585000Y-7814000D02*
X9545000Y-7854000D01*
X9545000Y-10503950D02*
X9585000Y-10543950D01*
X9585000Y-10503950D02*
X9545000Y-10543950D01*
X9645000Y-13824000D02*
X9685000Y-13864000D01*
X9685000Y-13824000D02*
X9645000Y-13864000D01*
X9645000Y-15074000D02*
X9685000Y-15114000D01*
X9685000Y-15074000D02*
X9645000Y-15114000D01*
X9765000Y-11953950D02*
X9805000Y-11993950D01*
X9805000Y-11953950D02*
X9765000Y-11993950D01*
X9805000Y-8514000D02*
X9845000Y-8554000D01*
X9845000Y-8514000D02*
X9805000Y-8554000D01*
X9825000Y-10184000D02*
X9865000Y-10224000D01*
X9865000Y-10184000D02*
X9825000Y-10224000D01*
X10045000Y-10104000D02*
X10085000Y-10144000D01*
X10085000Y-10104000D02*
X10045000Y-10144000D01*
X10045000Y-12033950D02*
X10085000Y-12073950D01*
X10085000Y-12033950D02*
X10045000Y-12073950D01*
X10155000Y-12254000D02*
X10195000Y-12294000D01*
X10195000Y-12254000D02*
X10155000Y-12294000D01*
X10155000Y-15294000D02*
X10195000Y-15334000D01*
X10195000Y-15294000D02*
X10155000Y-15334000D01*
X10175000Y-13654000D02*
X10215000Y-13694000D01*
X10215000Y-13654000D02*
X10175000Y-13694000D01*
X10185000Y-8894000D02*
X10225000Y-8934000D01*
X10225000Y-8894000D02*
X10185000Y-8934000D01*
X10215000Y-11664000D02*
X10255000Y-11704000D01*
X10255000Y-11664000D02*
X10215000Y-11704000D01*
X10215000Y-11904000D02*
X10255000Y-11944000D01*
X10255000Y-11904000D02*
X10215000Y-11944000D01*
X10225000Y-16504000D02*
X10265000Y-16544000D01*
X10265000Y-16504000D02*
X10225000Y-16544000D01*
X10265000Y-10174000D02*
X10305000Y-10214000D01*
X10305000Y-10174000D02*
X10265000Y-10214000D01*
X10295000Y-9154000D02*
X10335000Y-9194000D01*
X10335000Y-9154000D02*
X10295000Y-9194000D01*
X10415000Y-13124000D02*
X10455000Y-13164000D01*
X10455000Y-13124000D02*
X10415000Y-13164000D01*
X10425000Y-11680050D02*
X10465000Y-11720050D01*
X10465000Y-11680050D02*
X10425000Y-11720050D01*
X10489688Y-11194088D02*
X10529688Y-11234088D01*
X10529688Y-11194088D02*
X10489688Y-11234088D01*
X10505000Y-10174000D02*
X10545000Y-10214000D01*
X10545000Y-10174000D02*
X10505000Y-10214000D01*
X10585000Y-11234050D02*
X10625000Y-11274050D01*
X10625000Y-11234050D02*
X10585000Y-11274050D01*
X10675000Y-11093950D02*
X10715000Y-11133950D01*
X10715000Y-11093950D02*
X10675000Y-11133950D01*
X10685000Y-9104000D02*
X10725000Y-9144000D01*
X10725000Y-9104000D02*
X10685000Y-9144000D01*
X10804065Y-11613065D02*
X10844065Y-11653065D01*
X10844065Y-11613065D02*
X10804065Y-11653065D01*
X10815000Y-11154000D02*
X10855000Y-11194000D01*
X10855000Y-11154000D02*
X10815000Y-11194000D01*
X10915000Y-13104000D02*
X10955000Y-13144000D01*
X10955000Y-13104000D02*
X10915000Y-13144000D01*
X10925000Y-16314000D02*
X10965000Y-16354000D01*
X10965000Y-16314000D02*
X10925000Y-16354000D01*
X10935000Y-11680050D02*
X10975000Y-11720050D01*
X10975000Y-11680050D02*
X10935000Y-11720050D01*
X11045000Y-14414000D02*
X11085000Y-14454000D01*
X11085000Y-14414000D02*
X11045000Y-14454000D01*
X11055000Y-11914000D02*
X11095000Y-11954000D01*
X11095000Y-11914000D02*
X11055000Y-11954000D01*
X11155000Y-10134000D02*
X11195000Y-10174000D01*
X11195000Y-10134000D02*
X11155000Y-10174000D01*
X11165000Y-13383950D02*
X11205000Y-13423950D01*
X11205000Y-13383950D02*
X11165000Y-13423950D01*
X11245000Y-11344050D02*
X11285000Y-11384050D01*
X11285000Y-11344050D02*
X11245000Y-11384050D01*
X11255000Y-10424000D02*
X11295000Y-10464000D01*
X11295000Y-10424000D02*
X11255000Y-10464000D01*
X11315000Y-11134000D02*
X11355000Y-11174000D01*
X11355000Y-11134000D02*
X11315000Y-11174000D01*
X11405000Y-11674000D02*
X11445000Y-11714000D01*
X11445000Y-11674000D02*
X11405000Y-11714000D01*
X11435000Y-12514000D02*
X11475000Y-12554000D01*
X11475000Y-12514000D02*
X11435000Y-12554000D01*
X11435000Y-13654000D02*
X11475000Y-13694000D01*
X11475000Y-13654000D02*
X11435000Y-13694000D01*
X11445000Y-8084000D02*
X11485000Y-8124000D01*
X11485000Y-8084000D02*
X11445000Y-8124000D01*
X11445000Y-8714000D02*
X11485000Y-8754000D01*
X11485000Y-8714000D02*
X11445000Y-8754000D01*
X11445000Y-13914000D02*
X11485000Y-13954000D01*
X11485000Y-13914000D02*
X11445000Y-13954000D01*
X11521047Y-13705189D02*
X11561047Y-13745189D01*
X11561047Y-13705189D02*
X11521047Y-13745189D01*
X11545000Y-11214000D02*
X11585000Y-11254000D01*
X11585000Y-11214000D02*
X11545000Y-11254000D01*
X11545000Y-11664000D02*
X11585000Y-11704000D01*
X11585000Y-11664000D02*
X11545000Y-11704000D01*
X11565000Y-14304000D02*
X11605000Y-14344000D01*
X11605000Y-14304000D02*
X11565000Y-14344000D01*
X11685000Y-11964000D02*
X11725000Y-12004000D01*
X11725000Y-11964000D02*
X11685000Y-12004000D01*
X11705000Y-8364000D02*
X11745000Y-8404000D01*
X11745000Y-8364000D02*
X11705000Y-8404000D01*
X11725000Y-13284000D02*
X11765000Y-13324000D01*
X11765000Y-13284000D02*
X11725000Y-13324000D01*
X11725000Y-13637950D02*
X11765000Y-13677950D01*
X11765000Y-13637950D02*
X11725000Y-13677950D01*
X11735000Y-14103950D02*
X11775000Y-14143950D01*
X11775000Y-14103950D02*
X11735000Y-14143950D01*
X11805000Y-12484000D02*
X11845000Y-12524000D01*
X11845000Y-12484000D02*
X11805000Y-12524000D01*
X11815000Y-11334000D02*
X11855000Y-11374000D01*
X11855000Y-11334000D02*
X11815000Y-11374000D01*
X11815000Y-11663950D02*
X11855000Y-11703950D01*
X11855000Y-11663950D02*
X11815000Y-11703950D01*
X11925000Y-12034000D02*
X11965000Y-12074000D01*
X11965000Y-12034000D02*
X11925000Y-12074000D01*
X11932424Y-13920550D02*
X11972424Y-13960550D01*
X11972424Y-13920550D02*
X11932424Y-13960550D01*
X11935000Y-13284000D02*
X11975000Y-13324000D01*
X11975000Y-13284000D02*
X11935000Y-13324000D01*
X11935000Y-13774000D02*
X11975000Y-13814000D01*
X11975000Y-13774000D02*
X11935000Y-13814000D01*
X11965000Y-8004000D02*
X12005000Y-8044000D01*
X12005000Y-8004000D02*
X11965000Y-8044000D01*
X11965000Y-8994000D02*
X12005000Y-9034000D01*
X12005000Y-8994000D02*
X11965000Y-9034000D01*
X12018890Y-11254845D02*
X12058890Y-11294845D01*
X12058890Y-11254845D02*
X12018890Y-11294845D01*
X12025000Y-11144000D02*
X12065000Y-11184000D01*
X12065000Y-11144000D02*
X12025000Y-11184000D01*
X12025000Y-13104000D02*
X12065000Y-13144000D01*
X12065000Y-13104000D02*
X12025000Y-13144000D01*
X12078405Y-11344050D02*
X12118405Y-11384050D01*
X12118405Y-11344050D02*
X12078405Y-11384050D01*
X12095000Y-9894000D02*
X12135000Y-9934000D01*
X12135000Y-9894000D02*
X12095000Y-9934000D01*
X12200685Y-11344050D02*
X12240685Y-11384050D01*
X12240685Y-11344050D02*
X12200685Y-11384050D01*
X12245000Y-14274000D02*
X12285000Y-14314000D01*
X12285000Y-14274000D02*
X12245000Y-14314000D01*
X12325000Y-11144000D02*
X12365000Y-11184000D01*
X12365000Y-11144000D02*
X12325000Y-11184000D01*
X12325000Y-13384000D02*
X12365000Y-13424000D01*
X12365000Y-13384000D02*
X12325000Y-13424000D01*
X12435000Y-10041950D02*
X12475000Y-10081950D01*
X12475000Y-10041950D02*
X12435000Y-10081950D01*
X12479634Y-11493950D02*
X12519634Y-11533950D01*
X12519634Y-11493950D02*
X12479634Y-11533950D01*
X12535000Y-10094000D02*
X12575000Y-10134000D01*
X12575000Y-10094000D02*
X12535000Y-10134000D01*
X12575000Y-16494000D02*
X12615000Y-16534000D01*
X12615000Y-16494000D02*
X12575000Y-16534000D01*
X12705000Y-12484000D02*
X12745000Y-12524000D01*
X12745000Y-12484000D02*
X12705000Y-12524000D01*
X12725000Y-7814000D02*
X12765000Y-7854000D01*
X12765000Y-7814000D02*
X12725000Y-7854000D01*
X12725000Y-16304000D02*
X12765000Y-16344000D01*
X12765000Y-16304000D02*
X12725000Y-16344000D01*
X12825000Y-13637950D02*
X12865000Y-13677950D01*
X12865000Y-13637950D02*
X12825000Y-13677950D01*
X12825000Y-16493950D02*
X12865000Y-16533950D01*
X12865000Y-16493950D02*
X12825000Y-16533950D01*
X12955000Y-11134000D02*
X12995000Y-11174000D01*
X12995000Y-11134000D02*
X12955000Y-11174000D01*
X12975000Y-7844000D02*
X13015000Y-7884000D01*
X13015000Y-7844000D02*
X12975000Y-7884000D01*
X13055000Y-9774000D02*
X13095000Y-9814000D01*
X13095000Y-9774000D02*
X13055000Y-9814000D01*
X13145000Y-16494000D02*
X13185000Y-16534000D01*
X13185000Y-16494000D02*
X13145000Y-16534000D01*
X13155000Y-16324000D02*
X13195000Y-16364000D01*
X13195000Y-16324000D02*
X13155000Y-16364000D01*
X13175000Y-7734000D02*
X13215000Y-7774000D01*
X13215000Y-7734000D02*
X13175000Y-7774000D01*
X13175000Y-8004000D02*
X13215000Y-8044000D01*
X13215000Y-8004000D02*
X13175000Y-8044000D01*
X13183550Y-8494000D02*
X13223550Y-8534000D01*
X13223550Y-8494000D02*
X13183550Y-8534000D01*
X13183550Y-9094000D02*
X13223550Y-9134000D01*
X13223550Y-9094000D02*
X13183550Y-9134000D01*
X13183550Y-12484000D02*
X13223550Y-12524000D01*
X13223550Y-12484000D02*
X13183550Y-12524000D01*
X13183550Y-15464000D02*
X13223550Y-15504000D01*
X13223550Y-15464000D02*
X13183550Y-15504000D01*
X13455000Y-8924000D02*
X13495000Y-8964000D01*
X13495000Y-8924000D02*
X13455000Y-8964000D01*
X13455000Y-9174000D02*
X13495000Y-9214000D01*
X13495000Y-9174000D02*
X13455000Y-9214000D01*
X13565000Y-8994000D02*
X13605000Y-9034000D01*
X13605000Y-8994000D02*
X13565000Y-9034000D01*
X13615000Y-14634000D02*
X13655000Y-14674000D01*
X13655000Y-14634000D02*
X13615000Y-14674000D01*
X13615000Y-14764000D02*
X13655000Y-14804000D01*
X13655000Y-14764000D02*
X13615000Y-14804000D01*
X13615000Y-14894000D02*
X13655000Y-14934000D01*
X13655000Y-14894000D02*
X13615000Y-14934000D01*
X13615000Y-15014000D02*
X13655000Y-15054000D01*
X13655000Y-15014000D02*
X13615000Y-15054000D01*
X13615000Y-15124000D02*
X13655000Y-15164000D01*
X13655000Y-15124000D02*
X13615000Y-15164000D01*
X13615000Y-15224000D02*
X13655000Y-15264000D01*
X13655000Y-15224000D02*
X13615000Y-15264000D01*
X13615000Y-15344000D02*
X13655000Y-15384000D01*
X13655000Y-15344000D02*
X13615000Y-15384000D01*
X13615000Y-15464000D02*
X13655000Y-15504000D01*
X13655000Y-15464000D02*
X13615000Y-15504000D01*
X13615000Y-15584000D02*
X13655000Y-15624000D01*
X13655000Y-15584000D02*
X13615000Y-15624000D01*
X13615000Y-15704000D02*
X13655000Y-15744000D01*
X13655000Y-15704000D02*
X13615000Y-15744000D01*
X13615000Y-15864000D02*
X13655000Y-15904000D01*
X13655000Y-15864000D02*
X13615000Y-15904000D01*
X13615000Y-16084000D02*
X13655000Y-16124000D01*
X13655000Y-16084000D02*
X13615000Y-16124000D01*
X13615000Y-16204000D02*
X13655000Y-16244000D01*
X13655000Y-16204000D02*
X13615000Y-16244000D01*
X13615000Y-16424000D02*
X13655000Y-16464000D01*
X13655000Y-16424000D02*
X13615000Y-16464000D01*
X13624757Y-12824000D02*
X13664757Y-12864000D01*
X13664757Y-12824000D02*
X13624757Y-12864000D01*
X13624807Y-12373950D02*
X13664807Y-12413950D01*
X13664807Y-12373950D02*
X13624807Y-12413950D01*
X13625000Y-11784000D02*
X13665000Y-11824000D01*
X13665000Y-11784000D02*
X13625000Y-11824000D01*
X13625000Y-11884000D02*
X13665000Y-11924000D01*
X13665000Y-11884000D02*
X13625000Y-11924000D01*
X13625000Y-12014000D02*
X13665000Y-12054000D01*
X13665000Y-12014000D02*
X13625000Y-12054000D01*
X13625000Y-12144000D02*
X13665000Y-12184000D01*
X13665000Y-12144000D02*
X13625000Y-12184000D01*
X13625000Y-12274000D02*
X13665000Y-12314000D01*
X13665000Y-12274000D02*
X13625000Y-12314000D01*
X13625000Y-12474000D02*
X13665000Y-12514000D01*
X13665000Y-12474000D02*
X13625000Y-12514000D01*
X13625000Y-12594000D02*
X13665000Y-12634000D01*
X13665000Y-12594000D02*
X13625000Y-12634000D01*
X13625000Y-12704000D02*
X13665000Y-12744000D01*
X13665000Y-12704000D02*
X13625000Y-12744000D01*
X13625000Y-13024000D02*
X13665000Y-13064000D01*
X13665000Y-13024000D02*
X13625000Y-13064000D01*
X13625000Y-13134000D02*
X13665000Y-13174000D01*
X13665000Y-13134000D02*
X13625000Y-13174000D01*
X13625000Y-13264000D02*
X13665000Y-13304000D01*
X13665000Y-13264000D02*
X13625000Y-13304000D01*
X13625000Y-13394000D02*
X13665000Y-13434000D01*
X13665000Y-13394000D02*
X13625000Y-13434000D01*
X13625000Y-13534000D02*
X13665000Y-13574000D01*
X13665000Y-13534000D02*
X13625000Y-13574000D01*
X13625000Y-13654000D02*
X13665000Y-13694000D01*
X13665000Y-13654000D02*
X13625000Y-13694000D01*
X13625000Y-13764000D02*
X13665000Y-13804000D01*
X13665000Y-13764000D02*
X13625000Y-13804000D01*
X13625000Y-13894000D02*
X13665000Y-13934000D01*
X13665000Y-13894000D02*
X13625000Y-13934000D01*
X13625000Y-14024000D02*
X13665000Y-14064000D01*
X13665000Y-14024000D02*
X13625000Y-14064000D01*
X13625000Y-14144000D02*
X13665000Y-14184000D01*
X13665000Y-14144000D02*
X13625000Y-14184000D01*
X13625000Y-14274000D02*
X13665000Y-14314000D01*
X13665000Y-14274000D02*
X13625000Y-14314000D01*
X13625000Y-14394000D02*
X13665000Y-14434000D01*
X13665000Y-14394000D02*
X13625000Y-14434000D01*
X13625000Y-14504000D02*
X13665000Y-14544000D01*
X13665000Y-14504000D02*
X13625000Y-14544000D01*
X13635000Y-10574000D02*
X13675000Y-10614000D01*
X13675000Y-10574000D02*
X13635000Y-10614000D01*
X13635000Y-11024000D02*
X13675000Y-11064000D01*
X13675000Y-11024000D02*
X13635000Y-11064000D01*
X13635000Y-11154000D02*
X13675000Y-11194000D01*
X13675000Y-11154000D02*
X13635000Y-11194000D01*
X13635000Y-11274000D02*
X13675000Y-11314000D01*
X13675000Y-11274000D02*
X13635000Y-11314000D01*
X13635000Y-11424000D02*
X13675000Y-11464000D01*
X13675000Y-11424000D02*
X13635000Y-11464000D01*
X13635000Y-11564000D02*
X13675000Y-11604000D01*
X13675000Y-11564000D02*
X13635000Y-11604000D01*
X13645000Y-9474000D02*
X13685000Y-9514000D01*
X13685000Y-9474000D02*
X13645000Y-9514000D01*
X13645000Y-9573950D02*
X13685000Y-9613950D01*
X13685000Y-9573950D02*
X13645000Y-9613950D01*
X13645000Y-9714000D02*
X13685000Y-9754000D01*
X13685000Y-9714000D02*
X13645000Y-9754000D01*
X13645000Y-9834000D02*
X13685000Y-9874000D01*
X13685000Y-9834000D02*
X13645000Y-9874000D01*
X13645000Y-9974000D02*
X13685000Y-10014000D01*
X13685000Y-9974000D02*
X13645000Y-10014000D01*
X13645000Y-10124000D02*
X13685000Y-10164000D01*
X13685000Y-10124000D02*
X13645000Y-10164000D01*
X13645000Y-10324000D02*
X13685000Y-10364000D01*
X13685000Y-10324000D02*
X13645000Y-10364000D01*
X13645000Y-10444000D02*
X13685000Y-10484000D01*
X13685000Y-10444000D02*
X13645000Y-10484000D01*
X14105000Y-8734000D02*
X14145000Y-8774000D01*
X14145000Y-8734000D02*
X14105000Y-8774000D01*
X14125000Y-10604000D02*
X14165000Y-10644000D01*
X14165000Y-10604000D02*
X14125000Y-10644000D01*
D13*
X5077100Y-9484000D02*
G75*
G03*
X5077100Y-9484000I-38100J0D01*
G01*
X5077100Y-9738000D02*
G75*
G03*
X5077100Y-9738000I-38100J0D01*
G01*
X5077100Y-9992000D02*
G75*
G03*
X5077100Y-9992000I-38100J0D01*
G01*
X5077100Y-10246000D02*
G75*
G03*
X5077100Y-10246000I-38100J0D01*
G01*
X5077100Y-10500000D02*
G75*
G03*
X5077100Y-10500000I-38100J0D01*
G01*
X5077100Y-10754000D02*
G75*
G03*
X5077100Y-10754000I-38100J0D01*
G01*
X5077100Y-11008000D02*
G75*
G03*
X5077100Y-11008000I-38100J0D01*
G01*
X5077100Y-11262000D02*
G75*
G03*
X5077100Y-11262000I-38100J0D01*
G01*
X5077100Y-11516000D02*
G75*
G03*
X5077100Y-11516000I-38100J0D01*
G01*
X5077100Y-11770000D02*
G75*
G03*
X5077100Y-11770000I-38100J0D01*
G01*
X5077100Y-12024000D02*
G75*
G03*
X5077100Y-12024000I-38100J0D01*
G01*
X5077100Y-12278000D02*
G75*
G03*
X5077100Y-12278000I-38100J0D01*
G01*
X5077100Y-12532000D02*
G75*
G03*
X5077100Y-12532000I-38100J0D01*
G01*
X5077100Y-12786000D02*
G75*
G03*
X5077100Y-12786000I-38100J0D01*
G01*
X5077100Y-13040000D02*
G75*
G03*
X5077100Y-13040000I-38100J0D01*
G01*
X5077100Y-13294000D02*
G75*
G03*
X5077100Y-13294000I-38100J0D01*
G01*
X5077100Y-13548000D02*
G75*
G03*
X5077100Y-13548000I-38100J0D01*
G01*
X5077100Y-13802000D02*
G75*
G03*
X5077100Y-13802000I-38100J0D01*
G01*
X5077100Y-14056000D02*
G75*
G03*
X5077100Y-14056000I-38100J0D01*
G01*
X5077100Y-14310000D02*
G75*
G03*
X5077100Y-14310000I-38100J0D01*
G01*
X5077100Y-14564000D02*
G75*
G03*
X5077100Y-14564000I-38100J0D01*
G01*
X5077100Y-14818000D02*
G75*
G03*
X5077100Y-14818000I-38100J0D01*
G01*
X5077100Y-15072000D02*
G75*
G03*
X5077100Y-15072000I-38100J0D01*
G01*
X5077100Y-15326000D02*
G75*
G03*
X5077100Y-15326000I-38100J0D01*
G01*
X5077100Y-15580000D02*
G75*
G03*
X5077100Y-15580000I-38100J0D01*
G01*
X5077100Y-15834000D02*
G75*
G03*
X5077100Y-15834000I-38100J0D01*
G01*
X5077100Y-16088000D02*
G75*
G03*
X5077100Y-16088000I-38100J0D01*
G01*
X5077100Y-16342000D02*
G75*
G03*
X5077100Y-16342000I-38100J0D01*
G01*
X5577100Y-9484000D02*
G75*
G03*
X5577100Y-9484000I-38100J0D01*
G01*
X5577100Y-9738000D02*
G75*
G03*
X5577100Y-9738000I-38100J0D01*
G01*
X5577100Y-9992000D02*
G75*
G03*
X5577100Y-9992000I-38100J0D01*
G01*
X5577100Y-10246000D02*
G75*
G03*
X5577100Y-10246000I-38100J0D01*
G01*
X5577100Y-10500000D02*
G75*
G03*
X5577100Y-10500000I-38100J0D01*
G01*
X5577100Y-10754000D02*
G75*
G03*
X5577100Y-10754000I-38100J0D01*
G01*
X5577100Y-11008000D02*
G75*
G03*
X5577100Y-11008000I-38100J0D01*
G01*
X5577100Y-11262000D02*
G75*
G03*
X5577100Y-11262000I-38100J0D01*
G01*
X5577100Y-11516000D02*
G75*
G03*
X5577100Y-11516000I-38100J0D01*
G01*
X5577100Y-11770000D02*
G75*
G03*
X5577100Y-11770000I-38100J0D01*
G01*
X5577100Y-12024000D02*
G75*
G03*
X5577100Y-12024000I-38100J0D01*
G01*
X5577100Y-12278000D02*
G75*
G03*
X5577100Y-12278000I-38100J0D01*
G01*
X5577100Y-12532000D02*
G75*
G03*
X5577100Y-12532000I-38100J0D01*
G01*
X5577100Y-12786000D02*
G75*
G03*
X5577100Y-12786000I-38100J0D01*
G01*
X5577100Y-13040000D02*
G75*
G03*
X5577100Y-13040000I-38100J0D01*
G01*
X5577100Y-13294000D02*
G75*
G03*
X5577100Y-13294000I-38100J0D01*
G01*
X5577100Y-13548000D02*
G75*
G03*
X5577100Y-13548000I-38100J0D01*
G01*
X5577100Y-13802000D02*
G75*
G03*
X5577100Y-13802000I-38100J0D01*
G01*
X5577100Y-14056000D02*
G75*
G03*
X5577100Y-14056000I-38100J0D01*
G01*
X5577100Y-14310000D02*
G75*
G03*
X5577100Y-14310000I-38100J0D01*
G01*
X5577100Y-14564000D02*
G75*
G03*
X5577100Y-14564000I-38100J0D01*
G01*
X5577100Y-14818000D02*
G75*
G03*
X5577100Y-14818000I-38100J0D01*
G01*
X5577100Y-15072000D02*
G75*
G03*
X5577100Y-15072000I-38100J0D01*
G01*
X5577100Y-15326000D02*
G75*
G03*
X5577100Y-15326000I-38100J0D01*
G01*
X5577100Y-15580000D02*
G75*
G03*
X5577100Y-15580000I-38100J0D01*
G01*
X5577100Y-15834000D02*
G75*
G03*
X5577100Y-15834000I-38100J0D01*
G01*
X5577100Y-16088000D02*
G75*
G03*
X5577100Y-16088000I-38100J0D01*
G01*
X5577100Y-16342000D02*
G75*
G03*
X5577100Y-16342000I-38100J0D01*
G01*
D10*
X5025000Y-8924000D02*
X5025000Y-9024000D01*
X4975000Y-8974000D02*
X5075000Y-8974000D01*
X6161500Y-10074000D02*
X6161500Y-10174000D01*
X6111500Y-10124000D02*
X6211500Y-10124000D01*
X6415500Y-10074000D02*
X6415500Y-10174000D01*
X6365500Y-10124000D02*
X6465500Y-10124000D01*
X6669500Y-10074000D02*
X6669500Y-10174000D01*
X6619500Y-10124000D02*
X6719500Y-10124000D01*
X6923500Y-10074000D02*
X6923500Y-10174000D01*
X6873500Y-10124000D02*
X6973500Y-10124000D01*
X7075000Y-7334000D02*
X7075000Y-7434000D01*
X7025000Y-7384000D02*
X7125000Y-7384000D01*
X7095000Y-10524000D02*
X7095000Y-10624000D01*
X7045000Y-10574000D02*
X7145000Y-10574000D01*
X7177500Y-10074000D02*
X7177500Y-10174000D01*
X7127500Y-10124000D02*
X7227500Y-10124000D01*
X7375000Y-7334000D02*
X7375000Y-7434000D01*
X7325000Y-7384000D02*
X7425000Y-7384000D01*
X7431500Y-10074000D02*
X7431500Y-10174000D01*
X7381500Y-10124000D02*
X7481500Y-10124000D01*
X7685500Y-10074000D02*
X7685500Y-10174000D01*
X7635500Y-10124000D02*
X7735500Y-10124000D01*
X7695000Y-7344000D02*
X7695000Y-7444000D01*
X7645000Y-7394000D02*
X7745000Y-7394000D01*
X7939500Y-10074000D02*
X7939500Y-10174000D01*
X7889500Y-10124000D02*
X7989500Y-10124000D01*
X8193500Y-10074000D02*
X8193500Y-10174000D01*
X8143500Y-10124000D02*
X8243500Y-10124000D01*
X8447500Y-10074000D02*
X8447500Y-10174000D01*
X8397500Y-10124000D02*
X8497500Y-10124000D01*
X9165000Y-16774000D02*
X9165000Y-16874000D01*
X9115000Y-16824000D02*
X9215000Y-16824000D01*
X9645000Y-16774000D02*
X9645000Y-16874000D01*
X9595000Y-16824000D02*
X9695000Y-16824000D01*
X10682500Y-16754000D02*
X10682500Y-16854000D01*
X10632500Y-16804000D02*
X10732500Y-16804000D01*
X10936500Y-16754000D02*
X10936500Y-16854000D01*
X10886500Y-16804000D02*
X10986500Y-16804000D01*
X11190500Y-16754000D02*
X11190500Y-16854000D01*
X11140500Y-16804000D02*
X11240500Y-16804000D01*
X12337500Y-16644000D02*
X12337500Y-16744000D01*
X12287500Y-16694000D02*
X12387500Y-16694000D01*
X12591500Y-16644000D02*
X12591500Y-16744000D01*
X12541500Y-16694000D02*
X12641500Y-16694000D01*
X12845500Y-16644000D02*
X12845500Y-16744000D01*
X12795500Y-16694000D02*
X12895500Y-16694000D01*
X13099500Y-16644000D02*
X13099500Y-16744000D01*
X13049500Y-16694000D02*
X13149500Y-16694000D01*
X13353500Y-16644000D02*
X13353500Y-16744000D01*
X13303500Y-16694000D02*
X13403500Y-16694000D01*
X13535000Y-7444000D02*
X13535000Y-7544000D01*
X13485000Y-7494000D02*
X13585000Y-7494000D01*
X13535000Y-7698000D02*
X13535000Y-7798000D01*
X13485000Y-7748000D02*
X13585000Y-7748000D01*
X13535000Y-7952000D02*
X13535000Y-8052000D01*
X13485000Y-8002000D02*
X13585000Y-8002000D01*
X13535000Y-8206000D02*
X13535000Y-8306000D01*
X13485000Y-8256000D02*
X13585000Y-8256000D01*
X13535000Y-8460000D02*
X13535000Y-8560000D01*
X13485000Y-8510000D02*
X13585000Y-8510000D01*
X13535000Y-8714000D02*
X13535000Y-8814000D01*
X13485000Y-8764000D02*
X13585000Y-8764000D01*
X13845000Y-16774000D02*
X13845000Y-16874000D01*
X13795000Y-16824000D02*
X13895000Y-16824000D01*
X14227500Y-7324000D02*
X14227500Y-7424000D01*
X14177500Y-7374000D02*
X14277500Y-7374000D01*
X14227500Y-7774000D02*
X14227500Y-7874000D01*
X14177500Y-7824000D02*
X14277500Y-7824000D01*
X14237500Y-8424000D02*
X14237500Y-8524000D01*
X14187500Y-8474000D02*
X14287500Y-8474000D01*
X14237500Y-8874000D02*
X14237500Y-8974000D01*
X14187500Y-8924000D02*
X14287500Y-8924000D01*
D14*
X6402563Y-14231063D02*
X6402563Y-14158937D01*
X6330437Y-14158937D01*
X6330437Y-14231063D01*
X6402563Y-14231063D01*
X6402563Y-16009063D02*
X6402563Y-15936937D01*
X6330437Y-15936937D01*
X6330437Y-16009063D01*
X6402563Y-16009063D01*
X6425563Y-14866063D02*
X6425563Y-14793937D01*
X6353437Y-14793937D01*
X6353437Y-14866063D01*
X6425563Y-14866063D01*
X6425563Y-15120063D02*
X6425563Y-15047937D01*
X6353437Y-15047937D01*
X6353437Y-15120063D01*
X6425563Y-15120063D01*
X6425563Y-15374063D02*
X6425563Y-15301937D01*
X6353437Y-15301937D01*
X6353437Y-15374063D01*
X6425563Y-15374063D01*
X6656563Y-14231063D02*
X6656563Y-14158937D01*
X6584437Y-14158937D01*
X6584437Y-14231063D01*
X6656563Y-14231063D01*
X6656563Y-16009063D02*
X6656563Y-15936937D01*
X6584437Y-15936937D01*
X6584437Y-16009063D01*
X6656563Y-16009063D01*
X6910563Y-14231063D02*
X6910563Y-14158937D01*
X6838437Y-14158937D01*
X6838437Y-14231063D01*
X6910563Y-14231063D01*
X6910563Y-16009063D02*
X6910563Y-15936937D01*
X6838437Y-15936937D01*
X6838437Y-16009063D01*
X6910563Y-16009063D01*
X7164563Y-14231063D02*
X7164563Y-14158937D01*
X7092437Y-14158937D01*
X7092437Y-14231063D01*
X7164563Y-14231063D01*
X7164563Y-16009063D02*
X7164563Y-15936937D01*
X7092437Y-15936937D01*
X7092437Y-16009063D01*
X7164563Y-16009063D01*
X7418563Y-14231063D02*
X7418563Y-14158937D01*
X7346437Y-14158937D01*
X7346437Y-14231063D01*
X7418563Y-14231063D01*
X7418563Y-16009063D02*
X7418563Y-15936937D01*
X7346437Y-15936937D01*
X7346437Y-16009063D01*
X7418563Y-16009063D01*
X7672563Y-14231063D02*
X7672563Y-14158937D01*
X7600437Y-14158937D01*
X7600437Y-14231063D01*
X7672563Y-14231063D01*
X7672563Y-16009063D02*
X7672563Y-15936937D01*
X7600437Y-15936937D01*
X7600437Y-16009063D01*
X7672563Y-16009063D01*
X7926563Y-14231063D02*
X7926563Y-14158937D01*
X7854437Y-14158937D01*
X7854437Y-14231063D01*
X7926563Y-14231063D01*
X7926563Y-16009063D02*
X7926563Y-15936937D01*
X7854437Y-15936937D01*
X7854437Y-16009063D01*
X7926563Y-16009063D01*
X8180563Y-14231063D02*
X8180563Y-14158937D01*
X8108437Y-14158937D01*
X8108437Y-14231063D01*
X8180563Y-14231063D01*
X8180563Y-16009063D02*
X8180563Y-15936937D01*
X8108437Y-15936937D01*
X8108437Y-16009063D01*
X8180563Y-16009063D01*
X8188063Y-10931063D02*
X8188063Y-10858937D01*
X8115937Y-10858937D01*
X8115937Y-10931063D01*
X8188063Y-10931063D01*
X8188063Y-12709063D02*
X8188063Y-12636937D01*
X8115937Y-12636937D01*
X8115937Y-12709063D01*
X8188063Y-12709063D01*
X8202563Y-7631063D02*
X8202563Y-7558937D01*
X8130437Y-7558937D01*
X8130437Y-7631063D01*
X8202563Y-7631063D01*
X8202563Y-9409063D02*
X8202563Y-9336937D01*
X8130437Y-9336937D01*
X8130437Y-9409063D01*
X8202563Y-9409063D01*
X8211063Y-11566063D02*
X8211063Y-11493937D01*
X8138937Y-11493937D01*
X8138937Y-11566063D01*
X8211063Y-11566063D01*
X8211063Y-11820063D02*
X8211063Y-11747937D01*
X8138937Y-11747937D01*
X8138937Y-11820063D01*
X8211063Y-11820063D01*
X8211063Y-12074063D02*
X8211063Y-12001937D01*
X8138937Y-12001937D01*
X8138937Y-12074063D01*
X8211063Y-12074063D01*
X8225563Y-8266063D02*
X8225563Y-8193937D01*
X8153437Y-8193937D01*
X8153437Y-8266063D01*
X8225563Y-8266063D01*
X8225563Y-8520063D02*
X8225563Y-8447937D01*
X8153437Y-8447937D01*
X8153437Y-8520063D01*
X8225563Y-8520063D01*
X8225563Y-8774063D02*
X8225563Y-8701937D01*
X8153437Y-8701937D01*
X8153437Y-8774063D01*
X8225563Y-8774063D01*
X8434563Y-14231063D02*
X8434563Y-14158937D01*
X8362437Y-14158937D01*
X8362437Y-14231063D01*
X8434563Y-14231063D01*
X8434563Y-16009063D02*
X8434563Y-15936937D01*
X8362437Y-15936937D01*
X8362437Y-16009063D01*
X8434563Y-16009063D01*
X8442063Y-10931063D02*
X8442063Y-10858937D01*
X8369937Y-10858937D01*
X8369937Y-10931063D01*
X8442063Y-10931063D01*
X8442063Y-12709063D02*
X8442063Y-12636937D01*
X8369937Y-12636937D01*
X8369937Y-12709063D01*
X8442063Y-12709063D01*
X8456563Y-7631063D02*
X8456563Y-7558937D01*
X8384437Y-7558937D01*
X8384437Y-7631063D01*
X8456563Y-7631063D01*
X8456563Y-9409063D02*
X8456563Y-9336937D01*
X8384437Y-9336937D01*
X8384437Y-9409063D01*
X8456563Y-9409063D01*
X8688563Y-14231063D02*
X8688563Y-14158937D01*
X8616437Y-14158937D01*
X8616437Y-14231063D01*
X8688563Y-14231063D01*
X8688563Y-16009063D02*
X8688563Y-15936937D01*
X8616437Y-15936937D01*
X8616437Y-16009063D01*
X8688563Y-16009063D01*
X8696063Y-10931063D02*
X8696063Y-10858937D01*
X8623937Y-10858937D01*
X8623937Y-10931063D01*
X8696063Y-10931063D01*
X8696063Y-12709063D02*
X8696063Y-12636937D01*
X8623937Y-12636937D01*
X8623937Y-12709063D01*
X8696063Y-12709063D01*
X8710563Y-7631063D02*
X8710563Y-7558937D01*
X8638437Y-7558937D01*
X8638437Y-7631063D01*
X8710563Y-7631063D01*
X8710563Y-9409063D02*
X8710563Y-9336937D01*
X8638437Y-9336937D01*
X8638437Y-9409063D01*
X8710563Y-9409063D01*
X8942563Y-14231063D02*
X8942563Y-14158937D01*
X8870437Y-14158937D01*
X8870437Y-14231063D01*
X8942563Y-14231063D01*
X8942563Y-16009063D02*
X8942563Y-15936937D01*
X8870437Y-15936937D01*
X8870437Y-16009063D01*
X8942563Y-16009063D01*
X8950063Y-10931063D02*
X8950063Y-10858937D01*
X8877937Y-10858937D01*
X8877937Y-10931063D01*
X8950063Y-10931063D01*
X8950063Y-12709063D02*
X8950063Y-12636937D01*
X8877937Y-12636937D01*
X8877937Y-12709063D01*
X8950063Y-12709063D01*
X8964563Y-7631063D02*
X8964563Y-7558937D01*
X8892437Y-7558937D01*
X8892437Y-7631063D01*
X8964563Y-7631063D01*
X8964563Y-9409063D02*
X8964563Y-9336937D01*
X8892437Y-9336937D01*
X8892437Y-9409063D01*
X8964563Y-9409063D01*
X9196563Y-14231063D02*
X9196563Y-14158937D01*
X9124437Y-14158937D01*
X9124437Y-14231063D01*
X9196563Y-14231063D01*
X9196563Y-16009063D02*
X9196563Y-15936937D01*
X9124437Y-15936937D01*
X9124437Y-16009063D01*
X9196563Y-16009063D01*
X9204063Y-10931063D02*
X9204063Y-10858937D01*
X9131937Y-10858937D01*
X9131937Y-10931063D01*
X9204063Y-10931063D01*
X9204063Y-12709063D02*
X9204063Y-12636937D01*
X9131937Y-12636937D01*
X9131937Y-12709063D01*
X9204063Y-12709063D01*
X9218563Y-7631063D02*
X9218563Y-7558937D01*
X9146437Y-7558937D01*
X9146437Y-7631063D01*
X9218563Y-7631063D01*
X9218563Y-9409063D02*
X9218563Y-9336937D01*
X9146437Y-9336937D01*
X9146437Y-9409063D01*
X9218563Y-9409063D01*
X9450563Y-14231063D02*
X9450563Y-14158937D01*
X9378437Y-14158937D01*
X9378437Y-14231063D01*
X9450563Y-14231063D01*
X9450563Y-16009063D02*
X9450563Y-15936937D01*
X9378437Y-15936937D01*
X9378437Y-16009063D01*
X9450563Y-16009063D01*
X9458063Y-10931063D02*
X9458063Y-10858937D01*
X9385937Y-10858937D01*
X9385937Y-10931063D01*
X9458063Y-10931063D01*
X9458063Y-12709063D02*
X9458063Y-12636937D01*
X9385937Y-12636937D01*
X9385937Y-12709063D01*
X9458063Y-12709063D01*
X9472563Y-7631063D02*
X9472563Y-7558937D01*
X9400437Y-7558937D01*
X9400437Y-7631063D01*
X9472563Y-7631063D01*
X9472563Y-9409063D02*
X9472563Y-9336937D01*
X9400437Y-9336937D01*
X9400437Y-9409063D01*
X9472563Y-9409063D01*
X9704563Y-14231063D02*
X9704563Y-14158937D01*
X9632437Y-14158937D01*
X9632437Y-14231063D01*
X9704563Y-14231063D01*
X9704563Y-16009063D02*
X9704563Y-15936937D01*
X9632437Y-15936937D01*
X9632437Y-16009063D01*
X9704563Y-16009063D01*
X9712063Y-10931063D02*
X9712063Y-10858937D01*
X9639937Y-10858937D01*
X9639937Y-10931063D01*
X9712063Y-10931063D01*
X9712063Y-12709063D02*
X9712063Y-12636937D01*
X9639937Y-12636937D01*
X9639937Y-12709063D01*
X9712063Y-12709063D01*
X9726563Y-7631063D02*
X9726563Y-7558937D01*
X9654437Y-7558937D01*
X9654437Y-7631063D01*
X9726563Y-7631063D01*
X9726563Y-9409063D02*
X9726563Y-9336937D01*
X9654437Y-9336937D01*
X9654437Y-9409063D01*
X9726563Y-9409063D01*
X9958563Y-14231063D02*
X9958563Y-14158937D01*
X9886437Y-14158937D01*
X9886437Y-14231063D01*
X9958563Y-14231063D01*
X9958563Y-16009063D02*
X9958563Y-15936937D01*
X9886437Y-15936937D01*
X9886437Y-16009063D01*
X9958563Y-16009063D01*
X9966063Y-10931063D02*
X9966063Y-10858937D01*
X9893937Y-10858937D01*
X9893937Y-10931063D01*
X9966063Y-10931063D01*
X9966063Y-12709063D02*
X9966063Y-12636937D01*
X9893937Y-12636937D01*
X9893937Y-12709063D01*
X9966063Y-12709063D01*
X9980563Y-7631063D02*
X9980563Y-7558937D01*
X9908437Y-7558937D01*
X9908437Y-7631063D01*
X9980563Y-7631063D01*
X9980563Y-9409063D02*
X9980563Y-9336937D01*
X9908437Y-9336937D01*
X9908437Y-9409063D01*
X9980563Y-9409063D01*
X10212563Y-14231063D02*
X10212563Y-14158937D01*
X10140437Y-14158937D01*
X10140437Y-14231063D01*
X10212563Y-14231063D01*
X10212563Y-16009063D02*
X10212563Y-15936937D01*
X10140437Y-15936937D01*
X10140437Y-16009063D01*
X10212563Y-16009063D01*
X10220063Y-10931063D02*
X10220063Y-10858937D01*
X10147937Y-10858937D01*
X10147937Y-10931063D01*
X10220063Y-10931063D01*
X10220063Y-12709063D02*
X10220063Y-12636937D01*
X10147937Y-12636937D01*
X10147937Y-12709063D01*
X10220063Y-12709063D01*
X10234563Y-7631063D02*
X10234563Y-7558937D01*
X10162437Y-7558937D01*
X10162437Y-7631063D01*
X10234563Y-7631063D01*
X10234563Y-9409063D02*
X10234563Y-9336937D01*
X10162437Y-9336937D01*
X10162437Y-9409063D01*
X10234563Y-9409063D01*
X10466563Y-14231063D02*
X10466563Y-14158937D01*
X10394437Y-14158937D01*
X10394437Y-14231063D01*
X10466563Y-14231063D01*
X10466563Y-16009063D02*
X10466563Y-15936937D01*
X10394437Y-15936937D01*
X10394437Y-16009063D01*
X10466563Y-16009063D01*
X10474063Y-10931063D02*
X10474063Y-10858937D01*
X10401937Y-10858937D01*
X10401937Y-10931063D01*
X10474063Y-10931063D01*
X10474063Y-12709063D02*
X10474063Y-12636937D01*
X10401937Y-12636937D01*
X10401937Y-12709063D01*
X10474063Y-12709063D01*
X10488563Y-7631063D02*
X10488563Y-7558937D01*
X10416437Y-7558937D01*
X10416437Y-7631063D01*
X10488563Y-7631063D01*
X10488563Y-9409063D02*
X10488563Y-9336937D01*
X10416437Y-9336937D01*
X10416437Y-9409063D01*
X10488563Y-9409063D01*
X10720563Y-14231063D02*
X10720563Y-14158937D01*
X10648437Y-14158937D01*
X10648437Y-14231063D01*
X10720563Y-14231063D01*
X10720563Y-16009063D02*
X10720563Y-15936937D01*
X10648437Y-15936937D01*
X10648437Y-16009063D01*
X10720563Y-16009063D01*
X10728063Y-10931063D02*
X10728063Y-10858937D01*
X10655937Y-10858937D01*
X10655937Y-10931063D01*
X10728063Y-10931063D01*
X10728063Y-12709063D02*
X10728063Y-12636937D01*
X10655937Y-12636937D01*
X10655937Y-12709063D01*
X10728063Y-12709063D01*
X10742563Y-7631063D02*
X10742563Y-7558937D01*
X10670437Y-7558937D01*
X10670437Y-7631063D01*
X10742563Y-7631063D01*
X10742563Y-9409063D02*
X10742563Y-9336937D01*
X10670437Y-9336937D01*
X10670437Y-9409063D01*
X10742563Y-9409063D01*
X10974563Y-14231063D02*
X10974563Y-14158937D01*
X10902437Y-14158937D01*
X10902437Y-14231063D01*
X10974563Y-14231063D01*
X10974563Y-16009063D02*
X10974563Y-15936937D01*
X10902437Y-15936937D01*
X10902437Y-16009063D01*
X10974563Y-16009063D01*
X10982063Y-10931063D02*
X10982063Y-10858937D01*
X10909937Y-10858937D01*
X10909937Y-10931063D01*
X10982063Y-10931063D01*
X10982063Y-12709063D02*
X10982063Y-12636937D01*
X10909937Y-12636937D01*
X10909937Y-12709063D01*
X10982063Y-12709063D01*
X10996563Y-7631063D02*
X10996563Y-7558937D01*
X10924437Y-7558937D01*
X10924437Y-7631063D01*
X10996563Y-7631063D01*
X10996563Y-9409063D02*
X10996563Y-9336937D01*
X10924437Y-9336937D01*
X10924437Y-9409063D01*
X10996563Y-9409063D01*
X11228563Y-14231063D02*
X11228563Y-14158937D01*
X11156437Y-14158937D01*
X11156437Y-14231063D01*
X11228563Y-14231063D01*
X11228563Y-16009063D02*
X11228563Y-15936937D01*
X11156437Y-15936937D01*
X11156437Y-16009063D01*
X11228563Y-16009063D01*
X11236063Y-10931063D02*
X11236063Y-10858937D01*
X11163937Y-10858937D01*
X11163937Y-10931063D01*
X11236063Y-10931063D01*
X11236063Y-12709063D02*
X11236063Y-12636937D01*
X11163937Y-12636937D01*
X11163937Y-12709063D01*
X11236063Y-12709063D01*
X11250563Y-7631063D02*
X11250563Y-7558937D01*
X11178437Y-7558937D01*
X11178437Y-7631063D01*
X11250563Y-7631063D01*
X11250563Y-9409063D02*
X11250563Y-9336937D01*
X11178437Y-9336937D01*
X11178437Y-9409063D01*
X11250563Y-9409063D01*
X11490063Y-10931063D02*
X11490063Y-10858937D01*
X11417937Y-10858937D01*
X11417937Y-10931063D01*
X11490063Y-10931063D01*
X11490063Y-12709063D02*
X11490063Y-12636937D01*
X11417937Y-12636937D01*
X11417937Y-12709063D01*
X11490063Y-12709063D01*
X11504563Y-7631063D02*
X11504563Y-7558937D01*
X11432437Y-7558937D01*
X11432437Y-7631063D01*
X11504563Y-7631063D01*
X11504563Y-9409063D02*
X11504563Y-9336937D01*
X11432437Y-9336937D01*
X11432437Y-9409063D01*
X11504563Y-9409063D01*
X11744063Y-10931063D02*
X11744063Y-10858937D01*
X11671937Y-10858937D01*
X11671937Y-10931063D01*
X11744063Y-10931063D01*
X11744063Y-12709063D02*
X11744063Y-12636937D01*
X11671937Y-12636937D01*
X11671937Y-12709063D01*
X11744063Y-12709063D01*
X11758563Y-7631063D02*
X11758563Y-7558937D01*
X11686437Y-7558937D01*
X11686437Y-7631063D01*
X11758563Y-7631063D01*
X11758563Y-9409063D02*
X11758563Y-9336937D01*
X11686437Y-9336937D01*
X11686437Y-9409063D01*
X11758563Y-9409063D01*
X11998063Y-10931063D02*
X11998063Y-10858937D01*
X11925937Y-10858937D01*
X11925937Y-10931063D01*
X11998063Y-10931063D01*
X11998063Y-12709063D02*
X11998063Y-12636937D01*
X11925937Y-12636937D01*
X11925937Y-12709063D01*
X11998063Y-12709063D01*
X12012563Y-7631063D02*
X12012563Y-7558937D01*
X11940437Y-7558937D01*
X11940437Y-7631063D01*
X12012563Y-7631063D01*
X12012563Y-9409063D02*
X12012563Y-9336937D01*
X11940437Y-9336937D01*
X11940437Y-9409063D01*
X12012563Y-9409063D01*
X12252063Y-10931063D02*
X12252063Y-10858937D01*
X12179937Y-10858937D01*
X12179937Y-10931063D01*
X12252063Y-10931063D01*
X12252063Y-12709063D02*
X12252063Y-12636937D01*
X12179937Y-12636937D01*
X12179937Y-12709063D01*
X12252063Y-12709063D01*
X12266563Y-7631063D02*
X12266563Y-7558937D01*
X12194437Y-7558937D01*
X12194437Y-7631063D01*
X12266563Y-7631063D01*
X12266563Y-9409063D02*
X12266563Y-9336937D01*
X12194437Y-9336937D01*
X12194437Y-9409063D01*
X12266563Y-9409063D01*
X12506063Y-10931063D02*
X12506063Y-10858937D01*
X12433937Y-10858937D01*
X12433937Y-10931063D01*
X12506063Y-10931063D01*
X12506063Y-12709063D02*
X12506063Y-12636937D01*
X12433937Y-12636937D01*
X12433937Y-12709063D01*
X12506063Y-12709063D01*
X12520563Y-7631063D02*
X12520563Y-7558937D01*
X12448437Y-7558937D01*
X12448437Y-7631063D01*
X12520563Y-7631063D01*
X12520563Y-9409063D02*
X12520563Y-9336937D01*
X12448437Y-9336937D01*
X12448437Y-9409063D01*
X12520563Y-9409063D01*
X12760063Y-10931063D02*
X12760063Y-10858937D01*
X12687937Y-10858937D01*
X12687937Y-10931063D01*
X12760063Y-10931063D01*
X12760063Y-12709063D02*
X12760063Y-12636937D01*
X12687937Y-12636937D01*
X12687937Y-12709063D01*
X12760063Y-12709063D01*
X12774563Y-7631063D02*
X12774563Y-7558937D01*
X12702437Y-7558937D01*
X12702437Y-7631063D01*
X12774563Y-7631063D01*
X12774563Y-9409063D02*
X12774563Y-9336937D01*
X12702437Y-9336937D01*
X12702437Y-9409063D01*
X12774563Y-9409063D01*
X13014063Y-10931063D02*
X13014063Y-10858937D01*
X12941937Y-10858937D01*
X12941937Y-10931063D01*
X13014063Y-10931063D01*
X13014063Y-12709063D02*
X13014063Y-12636937D01*
X12941937Y-12636937D01*
X12941937Y-12709063D01*
X13014063Y-12709063D01*
X13028563Y-7631063D02*
X13028563Y-7558937D01*
X12956437Y-7558937D01*
X12956437Y-7631063D01*
X13028563Y-7631063D01*
X13028563Y-9409063D02*
X13028563Y-9336937D01*
X12956437Y-9336937D01*
X12956437Y-9409063D01*
X13028563Y-9409063D01*
D15*
X13977500Y-7314000D02*
X14042500Y-7249000D01*
X13977500Y-7184000D01*
X13912500Y-7249000D01*
X13977500Y-7314000D01*
X13977500Y-8014000D02*
X14042500Y-7949000D01*
X13977500Y-7884000D01*
X13912500Y-7949000D01*
X13977500Y-8014000D01*
X13987500Y-8414000D02*
X14052500Y-8349000D01*
X13987500Y-8284000D01*
X13922500Y-8349000D01*
X13987500Y-8414000D01*
X13987500Y-9114000D02*
X14052500Y-9049000D01*
X13987500Y-8984000D01*
X13922500Y-9049000D01*
X13987500Y-9114000D01*
D11*
X4794619Y-17322476D02*
X4794619Y-17122476D01*
X4842238Y-17122476D01*
X4870810Y-17132000D01*
X4889857Y-17151048D01*
X4899381Y-17170095D01*
X4908905Y-17208190D01*
X4908905Y-17236762D01*
X4899381Y-17274857D01*
X4889857Y-17293905D01*
X4870810Y-17312952D01*
X4842238Y-17322476D01*
X4794619Y-17322476D01*
X4994619Y-17322476D02*
X4994619Y-17189143D01*
X4994619Y-17227238D02*
X5004143Y-17208190D01*
X5013667Y-17198667D01*
X5032714Y-17189143D01*
X5051762Y-17189143D01*
X5118429Y-17322476D02*
X5118429Y-17189143D01*
X5118429Y-17122476D02*
X5108905Y-17132000D01*
X5118429Y-17141524D01*
X5127952Y-17132000D01*
X5118429Y-17122476D01*
X5118429Y-17141524D01*
X5242238Y-17322476D02*
X5223190Y-17312952D01*
X5213667Y-17293905D01*
X5213667Y-17122476D01*
X5347000Y-17322476D02*
X5327952Y-17312952D01*
X5318429Y-17293905D01*
X5318429Y-17122476D01*
X5575571Y-17322476D02*
X5575571Y-17122476D01*
X5642238Y-17265333D01*
X5708905Y-17122476D01*
X5708905Y-17322476D01*
X5889857Y-17322476D02*
X5889857Y-17217714D01*
X5880333Y-17198667D01*
X5861286Y-17189143D01*
X5823190Y-17189143D01*
X5804143Y-17198667D01*
X5889857Y-17312952D02*
X5870809Y-17322476D01*
X5823190Y-17322476D01*
X5804143Y-17312952D01*
X5794619Y-17293905D01*
X5794619Y-17274857D01*
X5804143Y-17255810D01*
X5823190Y-17246286D01*
X5870809Y-17246286D01*
X5889857Y-17236762D01*
X5985095Y-17189143D02*
X5985095Y-17389143D01*
X5985095Y-17198667D02*
X6004143Y-17189143D01*
X6042238Y-17189143D01*
X6061286Y-17198667D01*
X6070809Y-17208190D01*
X6080333Y-17227238D01*
X6080333Y-17284381D01*
X6070809Y-17303429D01*
X6061286Y-17312952D01*
X6042238Y-17322476D01*
X6004143Y-17322476D01*
X5985095Y-17312952D01*
X6166048Y-17303429D02*
X6175571Y-17312952D01*
X6166048Y-17322476D01*
X6156524Y-17312952D01*
X6166048Y-17303429D01*
X6166048Y-17322476D01*
X6166048Y-17198667D02*
X6175571Y-17208190D01*
X6166048Y-17217714D01*
X6156524Y-17208190D01*
X6166048Y-17198667D01*
X6166048Y-17217714D01*
D12*
X4497000Y-17632000D02*
X4537000Y-17672000D01*
X4537000Y-17632000D02*
X4497000Y-17672000D01*
D11*
X4832714Y-17542476D02*
X4851762Y-17542476D01*
X4870810Y-17552000D01*
X4880333Y-17561524D01*
X4889857Y-17580571D01*
X4899381Y-17618667D01*
X4899381Y-17666286D01*
X4889857Y-17704381D01*
X4880333Y-17723429D01*
X4870810Y-17732952D01*
X4851762Y-17742476D01*
X4832714Y-17742476D01*
X4813667Y-17732952D01*
X4804143Y-17723429D01*
X4794619Y-17704381D01*
X4785095Y-17666286D01*
X4785095Y-17618667D01*
X4794619Y-17580571D01*
X4804143Y-17561524D01*
X4813667Y-17552000D01*
X4832714Y-17542476D01*
X4985095Y-17723429D02*
X4994619Y-17732952D01*
X4985095Y-17742476D01*
X4975571Y-17732952D01*
X4985095Y-17723429D01*
X4985095Y-17742476D01*
X5166048Y-17609143D02*
X5166048Y-17742476D01*
X5118429Y-17532952D02*
X5070810Y-17675810D01*
X5194619Y-17675810D01*
X5308905Y-17542476D02*
X5327952Y-17542476D01*
X5347000Y-17552000D01*
X5356524Y-17561524D01*
X5366048Y-17580571D01*
X5375571Y-17618667D01*
X5375571Y-17666286D01*
X5366048Y-17704381D01*
X5356524Y-17723429D01*
X5347000Y-17732952D01*
X5327952Y-17742476D01*
X5308905Y-17742476D01*
X5289857Y-17732952D01*
X5280333Y-17723429D01*
X5270810Y-17704381D01*
X5261286Y-17666286D01*
X5261286Y-17618667D01*
X5270810Y-17580571D01*
X5280333Y-17561524D01*
X5289857Y-17552000D01*
X5308905Y-17542476D01*
X5499381Y-17542476D02*
X5518429Y-17542476D01*
X5537476Y-17552000D01*
X5547000Y-17561524D01*
X5556524Y-17580571D01*
X5566048Y-17618667D01*
X5566048Y-17666286D01*
X5556524Y-17704381D01*
X5547000Y-17723429D01*
X5537476Y-17732952D01*
X5518429Y-17742476D01*
X5499381Y-17742476D01*
X5480333Y-17732952D01*
X5470810Y-17723429D01*
X5461286Y-17704381D01*
X5451762Y-17666286D01*
X5451762Y-17618667D01*
X5461286Y-17580571D01*
X5470810Y-17561524D01*
X5480333Y-17552000D01*
X5499381Y-17542476D01*
X5651762Y-17742476D02*
X5651762Y-17609143D01*
X5651762Y-17628190D02*
X5661286Y-17618667D01*
X5680333Y-17609143D01*
X5708905Y-17609143D01*
X5727952Y-17618667D01*
X5737476Y-17637714D01*
X5737476Y-17742476D01*
X5737476Y-17637714D02*
X5747000Y-17618667D01*
X5766048Y-17609143D01*
X5794619Y-17609143D01*
X5813667Y-17618667D01*
X5823190Y-17637714D01*
X5823190Y-17742476D01*
X5918428Y-17742476D02*
X5918428Y-17609143D01*
X5918428Y-17628190D02*
X5927952Y-17618667D01*
X5947000Y-17609143D01*
X5975571Y-17609143D01*
X5994619Y-17618667D01*
X6004143Y-17637714D01*
X6004143Y-17742476D01*
X6004143Y-17637714D02*
X6013667Y-17618667D01*
X6032714Y-17609143D01*
X6061286Y-17609143D01*
X6080333Y-17618667D01*
X6089857Y-17637714D01*
X6089857Y-17742476D01*
X6480333Y-17532952D02*
X6308905Y-17790095D01*
X6737476Y-17542476D02*
X6756524Y-17542476D01*
X6775571Y-17552000D01*
X6785095Y-17561524D01*
X6794619Y-17580571D01*
X6804143Y-17618667D01*
X6804143Y-17666286D01*
X6794619Y-17704381D01*
X6785095Y-17723429D01*
X6775571Y-17732952D01*
X6756524Y-17742476D01*
X6737476Y-17742476D01*
X6718428Y-17732952D01*
X6708905Y-17723429D01*
X6699381Y-17704381D01*
X6689857Y-17666286D01*
X6689857Y-17618667D01*
X6699381Y-17580571D01*
X6708905Y-17561524D01*
X6718428Y-17552000D01*
X6737476Y-17542476D01*
X6889857Y-17723429D02*
X6899381Y-17732952D01*
X6889857Y-17742476D01*
X6880333Y-17732952D01*
X6889857Y-17723429D01*
X6889857Y-17742476D01*
X7023190Y-17542476D02*
X7042238Y-17542476D01*
X7061286Y-17552000D01*
X7070809Y-17561524D01*
X7080333Y-17580571D01*
X7089857Y-17618667D01*
X7089857Y-17666286D01*
X7080333Y-17704381D01*
X7070809Y-17723429D01*
X7061286Y-17732952D01*
X7042238Y-17742476D01*
X7023190Y-17742476D01*
X7004143Y-17732952D01*
X6994619Y-17723429D01*
X6985095Y-17704381D01*
X6975571Y-17666286D01*
X6975571Y-17618667D01*
X6985095Y-17580571D01*
X6994619Y-17561524D01*
X7004143Y-17552000D01*
X7023190Y-17542476D01*
X7280333Y-17742476D02*
X7166048Y-17742476D01*
X7223190Y-17742476D02*
X7223190Y-17542476D01*
X7204143Y-17571048D01*
X7185095Y-17590095D01*
X7166048Y-17599619D01*
X7461286Y-17542476D02*
X7366048Y-17542476D01*
X7356524Y-17637714D01*
X7366048Y-17628190D01*
X7385095Y-17618667D01*
X7432714Y-17618667D01*
X7451762Y-17628190D01*
X7461286Y-17637714D01*
X7470809Y-17656762D01*
X7470809Y-17704381D01*
X7461286Y-17723429D01*
X7451762Y-17732952D01*
X7432714Y-17742476D01*
X7385095Y-17742476D01*
X7366048Y-17732952D01*
X7356524Y-17723429D01*
X7537476Y-17542476D02*
X7670809Y-17542476D01*
X7585095Y-17742476D01*
X7737476Y-17542476D02*
X7737476Y-17580571D01*
X7813667Y-17542476D02*
X7813667Y-17580571D01*
X8108905Y-17818667D02*
X8099381Y-17809143D01*
X8080333Y-17780571D01*
X8070809Y-17761524D01*
X8061286Y-17732952D01*
X8051762Y-17685333D01*
X8051762Y-17647238D01*
X8061286Y-17599619D01*
X8070809Y-17571048D01*
X8080333Y-17552000D01*
X8099381Y-17523429D01*
X8108905Y-17513905D01*
X8175571Y-17561524D02*
X8185095Y-17552000D01*
X8204143Y-17542476D01*
X8251762Y-17542476D01*
X8270809Y-17552000D01*
X8280333Y-17561524D01*
X8289857Y-17580571D01*
X8289857Y-17599619D01*
X8280333Y-17628190D01*
X8166048Y-17742476D01*
X8289857Y-17742476D01*
X8404143Y-17628190D02*
X8385095Y-17618667D01*
X8375571Y-17609143D01*
X8366048Y-17590095D01*
X8366048Y-17580571D01*
X8375571Y-17561524D01*
X8385095Y-17552000D01*
X8404143Y-17542476D01*
X8442238Y-17542476D01*
X8461286Y-17552000D01*
X8470810Y-17561524D01*
X8480333Y-17580571D01*
X8480333Y-17590095D01*
X8470810Y-17609143D01*
X8461286Y-17618667D01*
X8442238Y-17628190D01*
X8404143Y-17628190D01*
X8385095Y-17637714D01*
X8375571Y-17647238D01*
X8366048Y-17666286D01*
X8366048Y-17704381D01*
X8375571Y-17723429D01*
X8385095Y-17732952D01*
X8404143Y-17742476D01*
X8442238Y-17742476D01*
X8461286Y-17732952D01*
X8470810Y-17723429D01*
X8480333Y-17704381D01*
X8480333Y-17666286D01*
X8470810Y-17647238D01*
X8461286Y-17637714D01*
X8442238Y-17628190D01*
X8651762Y-17609143D02*
X8651762Y-17742476D01*
X8604143Y-17532952D02*
X8556524Y-17675810D01*
X8680333Y-17675810D01*
X8908905Y-17742476D02*
X8908905Y-17542476D01*
X8994619Y-17742476D02*
X8994619Y-17637714D01*
X8985095Y-17618667D01*
X8966048Y-17609143D01*
X8937476Y-17609143D01*
X8918429Y-17618667D01*
X8908905Y-17628190D01*
X9118429Y-17742476D02*
X9099381Y-17732952D01*
X9089857Y-17723429D01*
X9080333Y-17704381D01*
X9080333Y-17647238D01*
X9089857Y-17628190D01*
X9099381Y-17618667D01*
X9118429Y-17609143D01*
X9147000Y-17609143D01*
X9166048Y-17618667D01*
X9175571Y-17628190D01*
X9185095Y-17647238D01*
X9185095Y-17704381D01*
X9175571Y-17723429D01*
X9166048Y-17732952D01*
X9147000Y-17742476D01*
X9118429Y-17742476D01*
X9299381Y-17742476D02*
X9280333Y-17732952D01*
X9270810Y-17713905D01*
X9270810Y-17542476D01*
X9451762Y-17732952D02*
X9432714Y-17742476D01*
X9394619Y-17742476D01*
X9375571Y-17732952D01*
X9366048Y-17713905D01*
X9366048Y-17637714D01*
X9375571Y-17618667D01*
X9394619Y-17609143D01*
X9432714Y-17609143D01*
X9451762Y-17618667D01*
X9461286Y-17637714D01*
X9461286Y-17656762D01*
X9366048Y-17675810D01*
X9537476Y-17732952D02*
X9556524Y-17742476D01*
X9594619Y-17742476D01*
X9613667Y-17732952D01*
X9623190Y-17713905D01*
X9623190Y-17704381D01*
X9613667Y-17685333D01*
X9594619Y-17675810D01*
X9566048Y-17675810D01*
X9547000Y-17666286D01*
X9537476Y-17647238D01*
X9537476Y-17637714D01*
X9547000Y-17618667D01*
X9566048Y-17609143D01*
X9594619Y-17609143D01*
X9613667Y-17618667D01*
X9689857Y-17818667D02*
X9699381Y-17809143D01*
X9718429Y-17780571D01*
X9727952Y-17761524D01*
X9737476Y-17732952D01*
X9747000Y-17685333D01*
X9747000Y-17647238D01*
X9737476Y-17599619D01*
X9727952Y-17571048D01*
X9718429Y-17552000D01*
X9699381Y-17523429D01*
X9689857Y-17513905D01*
D13*
X4537000Y-17916000D02*
G75*
G03*
X4537000Y-17916000I-38100J0D01*
G01*
D11*
X4832714Y-17806476D02*
X4851762Y-17806476D01*
X4870810Y-17816000D01*
X4880333Y-17825524D01*
X4889857Y-17844571D01*
X4899381Y-17882667D01*
X4899381Y-17930286D01*
X4889857Y-17968381D01*
X4880333Y-17987429D01*
X4870810Y-17996952D01*
X4851762Y-18006476D01*
X4832714Y-18006476D01*
X4813667Y-17996952D01*
X4804143Y-17987429D01*
X4794619Y-17968381D01*
X4785095Y-17930286D01*
X4785095Y-17882667D01*
X4794619Y-17844571D01*
X4804143Y-17825524D01*
X4813667Y-17816000D01*
X4832714Y-17806476D01*
X4985095Y-17987429D02*
X4994619Y-17996952D01*
X4985095Y-18006476D01*
X4975571Y-17996952D01*
X4985095Y-17987429D01*
X4985095Y-18006476D01*
X5061286Y-17806476D02*
X5194619Y-17806476D01*
X5108905Y-18006476D01*
X5356524Y-17806476D02*
X5318429Y-17806476D01*
X5299381Y-17816000D01*
X5289857Y-17825524D01*
X5270810Y-17854095D01*
X5261286Y-17892190D01*
X5261286Y-17968381D01*
X5270810Y-17987429D01*
X5280333Y-17996952D01*
X5299381Y-18006476D01*
X5337476Y-18006476D01*
X5356524Y-17996952D01*
X5366048Y-17987429D01*
X5375571Y-17968381D01*
X5375571Y-17920762D01*
X5366048Y-17901714D01*
X5356524Y-17892190D01*
X5337476Y-17882667D01*
X5299381Y-17882667D01*
X5280333Y-17892190D01*
X5270810Y-17901714D01*
X5261286Y-17920762D01*
X5451762Y-17825524D02*
X5461286Y-17816000D01*
X5480333Y-17806476D01*
X5527952Y-17806476D01*
X5547000Y-17816000D01*
X5556524Y-17825524D01*
X5566048Y-17844571D01*
X5566048Y-17863619D01*
X5556524Y-17892190D01*
X5442238Y-18006476D01*
X5566048Y-18006476D01*
X5651762Y-18006476D02*
X5651762Y-17873143D01*
X5651762Y-17892190D02*
X5661286Y-17882667D01*
X5680333Y-17873143D01*
X5708905Y-17873143D01*
X5727952Y-17882667D01*
X5737476Y-17901714D01*
X5737476Y-18006476D01*
X5737476Y-17901714D02*
X5747000Y-17882667D01*
X5766048Y-17873143D01*
X5794619Y-17873143D01*
X5813667Y-17882667D01*
X5823190Y-17901714D01*
X5823190Y-18006476D01*
X5918428Y-18006476D02*
X5918428Y-17873143D01*
X5918428Y-17892190D02*
X5927952Y-17882667D01*
X5947000Y-17873143D01*
X5975571Y-17873143D01*
X5994619Y-17882667D01*
X6004143Y-17901714D01*
X6004143Y-18006476D01*
X6004143Y-17901714D02*
X6013667Y-17882667D01*
X6032714Y-17873143D01*
X6061286Y-17873143D01*
X6080333Y-17882667D01*
X6089857Y-17901714D01*
X6089857Y-18006476D01*
X6480333Y-17796952D02*
X6308905Y-18054095D01*
X6737476Y-17806476D02*
X6756524Y-17806476D01*
X6775571Y-17816000D01*
X6785095Y-17825524D01*
X6794619Y-17844571D01*
X6804143Y-17882667D01*
X6804143Y-17930286D01*
X6794619Y-17968381D01*
X6785095Y-17987429D01*
X6775571Y-17996952D01*
X6756524Y-18006476D01*
X6737476Y-18006476D01*
X6718428Y-17996952D01*
X6708905Y-17987429D01*
X6699381Y-17968381D01*
X6689857Y-17930286D01*
X6689857Y-17882667D01*
X6699381Y-17844571D01*
X6708905Y-17825524D01*
X6718428Y-17816000D01*
X6737476Y-17806476D01*
X6889857Y-17987429D02*
X6899381Y-17996952D01*
X6889857Y-18006476D01*
X6880333Y-17996952D01*
X6889857Y-17987429D01*
X6889857Y-18006476D01*
X7023190Y-17806476D02*
X7042238Y-17806476D01*
X7061286Y-17816000D01*
X7070809Y-17825524D01*
X7080333Y-17844571D01*
X7089857Y-17882667D01*
X7089857Y-17930286D01*
X7080333Y-17968381D01*
X7070809Y-17987429D01*
X7061286Y-17996952D01*
X7042238Y-18006476D01*
X7023190Y-18006476D01*
X7004143Y-17996952D01*
X6994619Y-17987429D01*
X6985095Y-17968381D01*
X6975571Y-17930286D01*
X6975571Y-17882667D01*
X6985095Y-17844571D01*
X6994619Y-17825524D01*
X7004143Y-17816000D01*
X7023190Y-17806476D01*
X7156524Y-17806476D02*
X7280333Y-17806476D01*
X7213667Y-17882667D01*
X7242238Y-17882667D01*
X7261286Y-17892190D01*
X7270809Y-17901714D01*
X7280333Y-17920762D01*
X7280333Y-17968381D01*
X7270809Y-17987429D01*
X7261286Y-17996952D01*
X7242238Y-18006476D01*
X7185095Y-18006476D01*
X7166048Y-17996952D01*
X7156524Y-17987429D01*
X7404143Y-17806476D02*
X7423190Y-17806476D01*
X7442238Y-17816000D01*
X7451762Y-17825524D01*
X7461286Y-17844571D01*
X7470809Y-17882667D01*
X7470809Y-17930286D01*
X7461286Y-17968381D01*
X7451762Y-17987429D01*
X7442238Y-17996952D01*
X7423190Y-18006476D01*
X7404143Y-18006476D01*
X7385095Y-17996952D01*
X7375571Y-17987429D01*
X7366048Y-17968381D01*
X7356524Y-17930286D01*
X7356524Y-17882667D01*
X7366048Y-17844571D01*
X7375571Y-17825524D01*
X7385095Y-17816000D01*
X7404143Y-17806476D01*
X7594619Y-17806476D02*
X7613667Y-17806476D01*
X7632714Y-17816000D01*
X7642238Y-17825524D01*
X7651762Y-17844571D01*
X7661286Y-17882667D01*
X7661286Y-17930286D01*
X7651762Y-17968381D01*
X7642238Y-17987429D01*
X7632714Y-17996952D01*
X7613667Y-18006476D01*
X7594619Y-18006476D01*
X7575571Y-17996952D01*
X7566048Y-17987429D01*
X7556524Y-17968381D01*
X7547000Y-17930286D01*
X7547000Y-17882667D01*
X7556524Y-17844571D01*
X7566048Y-17825524D01*
X7575571Y-17816000D01*
X7594619Y-17806476D01*
X7737476Y-17806476D02*
X7737476Y-17844571D01*
X7813667Y-17806476D02*
X7813667Y-17844571D01*
X8108905Y-18082667D02*
X8099381Y-18073143D01*
X8080333Y-18044571D01*
X8070809Y-18025524D01*
X8061286Y-17996952D01*
X8051762Y-17949333D01*
X8051762Y-17911238D01*
X8061286Y-17863619D01*
X8070809Y-17835048D01*
X8080333Y-17816000D01*
X8099381Y-17787429D01*
X8108905Y-17777905D01*
X8280333Y-17806476D02*
X8185095Y-17806476D01*
X8175571Y-17901714D01*
X8185095Y-17892190D01*
X8204143Y-17882667D01*
X8251762Y-17882667D01*
X8270809Y-17892190D01*
X8280333Y-17901714D01*
X8289857Y-17920762D01*
X8289857Y-17968381D01*
X8280333Y-17987429D01*
X8270809Y-17996952D01*
X8251762Y-18006476D01*
X8204143Y-18006476D01*
X8185095Y-17996952D01*
X8175571Y-17987429D01*
X8461286Y-17806476D02*
X8423190Y-17806476D01*
X8404143Y-17816000D01*
X8394619Y-17825524D01*
X8375571Y-17854095D01*
X8366048Y-17892190D01*
X8366048Y-17968381D01*
X8375571Y-17987429D01*
X8385095Y-17996952D01*
X8404143Y-18006476D01*
X8442238Y-18006476D01*
X8461286Y-17996952D01*
X8470810Y-17987429D01*
X8480333Y-17968381D01*
X8480333Y-17920762D01*
X8470810Y-17901714D01*
X8461286Y-17892190D01*
X8442238Y-17882667D01*
X8404143Y-17882667D01*
X8385095Y-17892190D01*
X8375571Y-17901714D01*
X8366048Y-17920762D01*
X8718429Y-18006476D02*
X8718429Y-17806476D01*
X8804143Y-18006476D02*
X8804143Y-17901714D01*
X8794619Y-17882667D01*
X8775571Y-17873143D01*
X8747000Y-17873143D01*
X8727952Y-17882667D01*
X8718429Y-17892190D01*
X8927952Y-18006476D02*
X8908905Y-17996952D01*
X8899381Y-17987429D01*
X8889857Y-17968381D01*
X8889857Y-17911238D01*
X8899381Y-17892190D01*
X8908905Y-17882667D01*
X8927952Y-17873143D01*
X8956524Y-17873143D01*
X8975571Y-17882667D01*
X8985095Y-17892190D01*
X8994619Y-17911238D01*
X8994619Y-17968381D01*
X8985095Y-17987429D01*
X8975571Y-17996952D01*
X8956524Y-18006476D01*
X8927952Y-18006476D01*
X9108905Y-18006476D02*
X9089857Y-17996952D01*
X9080333Y-17977905D01*
X9080333Y-17806476D01*
X9261286Y-17996952D02*
X9242238Y-18006476D01*
X9204143Y-18006476D01*
X9185095Y-17996952D01*
X9175571Y-17977905D01*
X9175571Y-17901714D01*
X9185095Y-17882667D01*
X9204143Y-17873143D01*
X9242238Y-17873143D01*
X9261286Y-17882667D01*
X9270810Y-17901714D01*
X9270810Y-17920762D01*
X9175571Y-17939810D01*
X9347000Y-17996952D02*
X9366048Y-18006476D01*
X9404143Y-18006476D01*
X9423190Y-17996952D01*
X9432714Y-17977905D01*
X9432714Y-17968381D01*
X9423190Y-17949333D01*
X9404143Y-17939810D01*
X9375571Y-17939810D01*
X9356524Y-17930286D01*
X9347000Y-17911238D01*
X9347000Y-17901714D01*
X9356524Y-17882667D01*
X9375571Y-17873143D01*
X9404143Y-17873143D01*
X9423190Y-17882667D01*
X9499381Y-18082667D02*
X9508905Y-18073143D01*
X9527952Y-18044571D01*
X9537476Y-18025524D01*
X9547000Y-17996952D01*
X9556524Y-17949333D01*
X9556524Y-17911238D01*
X9547000Y-17863619D01*
X9537476Y-17835048D01*
X9527952Y-17816000D01*
X9508905Y-17787429D01*
X9499381Y-17777905D01*
D10*
X4487000Y-18130000D02*
X4487000Y-18230000D01*
X4437000Y-18180000D02*
X4537000Y-18180000D01*
D11*
X4899381Y-18270476D02*
X4785095Y-18270476D01*
X4842238Y-18270476D02*
X4842238Y-18070476D01*
X4823190Y-18099048D01*
X4804143Y-18118095D01*
X4785095Y-18127619D01*
X4985095Y-18251429D02*
X4994619Y-18260952D01*
X4985095Y-18270476D01*
X4975571Y-18260952D01*
X4985095Y-18251429D01*
X4985095Y-18270476D01*
X5118429Y-18070476D02*
X5137476Y-18070476D01*
X5156524Y-18080000D01*
X5166048Y-18089524D01*
X5175571Y-18108571D01*
X5185095Y-18146667D01*
X5185095Y-18194286D01*
X5175571Y-18232381D01*
X5166048Y-18251429D01*
X5156524Y-18260952D01*
X5137476Y-18270476D01*
X5118429Y-18270476D01*
X5099381Y-18260952D01*
X5089857Y-18251429D01*
X5080333Y-18232381D01*
X5070810Y-18194286D01*
X5070810Y-18146667D01*
X5080333Y-18108571D01*
X5089857Y-18089524D01*
X5099381Y-18080000D01*
X5118429Y-18070476D01*
X5308905Y-18070476D02*
X5327952Y-18070476D01*
X5347000Y-18080000D01*
X5356524Y-18089524D01*
X5366048Y-18108571D01*
X5375571Y-18146667D01*
X5375571Y-18194286D01*
X5366048Y-18232381D01*
X5356524Y-18251429D01*
X5347000Y-18260952D01*
X5327952Y-18270476D01*
X5308905Y-18270476D01*
X5289857Y-18260952D01*
X5280333Y-18251429D01*
X5270810Y-18232381D01*
X5261286Y-18194286D01*
X5261286Y-18146667D01*
X5270810Y-18108571D01*
X5280333Y-18089524D01*
X5289857Y-18080000D01*
X5308905Y-18070476D01*
X5499381Y-18070476D02*
X5518429Y-18070476D01*
X5537476Y-18080000D01*
X5547000Y-18089524D01*
X5556524Y-18108571D01*
X5566048Y-18146667D01*
X5566048Y-18194286D01*
X5556524Y-18232381D01*
X5547000Y-18251429D01*
X5537476Y-18260952D01*
X5518429Y-18270476D01*
X5499381Y-18270476D01*
X5480333Y-18260952D01*
X5470810Y-18251429D01*
X5461286Y-18232381D01*
X5451762Y-18194286D01*
X5451762Y-18146667D01*
X5461286Y-18108571D01*
X5470810Y-18089524D01*
X5480333Y-18080000D01*
X5499381Y-18070476D01*
X5651762Y-18270476D02*
X5651762Y-18137143D01*
X5651762Y-18156190D02*
X5661286Y-18146667D01*
X5680333Y-18137143D01*
X5708905Y-18137143D01*
X5727952Y-18146667D01*
X5737476Y-18165714D01*
X5737476Y-18270476D01*
X5737476Y-18165714D02*
X5747000Y-18146667D01*
X5766048Y-18137143D01*
X5794619Y-18137143D01*
X5813667Y-18146667D01*
X5823190Y-18165714D01*
X5823190Y-18270476D01*
X5918428Y-18270476D02*
X5918428Y-18137143D01*
X5918428Y-18156190D02*
X5927952Y-18146667D01*
X5947000Y-18137143D01*
X5975571Y-18137143D01*
X5994619Y-18146667D01*
X6004143Y-18165714D01*
X6004143Y-18270476D01*
X6004143Y-18165714D02*
X6013667Y-18146667D01*
X6032714Y-18137143D01*
X6061286Y-18137143D01*
X6080333Y-18146667D01*
X6089857Y-18165714D01*
X6089857Y-18270476D01*
X6480333Y-18060952D02*
X6308905Y-18318095D01*
X6737476Y-18070476D02*
X6756524Y-18070476D01*
X6775571Y-18080000D01*
X6785095Y-18089524D01*
X6794619Y-18108571D01*
X6804143Y-18146667D01*
X6804143Y-18194286D01*
X6794619Y-18232381D01*
X6785095Y-18251429D01*
X6775571Y-18260952D01*
X6756524Y-18270476D01*
X6737476Y-18270476D01*
X6718428Y-18260952D01*
X6708905Y-18251429D01*
X6699381Y-18232381D01*
X6689857Y-18194286D01*
X6689857Y-18146667D01*
X6699381Y-18108571D01*
X6708905Y-18089524D01*
X6718428Y-18080000D01*
X6737476Y-18070476D01*
X6889857Y-18251429D02*
X6899381Y-18260952D01*
X6889857Y-18270476D01*
X6880333Y-18260952D01*
X6889857Y-18251429D01*
X6889857Y-18270476D01*
X7023190Y-18070476D02*
X7042238Y-18070476D01*
X7061286Y-18080000D01*
X7070809Y-18089524D01*
X7080333Y-18108571D01*
X7089857Y-18146667D01*
X7089857Y-18194286D01*
X7080333Y-18232381D01*
X7070809Y-18251429D01*
X7061286Y-18260952D01*
X7042238Y-18270476D01*
X7023190Y-18270476D01*
X7004143Y-18260952D01*
X6994619Y-18251429D01*
X6985095Y-18232381D01*
X6975571Y-18194286D01*
X6975571Y-18146667D01*
X6985095Y-18108571D01*
X6994619Y-18089524D01*
X7004143Y-18080000D01*
X7023190Y-18070476D01*
X7156524Y-18070476D02*
X7280333Y-18070476D01*
X7213667Y-18146667D01*
X7242238Y-18146667D01*
X7261286Y-18156190D01*
X7270809Y-18165714D01*
X7280333Y-18184762D01*
X7280333Y-18232381D01*
X7270809Y-18251429D01*
X7261286Y-18260952D01*
X7242238Y-18270476D01*
X7185095Y-18270476D01*
X7166048Y-18260952D01*
X7156524Y-18251429D01*
X7375571Y-18270476D02*
X7413667Y-18270476D01*
X7432714Y-18260952D01*
X7442238Y-18251429D01*
X7461286Y-18222857D01*
X7470809Y-18184762D01*
X7470809Y-18108571D01*
X7461286Y-18089524D01*
X7451762Y-18080000D01*
X7432714Y-18070476D01*
X7394619Y-18070476D01*
X7375571Y-18080000D01*
X7366048Y-18089524D01*
X7356524Y-18108571D01*
X7356524Y-18156190D01*
X7366048Y-18175238D01*
X7375571Y-18184762D01*
X7394619Y-18194286D01*
X7432714Y-18194286D01*
X7451762Y-18184762D01*
X7461286Y-18175238D01*
X7470809Y-18156190D01*
X7642238Y-18137143D02*
X7642238Y-18270476D01*
X7594619Y-18060952D02*
X7547000Y-18203810D01*
X7670809Y-18203810D01*
X7737476Y-18070476D02*
X7737476Y-18108571D01*
X7813667Y-18070476D02*
X7813667Y-18108571D01*
X8108905Y-18346667D02*
X8099381Y-18337143D01*
X8080333Y-18308571D01*
X8070809Y-18289524D01*
X8061286Y-18260952D01*
X8051762Y-18213333D01*
X8051762Y-18175238D01*
X8061286Y-18127619D01*
X8070809Y-18099048D01*
X8080333Y-18080000D01*
X8099381Y-18051429D01*
X8108905Y-18041905D01*
X8166048Y-18070476D02*
X8289857Y-18070476D01*
X8223190Y-18146667D01*
X8251762Y-18146667D01*
X8270809Y-18156190D01*
X8280333Y-18165714D01*
X8289857Y-18184762D01*
X8289857Y-18232381D01*
X8280333Y-18251429D01*
X8270809Y-18260952D01*
X8251762Y-18270476D01*
X8194619Y-18270476D01*
X8175571Y-18260952D01*
X8166048Y-18251429D01*
X8461286Y-18070476D02*
X8423190Y-18070476D01*
X8404143Y-18080000D01*
X8394619Y-18089524D01*
X8375571Y-18118095D01*
X8366048Y-18156190D01*
X8366048Y-18232381D01*
X8375571Y-18251429D01*
X8385095Y-18260952D01*
X8404143Y-18270476D01*
X8442238Y-18270476D01*
X8461286Y-18260952D01*
X8470810Y-18251429D01*
X8480333Y-18232381D01*
X8480333Y-18184762D01*
X8470810Y-18165714D01*
X8461286Y-18156190D01*
X8442238Y-18146667D01*
X8404143Y-18146667D01*
X8385095Y-18156190D01*
X8375571Y-18165714D01*
X8366048Y-18184762D01*
X8718429Y-18270476D02*
X8718429Y-18070476D01*
X8804143Y-18270476D02*
X8804143Y-18165714D01*
X8794619Y-18146667D01*
X8775571Y-18137143D01*
X8747000Y-18137143D01*
X8727952Y-18146667D01*
X8718429Y-18156190D01*
X8927952Y-18270476D02*
X8908905Y-18260952D01*
X8899381Y-18251429D01*
X8889857Y-18232381D01*
X8889857Y-18175238D01*
X8899381Y-18156190D01*
X8908905Y-18146667D01*
X8927952Y-18137143D01*
X8956524Y-18137143D01*
X8975571Y-18146667D01*
X8985095Y-18156190D01*
X8994619Y-18175238D01*
X8994619Y-18232381D01*
X8985095Y-18251429D01*
X8975571Y-18260952D01*
X8956524Y-18270476D01*
X8927952Y-18270476D01*
X9108905Y-18270476D02*
X9089857Y-18260952D01*
X9080333Y-18241905D01*
X9080333Y-18070476D01*
X9261286Y-18260952D02*
X9242238Y-18270476D01*
X9204143Y-18270476D01*
X9185095Y-18260952D01*
X9175571Y-18241905D01*
X9175571Y-18165714D01*
X9185095Y-18146667D01*
X9204143Y-18137143D01*
X9242238Y-18137143D01*
X9261286Y-18146667D01*
X9270810Y-18165714D01*
X9270810Y-18184762D01*
X9175571Y-18203810D01*
X9347000Y-18260952D02*
X9366048Y-18270476D01*
X9404143Y-18270476D01*
X9423190Y-18260952D01*
X9432714Y-18241905D01*
X9432714Y-18232381D01*
X9423190Y-18213333D01*
X9404143Y-18203810D01*
X9375571Y-18203810D01*
X9356524Y-18194286D01*
X9347000Y-18175238D01*
X9347000Y-18165714D01*
X9356524Y-18146667D01*
X9375571Y-18137143D01*
X9404143Y-18137143D01*
X9423190Y-18146667D01*
X9499381Y-18346667D02*
X9508905Y-18337143D01*
X9527952Y-18308571D01*
X9537476Y-18289524D01*
X9547000Y-18260952D01*
X9556524Y-18213333D01*
X9556524Y-18175238D01*
X9547000Y-18127619D01*
X9537476Y-18099048D01*
X9527952Y-18080000D01*
X9508905Y-18051429D01*
X9499381Y-18041905D01*
D14*
X4522063Y-18480063D02*
X4522063Y-18407937D01*
X4449937Y-18407937D01*
X4449937Y-18480063D01*
X4522063Y-18480063D01*
D11*
X4899381Y-18534476D02*
X4785095Y-18534476D01*
X4842238Y-18534476D02*
X4842238Y-18334476D01*
X4823190Y-18363048D01*
X4804143Y-18382095D01*
X4785095Y-18391619D01*
X4985095Y-18515429D02*
X4994619Y-18524952D01*
X4985095Y-18534476D01*
X4975571Y-18524952D01*
X4985095Y-18515429D01*
X4985095Y-18534476D01*
X5118429Y-18334476D02*
X5137476Y-18334476D01*
X5156524Y-18344000D01*
X5166048Y-18353524D01*
X5175571Y-18372571D01*
X5185095Y-18410667D01*
X5185095Y-18458286D01*
X5175571Y-18496381D01*
X5166048Y-18515429D01*
X5156524Y-18524952D01*
X5137476Y-18534476D01*
X5118429Y-18534476D01*
X5099381Y-18524952D01*
X5089857Y-18515429D01*
X5080333Y-18496381D01*
X5070810Y-18458286D01*
X5070810Y-18410667D01*
X5080333Y-18372571D01*
X5089857Y-18353524D01*
X5099381Y-18344000D01*
X5118429Y-18334476D01*
X5261286Y-18353524D02*
X5270810Y-18344000D01*
X5289857Y-18334476D01*
X5337476Y-18334476D01*
X5356524Y-18344000D01*
X5366048Y-18353524D01*
X5375571Y-18372571D01*
X5375571Y-18391619D01*
X5366048Y-18420190D01*
X5251762Y-18534476D01*
X5375571Y-18534476D01*
X5499381Y-18334476D02*
X5518429Y-18334476D01*
X5537476Y-18344000D01*
X5547000Y-18353524D01*
X5556524Y-18372571D01*
X5566048Y-18410667D01*
X5566048Y-18458286D01*
X5556524Y-18496381D01*
X5547000Y-18515429D01*
X5537476Y-18524952D01*
X5518429Y-18534476D01*
X5499381Y-18534476D01*
X5480333Y-18524952D01*
X5470810Y-18515429D01*
X5461286Y-18496381D01*
X5451762Y-18458286D01*
X5451762Y-18410667D01*
X5461286Y-18372571D01*
X5470810Y-18353524D01*
X5480333Y-18344000D01*
X5499381Y-18334476D01*
X5651762Y-18534476D02*
X5651762Y-18401143D01*
X5651762Y-18420190D02*
X5661286Y-18410667D01*
X5680333Y-18401143D01*
X5708905Y-18401143D01*
X5727952Y-18410667D01*
X5737476Y-18429714D01*
X5737476Y-18534476D01*
X5737476Y-18429714D02*
X5747000Y-18410667D01*
X5766048Y-18401143D01*
X5794619Y-18401143D01*
X5813667Y-18410667D01*
X5823190Y-18429714D01*
X5823190Y-18534476D01*
X5918428Y-18534476D02*
X5918428Y-18401143D01*
X5918428Y-18420190D02*
X5927952Y-18410667D01*
X5947000Y-18401143D01*
X5975571Y-18401143D01*
X5994619Y-18410667D01*
X6004143Y-18429714D01*
X6004143Y-18534476D01*
X6004143Y-18429714D02*
X6013667Y-18410667D01*
X6032714Y-18401143D01*
X6061286Y-18401143D01*
X6080333Y-18410667D01*
X6089857Y-18429714D01*
X6089857Y-18534476D01*
X6480333Y-18324952D02*
X6308905Y-18582095D01*
X6737476Y-18334476D02*
X6756524Y-18334476D01*
X6775571Y-18344000D01*
X6785095Y-18353524D01*
X6794619Y-18372571D01*
X6804143Y-18410667D01*
X6804143Y-18458286D01*
X6794619Y-18496381D01*
X6785095Y-18515429D01*
X6775571Y-18524952D01*
X6756524Y-18534476D01*
X6737476Y-18534476D01*
X6718428Y-18524952D01*
X6708905Y-18515429D01*
X6699381Y-18496381D01*
X6689857Y-18458286D01*
X6689857Y-18410667D01*
X6699381Y-18372571D01*
X6708905Y-18353524D01*
X6718428Y-18344000D01*
X6737476Y-18334476D01*
X6889857Y-18515429D02*
X6899381Y-18524952D01*
X6889857Y-18534476D01*
X6880333Y-18524952D01*
X6889857Y-18515429D01*
X6889857Y-18534476D01*
X7023190Y-18334476D02*
X7042238Y-18334476D01*
X7061286Y-18344000D01*
X7070809Y-18353524D01*
X7080333Y-18372571D01*
X7089857Y-18410667D01*
X7089857Y-18458286D01*
X7080333Y-18496381D01*
X7070809Y-18515429D01*
X7061286Y-18524952D01*
X7042238Y-18534476D01*
X7023190Y-18534476D01*
X7004143Y-18524952D01*
X6994619Y-18515429D01*
X6985095Y-18496381D01*
X6975571Y-18458286D01*
X6975571Y-18410667D01*
X6985095Y-18372571D01*
X6994619Y-18353524D01*
X7004143Y-18344000D01*
X7023190Y-18334476D01*
X7261286Y-18401143D02*
X7261286Y-18534476D01*
X7213667Y-18324952D02*
X7166048Y-18467810D01*
X7289857Y-18467810D01*
X7404143Y-18334476D02*
X7423190Y-18334476D01*
X7442238Y-18344000D01*
X7451762Y-18353524D01*
X7461286Y-18372571D01*
X7470809Y-18410667D01*
X7470809Y-18458286D01*
X7461286Y-18496381D01*
X7451762Y-18515429D01*
X7442238Y-18524952D01*
X7423190Y-18534476D01*
X7404143Y-18534476D01*
X7385095Y-18524952D01*
X7375571Y-18515429D01*
X7366048Y-18496381D01*
X7356524Y-18458286D01*
X7356524Y-18410667D01*
X7366048Y-18372571D01*
X7375571Y-18353524D01*
X7385095Y-18344000D01*
X7404143Y-18334476D01*
X7547000Y-18353524D02*
X7556524Y-18344000D01*
X7575571Y-18334476D01*
X7623190Y-18334476D01*
X7642238Y-18344000D01*
X7651762Y-18353524D01*
X7661286Y-18372571D01*
X7661286Y-18391619D01*
X7651762Y-18420190D01*
X7537476Y-18534476D01*
X7661286Y-18534476D01*
X7737476Y-18334476D02*
X7737476Y-18372571D01*
X7813667Y-18334476D02*
X7813667Y-18372571D01*
X8108905Y-18610667D02*
X8099381Y-18601143D01*
X8080333Y-18572571D01*
X8070809Y-18553524D01*
X8061286Y-18524952D01*
X8051762Y-18477333D01*
X8051762Y-18439238D01*
X8061286Y-18391619D01*
X8070809Y-18363048D01*
X8080333Y-18344000D01*
X8099381Y-18315429D01*
X8108905Y-18305905D01*
X8289857Y-18534476D02*
X8175571Y-18534476D01*
X8232714Y-18534476D02*
X8232714Y-18334476D01*
X8213667Y-18363048D01*
X8194619Y-18382095D01*
X8175571Y-18391619D01*
X8366048Y-18353524D02*
X8375571Y-18344000D01*
X8394619Y-18334476D01*
X8442238Y-18334476D01*
X8461286Y-18344000D01*
X8470810Y-18353524D01*
X8480333Y-18372571D01*
X8480333Y-18391619D01*
X8470810Y-18420190D01*
X8356524Y-18534476D01*
X8480333Y-18534476D01*
X8575571Y-18534476D02*
X8613667Y-18534476D01*
X8632714Y-18524952D01*
X8642238Y-18515429D01*
X8661286Y-18486857D01*
X8670810Y-18448762D01*
X8670810Y-18372571D01*
X8661286Y-18353524D01*
X8651762Y-18344000D01*
X8632714Y-18334476D01*
X8594619Y-18334476D01*
X8575571Y-18344000D01*
X8566048Y-18353524D01*
X8556524Y-18372571D01*
X8556524Y-18420190D01*
X8566048Y-18439238D01*
X8575571Y-18448762D01*
X8594619Y-18458286D01*
X8632714Y-18458286D01*
X8651762Y-18448762D01*
X8661286Y-18439238D01*
X8670810Y-18420190D01*
X8908905Y-18534476D02*
X8908905Y-18334476D01*
X8994619Y-18534476D02*
X8994619Y-18429714D01*
X8985095Y-18410667D01*
X8966048Y-18401143D01*
X8937476Y-18401143D01*
X8918429Y-18410667D01*
X8908905Y-18420190D01*
X9118429Y-18534476D02*
X9099381Y-18524952D01*
X9089857Y-18515429D01*
X9080333Y-18496381D01*
X9080333Y-18439238D01*
X9089857Y-18420190D01*
X9099381Y-18410667D01*
X9118429Y-18401143D01*
X9147000Y-18401143D01*
X9166048Y-18410667D01*
X9175571Y-18420190D01*
X9185095Y-18439238D01*
X9185095Y-18496381D01*
X9175571Y-18515429D01*
X9166048Y-18524952D01*
X9147000Y-18534476D01*
X9118429Y-18534476D01*
X9299381Y-18534476D02*
X9280333Y-18524952D01*
X9270810Y-18505905D01*
X9270810Y-18334476D01*
X9451762Y-18524952D02*
X9432714Y-18534476D01*
X9394619Y-18534476D01*
X9375571Y-18524952D01*
X9366048Y-18505905D01*
X9366048Y-18429714D01*
X9375571Y-18410667D01*
X9394619Y-18401143D01*
X9432714Y-18401143D01*
X9451762Y-18410667D01*
X9461286Y-18429714D01*
X9461286Y-18448762D01*
X9366048Y-18467810D01*
X9537476Y-18524952D02*
X9556524Y-18534476D01*
X9594619Y-18534476D01*
X9613667Y-18524952D01*
X9623190Y-18505905D01*
X9623190Y-18496381D01*
X9613667Y-18477333D01*
X9594619Y-18467810D01*
X9566048Y-18467810D01*
X9547000Y-18458286D01*
X9537476Y-18439238D01*
X9537476Y-18429714D01*
X9547000Y-18410667D01*
X9566048Y-18401143D01*
X9594619Y-18401143D01*
X9613667Y-18410667D01*
X9689857Y-18610667D02*
X9699381Y-18601143D01*
X9718429Y-18572571D01*
X9727952Y-18553524D01*
X9737476Y-18524952D01*
X9747000Y-18477333D01*
X9747000Y-18439238D01*
X9737476Y-18391619D01*
X9727952Y-18363048D01*
X9718429Y-18344000D01*
X9699381Y-18315429D01*
X9689857Y-18305905D01*
D15*
X4472000Y-18773000D02*
X4537000Y-18708000D01*
X4472000Y-18643000D01*
X4407000Y-18708000D01*
X4472000Y-18773000D01*
D11*
X4899381Y-18798476D02*
X4785095Y-18798476D01*
X4842238Y-18798476D02*
X4842238Y-18598476D01*
X4823190Y-18627048D01*
X4804143Y-18646095D01*
X4785095Y-18655619D01*
X4985095Y-18779429D02*
X4994619Y-18788952D01*
X4985095Y-18798476D01*
X4975571Y-18788952D01*
X4985095Y-18779429D01*
X4985095Y-18798476D01*
X5061286Y-18598476D02*
X5185095Y-18598476D01*
X5118429Y-18674667D01*
X5147000Y-18674667D01*
X5166048Y-18684190D01*
X5175571Y-18693714D01*
X5185095Y-18712762D01*
X5185095Y-18760381D01*
X5175571Y-18779429D01*
X5166048Y-18788952D01*
X5147000Y-18798476D01*
X5089857Y-18798476D01*
X5070810Y-18788952D01*
X5061286Y-18779429D01*
X5308905Y-18598476D02*
X5327952Y-18598476D01*
X5347000Y-18608000D01*
X5356524Y-18617524D01*
X5366048Y-18636571D01*
X5375571Y-18674667D01*
X5375571Y-18722286D01*
X5366048Y-18760381D01*
X5356524Y-18779429D01*
X5347000Y-18788952D01*
X5327952Y-18798476D01*
X5308905Y-18798476D01*
X5289857Y-18788952D01*
X5280333Y-18779429D01*
X5270810Y-18760381D01*
X5261286Y-18722286D01*
X5261286Y-18674667D01*
X5270810Y-18636571D01*
X5280333Y-18617524D01*
X5289857Y-18608000D01*
X5308905Y-18598476D01*
X5499381Y-18598476D02*
X5518429Y-18598476D01*
X5537476Y-18608000D01*
X5547000Y-18617524D01*
X5556524Y-18636571D01*
X5566048Y-18674667D01*
X5566048Y-18722286D01*
X5556524Y-18760381D01*
X5547000Y-18779429D01*
X5537476Y-18788952D01*
X5518429Y-18798476D01*
X5499381Y-18798476D01*
X5480333Y-18788952D01*
X5470810Y-18779429D01*
X5461286Y-18760381D01*
X5451762Y-18722286D01*
X5451762Y-18674667D01*
X5461286Y-18636571D01*
X5470810Y-18617524D01*
X5480333Y-18608000D01*
X5499381Y-18598476D01*
X5651762Y-18798476D02*
X5651762Y-18665143D01*
X5651762Y-18684190D02*
X5661286Y-18674667D01*
X5680333Y-18665143D01*
X5708905Y-18665143D01*
X5727952Y-18674667D01*
X5737476Y-18693714D01*
X5737476Y-18798476D01*
X5737476Y-18693714D02*
X5747000Y-18674667D01*
X5766048Y-18665143D01*
X5794619Y-18665143D01*
X5813667Y-18674667D01*
X5823190Y-18693714D01*
X5823190Y-18798476D01*
X5918428Y-18798476D02*
X5918428Y-18665143D01*
X5918428Y-18684190D02*
X5927952Y-18674667D01*
X5947000Y-18665143D01*
X5975571Y-18665143D01*
X5994619Y-18674667D01*
X6004143Y-18693714D01*
X6004143Y-18798476D01*
X6004143Y-18693714D02*
X6013667Y-18674667D01*
X6032714Y-18665143D01*
X6061286Y-18665143D01*
X6080333Y-18674667D01*
X6089857Y-18693714D01*
X6089857Y-18798476D01*
X6480333Y-18588952D02*
X6308905Y-18846095D01*
X6737476Y-18598476D02*
X6756524Y-18598476D01*
X6775571Y-18608000D01*
X6785095Y-18617524D01*
X6794619Y-18636571D01*
X6804143Y-18674667D01*
X6804143Y-18722286D01*
X6794619Y-18760381D01*
X6785095Y-18779429D01*
X6775571Y-18788952D01*
X6756524Y-18798476D01*
X6737476Y-18798476D01*
X6718428Y-18788952D01*
X6708905Y-18779429D01*
X6699381Y-18760381D01*
X6689857Y-18722286D01*
X6689857Y-18674667D01*
X6699381Y-18636571D01*
X6708905Y-18617524D01*
X6718428Y-18608000D01*
X6737476Y-18598476D01*
X6889857Y-18779429D02*
X6899381Y-18788952D01*
X6889857Y-18798476D01*
X6880333Y-18788952D01*
X6889857Y-18779429D01*
X6889857Y-18798476D01*
X7023190Y-18598476D02*
X7042238Y-18598476D01*
X7061286Y-18608000D01*
X7070809Y-18617524D01*
X7080333Y-18636571D01*
X7089857Y-18674667D01*
X7089857Y-18722286D01*
X7080333Y-18760381D01*
X7070809Y-18779429D01*
X7061286Y-18788952D01*
X7042238Y-18798476D01*
X7023190Y-18798476D01*
X7004143Y-18788952D01*
X6994619Y-18779429D01*
X6985095Y-18760381D01*
X6975571Y-18722286D01*
X6975571Y-18674667D01*
X6985095Y-18636571D01*
X6994619Y-18617524D01*
X7004143Y-18608000D01*
X7023190Y-18598476D01*
X7270809Y-18598476D02*
X7175571Y-18598476D01*
X7166048Y-18693714D01*
X7175571Y-18684190D01*
X7194619Y-18674667D01*
X7242238Y-18674667D01*
X7261286Y-18684190D01*
X7270809Y-18693714D01*
X7280333Y-18712762D01*
X7280333Y-18760381D01*
X7270809Y-18779429D01*
X7261286Y-18788952D01*
X7242238Y-18798476D01*
X7194619Y-18798476D01*
X7175571Y-18788952D01*
X7166048Y-18779429D01*
X7470809Y-18798476D02*
X7356524Y-18798476D01*
X7413667Y-18798476D02*
X7413667Y-18598476D01*
X7394619Y-18627048D01*
X7375571Y-18646095D01*
X7356524Y-18655619D01*
X7547000Y-18617524D02*
X7556524Y-18608000D01*
X7575571Y-18598476D01*
X7623190Y-18598476D01*
X7642238Y-18608000D01*
X7651762Y-18617524D01*
X7661286Y-18636571D01*
X7661286Y-18655619D01*
X7651762Y-18684190D01*
X7537476Y-18798476D01*
X7661286Y-18798476D01*
X7737476Y-18598476D02*
X7737476Y-18636571D01*
X7813667Y-18598476D02*
X7813667Y-18636571D01*
X8108905Y-18874667D02*
X8099381Y-18865143D01*
X8080333Y-18836571D01*
X8070809Y-18817524D01*
X8061286Y-18788952D01*
X8051762Y-18741333D01*
X8051762Y-18703238D01*
X8061286Y-18655619D01*
X8070809Y-18627048D01*
X8080333Y-18608000D01*
X8099381Y-18579429D01*
X8108905Y-18569905D01*
X8270809Y-18665143D02*
X8270809Y-18798476D01*
X8223190Y-18588952D02*
X8175571Y-18731810D01*
X8299381Y-18731810D01*
X8527952Y-18798476D02*
X8527952Y-18598476D01*
X8613667Y-18798476D02*
X8613667Y-18693714D01*
X8604143Y-18674667D01*
X8585095Y-18665143D01*
X8556524Y-18665143D01*
X8537476Y-18674667D01*
X8527952Y-18684190D01*
X8737476Y-18798476D02*
X8718429Y-18788952D01*
X8708905Y-18779429D01*
X8699381Y-18760381D01*
X8699381Y-18703238D01*
X8708905Y-18684190D01*
X8718429Y-18674667D01*
X8737476Y-18665143D01*
X8766048Y-18665143D01*
X8785095Y-18674667D01*
X8794619Y-18684190D01*
X8804143Y-18703238D01*
X8804143Y-18760381D01*
X8794619Y-18779429D01*
X8785095Y-18788952D01*
X8766048Y-18798476D01*
X8737476Y-18798476D01*
X8918429Y-18798476D02*
X8899381Y-18788952D01*
X8889857Y-18769905D01*
X8889857Y-18598476D01*
X9070810Y-18788952D02*
X9051762Y-18798476D01*
X9013667Y-18798476D01*
X8994619Y-18788952D01*
X8985095Y-18769905D01*
X8985095Y-18693714D01*
X8994619Y-18674667D01*
X9013667Y-18665143D01*
X9051762Y-18665143D01*
X9070810Y-18674667D01*
X9080333Y-18693714D01*
X9080333Y-18712762D01*
X8985095Y-18731810D01*
X9156524Y-18788952D02*
X9175571Y-18798476D01*
X9213667Y-18798476D01*
X9232714Y-18788952D01*
X9242238Y-18769905D01*
X9242238Y-18760381D01*
X9232714Y-18741333D01*
X9213667Y-18731810D01*
X9185095Y-18731810D01*
X9166048Y-18722286D01*
X9156524Y-18703238D01*
X9156524Y-18693714D01*
X9166048Y-18674667D01*
X9185095Y-18665143D01*
X9213667Y-18665143D01*
X9232714Y-18674667D01*
X9308905Y-18874667D02*
X9318429Y-18865143D01*
X9337476Y-18836571D01*
X9347000Y-18817524D01*
X9356524Y-18788952D01*
X9366048Y-18741333D01*
X9366048Y-18703238D01*
X9356524Y-18655619D01*
X9347000Y-18627048D01*
X9337476Y-18608000D01*
X9318429Y-18579429D01*
X9308905Y-18569905D01*
M02*
