M48
; DRILL file {KiCad 6.0.11-2627ca5db0~126~ubuntu22.04.1} date Sun 12 Feb 2023 16:42:35 GMT
; FORMAT={-:-/ absolute / metric / decimal}
; #@! TF.CreationDate,2023-02-12T16:42:35+00:00
; #@! TF.GenerationSoftware,Kicad,Pcbnew,6.0.11-2627ca5db0~126~ubuntu22.04.1
; #@! TF.FileFunction,Plated,1,2,PTH
FMAT,2
METRIC
; #@! TA.AperFunction,Plated,PTH,ViaDrill
T1C0.400
; #@! TA.AperFunction,Plated,PTH,ComponentDrill
T2C0.762
; #@! TA.AperFunction,Plated,PTH,ComponentDrill
T3C1.000
; #@! TA.AperFunction,Plated,PTH,ComponentDrill
T4C1.020
%
G90
G05
T1
X52.03Y-111.6
X52.22Y-116.04
X53.45Y-113.85
X57.84Y-143.463
X57.84Y-153.26
X58.06Y-135.93
X58.07Y-124.09
X58.07Y-154.46
X58.09Y-157.57
X59.07Y-111.37
X59.07Y-116.44
X59.24Y-134.75
X59.3Y-121.68
X59.63Y-152.09
X59.66Y-156.35
X60.15Y-107.51
X60.28Y-101.07
X60.43Y-127.51
X60.43Y-139.87
X60.87Y-154.99
X60.88Y-149.52
X61.18Y-134.87
X61.2Y-98.6
X62.07Y-97.42
X62.09Y-134.15
X62.29Y-153.76
X62.32Y-146.84
X63.08Y-102.32
X63.08Y-110.05
X64.39Y-112.62
X64.44Y-103.58
X66.36Y-107.35
X66.39Y-115.15
X67.73Y-104.84
X67.76Y-117.69
X69.56Y-106.12
X69.6Y-120.18
X71.4Y-108.66
X71.49Y-122.78
X73.58Y-142.55
X73.7Y-167.47
X75.09Y-96.23
X75.39Y-122.06
X75.43Y-165.33
X75.44Y-134.25
X76.59Y-94.9
X76.91Y-120.8
X78.02Y-119.55
X78.05Y-127.59
X78.2Y-166.47
X78.35Y-99.92
X78.41Y-109.93
X79.13Y-132.92
X79.19Y-123.18
X80.39Y-119.55
X80.55Y-96.07
X80.89Y-133.9
X80.905Y-128.435
X81.45Y-163.93
X81.47Y-144.08
X81.53Y-99.75
X81.57Y-111.21
X88.19Y-149.18
X88.38Y-129.57
X88.47Y-127.28
X88.825Y-101.035
X89.62Y-127.65
X89.706Y-124.68
X90.68Y-119.53
X90.69Y-99.82
X91.15Y-133.93
X91.866Y-147.594
X93.11Y-173.45
X93.93Y-153.77
X94.176Y-147.594
X94.56Y-94.85
X94.66Y-117.8
X94.72Y-121.6
X104.06Y-155.05
X105.0Y-156.12
X105.9Y-157.56
X106.91Y-158.83
X107.24Y-135.77
X107.25Y-122.3
X107.3Y-133.47
X107.5Y-101.86
X107.59Y-105.37
X107.974Y-136.69
X108.18Y-119.64
X108.18Y-132.856
X108.699Y-138.85
X108.76Y-104.11
X108.8Y-99.31
X109.12Y-127.84
X109.32Y-114.7
X109.55Y-140.86
X110.38Y-145.1
X110.4Y-150.65
X110.99Y-125.28
X111.55Y-112.21
X112.04Y-122.26
X112.07Y-135.669
X112.17Y-173.51
X112.2Y-109.57
X112.2Y-121.12
X113.87Y-138.88
X113.89Y-107.06
X113.89Y-132.43
X113.91Y-145.56
X113.96Y-139.99
X114.06Y-117.92
X115.17Y-105.41
X115.25Y-113.07
X116.03Y-156.743
X116.33Y-134.95
X116.34Y-142.53
X116.94Y-104.2
X117.03Y-108.01
X117.22Y-140.81
X117.44Y-134.97
X117.48Y-156.807
X118.19Y-114.63
X118.21Y-151.62
X118.9Y-96.35
X118.9Y-109.48
X118.91Y-171.53
X118.93Y-156.87
X119.12Y-136.41
X119.15Y-127.35
X119.26Y-137.5
X119.373Y-147.147
X120.37Y-156.86
X124.46Y-74.24
X124.56Y-65.72
X126.68Y-108.14
X126.77Y-112.12
X127.11Y-65.72
X127.13Y-134.95
X127.13Y-144.36
X127.16Y-76.84
X127.77Y-101.89
X127.8Y-107.63
X127.82Y-94.56
X128.08Y-133.75
X128.14Y-135.41
X129.35Y-93.43
X129.63Y-156.66
X129.65Y-101.73
X129.7Y-65.78
X129.76Y-78.14
X130.03Y-161.32
X130.95Y-109.59
X130.99Y-160.06
X131.96Y-162.59
X131.964Y-137.98
X132.04Y-122.26
X132.13Y-123.89
X133.02Y-165.11
X133.03Y-145.6
X133.16Y-98.45
X133.21Y-109.49
X133.78Y-163.87
X133.79Y-140.62
X134.77Y-91.75
X134.85Y-96.23
X136.32Y-90.35
X136.41Y-99.57
X137.45Y-88.14
X137.62Y-97.36
X138.58Y-155.75
X138.7Y-123.83
X138.74Y-102.82
X138.77Y-135.41
X138.79Y-86.8
X139.46Y-144.43
X139.49Y-148.1
X139.62Y-109.54
X139.78Y-85.5
X139.79Y-122.78
X139.87Y-95.11
X140.35Y-134.23
X140.4Y-145.57
X140.99Y-85.35
X140.99Y-98.41
X141.51Y-126.43
X141.55Y-140.53
X142.39Y-87.63
X142.39Y-93.61
X143.32Y-100.64
X143.86Y-105.34
X143.9Y-90.43
X147.5Y-85.33
X147.52Y-87.63
X150.7Y-160.72
X151.525Y-158.295
X152.1Y-60.53
X152.17Y-64.71
X152.39Y-107.59
X152.47Y-115.16
X153.2Y-59.75
X153.25Y-67.42
X154.36Y-87.98
X154.985Y-79.725
X155.05Y-62.36
X157.05Y-105.9
T2
X50.39Y-94.84
X50.39Y-97.38
X50.39Y-99.92
X50.39Y-102.46
X50.39Y-105.0
X50.39Y-107.54
X50.39Y-110.08
X50.39Y-112.62
X50.39Y-115.16
X50.39Y-117.7
X50.39Y-120.24
X50.39Y-122.78
X50.39Y-125.32
X50.39Y-127.86
X50.39Y-130.4
X50.39Y-132.94
X50.39Y-135.48
X50.39Y-138.02
X50.39Y-140.56
X50.39Y-143.1
X50.39Y-145.64
X50.39Y-148.18
X50.39Y-150.72
X50.39Y-153.26
X50.39Y-155.8
X50.39Y-158.34
X50.39Y-160.88
X50.39Y-163.42
X55.39Y-94.84
X55.39Y-97.38
X55.39Y-99.92
X55.39Y-102.46
X55.39Y-105.0
X55.39Y-107.54
X55.39Y-110.08
X55.39Y-112.62
X55.39Y-115.16
X55.39Y-117.7
X55.39Y-120.24
X55.39Y-122.78
X55.39Y-125.32
X55.39Y-127.86
X55.39Y-130.4
X55.39Y-132.94
X55.39Y-135.48
X55.39Y-138.02
X55.39Y-140.56
X55.39Y-143.1
X55.39Y-145.64
X55.39Y-148.18
X55.39Y-150.72
X55.39Y-153.26
X55.39Y-155.8
X55.39Y-158.34
X55.39Y-160.88
X55.39Y-163.42
T3
X79.19Y-170.96
X79.19Y-173.5
X81.73Y-170.96
X81.73Y-173.5
X84.27Y-170.96
X84.27Y-173.5
X84.68Y-79.96
X84.68Y-82.5
X84.68Y-89.97
X84.68Y-92.51
X84.72Y-85.05
X84.72Y-87.59
X86.81Y-170.96
X86.81Y-173.5
X87.22Y-79.96
X87.22Y-82.5
X87.22Y-89.97
X87.22Y-92.51
X87.26Y-85.05
X87.26Y-87.59
X88.38Y-114.94
X89.35Y-170.96
X89.35Y-173.5
X89.76Y-79.96
X89.76Y-82.5
X89.76Y-89.97
X89.76Y-92.51
X89.8Y-85.05
X89.8Y-87.59
X92.3Y-79.96
X92.3Y-82.5
X92.3Y-89.97
X92.3Y-92.51
X92.34Y-85.05
X92.34Y-87.59
X94.84Y-79.96
X94.84Y-82.5
X94.84Y-89.97
X94.84Y-92.51
X94.88Y-85.05
X94.88Y-87.59
X95.25Y-70.3
X95.25Y-72.84
X95.25Y-75.38
X111.335Y-154.15
X113.875Y-154.15
X116.415Y-154.15
X132.85Y-167.71
X133.02Y-170.77
X133.02Y-173.31
X135.56Y-170.77
X135.56Y-173.31
X136.01Y-167.68
X138.1Y-170.77
X138.1Y-173.31
X138.94Y-167.77
X140.64Y-170.77
X140.64Y-173.31
X143.18Y-170.77
X143.18Y-173.31
X143.21Y-166.34
X145.75Y-166.34
X148.29Y-166.34
X149.75Y-170.72
X149.75Y-173.26
X152.22Y-167.85
X152.28Y-164.87
X152.29Y-170.72
X152.29Y-173.26
X154.83Y-170.72
X154.83Y-173.26
X157.37Y-170.72
X157.37Y-173.26
X157.59Y-59.8
X157.59Y-62.34
X157.59Y-64.88
X157.59Y-67.42
X157.59Y-74.26
X157.59Y-76.8
X157.59Y-79.34
X157.59Y-81.88
X157.59Y-84.42
X158.26Y-164.77
X159.09Y-108.49
X159.91Y-170.72
X159.91Y-173.26
T4
X101.725Y-63.96
X101.725Y-81.74
X101.955Y-70.31
X101.955Y-72.85
X101.955Y-75.39
X104.265Y-63.96
X104.265Y-81.74
X105.3Y-99.385
X105.3Y-101.925
X105.3Y-104.465
X105.3Y-107.005
X105.3Y-109.545
X105.3Y-112.085
X105.3Y-114.625
X105.3Y-117.165
X105.3Y-119.705
X105.3Y-122.245
X105.3Y-124.785
X105.3Y-127.325
X105.3Y-129.865
X105.3Y-132.405
X105.3Y-134.945
X105.3Y-137.485
X105.3Y-140.025
X105.3Y-142.565
X105.3Y-145.105
X105.3Y-147.645
X106.805Y-63.96
X106.805Y-81.74
X109.345Y-63.96
X109.345Y-81.74
X111.65Y-147.415
X111.885Y-63.96
X111.885Y-81.74
X114.19Y-147.415
X114.425Y-63.96
X114.425Y-81.74
X116.73Y-147.415
X116.965Y-63.96
X116.965Y-81.74
X119.505Y-63.96
X119.505Y-81.74
X122.045Y-63.96
X122.045Y-81.74
X123.08Y-99.385
X123.08Y-101.925
X123.08Y-104.465
X123.08Y-107.005
X123.08Y-109.545
X123.08Y-112.085
X123.08Y-114.625
X123.08Y-117.165
X123.08Y-119.705
X123.08Y-122.245
X123.08Y-124.785
X123.08Y-127.325
X123.08Y-129.865
X123.08Y-132.405
X123.08Y-134.945
X123.08Y-137.485
X123.08Y-140.025
X123.08Y-142.565
X123.08Y-145.105
X123.08Y-147.645
X124.585Y-63.96
X124.585Y-81.74
X127.125Y-63.96
X127.125Y-81.74
X129.665Y-63.96
X129.665Y-81.74
X132.205Y-63.96
X132.205Y-81.74
X134.745Y-63.96
X134.745Y-81.74
X136.82Y-112.575
X136.82Y-115.115
X136.82Y-117.655
X136.82Y-120.195
X136.82Y-122.735
X136.82Y-125.275
X136.82Y-127.815
X136.82Y-130.355
X136.82Y-132.895
X136.82Y-135.435
X136.82Y-137.975
X136.82Y-140.515
X136.82Y-143.055
X136.82Y-145.595
X136.82Y-148.135
X136.82Y-150.675
X136.82Y-153.215
X136.82Y-155.755
X136.82Y-158.295
X136.82Y-160.835
X137.285Y-63.96
X137.285Y-81.74
X139.825Y-63.96
X139.825Y-81.74
X142.365Y-63.96
X142.365Y-81.74
X143.17Y-160.605
X144.905Y-63.96
X144.905Y-81.74
X145.71Y-160.605
X147.445Y-63.96
X147.445Y-81.74
X148.25Y-160.605
X149.985Y-63.96
X149.985Y-81.74
X154.6Y-112.575
X154.6Y-115.115
X154.6Y-117.655
X154.6Y-120.195
X154.6Y-122.735
X154.6Y-125.275
X154.6Y-127.815
X154.6Y-130.355
X154.6Y-132.895
X154.6Y-135.435
X154.6Y-137.975
X154.6Y-140.515
X154.6Y-143.055
X154.6Y-145.595
X154.6Y-148.135
X154.6Y-150.675
X154.6Y-153.215
X154.6Y-155.755
X154.6Y-158.295
X154.6Y-160.835
T0
M30
