G04 #@! TF.GenerationSoftware,KiCad,Pcbnew,6.0.11-2627ca5db0~126~ubuntu22.04.1*
G04 #@! TF.CreationDate,2023-02-12T16:42:10+00:00*
G04 #@! TF.ProjectId,srom,73726f6d-2e6b-4696-9361-645f70636258,v1.0*
G04 #@! TF.SameCoordinates,Original*
G04 #@! TF.FileFunction,Copper,L1,Top*
G04 #@! TF.FilePolarity,Positive*
%FSLAX46Y46*%
G04 Gerber Fmt 4.6, Leading zero omitted, Abs format (unit mm)*
G04 Created by KiCad (PCBNEW 6.0.11-2627ca5db0~126~ubuntu22.04.1) date 2023-02-12 16:42:10*
%MOMM*%
%LPD*%
G01*
G04 APERTURE LIST*
G04 Aperture macros list*
%AMRoundRect*
0 Rectangle with rounded corners*
0 $1 Rounding radius*
0 $2 $3 $4 $5 $6 $7 $8 $9 X,Y pos of 4 corners*
0 Add a 4 corners polygon primitive as box body*
4,1,4,$2,$3,$4,$5,$6,$7,$8,$9,$2,$3,0*
0 Add four circle primitives for the rounded corners*
1,1,$1+$1,$2,$3*
1,1,$1+$1,$4,$5*
1,1,$1+$1,$6,$7*
1,1,$1+$1,$8,$9*
0 Add four rect primitives between the rounded corners*
20,1,$1+$1,$2,$3,$4,$5,0*
20,1,$1+$1,$4,$5,$6,$7,0*
20,1,$1+$1,$6,$7,$8,$9,0*
20,1,$1+$1,$8,$9,$2,$3,0*%
G04 Aperture macros list end*
G04 #@! TA.AperFunction,ComponentPad*
%ADD10C,2.000000*%
G04 #@! TD*
G04 #@! TA.AperFunction,ComponentPad*
%ADD11R,1.700000X1.700000*%
G04 #@! TD*
G04 #@! TA.AperFunction,ComponentPad*
%ADD12O,1.700000X1.700000*%
G04 #@! TD*
G04 #@! TA.AperFunction,SMDPad,CuDef*
%ADD13R,1.700000X3.500000*%
G04 #@! TD*
G04 #@! TA.AperFunction,SMDPad,CuDef*
%ADD14R,3.500000X1.700000*%
G04 #@! TD*
G04 #@! TA.AperFunction,SMDPad,CuDef*
%ADD15RoundRect,0.250000X-0.325000X-0.650000X0.325000X-0.650000X0.325000X0.650000X-0.325000X0.650000X0*%
G04 #@! TD*
G04 #@! TA.AperFunction,SMDPad,CuDef*
%ADD16RoundRect,0.150000X-0.837500X-0.150000X0.837500X-0.150000X0.837500X0.150000X-0.837500X0.150000X0*%
G04 #@! TD*
G04 #@! TA.AperFunction,SMDPad,CuDef*
%ADD17RoundRect,0.250000X-0.650000X0.325000X-0.650000X-0.325000X0.650000X-0.325000X0.650000X0.325000X0*%
G04 #@! TD*
G04 #@! TA.AperFunction,SMDPad,CuDef*
%ADD18RoundRect,0.250000X0.625000X-0.400000X0.625000X0.400000X-0.625000X0.400000X-0.625000X-0.400000X0*%
G04 #@! TD*
G04 #@! TA.AperFunction,SMDPad,CuDef*
%ADD19RoundRect,0.250000X0.325000X0.650000X-0.325000X0.650000X-0.325000X-0.650000X0.325000X-0.650000X0*%
G04 #@! TD*
G04 #@! TA.AperFunction,SMDPad,CuDef*
%ADD20R,1.600000X0.700000*%
G04 #@! TD*
G04 #@! TA.AperFunction,SMDPad,CuDef*
%ADD21R,2.200000X1.200000*%
G04 #@! TD*
G04 #@! TA.AperFunction,SMDPad,CuDef*
%ADD22R,1.400000X1.600000*%
G04 #@! TD*
G04 #@! TA.AperFunction,SMDPad,CuDef*
%ADD23R,1.400000X1.200000*%
G04 #@! TD*
G04 #@! TA.AperFunction,SMDPad,CuDef*
%ADD24RoundRect,0.250000X-0.400000X-0.625000X0.400000X-0.625000X0.400000X0.625000X-0.400000X0.625000X0*%
G04 #@! TD*
G04 #@! TA.AperFunction,SMDPad,CuDef*
%ADD25RoundRect,0.150000X-0.825000X-0.150000X0.825000X-0.150000X0.825000X0.150000X-0.825000X0.150000X0*%
G04 #@! TD*
G04 #@! TA.AperFunction,SMDPad,CuDef*
%ADD26RoundRect,0.150000X0.150000X-0.512500X0.150000X0.512500X-0.150000X0.512500X-0.150000X-0.512500X0*%
G04 #@! TD*
G04 #@! TA.AperFunction,SMDPad,CuDef*
%ADD27RoundRect,0.250001X0.462499X0.624999X-0.462499X0.624999X-0.462499X-0.624999X0.462499X-0.624999X0*%
G04 #@! TD*
G04 #@! TA.AperFunction,ComponentPad*
%ADD28C,1.524000*%
G04 #@! TD*
G04 #@! TA.AperFunction,ViaPad*
%ADD29C,0.800000*%
G04 #@! TD*
G04 #@! TA.AperFunction,Conductor*
%ADD30C,0.750000*%
G04 #@! TD*
G04 #@! TA.AperFunction,Conductor*
%ADD31C,0.550000*%
G04 #@! TD*
G04 #@! TA.AperFunction,Conductor*
%ADD32C,0.250000*%
G04 #@! TD*
G04 APERTURE END LIST*
D10*
X132850000Y-167710000D03*
X84680000Y-92510000D03*
X154830000Y-173260000D03*
X81730000Y-170960000D03*
X94840000Y-82500000D03*
X89760000Y-82500000D03*
D11*
X95250000Y-75380000D03*
D12*
X95250000Y-72840000D03*
X95250000Y-70300000D03*
D10*
X87220000Y-79960000D03*
X135560000Y-170770000D03*
X84680000Y-89970000D03*
X92340000Y-85050000D03*
X159090000Y-108490000D03*
X152290000Y-173260000D03*
X84720000Y-87590000D03*
X135560000Y-173310000D03*
X94840000Y-92510000D03*
X92340000Y-87590000D03*
D12*
X149985000Y-63960000D03*
D13*
X149985000Y-63060000D03*
D12*
X147445000Y-63960000D03*
D13*
X147445000Y-63060000D03*
X144905000Y-63060000D03*
D11*
X144905000Y-63960000D03*
D13*
X142365000Y-63060000D03*
D12*
X142365000Y-63960000D03*
X139825000Y-63960000D03*
D13*
X139825000Y-63060000D03*
D12*
X137285000Y-63960000D03*
D13*
X137285000Y-63060000D03*
D12*
X134745000Y-63960000D03*
D13*
X134745000Y-63060000D03*
D11*
X132205000Y-63960000D03*
D13*
X132205000Y-63060000D03*
D12*
X129665000Y-63960000D03*
D13*
X129665000Y-63060000D03*
D12*
X127125000Y-63960000D03*
D13*
X127125000Y-63060000D03*
D12*
X124585000Y-63960000D03*
D13*
X124585000Y-63060000D03*
D12*
X122045000Y-63960000D03*
D13*
X122045000Y-63060000D03*
D11*
X119505000Y-63960000D03*
D13*
X119505000Y-63060000D03*
D12*
X116965000Y-63960000D03*
D13*
X116965000Y-63060000D03*
D12*
X114425000Y-63960000D03*
D13*
X114425000Y-63060000D03*
D12*
X111885000Y-63960000D03*
D13*
X111885000Y-63060000D03*
X109345000Y-63060000D03*
D12*
X109345000Y-63960000D03*
D11*
X106805000Y-63960000D03*
D13*
X106805000Y-63060000D03*
X104265000Y-63060000D03*
D12*
X104265000Y-63960000D03*
D13*
X101725000Y-63060000D03*
D12*
X101725000Y-63960000D03*
X101725000Y-81740000D03*
D13*
X101725000Y-82640000D03*
X104265000Y-82640000D03*
D12*
X104265000Y-81740000D03*
D13*
X106805000Y-82640000D03*
D11*
X106805000Y-81740000D03*
D13*
X109345000Y-82640000D03*
D12*
X109345000Y-81740000D03*
X111885000Y-81740000D03*
D13*
X111885000Y-82640000D03*
D12*
X114425000Y-81740000D03*
D13*
X114425000Y-82640000D03*
X116965000Y-82640000D03*
D12*
X116965000Y-81740000D03*
D13*
X119505000Y-82640000D03*
D11*
X119505000Y-81740000D03*
D13*
X122045000Y-82640000D03*
D12*
X122045000Y-81740000D03*
X124585000Y-81740000D03*
D13*
X124585000Y-82640000D03*
X127125000Y-82640000D03*
D12*
X127125000Y-81740000D03*
X129665000Y-81740000D03*
D13*
X129665000Y-82640000D03*
X132205000Y-82640000D03*
D11*
X132205000Y-81740000D03*
D13*
X134745000Y-82640000D03*
D12*
X134745000Y-81740000D03*
D13*
X137285000Y-82640000D03*
D12*
X137285000Y-81740000D03*
D13*
X139825000Y-82640000D03*
D12*
X139825000Y-81740000D03*
D13*
X142365000Y-82640000D03*
D12*
X142365000Y-81740000D03*
D11*
X144905000Y-81740000D03*
D13*
X144905000Y-82640000D03*
X147445000Y-82640000D03*
D12*
X147445000Y-81740000D03*
X149985000Y-81740000D03*
D13*
X149985000Y-82640000D03*
D14*
X101055000Y-70310000D03*
D12*
X101955000Y-70310000D03*
D14*
X101055000Y-72850000D03*
D11*
X101955000Y-72850000D03*
D12*
X101955000Y-75390000D03*
D14*
X101055000Y-75390000D03*
D10*
X133020000Y-173310000D03*
X79190000Y-170960000D03*
X149750000Y-173260000D03*
D15*
X90065000Y-129600000D03*
X93015000Y-129600000D03*
D16*
X83567500Y-152465000D03*
X83567500Y-153735000D03*
X83567500Y-155005000D03*
X83567500Y-156275000D03*
X83567500Y-157545000D03*
X83567500Y-158815000D03*
X83567500Y-160085000D03*
X83567500Y-161355000D03*
X83567500Y-162625000D03*
X83567500Y-163895000D03*
X90492500Y-163895000D03*
X90492500Y-162625000D03*
X90492500Y-161355000D03*
X90492500Y-160085000D03*
X90492500Y-158815000D03*
X90492500Y-157545000D03*
X90492500Y-156275000D03*
X90492500Y-155005000D03*
X90492500Y-153735000D03*
X90492500Y-152465000D03*
X83547500Y-132645000D03*
X83547500Y-133915000D03*
X83547500Y-135185000D03*
X83547500Y-136455000D03*
X83547500Y-137725000D03*
X83547500Y-138995000D03*
X83547500Y-140265000D03*
X83547500Y-141535000D03*
X83547500Y-142805000D03*
X83547500Y-144075000D03*
X90472500Y-144075000D03*
X90472500Y-142805000D03*
X90472500Y-141535000D03*
X90472500Y-140265000D03*
X90472500Y-138995000D03*
X90472500Y-137725000D03*
X90472500Y-136455000D03*
X90472500Y-135185000D03*
X90472500Y-133915000D03*
X90472500Y-132645000D03*
D10*
X87260000Y-87590000D03*
D17*
X92760000Y-118645000D03*
X92760000Y-121595000D03*
D18*
X102180000Y-153840000D03*
X102180000Y-150740000D03*
D19*
X92925000Y-149140000D03*
X89975000Y-149140000D03*
D20*
X144990000Y-95130000D03*
X144990000Y-96230000D03*
X144990000Y-97330000D03*
X144990000Y-98430000D03*
X144990000Y-99530000D03*
X144990000Y-100630000D03*
D21*
X155090000Y-105080000D03*
D22*
X145490000Y-90480000D03*
D23*
X145490000Y-105080000D03*
D21*
X155090000Y-89580000D03*
D20*
X144990000Y-101730000D03*
X144990000Y-102830000D03*
X144990000Y-103930000D03*
D10*
X94880000Y-87590000D03*
X143180000Y-173310000D03*
X94840000Y-89970000D03*
X92300000Y-89970000D03*
D19*
X128105000Y-156610000D03*
X125155000Y-156610000D03*
D10*
X84270000Y-170960000D03*
X159910000Y-170720000D03*
X87220000Y-89970000D03*
X157370000Y-173260000D03*
D24*
X94790000Y-108118570D03*
X97890000Y-108118570D03*
D25*
X83505000Y-118250000D03*
X83505000Y-119520000D03*
X83505000Y-120790000D03*
X83505000Y-122060000D03*
X83505000Y-123330000D03*
X83505000Y-124600000D03*
X83505000Y-125870000D03*
X88455000Y-125870000D03*
X88455000Y-124600000D03*
X88455000Y-123330000D03*
X88455000Y-122060000D03*
X88455000Y-120790000D03*
X88455000Y-119520000D03*
X88455000Y-118250000D03*
D10*
X84680000Y-82500000D03*
X92300000Y-92510000D03*
X140640000Y-173310000D03*
D26*
X96930000Y-153787500D03*
X98830000Y-153787500D03*
X97880000Y-151512500D03*
D24*
X94790000Y-112927140D03*
X97890000Y-112927140D03*
D10*
X140640000Y-170770000D03*
D16*
X83547500Y-99765000D03*
X83547500Y-101035000D03*
X83547500Y-102305000D03*
X83547500Y-103575000D03*
X83547500Y-104845000D03*
X83547500Y-106115000D03*
X83547500Y-107385000D03*
X83547500Y-108655000D03*
X83547500Y-109925000D03*
X83547500Y-111195000D03*
X90472500Y-111195000D03*
X90472500Y-109925000D03*
X90472500Y-108655000D03*
X90472500Y-107385000D03*
X90472500Y-106115000D03*
X90472500Y-104845000D03*
X90472500Y-103575000D03*
X90472500Y-102305000D03*
X90472500Y-101035000D03*
X90472500Y-99765000D03*
D10*
X87220000Y-82500000D03*
D16*
X120977500Y-160085000D03*
X120977500Y-161355000D03*
X120977500Y-162625000D03*
X120977500Y-163895000D03*
X120977500Y-165165000D03*
X120977500Y-166435000D03*
X120977500Y-167705000D03*
X120977500Y-168975000D03*
X120977500Y-170245000D03*
X120977500Y-171515000D03*
X127902500Y-171515000D03*
X127902500Y-170245000D03*
X127902500Y-168975000D03*
X127902500Y-167705000D03*
X127902500Y-166435000D03*
X127902500Y-165165000D03*
X127902500Y-163895000D03*
X127902500Y-162625000D03*
X127902500Y-161355000D03*
X127902500Y-160085000D03*
D10*
X157370000Y-170720000D03*
D11*
X157590000Y-74260000D03*
D12*
X157590000Y-76800000D03*
X157590000Y-79340000D03*
X157590000Y-81880000D03*
X157590000Y-84420000D03*
D10*
X87220000Y-92510000D03*
X86810000Y-170960000D03*
X84270000Y-173500000D03*
D14*
X135920000Y-112575000D03*
D12*
X136820000Y-112575000D03*
X136820000Y-115115000D03*
D14*
X135920000Y-115115000D03*
X135920000Y-117655000D03*
D11*
X136820000Y-117655000D03*
D12*
X136820000Y-120195000D03*
D14*
X135920000Y-120195000D03*
D12*
X136820000Y-122735000D03*
D14*
X135920000Y-122735000D03*
D12*
X136820000Y-125275000D03*
D14*
X135920000Y-125275000D03*
X135920000Y-127815000D03*
D12*
X136820000Y-127815000D03*
D11*
X136820000Y-130355000D03*
D14*
X135920000Y-130355000D03*
D12*
X136820000Y-132895000D03*
D14*
X135920000Y-132895000D03*
D12*
X136820000Y-135435000D03*
D14*
X135920000Y-135435000D03*
X135920000Y-137975000D03*
D12*
X136820000Y-137975000D03*
X136820000Y-140515000D03*
D14*
X135920000Y-140515000D03*
X135920000Y-143055000D03*
D11*
X136820000Y-143055000D03*
D12*
X136820000Y-145595000D03*
D14*
X135920000Y-145595000D03*
D12*
X136820000Y-148135000D03*
D14*
X135920000Y-148135000D03*
X135920000Y-150675000D03*
D12*
X136820000Y-150675000D03*
D14*
X135920000Y-153215000D03*
D12*
X136820000Y-153215000D03*
D14*
X135920000Y-155755000D03*
D11*
X136820000Y-155755000D03*
D14*
X135920000Y-158295000D03*
D12*
X136820000Y-158295000D03*
X136820000Y-160835000D03*
D14*
X135920000Y-160835000D03*
X155500000Y-160835000D03*
D12*
X154600000Y-160835000D03*
X154600000Y-158295000D03*
D14*
X155500000Y-158295000D03*
X155500000Y-155755000D03*
D11*
X154600000Y-155755000D03*
D14*
X155500000Y-153215000D03*
D12*
X154600000Y-153215000D03*
D14*
X155500000Y-150675000D03*
D12*
X154600000Y-150675000D03*
X154600000Y-148135000D03*
D14*
X155500000Y-148135000D03*
D12*
X154600000Y-145595000D03*
D14*
X155500000Y-145595000D03*
D11*
X154600000Y-143055000D03*
D14*
X155500000Y-143055000D03*
D12*
X154600000Y-140515000D03*
D14*
X155500000Y-140515000D03*
D12*
X154600000Y-137975000D03*
D14*
X155500000Y-137975000D03*
X155500000Y-135435000D03*
D12*
X154600000Y-135435000D03*
D14*
X155500000Y-132895000D03*
D12*
X154600000Y-132895000D03*
D14*
X155500000Y-130355000D03*
D11*
X154600000Y-130355000D03*
D14*
X155500000Y-127815000D03*
D12*
X154600000Y-127815000D03*
D14*
X155500000Y-125275000D03*
D12*
X154600000Y-125275000D03*
D14*
X155500000Y-122735000D03*
D12*
X154600000Y-122735000D03*
X154600000Y-120195000D03*
D14*
X155500000Y-120195000D03*
D11*
X154600000Y-117655000D03*
D14*
X155500000Y-117655000D03*
D12*
X154600000Y-115115000D03*
D14*
X155500000Y-115115000D03*
X155500000Y-112575000D03*
D12*
X154600000Y-112575000D03*
D13*
X143170000Y-161505000D03*
D12*
X143170000Y-160605000D03*
D11*
X145710000Y-160605000D03*
D13*
X145710000Y-161505000D03*
D12*
X148250000Y-160605000D03*
D13*
X148250000Y-161505000D03*
D10*
X138100000Y-173310000D03*
X88380000Y-114940000D03*
X79190000Y-173500000D03*
X89350000Y-170960000D03*
X159910000Y-173260000D03*
X136010000Y-167680000D03*
X149750000Y-170720000D03*
D24*
X94790000Y-103310000D03*
X97890000Y-103310000D03*
D11*
X157590000Y-59800000D03*
D12*
X157590000Y-62340000D03*
X157590000Y-64880000D03*
X157590000Y-67420000D03*
D10*
X89760000Y-79960000D03*
D24*
X94790000Y-115331430D03*
X97890000Y-115331430D03*
D10*
X158260000Y-164770000D03*
X152220000Y-167850000D03*
D19*
X84835000Y-96070000D03*
X81885000Y-96070000D03*
D10*
X133020000Y-170770000D03*
X89800000Y-87590000D03*
X81730000Y-173500000D03*
D24*
X94790000Y-100905715D03*
X97890000Y-100905715D03*
D11*
X116415000Y-154150000D03*
D12*
X113875000Y-154150000D03*
X111335000Y-154150000D03*
D10*
X84680000Y-79960000D03*
X154830000Y-170720000D03*
D24*
X94790000Y-98501430D03*
X97890000Y-98501430D03*
D10*
X138940000Y-167770000D03*
X152280000Y-164870000D03*
X87260000Y-85050000D03*
X94880000Y-85050000D03*
X89760000Y-92510000D03*
X86810000Y-173500000D03*
X143180000Y-170770000D03*
X94840000Y-79960000D03*
D11*
X148290000Y-166340000D03*
D12*
X145750000Y-166340000D03*
X143210000Y-166340000D03*
D10*
X89800000Y-85050000D03*
X84720000Y-85050000D03*
X92300000Y-79960000D03*
D27*
X123397500Y-94580000D03*
X120422500Y-94580000D03*
D10*
X89350000Y-173500000D03*
D24*
X94790000Y-110522855D03*
X97890000Y-110522855D03*
D28*
X50390000Y-105000000D03*
X55390000Y-105000000D03*
X55390000Y-94840000D03*
X55390000Y-97380000D03*
X55390000Y-99920000D03*
X55390000Y-102460000D03*
X55390000Y-107540000D03*
X55390000Y-110080000D03*
X55390000Y-112620000D03*
X55390000Y-115160000D03*
X55390000Y-117700000D03*
X55390000Y-120240000D03*
X55390000Y-122780000D03*
X55390000Y-125320000D03*
X55390000Y-127860000D03*
X55390000Y-130400000D03*
X55390000Y-132940000D03*
X55390000Y-135480000D03*
X55390000Y-138020000D03*
X55390000Y-140560000D03*
X55390000Y-143100000D03*
X55390000Y-145640000D03*
X55390000Y-148180000D03*
X55390000Y-150720000D03*
X55390000Y-153260000D03*
X55390000Y-155800000D03*
X55390000Y-158340000D03*
X55390000Y-160880000D03*
X55390000Y-163420000D03*
X50390000Y-94840000D03*
X50390000Y-97380000D03*
X50390000Y-99920000D03*
X50390000Y-102460000D03*
X50390000Y-107540000D03*
X50390000Y-110080000D03*
X50390000Y-112620000D03*
X50390000Y-115160000D03*
X50390000Y-117700000D03*
X50390000Y-120240000D03*
X50390000Y-122780000D03*
X50390000Y-125320000D03*
X50390000Y-127860000D03*
X50390000Y-130400000D03*
X50390000Y-132940000D03*
X50390000Y-135480000D03*
X50390000Y-138020000D03*
X50390000Y-140560000D03*
X50390000Y-143100000D03*
X50390000Y-145640000D03*
X50390000Y-148180000D03*
X50390000Y-150720000D03*
X50390000Y-153260000D03*
X50390000Y-155800000D03*
X50390000Y-158340000D03*
X50390000Y-160880000D03*
X50390000Y-163420000D03*
D10*
X138100000Y-170770000D03*
X152290000Y-170720000D03*
D24*
X94790000Y-105714285D03*
X97890000Y-105714285D03*
D10*
X92300000Y-82500000D03*
D12*
X105300000Y-99385000D03*
D14*
X104400000Y-99385000D03*
D12*
X105300000Y-101925000D03*
D14*
X104400000Y-101925000D03*
D11*
X105300000Y-104465000D03*
D14*
X104400000Y-104465000D03*
D12*
X105300000Y-107005000D03*
D14*
X104400000Y-107005000D03*
X104400000Y-109545000D03*
D12*
X105300000Y-109545000D03*
X105300000Y-112085000D03*
D14*
X104400000Y-112085000D03*
X104400000Y-114625000D03*
D12*
X105300000Y-114625000D03*
D11*
X105300000Y-117165000D03*
D14*
X104400000Y-117165000D03*
X104400000Y-119705000D03*
D12*
X105300000Y-119705000D03*
D14*
X104400000Y-122245000D03*
D12*
X105300000Y-122245000D03*
D14*
X104400000Y-124785000D03*
D12*
X105300000Y-124785000D03*
D14*
X104400000Y-127325000D03*
D12*
X105300000Y-127325000D03*
D14*
X104400000Y-129865000D03*
D11*
X105300000Y-129865000D03*
D14*
X104400000Y-132405000D03*
D12*
X105300000Y-132405000D03*
D14*
X104400000Y-134945000D03*
D12*
X105300000Y-134945000D03*
D14*
X104400000Y-137485000D03*
D12*
X105300000Y-137485000D03*
X105300000Y-140025000D03*
D14*
X104400000Y-140025000D03*
X104400000Y-142565000D03*
D11*
X105300000Y-142565000D03*
D12*
X105300000Y-145105000D03*
D14*
X104400000Y-145105000D03*
D12*
X105300000Y-147645000D03*
D14*
X104400000Y-147645000D03*
X123980000Y-147645000D03*
D12*
X123080000Y-147645000D03*
X123080000Y-145105000D03*
D14*
X123980000Y-145105000D03*
D11*
X123080000Y-142565000D03*
D14*
X123980000Y-142565000D03*
X123980000Y-140025000D03*
D12*
X123080000Y-140025000D03*
X123080000Y-137485000D03*
D14*
X123980000Y-137485000D03*
D12*
X123080000Y-134945000D03*
D14*
X123980000Y-134945000D03*
X123980000Y-132405000D03*
D12*
X123080000Y-132405000D03*
D14*
X123980000Y-129865000D03*
D11*
X123080000Y-129865000D03*
D14*
X123980000Y-127325000D03*
D12*
X123080000Y-127325000D03*
X123080000Y-124785000D03*
D14*
X123980000Y-124785000D03*
D12*
X123080000Y-122245000D03*
D14*
X123980000Y-122245000D03*
X123980000Y-119705000D03*
D12*
X123080000Y-119705000D03*
D11*
X123080000Y-117165000D03*
D14*
X123980000Y-117165000D03*
X123980000Y-114625000D03*
D12*
X123080000Y-114625000D03*
D14*
X123980000Y-112085000D03*
D12*
X123080000Y-112085000D03*
D14*
X123980000Y-109545000D03*
D12*
X123080000Y-109545000D03*
D14*
X123980000Y-107005000D03*
D12*
X123080000Y-107005000D03*
D14*
X123980000Y-104465000D03*
D11*
X123080000Y-104465000D03*
D12*
X123080000Y-101925000D03*
D14*
X123980000Y-101925000D03*
D12*
X123080000Y-99385000D03*
D14*
X123980000Y-99385000D03*
D13*
X111650000Y-148315000D03*
D12*
X111650000Y-147415000D03*
D11*
X114190000Y-147415000D03*
D13*
X114190000Y-148315000D03*
X116730000Y-148315000D03*
D12*
X116730000Y-147415000D03*
D10*
X89760000Y-89970000D03*
D29*
X90690000Y-99820000D03*
X139620000Y-109540000D03*
X140990000Y-98410000D03*
X154985000Y-79725000D03*
X155050000Y-62360000D03*
X118900000Y-109480000D03*
X130990000Y-160060000D03*
X139790000Y-122780000D03*
X133210000Y-109490000D03*
X133160000Y-98450000D03*
X90680000Y-119530000D03*
X140990000Y-85350000D03*
X118900000Y-96350000D03*
X130950000Y-109590000D03*
X154360000Y-87980000D03*
X59070000Y-111370000D03*
X88380000Y-129570000D03*
X91150000Y-133930000D03*
X88470000Y-127280000D03*
X88190000Y-149180000D03*
X94720000Y-121600000D03*
X59070000Y-116440000D03*
X157050000Y-105900000D03*
X93110000Y-173450000D03*
X88825000Y-101035000D03*
X80550000Y-96070000D03*
X93930000Y-153770000D03*
X52220000Y-116040000D03*
X138580000Y-155750000D03*
X143860000Y-105340000D03*
X129630000Y-156660000D03*
X130030000Y-161320000D03*
X81470000Y-144080000D03*
X143320000Y-100640000D03*
X52030000Y-111600000D03*
X112170000Y-173510000D03*
X81450000Y-163930000D03*
X81570000Y-111210000D03*
X118910000Y-171530000D03*
X143900000Y-90430000D03*
X94560000Y-94850000D03*
X94660000Y-117800000D03*
X53450000Y-113850000D03*
X152470000Y-115160000D03*
X147520000Y-87630000D03*
X127770000Y-101890000D03*
X152390000Y-107590000D03*
X142390000Y-87630000D03*
X127820000Y-94560000D03*
X127800000Y-107630000D03*
X147500000Y-85330000D03*
X142390000Y-93610000D03*
X59300000Y-121680000D03*
X59240000Y-134750000D03*
X58070000Y-124090000D03*
X58060000Y-135930000D03*
X58090000Y-157570000D03*
X58070000Y-154460000D03*
X59630000Y-152090000D03*
X59660000Y-156350000D03*
X60880000Y-149520000D03*
X60870000Y-154990000D03*
X141510000Y-126430000D03*
X107974500Y-136690000D03*
X141550000Y-140530000D03*
X119120000Y-136410000D03*
X105000000Y-156120000D03*
X119150000Y-127350000D03*
X113870000Y-138880000D03*
X140350000Y-134230000D03*
X105900000Y-157560000D03*
X140400000Y-145570000D03*
X108699000Y-138850000D03*
X113890000Y-132430000D03*
X106910000Y-158830000D03*
X139460000Y-144430000D03*
X127130000Y-144360000D03*
X139490000Y-148100000D03*
X117440000Y-134970000D03*
X109550000Y-140860000D03*
X127130000Y-134950000D03*
X117220000Y-140810000D03*
X110400000Y-150650000D03*
X110380000Y-145100000D03*
X113960000Y-139990000D03*
X113910000Y-145560000D03*
X119260000Y-137500000D03*
X119373198Y-147146802D03*
X116340000Y-142530000D03*
X116330000Y-134950000D03*
X62320000Y-146840000D03*
X62290000Y-153760000D03*
X61200000Y-98600000D03*
X61180000Y-134870000D03*
X62090000Y-134150000D03*
X62070000Y-97420000D03*
X120370000Y-156860000D03*
X118930000Y-156869999D03*
X117480000Y-156806666D03*
X116030000Y-156743333D03*
X104060000Y-155050000D03*
X132040000Y-122260000D03*
X112070000Y-135669500D03*
X132130000Y-123890000D03*
X138700000Y-123830000D03*
X138770000Y-135410000D03*
X112040000Y-122260000D03*
X107240000Y-135770000D03*
X60150000Y-107510000D03*
X60280000Y-101070000D03*
X63080000Y-102320000D03*
X63080000Y-110050000D03*
X64440000Y-103580000D03*
X64390000Y-112620000D03*
X69560000Y-106120000D03*
X69600000Y-120180000D03*
X71490000Y-122780000D03*
X71400000Y-108660000D03*
X67730000Y-104840000D03*
X67760000Y-117690000D03*
X66360000Y-107350000D03*
X66390000Y-115150000D03*
X78410000Y-109930000D03*
X78350000Y-99920000D03*
X107300000Y-133470000D03*
X107250000Y-122300000D03*
X128140000Y-135410000D03*
X128080000Y-133750000D03*
X109120000Y-127840000D03*
X109320000Y-114700000D03*
X112200000Y-121120000D03*
X112200000Y-109570000D03*
X108180000Y-119640000D03*
X108180000Y-132855500D03*
X110990000Y-125280000D03*
X111550000Y-112210000D03*
X113890000Y-107060000D03*
X114060000Y-117920000D03*
X107590000Y-105370000D03*
X115250000Y-113070000D03*
X107500000Y-101860000D03*
X115170000Y-105410000D03*
X117030000Y-108010000D03*
X126680000Y-108140000D03*
X126770000Y-112120000D03*
X108800000Y-99310000D03*
X116940000Y-104200000D03*
X108760000Y-104110000D03*
X89705500Y-124680000D03*
X80905000Y-128435000D03*
X89620000Y-127650000D03*
X80890000Y-133900000D03*
X75390000Y-122060000D03*
X75090000Y-96230000D03*
X76590000Y-94900000D03*
X76910000Y-120800000D03*
X57840000Y-143462500D03*
X57840000Y-153260000D03*
X78020000Y-119550000D03*
X80390000Y-119550000D03*
X60430000Y-127510000D03*
X81530000Y-99750000D03*
X78200000Y-166470000D03*
X60430000Y-139870000D03*
X78050000Y-127590000D03*
X124460000Y-74240000D03*
X124560000Y-65720000D03*
X79130000Y-132920000D03*
X79190000Y-123180000D03*
X94175924Y-147594076D03*
X91865924Y-147594076D03*
X118210000Y-151620000D03*
X118190000Y-114630000D03*
X127160000Y-76840000D03*
X127110000Y-65720000D03*
X129700000Y-65780000D03*
X129760000Y-78140000D03*
X152100000Y-60530000D03*
X152170000Y-64710000D03*
X153250000Y-67420000D03*
X153200000Y-59750000D03*
X131964500Y-137980000D03*
X131960000Y-162590000D03*
X133780000Y-163870000D03*
X133790000Y-140620000D03*
X133020000Y-165110000D03*
X133030000Y-145600000D03*
X150700000Y-160720000D03*
X151525000Y-158295000D03*
X75430000Y-165330000D03*
X75440000Y-134250000D03*
X73580000Y-142550000D03*
X73700000Y-167470000D03*
X129650000Y-101730000D03*
X129350000Y-93430000D03*
X134770000Y-91750000D03*
X134850000Y-96230000D03*
X136410000Y-99570000D03*
X136320000Y-90350000D03*
X137450000Y-88140000D03*
X137620000Y-97360000D03*
X138740000Y-102820000D03*
X138790000Y-86800000D03*
X139870000Y-95110000D03*
X139780000Y-85500000D03*
D30*
X92490000Y-152495000D02*
X92490000Y-152490000D01*
X155500000Y-79790000D02*
X157590000Y-81880000D01*
X92625000Y-132630000D02*
X92640000Y-132645000D01*
X87080000Y-133330000D02*
X86395000Y-132645000D01*
X90690000Y-99820000D02*
X90690000Y-98790000D01*
X158195000Y-122735000D02*
X159090000Y-121840000D01*
X130965000Y-160085000D02*
X130990000Y-160060000D01*
X121680000Y-160085000D02*
X125155000Y-156610000D01*
X125155000Y-157337500D02*
X127902500Y-160085000D01*
X118900000Y-109480000D02*
X123015000Y-109480000D01*
X91360000Y-145710000D02*
X88540000Y-145710000D01*
X86395000Y-132645000D02*
X83547500Y-132645000D01*
X87970000Y-96070000D02*
X84835000Y-96070000D01*
X93015000Y-129600000D02*
X90680000Y-127265000D01*
X139825000Y-83835000D02*
X140910000Y-84920000D01*
X87890000Y-133330000D02*
X88590000Y-132630000D01*
X133155000Y-109545000D02*
X133210000Y-109490000D01*
X140990000Y-85000000D02*
X140990000Y-85350000D01*
X140420000Y-79660000D02*
X154920000Y-79660000D01*
X87890000Y-133330000D02*
X87080000Y-133330000D01*
X90680000Y-127265000D02*
X90680000Y-119530000D01*
X92925000Y-147275000D02*
X91360000Y-145710000D01*
X123080000Y-109545000D02*
X133155000Y-109545000D01*
X125155000Y-156610000D02*
X125155000Y-157337500D01*
X88590000Y-132630000D02*
X90120000Y-132630000D01*
X92195000Y-99820000D02*
X90690000Y-99820000D01*
X90120000Y-132630000D02*
X92625000Y-132630000D01*
X154920000Y-79660000D02*
X154985000Y-79725000D01*
X118890000Y-96360000D02*
X118900000Y-96350000D01*
X93080000Y-132205000D02*
X93080000Y-129665000D01*
X133180000Y-98430000D02*
X144990000Y-98430000D01*
X93060000Y-151920000D02*
X93060000Y-149275000D01*
X154600000Y-122735000D02*
X158195000Y-122735000D01*
X154985000Y-79725000D02*
X155050000Y-79790000D01*
X139570000Y-109490000D02*
X139620000Y-109540000D01*
X139825000Y-81740000D02*
X139825000Y-80255000D01*
X120977500Y-160085000D02*
X121680000Y-160085000D01*
X83597500Y-152495000D02*
X92490000Y-152495000D01*
X140910000Y-84920000D02*
X140990000Y-85000000D01*
X155050000Y-79790000D02*
X155500000Y-79790000D01*
X127902500Y-160085000D02*
X130965000Y-160085000D01*
X139825000Y-80255000D02*
X140420000Y-79660000D01*
X139790000Y-122780000D02*
X154555000Y-122780000D01*
X90690000Y-98790000D02*
X87970000Y-96070000D01*
X133160000Y-98450000D02*
X133180000Y-98430000D01*
X92250000Y-96360000D02*
X118890000Y-96360000D01*
X92490000Y-152490000D02*
X93060000Y-151920000D01*
X88540000Y-145710000D02*
X87890000Y-145060000D01*
X159090000Y-121840000D02*
X159090000Y-108490000D01*
X92250000Y-96360000D02*
X92195000Y-99820000D01*
X155050000Y-62360000D02*
X157570000Y-62360000D01*
X87890000Y-145060000D02*
X87890000Y-133330000D01*
X92925000Y-149140000D02*
X92925000Y-147275000D01*
X133210000Y-109490000D02*
X139570000Y-109490000D01*
X92640000Y-132645000D02*
X93080000Y-132205000D01*
X80550000Y-96070000D02*
X81885000Y-96070000D01*
X93415000Y-153765000D02*
X96907500Y-153765000D01*
X144990000Y-100630000D02*
X143330000Y-100630000D01*
D31*
X52030000Y-111600000D02*
X52260000Y-111370000D01*
D30*
X128105000Y-156610000D02*
X129580000Y-156610000D01*
X81470000Y-144080000D02*
X83335000Y-144080000D01*
X138580000Y-155750000D02*
X136825000Y-155750000D01*
X83190000Y-163925000D02*
X81455000Y-163925000D01*
X155090000Y-105080000D02*
X156230000Y-105080000D01*
X143950000Y-90480000D02*
X143900000Y-90430000D01*
X90522500Y-153765000D02*
X90492500Y-153735000D01*
X129995000Y-161355000D02*
X130030000Y-161320000D01*
X88230000Y-149140000D02*
X88190000Y-149180000D01*
X93415000Y-153765000D02*
X90522500Y-153765000D01*
X93925000Y-153765000D02*
X93415000Y-153765000D01*
X81570000Y-111210000D02*
X83532500Y-111210000D01*
X83532500Y-111210000D02*
X83547500Y-111195000D01*
X129580000Y-156610000D02*
X129630000Y-156660000D01*
X88455000Y-125870000D02*
X88455000Y-127265000D01*
X90065000Y-129600000D02*
X88410000Y-129600000D01*
D32*
X95260000Y-72850000D02*
X101955000Y-72850000D01*
D30*
X94715000Y-121595000D02*
X94720000Y-121600000D01*
D31*
X52260000Y-111370000D02*
X59070000Y-111370000D01*
D30*
X143330000Y-100630000D02*
X143320000Y-100640000D01*
X83335000Y-144080000D02*
X83340000Y-144075000D01*
X120977500Y-171515000D02*
X118925000Y-171515000D01*
D32*
X93925000Y-153765000D02*
X93930000Y-153770000D01*
D30*
X156230000Y-105080000D02*
X157050000Y-105900000D01*
X118925000Y-171515000D02*
X118910000Y-171530000D01*
D31*
X52620000Y-116440000D02*
X52220000Y-116040000D01*
D32*
X88410000Y-129600000D02*
X88380000Y-129570000D01*
D30*
X88455000Y-127265000D02*
X88470000Y-127280000D01*
X145490000Y-90480000D02*
X143950000Y-90480000D01*
X145490000Y-105080000D02*
X144120000Y-105080000D01*
X89975000Y-149140000D02*
X88230000Y-149140000D01*
X96907500Y-153765000D02*
X96930000Y-153787500D01*
X92760000Y-121595000D02*
X94715000Y-121595000D01*
D31*
X59070000Y-116440000D02*
X52620000Y-116440000D01*
D30*
X88455000Y-125870000D02*
X83505000Y-125870000D01*
X127902500Y-161355000D02*
X129995000Y-161355000D01*
X154360000Y-88850000D02*
X155090000Y-89580000D01*
D32*
X88825000Y-101035000D02*
X90472500Y-101035000D01*
D30*
X144120000Y-105080000D02*
X143860000Y-105340000D01*
D32*
X81455000Y-163925000D02*
X81450000Y-163930000D01*
D30*
X154360000Y-87980000D02*
X154360000Y-88850000D01*
D31*
X84100000Y-113890000D02*
X84070000Y-113860000D01*
D30*
X84085000Y-113880000D02*
X88455000Y-118250000D01*
X88380000Y-114940000D02*
X85145000Y-114940000D01*
D31*
X92760000Y-118645000D02*
X92365000Y-118250000D01*
X84070000Y-113860000D02*
X53300000Y-113860000D01*
X94560000Y-94850000D02*
X94675000Y-94735000D01*
X94675000Y-94735000D02*
X120267500Y-94735000D01*
D30*
X92365000Y-118250000D02*
X88455000Y-118250000D01*
D31*
X93815000Y-118645000D02*
X94660000Y-117800000D01*
X92760000Y-118645000D02*
X93815000Y-118645000D01*
D30*
X152470000Y-115160000D02*
X154555000Y-115160000D01*
X142390000Y-87630000D02*
X147520000Y-87630000D01*
X123397500Y-94580000D02*
X127800000Y-94580000D01*
X138860000Y-93610000D02*
X137910000Y-94560000D01*
X152350000Y-107630000D02*
X152390000Y-107590000D01*
X147500000Y-85330000D02*
X147500000Y-81795000D01*
X137910000Y-94560000D02*
X127820000Y-94560000D01*
X127800000Y-107630000D02*
X152350000Y-107630000D01*
X142390000Y-93610000D02*
X138860000Y-93610000D01*
X127800000Y-94580000D02*
X127820000Y-94560000D01*
X127770000Y-101890000D02*
X123115000Y-101890000D01*
D32*
X83505000Y-124600000D02*
X84430000Y-124600000D01*
X85030000Y-124000000D02*
X85030000Y-118730000D01*
X85030000Y-118730000D02*
X84480000Y-118180000D01*
X84430000Y-124600000D02*
X85030000Y-124000000D01*
X54070000Y-119440000D02*
X54070000Y-120457251D01*
X50390000Y-115760000D02*
X54070000Y-119440000D01*
X59970000Y-134750000D02*
X62945000Y-137725000D01*
X59240000Y-134750000D02*
X59970000Y-134750000D01*
X54070000Y-120457251D02*
X55292749Y-121680000D01*
X55292749Y-121680000D02*
X59300000Y-121680000D01*
X62945000Y-137725000D02*
X83340000Y-137725000D01*
X55030000Y-124100000D02*
X58060000Y-124100000D01*
X62695000Y-138995000D02*
X83340000Y-138995000D01*
X58060000Y-124100000D02*
X58070000Y-124090000D01*
X50390000Y-117700000D02*
X54170000Y-121480000D01*
X59630000Y-135930000D02*
X62695000Y-138995000D01*
X54170000Y-123240000D02*
X55030000Y-124100000D01*
X58060000Y-135930000D02*
X59630000Y-135930000D01*
X54170000Y-121480000D02*
X54170000Y-123240000D01*
X54420000Y-136770000D02*
X59210000Y-136770000D01*
X50390000Y-120240000D02*
X53950000Y-123800000D01*
X62705000Y-140265000D02*
X83340000Y-140265000D01*
X53950000Y-136300000D02*
X54420000Y-136770000D01*
X53950000Y-123800000D02*
X53950000Y-136300000D01*
X59210000Y-136770000D02*
X62705000Y-140265000D01*
X53160000Y-125550000D02*
X53160000Y-139210000D01*
X50390000Y-122780000D02*
X53160000Y-125550000D01*
X53240000Y-139290000D02*
X58010000Y-139290000D01*
X58010000Y-139290000D02*
X60255000Y-141535000D01*
X60255000Y-141535000D02*
X83340000Y-141535000D01*
X53160000Y-139210000D02*
X53240000Y-139290000D01*
X57790000Y-154470000D02*
X58060000Y-154470000D01*
X51830000Y-154470000D02*
X57790000Y-154470000D01*
X50390000Y-153260000D02*
X51830000Y-154470000D01*
X58095000Y-157575000D02*
X83190000Y-157575000D01*
X58060000Y-154470000D02*
X58070000Y-154460000D01*
X58090000Y-157570000D02*
X58095000Y-157575000D01*
X51760000Y-152090000D02*
X59630000Y-152090000D01*
X50390000Y-150720000D02*
X51760000Y-152090000D01*
X59660000Y-156350000D02*
X83145000Y-156350000D01*
X50390000Y-148180000D02*
X51730000Y-149520000D01*
X60870000Y-154990000D02*
X83145000Y-154990000D01*
X51730000Y-149520000D02*
X60880000Y-149520000D01*
X110710000Y-136410000D02*
X119120000Y-136410000D01*
X141565000Y-140515000D02*
X154600000Y-140515000D01*
X141550000Y-140530000D02*
X141565000Y-140515000D01*
X104815000Y-156305000D02*
X90522500Y-156305000D01*
X105000000Y-156120000D02*
X104815000Y-156305000D01*
X123080000Y-127325000D02*
X123955000Y-126450000D01*
X123955000Y-126450000D02*
X141490000Y-126450000D01*
X141490000Y-126450000D02*
X141510000Y-126430000D01*
X107974500Y-136690000D02*
X110420000Y-136690000D01*
X110420000Y-136690000D02*
X110710000Y-136400000D01*
X119150000Y-127350000D02*
X119175000Y-127325000D01*
X119175000Y-127325000D02*
X123080000Y-127325000D01*
X108699000Y-138850000D02*
X113840000Y-138850000D01*
X133985000Y-134210000D02*
X140330000Y-134210000D01*
X105885000Y-157575000D02*
X90522500Y-157575000D01*
X113915000Y-132405000D02*
X123080000Y-132405000D01*
X113840000Y-138850000D02*
X113870000Y-138880000D01*
X140400000Y-145570000D02*
X140425000Y-145595000D01*
X123080000Y-132405000D02*
X132180000Y-132405000D01*
X140425000Y-145595000D02*
X154600000Y-145595000D01*
X105900000Y-157560000D02*
X105885000Y-157575000D01*
X113890000Y-132430000D02*
X113915000Y-132405000D01*
X132180000Y-132405000D02*
X133985000Y-134210000D01*
X117440000Y-134970000D02*
X117465000Y-134945000D01*
X139490000Y-148100000D02*
X139525000Y-148135000D01*
X106895000Y-158845000D02*
X90522500Y-158845000D01*
X139525000Y-148135000D02*
X154600000Y-148135000D01*
X109550000Y-140860000D02*
X117170000Y-140860000D01*
X139470000Y-144420000D02*
X139460000Y-144430000D01*
X117170000Y-140860000D02*
X117220000Y-140810000D01*
X127190000Y-144420000D02*
X139470000Y-144420000D01*
X127130000Y-134950000D02*
X123085000Y-134950000D01*
X117465000Y-134945000D02*
X123080000Y-134945000D01*
X127190000Y-144420000D02*
X127130000Y-144360000D01*
X109485000Y-145105000D02*
X105300000Y-145105000D01*
X110400000Y-150650000D02*
X119430000Y-150680000D01*
X94265000Y-142805000D02*
X96565000Y-145105000D01*
X90472500Y-142805000D02*
X94265000Y-142805000D01*
X124135000Y-155385000D02*
X131545000Y-155385000D01*
X96565000Y-145105000D02*
X105300000Y-145105000D01*
X119430000Y-150680000D02*
X124135000Y-155385000D01*
X110380000Y-145100000D02*
X109485000Y-145105000D01*
X131545000Y-155385000D02*
X134455000Y-158295000D01*
X105300000Y-140025000D02*
X96915000Y-140025000D01*
X105300000Y-140025000D02*
X113925000Y-140025000D01*
X96915000Y-140025000D02*
X95405000Y-141535000D01*
X117225000Y-145560000D02*
X118330000Y-146665000D01*
X113925000Y-140025000D02*
X113960000Y-139990000D01*
X118330000Y-147660000D02*
X123885000Y-153215000D01*
X113910000Y-145560000D02*
X117225000Y-145560000D01*
X95405000Y-141535000D02*
X90472500Y-141535000D01*
X118330000Y-146665000D02*
X118330000Y-147660000D01*
X123885000Y-153215000D02*
X136820000Y-153215000D01*
X119373198Y-147146802D02*
X119373198Y-147453198D01*
X96770000Y-137550000D02*
X94055000Y-140265000D01*
X122595000Y-150675000D02*
X136820000Y-150675000D01*
X96790000Y-137540000D02*
X96845000Y-137485000D01*
X96845000Y-137485000D02*
X105300000Y-137485000D01*
X94055000Y-140265000D02*
X90472500Y-140265000D01*
X119373198Y-147453198D02*
X122595000Y-150675000D01*
X105300000Y-137485000D02*
X119245000Y-137485000D01*
X131835000Y-148135000D02*
X136820000Y-148135000D01*
X120360000Y-147370000D02*
X122740000Y-149750000D01*
X96790000Y-135271751D02*
X93066751Y-138995000D01*
X116340000Y-142530000D02*
X117880000Y-142530000D01*
X130210000Y-149750000D02*
X131830000Y-148130000D01*
X105300000Y-134945000D02*
X97115000Y-134945000D01*
X97115000Y-134945000D02*
X96790000Y-135270000D01*
X122740000Y-149750000D02*
X130210000Y-149750000D01*
X116325000Y-134945000D02*
X116330000Y-134950000D01*
X117880000Y-142530000D02*
X120350000Y-145000000D01*
X131830000Y-148130000D02*
X131835000Y-148135000D01*
X120360000Y-146290000D02*
X120360000Y-147370000D01*
X105300000Y-134945000D02*
X116325000Y-134945000D01*
X93066751Y-138995000D02*
X90472500Y-138995000D01*
X120350000Y-145000000D02*
X120350000Y-146370000D01*
X96790000Y-135270000D02*
X96790000Y-135271751D01*
X62320000Y-146840000D02*
X52010000Y-146870000D01*
X52010000Y-146870000D02*
X50390000Y-145640000D01*
X62290000Y-153760000D02*
X62295000Y-153765000D01*
X62295000Y-153765000D02*
X83190000Y-153765000D01*
X80525000Y-158845000D02*
X83190000Y-158845000D01*
X80020000Y-158340000D02*
X80525000Y-158845000D01*
X55390000Y-158340000D02*
X80020000Y-158340000D01*
X53430000Y-160880000D02*
X54700000Y-159610000D01*
X50390000Y-160880000D02*
X53430000Y-160880000D01*
X54700000Y-159610000D02*
X79990000Y-159610000D01*
X80495000Y-160115000D02*
X83190000Y-160115000D01*
X79990000Y-159610000D02*
X80495000Y-160115000D01*
X55390000Y-160880000D02*
X80060000Y-160880000D01*
X80565000Y-161385000D02*
X83190000Y-161385000D01*
X80060000Y-160880000D02*
X80565000Y-161385000D01*
X80555000Y-162655000D02*
X83190000Y-162655000D01*
X56590000Y-162180000D02*
X57040000Y-161730000D01*
X79630000Y-161730000D02*
X80555000Y-162655000D01*
X57040000Y-161730000D02*
X79630000Y-161730000D01*
X51630000Y-162180000D02*
X56590000Y-162180000D01*
X50390000Y-163420000D02*
X51630000Y-162180000D01*
X62765000Y-136455000D02*
X83340000Y-136455000D01*
X61180000Y-134870000D02*
X62765000Y-136455000D01*
X50390000Y-97380000D02*
X51610000Y-98600000D01*
X51610000Y-98600000D02*
X61200000Y-98600000D01*
X62090000Y-134150000D02*
X63125000Y-135185000D01*
X55390000Y-97380000D02*
X62030000Y-97380000D01*
X63125000Y-135185000D02*
X83340000Y-135185000D01*
X62030000Y-97380000D02*
X62070000Y-97420000D01*
X96000000Y-128800000D02*
X96000000Y-133521751D01*
X105300000Y-127325000D02*
X97475000Y-127325000D01*
X96000000Y-133521751D02*
X93066751Y-136455000D01*
X97475000Y-127325000D02*
X96000000Y-128800000D01*
X93066751Y-136455000D02*
X90472500Y-136455000D01*
X105300000Y-132405000D02*
X97335000Y-132405000D01*
X97335000Y-132405000D02*
X96790000Y-132950000D01*
X96790000Y-134001751D02*
X93066751Y-137725000D01*
X96790000Y-132950000D02*
X96790000Y-134001751D01*
X93066751Y-137725000D02*
X90472500Y-137725000D01*
X113135000Y-163925000D02*
X90522500Y-163925000D01*
X120370000Y-156860000D02*
X120200000Y-156860000D01*
X120200000Y-156860000D02*
X113135000Y-163925000D01*
X113075000Y-162665000D02*
X113065000Y-162655000D01*
X118860000Y-156880000D02*
X113075000Y-162665000D01*
X113065000Y-162655000D02*
X90522500Y-162655000D01*
X112885000Y-161375000D02*
X112635000Y-161375000D01*
X112625000Y-161385000D02*
X90522500Y-161385000D01*
X112635000Y-161375000D02*
X112625000Y-161385000D01*
X117450000Y-156810000D02*
X112885000Y-161375000D01*
X112725000Y-160115000D02*
X90522500Y-160115000D01*
X116030000Y-156810000D02*
X112725000Y-160115000D01*
X104060000Y-155050000D02*
X104045000Y-155035000D01*
X138770000Y-135410000D02*
X154575000Y-135410000D01*
X131735000Y-122245000D02*
X132025000Y-122245000D01*
X132150000Y-123910000D02*
X138620000Y-123910000D01*
X104045000Y-155035000D02*
X90522500Y-155035000D01*
X112040000Y-122260000D02*
X112055000Y-122245000D01*
X138620000Y-123910000D02*
X138700000Y-123830000D01*
X123080000Y-122245000D02*
X131735000Y-122245000D01*
X132025000Y-122245000D02*
X132040000Y-122260000D01*
X107340500Y-135669500D02*
X112070000Y-135669500D01*
X132130000Y-123890000D02*
X132150000Y-123910000D01*
X112055000Y-122245000D02*
X123080000Y-122245000D01*
X107240000Y-135770000D02*
X107340500Y-135669500D01*
X60280000Y-101070000D02*
X82915000Y-101070000D01*
X60120000Y-107540000D02*
X60150000Y-107510000D01*
X55390000Y-107540000D02*
X60120000Y-107540000D01*
X63050000Y-110080000D02*
X63080000Y-110050000D01*
X55390000Y-110080000D02*
X63050000Y-110080000D01*
X63080000Y-102320000D02*
X82925000Y-102320000D01*
X55390000Y-112620000D02*
X64390000Y-112620000D01*
X64440000Y-103580000D02*
X82915000Y-103580000D01*
X69560000Y-106120000D02*
X82915000Y-106120000D01*
X69540000Y-120240000D02*
X69600000Y-120180000D01*
X55390000Y-120240000D02*
X69540000Y-120240000D01*
X71400000Y-108660000D02*
X82915000Y-108660000D01*
X55390000Y-122780000D02*
X71490000Y-122780000D01*
X55390000Y-117700000D02*
X67750000Y-117700000D01*
X67750000Y-117700000D02*
X67760000Y-117690000D01*
X67755000Y-104865000D02*
X82930000Y-104865000D01*
X67730000Y-104840000D02*
X67755000Y-104865000D01*
X55390000Y-115160000D02*
X66380000Y-115160000D01*
X66380000Y-115160000D02*
X66390000Y-115150000D01*
X66360000Y-107350000D02*
X82875000Y-107350000D01*
X78410000Y-109930000D02*
X82915000Y-109930000D01*
X55390000Y-99920000D02*
X78350000Y-99920000D01*
X97890000Y-117480000D02*
X102640000Y-122230000D01*
X97890000Y-115331430D02*
X97890000Y-117480000D01*
X128165000Y-135435000D02*
X136820000Y-135435000D01*
X107195000Y-122245000D02*
X107250000Y-122300000D01*
X105300000Y-122245000D02*
X107195000Y-122245000D01*
X128060000Y-133710000D02*
X128080000Y-133730000D01*
X128140000Y-135410000D02*
X128165000Y-135435000D01*
X107300000Y-133470000D02*
X107410000Y-133580000D01*
X128080000Y-133730000D02*
X128080000Y-133750000D01*
X107410000Y-133580000D02*
X128060000Y-133710000D01*
X105300000Y-114625000D02*
X109245000Y-114625000D01*
X109780000Y-128500000D02*
X136135000Y-128500000D01*
X109120000Y-127840000D02*
X109780000Y-128500000D01*
X97890000Y-110522855D02*
X101992145Y-114625000D01*
X101992145Y-114625000D02*
X105300000Y-114625000D01*
X109245000Y-114625000D02*
X109320000Y-114700000D01*
X134075000Y-122735000D02*
X136820000Y-122735000D01*
X97890000Y-105714285D02*
X101720715Y-109545000D01*
X101720715Y-109545000D02*
X105300000Y-109545000D01*
X112175000Y-109545000D02*
X112200000Y-109570000D01*
X105300000Y-109545000D02*
X112175000Y-109545000D01*
X132710000Y-121370000D02*
X134075000Y-122735000D01*
X112440000Y-120880000D02*
X125690000Y-120880000D01*
X126180000Y-121370000D02*
X132710000Y-121370000D01*
X125690000Y-120880000D02*
X126180000Y-121370000D01*
X112200000Y-121120000D02*
X112440000Y-120880000D01*
X98865000Y-114815000D02*
X103755000Y-119705000D01*
X108115000Y-119705000D02*
X108180000Y-119640000D01*
X105300000Y-119705000D02*
X108115000Y-119705000D01*
X97890000Y-112927140D02*
X98865000Y-113902140D01*
X98865000Y-113902140D02*
X98865000Y-114815000D01*
X133545000Y-131230000D02*
X135210000Y-132895000D01*
X109805500Y-131230000D02*
X133545000Y-131230000D01*
X108180000Y-132855500D02*
X109805500Y-131230000D01*
X112660000Y-123610000D02*
X130824695Y-123610000D01*
X97890000Y-108118570D02*
X98738570Y-108118570D01*
X130824695Y-123610000D02*
X132489695Y-125275000D01*
X111425000Y-112085000D02*
X111550000Y-112210000D01*
X132489695Y-125275000D02*
X136820000Y-125275000D01*
X102540000Y-111920000D02*
X105135000Y-111920000D01*
X110990000Y-125280000D02*
X112660000Y-123610000D01*
X105300000Y-112085000D02*
X111425000Y-112085000D01*
X98738570Y-108118570D02*
X102540000Y-111920000D01*
X114480000Y-118340000D02*
X133355000Y-118340000D01*
X113835000Y-107005000D02*
X113890000Y-107060000D01*
X97890000Y-103310000D02*
X101585000Y-107005000D01*
X114060000Y-117920000D02*
X114480000Y-118340000D01*
X105300000Y-107005000D02*
X113835000Y-107005000D01*
X101585000Y-107005000D02*
X105300000Y-107005000D01*
X133355000Y-118340000D02*
X135210000Y-120195000D01*
X105300000Y-101925000D02*
X107435000Y-101925000D01*
X107435000Y-101925000D02*
X107500000Y-101860000D01*
X115440000Y-113260000D02*
X133355000Y-113260000D01*
X104280715Y-100905715D02*
X105300000Y-101925000D01*
X133355000Y-113260000D02*
X135210000Y-115115000D01*
X115250000Y-113070000D02*
X115440000Y-113260000D01*
X115130000Y-105370000D02*
X115170000Y-105410000D01*
X97890000Y-100905715D02*
X104280715Y-100905715D01*
X107590000Y-105370000D02*
X115130000Y-105370000D01*
X126770000Y-112120000D02*
X136365000Y-112120000D01*
X108725000Y-99385000D02*
X108800000Y-99310000D01*
X116850000Y-104110000D02*
X116940000Y-104200000D01*
X126640000Y-108180000D02*
X126680000Y-108140000D01*
X117200000Y-108180000D02*
X126640000Y-108180000D01*
X117030000Y-108010000D02*
X117200000Y-108180000D01*
X105300000Y-99385000D02*
X108725000Y-99385000D01*
X104416430Y-98501430D02*
X105300000Y-99385000D01*
X108760000Y-104110000D02*
X116850000Y-104110000D01*
X97890000Y-98501430D02*
X104416430Y-98501430D01*
X80890000Y-133900000D02*
X83325000Y-133900000D01*
X89705500Y-124680000D02*
X88905000Y-124680000D01*
X88960000Y-128310000D02*
X89620000Y-127650000D01*
X88870000Y-128310000D02*
X88960000Y-128310000D01*
X80905000Y-128435000D02*
X81030000Y-128310000D01*
X81030000Y-128310000D02*
X88870000Y-128310000D01*
X99902500Y-153787500D02*
X100420000Y-153270000D01*
X101020000Y-150740000D02*
X102180000Y-150740000D01*
X100410000Y-151350000D02*
X101020000Y-150740000D01*
X98830000Y-153787500D02*
X99902500Y-153787500D01*
X100420000Y-153270000D02*
X100420000Y-151360000D01*
X100420000Y-151360000D02*
X100410000Y-151350000D01*
X50390000Y-94840000D02*
X51730000Y-96180000D01*
X75040000Y-96180000D02*
X75090000Y-96230000D01*
X51730000Y-96180000D02*
X75040000Y-96180000D01*
X75390000Y-122060000D02*
X83505000Y-122060000D01*
X76530000Y-94840000D02*
X76590000Y-94900000D01*
X55390000Y-94840000D02*
X76530000Y-94840000D01*
X76910000Y-120800000D02*
X83495000Y-120800000D01*
X79955000Y-142805000D02*
X83547500Y-142805000D01*
X55390000Y-153260000D02*
X57840000Y-153260000D01*
X57840000Y-143462500D02*
X57887500Y-143510000D01*
X57887500Y-143510000D02*
X79250000Y-143510000D01*
X79250000Y-143510000D02*
X79955000Y-142805000D01*
X80390000Y-119550000D02*
X83475000Y-119550000D01*
X117980000Y-162610000D02*
X120962500Y-162610000D01*
X58580000Y-138020000D02*
X60430000Y-139870000D01*
X77990000Y-127530000D02*
X78050000Y-127590000D01*
X78020000Y-119550000D02*
X80390000Y-119550000D01*
X55390000Y-138020000D02*
X58580000Y-138020000D01*
X60750000Y-127530000D02*
X77990000Y-127530000D01*
X78200000Y-166470000D02*
X114120000Y-166470000D01*
X78050000Y-127590000D02*
X77980000Y-127590000D01*
X81530000Y-99750000D02*
X84220000Y-99750000D01*
X114120000Y-166470000D02*
X117980000Y-162610000D01*
X124460000Y-74240000D02*
X124550001Y-74149999D01*
X124550001Y-74149999D02*
X157479999Y-74149999D01*
X124585000Y-65695000D02*
X124560000Y-65720000D01*
X124585000Y-63960000D02*
X124585000Y-65695000D01*
X79190000Y-123180000D02*
X83495000Y-123340000D01*
X79130000Y-132920000D02*
X55390000Y-132940000D01*
X65584076Y-147594076D02*
X91865924Y-147594076D01*
X51477000Y-144187000D02*
X62177000Y-144187000D01*
X94175924Y-147594076D02*
X94175924Y-147808424D01*
X50390000Y-143100000D02*
X51477000Y-144187000D01*
X94175924Y-147808424D02*
X97880000Y-151512500D01*
X62260000Y-144270000D02*
X65584076Y-147594076D01*
X62177000Y-144187000D02*
X62260000Y-144270000D01*
X104400000Y-151620000D02*
X118210000Y-151620000D01*
X102180000Y-153840000D02*
X104400000Y-151620000D01*
X118195000Y-114625000D02*
X123080000Y-114625000D01*
X118190000Y-114630000D02*
X118195000Y-114625000D01*
X93565000Y-144075000D02*
X97210000Y-147720000D01*
X90472500Y-144075000D02*
X93565000Y-144075000D01*
X97220000Y-147710000D02*
X105235000Y-147710000D01*
X97210000Y-147720000D02*
X97220000Y-147710000D01*
X127170001Y-76850001D02*
X157539999Y-76850001D01*
X127125000Y-65705000D02*
X127110000Y-65720000D01*
X127125000Y-63960000D02*
X127125000Y-65705000D01*
X127160000Y-76840000D02*
X127170001Y-76850001D01*
X129665000Y-65745000D02*
X129700000Y-65780000D01*
X129760000Y-78140000D02*
X156390000Y-78140000D01*
X129665000Y-63960000D02*
X129665000Y-65745000D01*
X156390000Y-78140000D02*
X157590000Y-79340000D01*
X152340000Y-64880000D02*
X157590000Y-64880000D01*
X137285000Y-63960000D02*
X137285000Y-60535000D01*
X152070000Y-60500000D02*
X152100000Y-60530000D01*
X137285000Y-60535000D02*
X137320000Y-60500000D01*
X152170000Y-64710000D02*
X152340000Y-64880000D01*
X137320000Y-60500000D02*
X152070000Y-60500000D01*
X153180000Y-59730000D02*
X153200000Y-59750000D01*
X135240000Y-59730000D02*
X153180000Y-59730000D01*
X134740000Y-60230000D02*
X135240000Y-59730000D01*
X134740000Y-62433604D02*
X134740000Y-60230000D01*
X153250000Y-67420000D02*
X157590000Y-67420000D01*
X90986430Y-102305000D02*
X94790000Y-98501430D01*
X90472500Y-103575000D02*
X92120715Y-103575000D01*
X92120715Y-103575000D02*
X94790000Y-100905715D01*
X93255000Y-104845000D02*
X94790000Y-103310000D01*
X90472500Y-104845000D02*
X93255000Y-104845000D01*
X90472500Y-106115000D02*
X94389285Y-106115000D01*
X94056430Y-107385000D02*
X94790000Y-108118570D01*
X90472500Y-107385000D02*
X94056430Y-107385000D01*
X92922145Y-108655000D02*
X94790000Y-110522855D01*
X90472500Y-108655000D02*
X92922145Y-108655000D01*
X91787860Y-109925000D02*
X94790000Y-112927140D01*
X90472500Y-109925000D02*
X91787860Y-109925000D01*
X90653570Y-111195000D02*
X94790000Y-115331430D01*
X95340000Y-127620000D02*
X95340000Y-132911751D01*
X98175000Y-124785000D02*
X95340000Y-127620000D01*
X95340000Y-132911751D02*
X93066751Y-135185000D01*
X93066751Y-135185000D02*
X90472500Y-135185000D01*
X105300000Y-124785000D02*
X98175000Y-124785000D01*
X131925000Y-162625000D02*
X131960000Y-162590000D01*
X138900000Y-167520000D02*
X138920000Y-167520000D01*
X131964500Y-137980000D02*
X131969500Y-137975000D01*
X131969500Y-137975000D02*
X136820000Y-137975000D01*
X131960000Y-162590000D02*
X133970000Y-162590000D01*
X133970000Y-162590000D02*
X138900000Y-167520000D01*
X127902500Y-162625000D02*
X131925000Y-162625000D01*
X127902500Y-163895000D02*
X133755000Y-163895000D01*
X133755000Y-163895000D02*
X133780000Y-163870000D01*
X133895000Y-140515000D02*
X136820000Y-140515000D01*
X133790000Y-140620000D02*
X133895000Y-140515000D01*
X127902500Y-165165000D02*
X132965000Y-165165000D01*
X133030000Y-145600000D02*
X133035000Y-145595000D01*
X132965000Y-165165000D02*
X133020000Y-165110000D01*
X133035000Y-145595000D02*
X136820000Y-145595000D01*
X154600000Y-160835000D02*
X150815000Y-160835000D01*
X150815000Y-160835000D02*
X150700000Y-160720000D01*
X151525000Y-158295000D02*
X154600000Y-158295000D01*
X113500000Y-165480000D02*
X117640000Y-161340000D01*
X63430000Y-133390000D02*
X64310000Y-134270000D01*
X75420000Y-134270000D02*
X75440000Y-134250000D01*
X75430000Y-165330000D02*
X75580000Y-165480000D01*
X75580000Y-165480000D02*
X113500000Y-165480000D01*
X117640000Y-161340000D02*
X120962500Y-161340000D01*
X64310000Y-134270000D02*
X75420000Y-134270000D01*
X55390000Y-135480000D02*
X57480000Y-133390000D01*
X57480000Y-133390000D02*
X63430000Y-133390000D01*
X55390000Y-140560000D02*
X57470000Y-140560000D01*
X73700000Y-167470000D02*
X114840000Y-167470000D01*
X114840000Y-167470000D02*
X118415000Y-163895000D01*
X59460000Y-142550000D02*
X73580000Y-142550000D01*
X57470000Y-140560000D02*
X59460000Y-142550000D01*
X118415000Y-163895000D02*
X120977500Y-163895000D01*
X101725000Y-85075000D02*
X101725000Y-81740000D01*
X129970000Y-101730000D02*
X144990000Y-101730000D01*
X129650000Y-101730000D02*
X129690000Y-101770000D01*
X128880000Y-92960000D02*
X112830000Y-92960000D01*
X129350000Y-93430000D02*
X128880000Y-92960000D01*
X102680000Y-86030000D02*
X101725000Y-85075000D01*
X129930000Y-101770000D02*
X129970000Y-101730000D01*
X105900000Y-86030000D02*
X102680000Y-86030000D01*
X129650000Y-101730000D02*
X129970000Y-101730000D01*
X112830000Y-92960000D02*
X105900000Y-86030000D01*
X129690000Y-101770000D02*
X129930000Y-101770000D01*
X134770000Y-91750000D02*
X114490000Y-91760000D01*
X134850000Y-96230000D02*
X144990000Y-96230000D01*
X106335000Y-85420000D02*
X108100000Y-85420000D01*
X104265000Y-83350000D02*
X106335000Y-85420000D01*
X108100000Y-85420000D02*
X114450000Y-91770000D01*
X109345000Y-83205000D02*
X116490000Y-90350000D01*
X136410000Y-99570000D02*
X136450000Y-99530000D01*
X136450000Y-99530000D02*
X144990000Y-99530000D01*
X116490000Y-90350000D02*
X136320000Y-90350000D01*
X116750000Y-88060000D02*
X116830000Y-88140000D01*
X116830000Y-88140000D02*
X137450000Y-88140000D01*
X137650000Y-97330000D02*
X144990000Y-97330000D01*
X111885000Y-83195000D02*
X116750000Y-88060000D01*
X137620000Y-97360000D02*
X137650000Y-97330000D01*
X114425000Y-83265000D02*
X118010000Y-86850000D01*
X138740000Y-102820000D02*
X138750000Y-102830000D01*
X118010000Y-86850000D02*
X138740000Y-86850000D01*
X138750000Y-102830000D02*
X144990000Y-102830000D01*
X138740000Y-86850000D02*
X138790000Y-86800000D01*
X119075000Y-85460000D02*
X139740000Y-85460000D01*
X139870000Y-95110000D02*
X139890000Y-95130000D01*
X139740000Y-85460000D02*
X139780000Y-85500000D01*
X116965000Y-83350000D02*
X119075000Y-85460000D01*
X139890000Y-95130000D02*
X144990000Y-95130000D01*
X148250000Y-160605000D02*
X148250000Y-166300000D01*
X143145000Y-160630000D02*
X143145000Y-166275000D01*
X95250000Y-75380000D02*
X97620000Y-75380000D01*
X97620000Y-75380000D02*
X97630000Y-75390000D01*
X97630000Y-75390000D02*
X101955000Y-75390000D01*
X95370000Y-70420000D02*
X101845000Y-70420000D01*
G04 #@! TA.AperFunction,Conductor*
G36*
X112993093Y-172634872D02*
G01*
X113061198Y-172654920D01*
X113107655Y-172708607D01*
X113119006Y-172760872D01*
X113119006Y-174435500D01*
X113099004Y-174503621D01*
X113045348Y-174550114D01*
X112993006Y-174561500D01*
X92052833Y-174561500D01*
X91984712Y-174541498D01*
X91938219Y-174487842D01*
X91926881Y-174432011D01*
X91973654Y-172743354D01*
X91995535Y-172675814D01*
X92050457Y-172630824D01*
X92099689Y-172620843D01*
X112993093Y-172634872D01*
G37*
G04 #@! TD.AperFunction*
M02*
