%TF.GenerationSoftware,KiCad,Pcbnew,6.0.11-2627ca5db0~126~ubuntu22.04.1*%
%TF.CreationDate,2023-02-12T16:42:52+00:00*%
%TF.ProjectId,srom,73726f6d-2e6b-4696-9361-645f70636258,v1.0*%
%TF.SameCoordinates,Original*%
%TF.FileFunction,Drillmap*%
%TF.FilePolarity,Positive*%
%FSLAX45Y45*%
G04 Gerber Fmt 4.5, Leading zero omitted, Abs format (unit mm)*
G04 Created by KiCad (PCBNEW 6.0.11-2627ca5db0~126~ubuntu22.04.1) date 2023-02-12 16:42:52*
%MOMM*%
%LPD*%
G01*
G04 APERTURE LIST*
%ADD10C,0.100000*%
%ADD11C,0.200000*%
%ADD12C,0.150000*%
%ADD13C,0.180000*%
G04 APERTURE END LIST*
D10*
X4542000Y-5612000D02*
X16218000Y-5612000D01*
X16218000Y-5612000D02*
X16218000Y-17507000D01*
X16218000Y-17507000D02*
X4542000Y-17507000D01*
X4542000Y-17507000D02*
X4542000Y-5612000D01*
D11*
D12*
X11101500Y-10179500D02*
X11251500Y-10329500D01*
X11251500Y-10179500D02*
X11101500Y-10329500D01*
X11586500Y-10179500D02*
X11736500Y-10329500D01*
X11736500Y-10179500D02*
X11586500Y-10329500D01*
X14253500Y-11498500D02*
X14403500Y-11648500D01*
X14403500Y-11498500D02*
X14253500Y-11648500D01*
X14607500Y-6967500D02*
X14757500Y-7117500D01*
X14757500Y-6967500D02*
X14607500Y-7117500D01*
X14607500Y-7452500D02*
X14757500Y-7602500D01*
X14757500Y-7452500D02*
X14607500Y-7602500D01*
X14738500Y-11498500D02*
X14888500Y-11648500D01*
X14888500Y-11498500D02*
X14738500Y-11648500D01*
D13*
X11236500Y-9951500D02*
G75*
G03*
X11236500Y-9951500I-90000J0D01*
G01*
X11781500Y-9951500D02*
G75*
G03*
X11781500Y-9951500I-90000J0D01*
G01*
X14388500Y-11270500D02*
G75*
G03*
X14388500Y-11270500I-90000J0D01*
G01*
X14933500Y-11270500D02*
G75*
G03*
X14933500Y-11270500I-90000J0D01*
G01*
X15075500Y-7012500D02*
G75*
G03*
X15075500Y-7012500I-90000J0D01*
G01*
X15075500Y-7557500D02*
G75*
G03*
X15075500Y-7557500I-90000J0D01*
G01*
D11*
X4794619Y-17822476D02*
X4794619Y-17622476D01*
X4842238Y-17622476D01*
X4870810Y-17632000D01*
X4889857Y-17651048D01*
X4899381Y-17670095D01*
X4908905Y-17708190D01*
X4908905Y-17736762D01*
X4899381Y-17774857D01*
X4889857Y-17793905D01*
X4870810Y-17812952D01*
X4842238Y-17822476D01*
X4794619Y-17822476D01*
X4994619Y-17822476D02*
X4994619Y-17689143D01*
X4994619Y-17727238D02*
X5004143Y-17708190D01*
X5013667Y-17698667D01*
X5032714Y-17689143D01*
X5051762Y-17689143D01*
X5118429Y-17822476D02*
X5118429Y-17689143D01*
X5118429Y-17622476D02*
X5108905Y-17632000D01*
X5118429Y-17641524D01*
X5127952Y-17632000D01*
X5118429Y-17622476D01*
X5118429Y-17641524D01*
X5242238Y-17822476D02*
X5223190Y-17812952D01*
X5213667Y-17793905D01*
X5213667Y-17622476D01*
X5347000Y-17822476D02*
X5327952Y-17812952D01*
X5318429Y-17793905D01*
X5318429Y-17622476D01*
X5575571Y-17822476D02*
X5575571Y-17622476D01*
X5642238Y-17765333D01*
X5708905Y-17622476D01*
X5708905Y-17822476D01*
X5889857Y-17822476D02*
X5889857Y-17717714D01*
X5880333Y-17698667D01*
X5861286Y-17689143D01*
X5823190Y-17689143D01*
X5804143Y-17698667D01*
X5889857Y-17812952D02*
X5870809Y-17822476D01*
X5823190Y-17822476D01*
X5804143Y-17812952D01*
X5794619Y-17793905D01*
X5794619Y-17774857D01*
X5804143Y-17755810D01*
X5823190Y-17746286D01*
X5870809Y-17746286D01*
X5889857Y-17736762D01*
X5985095Y-17689143D02*
X5985095Y-17889143D01*
X5985095Y-17698667D02*
X6004143Y-17689143D01*
X6042238Y-17689143D01*
X6061286Y-17698667D01*
X6070809Y-17708190D01*
X6080333Y-17727238D01*
X6080333Y-17784381D01*
X6070809Y-17803429D01*
X6061286Y-17812952D01*
X6042238Y-17822476D01*
X6004143Y-17822476D01*
X5985095Y-17812952D01*
X6166048Y-17803429D02*
X6175571Y-17812952D01*
X6166048Y-17822476D01*
X6156524Y-17812952D01*
X6166048Y-17803429D01*
X6166048Y-17822476D01*
X6166048Y-17698667D02*
X6175571Y-17708190D01*
X6166048Y-17717714D01*
X6156524Y-17708190D01*
X6166048Y-17698667D01*
X6166048Y-17717714D01*
D12*
X4387000Y-18077000D02*
X4537000Y-18227000D01*
X4537000Y-18077000D02*
X4387000Y-18227000D01*
D11*
X4899381Y-18242476D02*
X4785095Y-18242476D01*
X4842238Y-18242476D02*
X4842238Y-18042476D01*
X4823190Y-18071048D01*
X4804143Y-18090095D01*
X4785095Y-18099619D01*
X4985095Y-18223429D02*
X4994619Y-18232952D01*
X4985095Y-18242476D01*
X4975571Y-18232952D01*
X4985095Y-18223429D01*
X4985095Y-18242476D01*
X5175571Y-18042476D02*
X5080333Y-18042476D01*
X5070810Y-18137714D01*
X5080333Y-18128190D01*
X5099381Y-18118667D01*
X5147000Y-18118667D01*
X5166048Y-18128190D01*
X5175571Y-18137714D01*
X5185095Y-18156762D01*
X5185095Y-18204381D01*
X5175571Y-18223429D01*
X5166048Y-18232952D01*
X5147000Y-18242476D01*
X5099381Y-18242476D01*
X5080333Y-18232952D01*
X5070810Y-18223429D01*
X5308905Y-18042476D02*
X5327952Y-18042476D01*
X5347000Y-18052000D01*
X5356524Y-18061524D01*
X5366048Y-18080571D01*
X5375571Y-18118667D01*
X5375571Y-18166286D01*
X5366048Y-18204381D01*
X5356524Y-18223429D01*
X5347000Y-18232952D01*
X5327952Y-18242476D01*
X5308905Y-18242476D01*
X5289857Y-18232952D01*
X5280333Y-18223429D01*
X5270810Y-18204381D01*
X5261286Y-18166286D01*
X5261286Y-18118667D01*
X5270810Y-18080571D01*
X5280333Y-18061524D01*
X5289857Y-18052000D01*
X5308905Y-18042476D01*
X5499381Y-18042476D02*
X5518429Y-18042476D01*
X5537476Y-18052000D01*
X5547000Y-18061524D01*
X5556524Y-18080571D01*
X5566048Y-18118667D01*
X5566048Y-18166286D01*
X5556524Y-18204381D01*
X5547000Y-18223429D01*
X5537476Y-18232952D01*
X5518429Y-18242476D01*
X5499381Y-18242476D01*
X5480333Y-18232952D01*
X5470810Y-18223429D01*
X5461286Y-18204381D01*
X5451762Y-18166286D01*
X5451762Y-18118667D01*
X5461286Y-18080571D01*
X5470810Y-18061524D01*
X5480333Y-18052000D01*
X5499381Y-18042476D01*
X5651762Y-18242476D02*
X5651762Y-18109143D01*
X5651762Y-18128190D02*
X5661286Y-18118667D01*
X5680333Y-18109143D01*
X5708905Y-18109143D01*
X5727952Y-18118667D01*
X5737476Y-18137714D01*
X5737476Y-18242476D01*
X5737476Y-18137714D02*
X5747000Y-18118667D01*
X5766048Y-18109143D01*
X5794619Y-18109143D01*
X5813667Y-18118667D01*
X5823190Y-18137714D01*
X5823190Y-18242476D01*
X5918428Y-18242476D02*
X5918428Y-18109143D01*
X5918428Y-18128190D02*
X5927952Y-18118667D01*
X5947000Y-18109143D01*
X5975571Y-18109143D01*
X5994619Y-18118667D01*
X6004143Y-18137714D01*
X6004143Y-18242476D01*
X6004143Y-18137714D02*
X6013667Y-18118667D01*
X6032714Y-18109143D01*
X6061286Y-18109143D01*
X6080333Y-18118667D01*
X6089857Y-18137714D01*
X6089857Y-18242476D01*
X6480333Y-18032952D02*
X6308905Y-18290095D01*
X6737476Y-18042476D02*
X6756524Y-18042476D01*
X6775571Y-18052000D01*
X6785095Y-18061524D01*
X6794619Y-18080571D01*
X6804143Y-18118667D01*
X6804143Y-18166286D01*
X6794619Y-18204381D01*
X6785095Y-18223429D01*
X6775571Y-18232952D01*
X6756524Y-18242476D01*
X6737476Y-18242476D01*
X6718428Y-18232952D01*
X6708905Y-18223429D01*
X6699381Y-18204381D01*
X6689857Y-18166286D01*
X6689857Y-18118667D01*
X6699381Y-18080571D01*
X6708905Y-18061524D01*
X6718428Y-18052000D01*
X6737476Y-18042476D01*
X6889857Y-18223429D02*
X6899381Y-18232952D01*
X6889857Y-18242476D01*
X6880333Y-18232952D01*
X6889857Y-18223429D01*
X6889857Y-18242476D01*
X7023190Y-18042476D02*
X7042238Y-18042476D01*
X7061286Y-18052000D01*
X7070809Y-18061524D01*
X7080333Y-18080571D01*
X7089857Y-18118667D01*
X7089857Y-18166286D01*
X7080333Y-18204381D01*
X7070809Y-18223429D01*
X7061286Y-18232952D01*
X7042238Y-18242476D01*
X7023190Y-18242476D01*
X7004143Y-18232952D01*
X6994619Y-18223429D01*
X6985095Y-18204381D01*
X6975571Y-18166286D01*
X6975571Y-18118667D01*
X6985095Y-18080571D01*
X6994619Y-18061524D01*
X7004143Y-18052000D01*
X7023190Y-18042476D01*
X7270809Y-18042476D02*
X7175571Y-18042476D01*
X7166048Y-18137714D01*
X7175571Y-18128190D01*
X7194619Y-18118667D01*
X7242238Y-18118667D01*
X7261286Y-18128190D01*
X7270809Y-18137714D01*
X7280333Y-18156762D01*
X7280333Y-18204381D01*
X7270809Y-18223429D01*
X7261286Y-18232952D01*
X7242238Y-18242476D01*
X7194619Y-18242476D01*
X7175571Y-18232952D01*
X7166048Y-18223429D01*
X7375571Y-18242476D02*
X7413667Y-18242476D01*
X7432714Y-18232952D01*
X7442238Y-18223429D01*
X7461286Y-18194857D01*
X7470809Y-18156762D01*
X7470809Y-18080571D01*
X7461286Y-18061524D01*
X7451762Y-18052000D01*
X7432714Y-18042476D01*
X7394619Y-18042476D01*
X7375571Y-18052000D01*
X7366048Y-18061524D01*
X7356524Y-18080571D01*
X7356524Y-18128190D01*
X7366048Y-18147238D01*
X7375571Y-18156762D01*
X7394619Y-18166286D01*
X7432714Y-18166286D01*
X7451762Y-18156762D01*
X7461286Y-18147238D01*
X7470809Y-18128190D01*
X7661286Y-18242476D02*
X7547000Y-18242476D01*
X7604143Y-18242476D02*
X7604143Y-18042476D01*
X7585095Y-18071048D01*
X7566048Y-18090095D01*
X7547000Y-18099619D01*
X7737476Y-18042476D02*
X7737476Y-18080571D01*
X7813667Y-18042476D02*
X7813667Y-18080571D01*
X8108905Y-18318667D02*
X8099381Y-18309143D01*
X8080333Y-18280571D01*
X8070809Y-18261524D01*
X8061286Y-18232952D01*
X8051762Y-18185333D01*
X8051762Y-18147238D01*
X8061286Y-18099619D01*
X8070809Y-18071048D01*
X8080333Y-18052000D01*
X8099381Y-18023429D01*
X8108905Y-18013905D01*
X8270809Y-18042476D02*
X8232714Y-18042476D01*
X8213667Y-18052000D01*
X8204143Y-18061524D01*
X8185095Y-18090095D01*
X8175571Y-18128190D01*
X8175571Y-18204381D01*
X8185095Y-18223429D01*
X8194619Y-18232952D01*
X8213667Y-18242476D01*
X8251762Y-18242476D01*
X8270809Y-18232952D01*
X8280333Y-18223429D01*
X8289857Y-18204381D01*
X8289857Y-18156762D01*
X8280333Y-18137714D01*
X8270809Y-18128190D01*
X8251762Y-18118667D01*
X8213667Y-18118667D01*
X8194619Y-18128190D01*
X8185095Y-18137714D01*
X8175571Y-18156762D01*
X8527952Y-18242476D02*
X8527952Y-18042476D01*
X8613667Y-18242476D02*
X8613667Y-18137714D01*
X8604143Y-18118667D01*
X8585095Y-18109143D01*
X8556524Y-18109143D01*
X8537476Y-18118667D01*
X8527952Y-18128190D01*
X8737476Y-18242476D02*
X8718429Y-18232952D01*
X8708905Y-18223429D01*
X8699381Y-18204381D01*
X8699381Y-18147238D01*
X8708905Y-18128190D01*
X8718429Y-18118667D01*
X8737476Y-18109143D01*
X8766048Y-18109143D01*
X8785095Y-18118667D01*
X8794619Y-18128190D01*
X8804143Y-18147238D01*
X8804143Y-18204381D01*
X8794619Y-18223429D01*
X8785095Y-18232952D01*
X8766048Y-18242476D01*
X8737476Y-18242476D01*
X8918429Y-18242476D02*
X8899381Y-18232952D01*
X8889857Y-18213905D01*
X8889857Y-18042476D01*
X9070810Y-18232952D02*
X9051762Y-18242476D01*
X9013667Y-18242476D01*
X8994619Y-18232952D01*
X8985095Y-18213905D01*
X8985095Y-18137714D01*
X8994619Y-18118667D01*
X9013667Y-18109143D01*
X9051762Y-18109143D01*
X9070810Y-18118667D01*
X9080333Y-18137714D01*
X9080333Y-18156762D01*
X8985095Y-18175810D01*
X9156524Y-18232952D02*
X9175571Y-18242476D01*
X9213667Y-18242476D01*
X9232714Y-18232952D01*
X9242238Y-18213905D01*
X9242238Y-18204381D01*
X9232714Y-18185333D01*
X9213667Y-18175810D01*
X9185095Y-18175810D01*
X9166048Y-18166286D01*
X9156524Y-18147238D01*
X9156524Y-18137714D01*
X9166048Y-18118667D01*
X9185095Y-18109143D01*
X9213667Y-18109143D01*
X9232714Y-18118667D01*
X9308905Y-18318667D02*
X9318429Y-18309143D01*
X9337476Y-18280571D01*
X9347000Y-18261524D01*
X9356524Y-18232952D01*
X9366048Y-18185333D01*
X9366048Y-18147238D01*
X9356524Y-18099619D01*
X9347000Y-18071048D01*
X9337476Y-18052000D01*
X9318429Y-18023429D01*
X9308905Y-18013905D01*
X9670810Y-18318667D02*
X9661286Y-18309143D01*
X9642238Y-18280571D01*
X9632714Y-18261524D01*
X9623190Y-18232952D01*
X9613667Y-18185333D01*
X9613667Y-18147238D01*
X9623190Y-18099619D01*
X9632714Y-18071048D01*
X9642238Y-18052000D01*
X9661286Y-18023429D01*
X9670810Y-18013905D01*
X9747000Y-18109143D02*
X9747000Y-18242476D01*
X9747000Y-18128190D02*
X9756524Y-18118667D01*
X9775571Y-18109143D01*
X9804143Y-18109143D01*
X9823190Y-18118667D01*
X9832714Y-18137714D01*
X9832714Y-18242476D01*
X9956524Y-18242476D02*
X9937476Y-18232952D01*
X9927952Y-18223429D01*
X9918429Y-18204381D01*
X9918429Y-18147238D01*
X9927952Y-18128190D01*
X9937476Y-18118667D01*
X9956524Y-18109143D01*
X9985095Y-18109143D01*
X10004143Y-18118667D01*
X10013667Y-18128190D01*
X10023190Y-18147238D01*
X10023190Y-18204381D01*
X10013667Y-18223429D01*
X10004143Y-18232952D01*
X9985095Y-18242476D01*
X9956524Y-18242476D01*
X10080333Y-18109143D02*
X10156524Y-18109143D01*
X10108905Y-18042476D02*
X10108905Y-18213905D01*
X10118429Y-18232952D01*
X10137476Y-18242476D01*
X10156524Y-18242476D01*
X10375571Y-18109143D02*
X10375571Y-18309143D01*
X10375571Y-18118667D02*
X10394619Y-18109143D01*
X10432714Y-18109143D01*
X10451762Y-18118667D01*
X10461286Y-18128190D01*
X10470810Y-18147238D01*
X10470810Y-18204381D01*
X10461286Y-18223429D01*
X10451762Y-18232952D01*
X10432714Y-18242476D01*
X10394619Y-18242476D01*
X10375571Y-18232952D01*
X10585095Y-18242476D02*
X10566048Y-18232952D01*
X10556524Y-18213905D01*
X10556524Y-18042476D01*
X10747000Y-18242476D02*
X10747000Y-18137714D01*
X10737476Y-18118667D01*
X10718429Y-18109143D01*
X10680333Y-18109143D01*
X10661286Y-18118667D01*
X10747000Y-18232952D02*
X10727952Y-18242476D01*
X10680333Y-18242476D01*
X10661286Y-18232952D01*
X10651762Y-18213905D01*
X10651762Y-18194857D01*
X10661286Y-18175810D01*
X10680333Y-18166286D01*
X10727952Y-18166286D01*
X10747000Y-18156762D01*
X10813667Y-18109143D02*
X10889857Y-18109143D01*
X10842238Y-18042476D02*
X10842238Y-18213905D01*
X10851762Y-18232952D01*
X10870810Y-18242476D01*
X10889857Y-18242476D01*
X11032714Y-18232952D02*
X11013667Y-18242476D01*
X10975571Y-18242476D01*
X10956524Y-18232952D01*
X10947000Y-18213905D01*
X10947000Y-18137714D01*
X10956524Y-18118667D01*
X10975571Y-18109143D01*
X11013667Y-18109143D01*
X11032714Y-18118667D01*
X11042238Y-18137714D01*
X11042238Y-18156762D01*
X10947000Y-18175810D01*
X11213667Y-18242476D02*
X11213667Y-18042476D01*
X11213667Y-18232952D02*
X11194619Y-18242476D01*
X11156524Y-18242476D01*
X11137476Y-18232952D01*
X11127952Y-18223429D01*
X11118429Y-18204381D01*
X11118429Y-18147238D01*
X11127952Y-18128190D01*
X11137476Y-18118667D01*
X11156524Y-18109143D01*
X11194619Y-18109143D01*
X11213667Y-18118667D01*
X11289857Y-18318667D02*
X11299381Y-18309143D01*
X11318428Y-18280571D01*
X11327952Y-18261524D01*
X11337476Y-18232952D01*
X11347000Y-18185333D01*
X11347000Y-18147238D01*
X11337476Y-18099619D01*
X11327952Y-18071048D01*
X11318428Y-18052000D01*
X11299381Y-18023429D01*
X11289857Y-18013905D01*
D13*
X4537000Y-18422000D02*
G75*
G03*
X4537000Y-18422000I-90000J0D01*
G01*
D11*
X4899381Y-18512476D02*
X4785095Y-18512476D01*
X4842238Y-18512476D02*
X4842238Y-18312476D01*
X4823190Y-18341048D01*
X4804143Y-18360095D01*
X4785095Y-18369619D01*
X4985095Y-18493429D02*
X4994619Y-18502952D01*
X4985095Y-18512476D01*
X4975571Y-18502952D01*
X4985095Y-18493429D01*
X4985095Y-18512476D01*
X5108905Y-18398190D02*
X5089857Y-18388667D01*
X5080333Y-18379143D01*
X5070810Y-18360095D01*
X5070810Y-18350571D01*
X5080333Y-18331524D01*
X5089857Y-18322000D01*
X5108905Y-18312476D01*
X5147000Y-18312476D01*
X5166048Y-18322000D01*
X5175571Y-18331524D01*
X5185095Y-18350571D01*
X5185095Y-18360095D01*
X5175571Y-18379143D01*
X5166048Y-18388667D01*
X5147000Y-18398190D01*
X5108905Y-18398190D01*
X5089857Y-18407714D01*
X5080333Y-18417238D01*
X5070810Y-18436286D01*
X5070810Y-18474381D01*
X5080333Y-18493429D01*
X5089857Y-18502952D01*
X5108905Y-18512476D01*
X5147000Y-18512476D01*
X5166048Y-18502952D01*
X5175571Y-18493429D01*
X5185095Y-18474381D01*
X5185095Y-18436286D01*
X5175571Y-18417238D01*
X5166048Y-18407714D01*
X5147000Y-18398190D01*
X5308905Y-18312476D02*
X5327952Y-18312476D01*
X5347000Y-18322000D01*
X5356524Y-18331524D01*
X5366048Y-18350571D01*
X5375571Y-18388667D01*
X5375571Y-18436286D01*
X5366048Y-18474381D01*
X5356524Y-18493429D01*
X5347000Y-18502952D01*
X5327952Y-18512476D01*
X5308905Y-18512476D01*
X5289857Y-18502952D01*
X5280333Y-18493429D01*
X5270810Y-18474381D01*
X5261286Y-18436286D01*
X5261286Y-18388667D01*
X5270810Y-18350571D01*
X5280333Y-18331524D01*
X5289857Y-18322000D01*
X5308905Y-18312476D01*
X5499381Y-18312476D02*
X5518429Y-18312476D01*
X5537476Y-18322000D01*
X5547000Y-18331524D01*
X5556524Y-18350571D01*
X5566048Y-18388667D01*
X5566048Y-18436286D01*
X5556524Y-18474381D01*
X5547000Y-18493429D01*
X5537476Y-18502952D01*
X5518429Y-18512476D01*
X5499381Y-18512476D01*
X5480333Y-18502952D01*
X5470810Y-18493429D01*
X5461286Y-18474381D01*
X5451762Y-18436286D01*
X5451762Y-18388667D01*
X5461286Y-18350571D01*
X5470810Y-18331524D01*
X5480333Y-18322000D01*
X5499381Y-18312476D01*
X5651762Y-18512476D02*
X5651762Y-18379143D01*
X5651762Y-18398190D02*
X5661286Y-18388667D01*
X5680333Y-18379143D01*
X5708905Y-18379143D01*
X5727952Y-18388667D01*
X5737476Y-18407714D01*
X5737476Y-18512476D01*
X5737476Y-18407714D02*
X5747000Y-18388667D01*
X5766048Y-18379143D01*
X5794619Y-18379143D01*
X5813667Y-18388667D01*
X5823190Y-18407714D01*
X5823190Y-18512476D01*
X5918428Y-18512476D02*
X5918428Y-18379143D01*
X5918428Y-18398190D02*
X5927952Y-18388667D01*
X5947000Y-18379143D01*
X5975571Y-18379143D01*
X5994619Y-18388667D01*
X6004143Y-18407714D01*
X6004143Y-18512476D01*
X6004143Y-18407714D02*
X6013667Y-18388667D01*
X6032714Y-18379143D01*
X6061286Y-18379143D01*
X6080333Y-18388667D01*
X6089857Y-18407714D01*
X6089857Y-18512476D01*
X6480333Y-18302952D02*
X6308905Y-18560095D01*
X6737476Y-18312476D02*
X6756524Y-18312476D01*
X6775571Y-18322000D01*
X6785095Y-18331524D01*
X6794619Y-18350571D01*
X6804143Y-18388667D01*
X6804143Y-18436286D01*
X6794619Y-18474381D01*
X6785095Y-18493429D01*
X6775571Y-18502952D01*
X6756524Y-18512476D01*
X6737476Y-18512476D01*
X6718428Y-18502952D01*
X6708905Y-18493429D01*
X6699381Y-18474381D01*
X6689857Y-18436286D01*
X6689857Y-18388667D01*
X6699381Y-18350571D01*
X6708905Y-18331524D01*
X6718428Y-18322000D01*
X6737476Y-18312476D01*
X6889857Y-18493429D02*
X6899381Y-18502952D01*
X6889857Y-18512476D01*
X6880333Y-18502952D01*
X6889857Y-18493429D01*
X6889857Y-18512476D01*
X7023190Y-18312476D02*
X7042238Y-18312476D01*
X7061286Y-18322000D01*
X7070809Y-18331524D01*
X7080333Y-18350571D01*
X7089857Y-18388667D01*
X7089857Y-18436286D01*
X7080333Y-18474381D01*
X7070809Y-18493429D01*
X7061286Y-18502952D01*
X7042238Y-18512476D01*
X7023190Y-18512476D01*
X7004143Y-18502952D01*
X6994619Y-18493429D01*
X6985095Y-18474381D01*
X6975571Y-18436286D01*
X6975571Y-18388667D01*
X6985095Y-18350571D01*
X6994619Y-18331524D01*
X7004143Y-18322000D01*
X7023190Y-18312476D01*
X7156524Y-18312476D02*
X7289857Y-18312476D01*
X7204143Y-18512476D01*
X7404143Y-18312476D02*
X7423190Y-18312476D01*
X7442238Y-18322000D01*
X7451762Y-18331524D01*
X7461286Y-18350571D01*
X7470809Y-18388667D01*
X7470809Y-18436286D01*
X7461286Y-18474381D01*
X7451762Y-18493429D01*
X7442238Y-18502952D01*
X7423190Y-18512476D01*
X7404143Y-18512476D01*
X7385095Y-18502952D01*
X7375571Y-18493429D01*
X7366048Y-18474381D01*
X7356524Y-18436286D01*
X7356524Y-18388667D01*
X7366048Y-18350571D01*
X7375571Y-18331524D01*
X7385095Y-18322000D01*
X7404143Y-18312476D01*
X7566048Y-18512476D02*
X7604143Y-18512476D01*
X7623190Y-18502952D01*
X7632714Y-18493429D01*
X7651762Y-18464857D01*
X7661286Y-18426762D01*
X7661286Y-18350571D01*
X7651762Y-18331524D01*
X7642238Y-18322000D01*
X7623190Y-18312476D01*
X7585095Y-18312476D01*
X7566048Y-18322000D01*
X7556524Y-18331524D01*
X7547000Y-18350571D01*
X7547000Y-18398190D01*
X7556524Y-18417238D01*
X7566048Y-18426762D01*
X7585095Y-18436286D01*
X7623190Y-18436286D01*
X7642238Y-18426762D01*
X7651762Y-18417238D01*
X7661286Y-18398190D01*
X7737476Y-18312476D02*
X7737476Y-18350571D01*
X7813667Y-18312476D02*
X7813667Y-18350571D01*
X8108905Y-18588667D02*
X8099381Y-18579143D01*
X8080333Y-18550571D01*
X8070809Y-18531524D01*
X8061286Y-18502952D01*
X8051762Y-18455333D01*
X8051762Y-18417238D01*
X8061286Y-18369619D01*
X8070809Y-18341048D01*
X8080333Y-18322000D01*
X8099381Y-18293429D01*
X8108905Y-18283905D01*
X8270809Y-18312476D02*
X8232714Y-18312476D01*
X8213667Y-18322000D01*
X8204143Y-18331524D01*
X8185095Y-18360095D01*
X8175571Y-18398190D01*
X8175571Y-18474381D01*
X8185095Y-18493429D01*
X8194619Y-18502952D01*
X8213667Y-18512476D01*
X8251762Y-18512476D01*
X8270809Y-18502952D01*
X8280333Y-18493429D01*
X8289857Y-18474381D01*
X8289857Y-18426762D01*
X8280333Y-18407714D01*
X8270809Y-18398190D01*
X8251762Y-18388667D01*
X8213667Y-18388667D01*
X8194619Y-18398190D01*
X8185095Y-18407714D01*
X8175571Y-18426762D01*
X8527952Y-18512476D02*
X8527952Y-18312476D01*
X8613667Y-18512476D02*
X8613667Y-18407714D01*
X8604143Y-18388667D01*
X8585095Y-18379143D01*
X8556524Y-18379143D01*
X8537476Y-18388667D01*
X8527952Y-18398190D01*
X8737476Y-18512476D02*
X8718429Y-18502952D01*
X8708905Y-18493429D01*
X8699381Y-18474381D01*
X8699381Y-18417238D01*
X8708905Y-18398190D01*
X8718429Y-18388667D01*
X8737476Y-18379143D01*
X8766048Y-18379143D01*
X8785095Y-18388667D01*
X8794619Y-18398190D01*
X8804143Y-18417238D01*
X8804143Y-18474381D01*
X8794619Y-18493429D01*
X8785095Y-18502952D01*
X8766048Y-18512476D01*
X8737476Y-18512476D01*
X8918429Y-18512476D02*
X8899381Y-18502952D01*
X8889857Y-18483905D01*
X8889857Y-18312476D01*
X9070810Y-18502952D02*
X9051762Y-18512476D01*
X9013667Y-18512476D01*
X8994619Y-18502952D01*
X8985095Y-18483905D01*
X8985095Y-18407714D01*
X8994619Y-18388667D01*
X9013667Y-18379143D01*
X9051762Y-18379143D01*
X9070810Y-18388667D01*
X9080333Y-18407714D01*
X9080333Y-18426762D01*
X8985095Y-18445810D01*
X9156524Y-18502952D02*
X9175571Y-18512476D01*
X9213667Y-18512476D01*
X9232714Y-18502952D01*
X9242238Y-18483905D01*
X9242238Y-18474381D01*
X9232714Y-18455333D01*
X9213667Y-18445810D01*
X9185095Y-18445810D01*
X9166048Y-18436286D01*
X9156524Y-18417238D01*
X9156524Y-18407714D01*
X9166048Y-18388667D01*
X9185095Y-18379143D01*
X9213667Y-18379143D01*
X9232714Y-18388667D01*
X9308905Y-18588667D02*
X9318429Y-18579143D01*
X9337476Y-18550571D01*
X9347000Y-18531524D01*
X9356524Y-18502952D01*
X9366048Y-18455333D01*
X9366048Y-18417238D01*
X9356524Y-18369619D01*
X9347000Y-18341048D01*
X9337476Y-18322000D01*
X9318429Y-18293429D01*
X9308905Y-18283905D01*
X9670810Y-18588667D02*
X9661286Y-18579143D01*
X9642238Y-18550571D01*
X9632714Y-18531524D01*
X9623190Y-18502952D01*
X9613667Y-18455333D01*
X9613667Y-18417238D01*
X9623190Y-18369619D01*
X9632714Y-18341048D01*
X9642238Y-18322000D01*
X9661286Y-18293429D01*
X9670810Y-18283905D01*
X9747000Y-18379143D02*
X9747000Y-18512476D01*
X9747000Y-18398190D02*
X9756524Y-18388667D01*
X9775571Y-18379143D01*
X9804143Y-18379143D01*
X9823190Y-18388667D01*
X9832714Y-18407714D01*
X9832714Y-18512476D01*
X9956524Y-18512476D02*
X9937476Y-18502952D01*
X9927952Y-18493429D01*
X9918429Y-18474381D01*
X9918429Y-18417238D01*
X9927952Y-18398190D01*
X9937476Y-18388667D01*
X9956524Y-18379143D01*
X9985095Y-18379143D01*
X10004143Y-18388667D01*
X10013667Y-18398190D01*
X10023190Y-18417238D01*
X10023190Y-18474381D01*
X10013667Y-18493429D01*
X10004143Y-18502952D01*
X9985095Y-18512476D01*
X9956524Y-18512476D01*
X10080333Y-18379143D02*
X10156524Y-18379143D01*
X10108905Y-18312476D02*
X10108905Y-18483905D01*
X10118429Y-18502952D01*
X10137476Y-18512476D01*
X10156524Y-18512476D01*
X10375571Y-18379143D02*
X10375571Y-18579143D01*
X10375571Y-18388667D02*
X10394619Y-18379143D01*
X10432714Y-18379143D01*
X10451762Y-18388667D01*
X10461286Y-18398190D01*
X10470810Y-18417238D01*
X10470810Y-18474381D01*
X10461286Y-18493429D01*
X10451762Y-18502952D01*
X10432714Y-18512476D01*
X10394619Y-18512476D01*
X10375571Y-18502952D01*
X10585095Y-18512476D02*
X10566048Y-18502952D01*
X10556524Y-18483905D01*
X10556524Y-18312476D01*
X10747000Y-18512476D02*
X10747000Y-18407714D01*
X10737476Y-18388667D01*
X10718429Y-18379143D01*
X10680333Y-18379143D01*
X10661286Y-18388667D01*
X10747000Y-18502952D02*
X10727952Y-18512476D01*
X10680333Y-18512476D01*
X10661286Y-18502952D01*
X10651762Y-18483905D01*
X10651762Y-18464857D01*
X10661286Y-18445810D01*
X10680333Y-18436286D01*
X10727952Y-18436286D01*
X10747000Y-18426762D01*
X10813667Y-18379143D02*
X10889857Y-18379143D01*
X10842238Y-18312476D02*
X10842238Y-18483905D01*
X10851762Y-18502952D01*
X10870810Y-18512476D01*
X10889857Y-18512476D01*
X11032714Y-18502952D02*
X11013667Y-18512476D01*
X10975571Y-18512476D01*
X10956524Y-18502952D01*
X10947000Y-18483905D01*
X10947000Y-18407714D01*
X10956524Y-18388667D01*
X10975571Y-18379143D01*
X11013667Y-18379143D01*
X11032714Y-18388667D01*
X11042238Y-18407714D01*
X11042238Y-18426762D01*
X10947000Y-18445810D01*
X11213667Y-18512476D02*
X11213667Y-18312476D01*
X11213667Y-18502952D02*
X11194619Y-18512476D01*
X11156524Y-18512476D01*
X11137476Y-18502952D01*
X11127952Y-18493429D01*
X11118429Y-18474381D01*
X11118429Y-18417238D01*
X11127952Y-18398190D01*
X11137476Y-18388667D01*
X11156524Y-18379143D01*
X11194619Y-18379143D01*
X11213667Y-18388667D01*
X11289857Y-18588667D02*
X11299381Y-18579143D01*
X11318428Y-18550571D01*
X11327952Y-18531524D01*
X11337476Y-18502952D01*
X11347000Y-18455333D01*
X11347000Y-18417238D01*
X11337476Y-18369619D01*
X11327952Y-18341048D01*
X11318428Y-18322000D01*
X11299381Y-18293429D01*
X11289857Y-18283905D01*
M02*
