M48
; DRILL file {KiCad 6.0.11-2627ca5db0~126~ubuntu22.04.1} date Tue 18 Apr 2023 11:11:39 BST
; FORMAT={-:-/ absolute / metric / decimal}
; #@! TF.CreationDate,2023-04-18T11:11:39+01:00
; #@! TF.GenerationSoftware,Kicad,Pcbnew,6.0.11-2627ca5db0~126~ubuntu22.04.1
; #@! TF.FileFunction,Plated,1,2,PTH
FMAT,2
METRIC
; #@! TA.AperFunction,Plated,PTH,ViaDrill
T1C0.400
; #@! TA.AperFunction,Plated,PTH,ComponentDrill
T2C0.762
; #@! TA.AperFunction,Plated,PTH,ComponentDrill
T3C1.000
; #@! TA.AperFunction,Plated,PTH,ComponentDrill
T4C1.020
%
G90
G05
T1
X47.9Y-99.9
X47.99Y-155.82
X51.95Y-139.11
X51.97Y-145.64
X51.98Y-146.99
X52.06Y-153.3
X52.17Y-110.18
X52.19Y-127.94
X52.84Y-93.05
X52.86Y-99.89
X52.86Y-150.72
X52.89Y-149.59
X53.164Y-120.25
X53.19Y-134.24
X53.42Y-148.26
X53.43Y-144.41
X58.06Y-132.98
X58.08Y-130.46
X58.08Y-137.96
X58.16Y-107.63
X58.2Y-101.02
X58.39Y-150.7
X58.9Y-140.53
X58.94Y-149.69
X58.96Y-102.26
X58.96Y-109.98
X59.07Y-124.2
X59.1Y-131.36
X59.76Y-151.51
X59.77Y-135.5
X59.85Y-103.46
X59.85Y-112.56
X60.01Y-130.43
X60.19Y-123.68
X60.91Y-104.75
X60.91Y-120.28
X60.96Y-145.65
X61.01Y-134.26
X61.04Y-152.83
X61.07Y-130.89
X61.85Y-106.07
X61.85Y-122.68
X61.86Y-138.06
X62.02Y-144.4
X62.04Y-147.72
X62.61Y-107.27
X62.65Y-117.66
X62.68Y-119.85
X63.47Y-141.88
X63.48Y-154.52
X63.5Y-108.56
X63.5Y-115.13
X64.03Y-99.82
X64.3Y-109.88
X64.96Y-97.43
X65.28Y-127.9
X66.01Y-94.86
X66.02Y-121.13
X66.83Y-96.13
X66.88Y-122.42
X67.75Y-98.73
X67.78Y-132.95
X74.84Y-114.97
X74.84Y-116.43
X76.03Y-139.21
X76.04Y-147.02
X76.4Y-124.96
X76.42Y-118.6
X76.67Y-115.85
X76.71Y-94.42
X78.1Y-92.89
X78.1Y-99.76
X78.36Y-130.481
X78.41Y-135.16
X78.45Y-126.23
X78.47Y-145.27
X80.16Y-112.13
X83.14Y-96.29
X85.06Y-135.17
X87.17Y-126.25
X87.66Y-117.91
X88.4Y-124.88
X88.45Y-71.63
X88.46Y-130.481
X88.568Y-114.822
X89.01Y-98.34
X89.02Y-99.84
X89.124Y-126.5
X89.13Y-96.3
X89.84Y-114.75
X89.849Y-123.98
X89.855Y-133.875
X89.86Y-137.19
X91.49Y-132.03
X91.49Y-134.02
X93.25Y-139.06
X96.26Y-147.61
X96.31Y-136.56
X96.57Y-129.57
X96.6Y-135.14
X97.55Y-139.11
X97.59Y-148.965
X98.22Y-144.29
X98.34Y-148.09
X101.73Y-68.13
X101.73Y-92.206
X103.57Y-134.11
X103.57Y-139.93
X103.63Y-121.46
X103.674Y-132.269
X103.92Y-101.11
X103.98Y-114.96
X104.29Y-68.0
X104.31Y-118.92
X104.32Y-91.376
X104.4Y-124.68
X105.0Y-112.4
X105.01Y-98.49
X105.36Y-113.71
X105.54Y-125.404
X105.68Y-154.63
X105.7Y-161.71
X106.14Y-111.28
X106.44Y-122.23
X107.05Y-108.75
X107.164Y-119.22
X107.94Y-106.23
X107.98Y-117.07
X109.34Y-90.651
X109.35Y-66.76
X111.87Y-66.12
X111.91Y-89.745
X114.19Y-153.76
X114.36Y-71.66
X114.4Y-126.51
X115.08Y-127.93
X115.11Y-131.57
X115.13Y-69.09
X115.16Y-144.31
X115.19Y-162.83
X115.39Y-103.72
X115.71Y-88.29
X116.11Y-130.13
X116.11Y-136.65
X116.113Y-164.507
X116.225Y-124.68
X116.92Y-160.89
X116.93Y-139.26
X116.95Y-67.99
X116.95Y-121.55
X116.95Y-135.3
X116.98Y-108.73
X117.02Y-95.38
X117.76Y-146.87
X117.94Y-158.33
X118.17Y-87.48
X119.28Y-153.92
X119.41Y-164.9
X119.6Y-173.58
X120.004Y-162.64
X120.135Y-169.625
X120.66Y-86.37
X121.26Y-159.3
X122.06Y-164.94
X122.44Y-67.11
X122.845Y-135.305
X122.87Y-156.37
X122.9Y-118.91
X123.15Y-66.27
X123.18Y-96.12
X123.18Y-101.08
X123.18Y-109.27
X123.29Y-85.26
X123.594Y-137.91
X124.09Y-164.71
X124.59Y-66.63
X125.26Y-92.93
X125.34Y-110.45
X126.25Y-92.1
X126.28Y-94.7
X126.77Y-158.06
X126.79Y-113.84
X127.12Y-67.514
X127.15Y-164.73
X127.91Y-102.87
X127.92Y-154.64
X127.98Y-107.03
X128.42Y-90.47
X128.58Y-94.0
X128.86Y-105.42
X128.88Y-98.07
X129.19Y-158.31
X129.22Y-159.45
X129.22Y-169.26
X129.4Y-89.45
X129.47Y-93.124
X129.68Y-77.94
X130.585Y-88.204
X130.86Y-152.77
X130.87Y-167.53
X130.91Y-134.54
X131.206Y-87.144
X131.95Y-153.75
X132.016Y-86.148
X132.25Y-169.29
X132.78Y-85.4
X132.78Y-160.8
X133.464Y-101.59
X133.49Y-128.7
X133.526Y-150.674
X133.57Y-132.83
X133.6Y-154.54
X133.61Y-135.43
X134.43Y-167.59
X134.43Y-171.5
X134.71Y-65.87
X137.29Y-65.61
X138.22Y-91.47
X138.36Y-110.42
X138.48Y-126.51
X138.91Y-158.36
X138.93Y-173.61
X138.94Y-140.49
X138.94Y-146.87
X139.51Y-139.04
X139.51Y-148.19
X139.51Y-151.79
X139.585Y-105.36
X139.825Y-85.275
X140.09Y-88.69
X140.31Y-104.08
X140.31Y-153.23
X141.41Y-109.05
X141.47Y-129.14
X141.49Y-135.42
X141.77Y-141.66
X141.78Y-173.44
X141.81Y-96.17
X142.46Y-101.84
X142.47Y-107.94
X143.15Y-158.36
X143.175Y-127.815
X143.31Y-100.64
X143.97Y-146.88
X144.57Y-169.28
X144.91Y-79.98
X145.02Y-145.69
X145.14Y-157.654
X146.19Y-105.15
X146.48Y-90.55
X147.39Y-173.49
X147.49Y-88.38
X148.45Y-106.97
X149.26Y-139.04
X149.26Y-151.78
X149.27Y-150.7
X149.77Y-168.22
X149.81Y-169.32
X150.68Y-149.3
X150.69Y-145.58
X150.74Y-107.98
X150.79Y-122.66
X151.92Y-160.85
X151.95Y-109.33
X152.04Y-115.01
X152.62Y-81.88
X152.72Y-85.27
X152.85Y-157.73
X152.88Y-169.33
X154.595Y-67.68
X154.99Y-168.24
X155.26Y-105.75
X155.32Y-66.97
X155.41Y-76.8
X155.47Y-74.26
X157.43Y-169.36
X157.62Y-88.15
T2
X50.39Y-94.84
X50.39Y-97.38
X50.39Y-99.92
X50.39Y-102.46
X50.39Y-105.0
X50.39Y-107.54
X50.39Y-110.08
X50.39Y-112.62
X50.39Y-115.16
X50.39Y-117.7
X50.39Y-120.24
X50.39Y-122.78
X50.39Y-125.32
X50.39Y-127.86
X50.39Y-130.4
X50.39Y-132.94
X50.39Y-135.48
X50.39Y-138.02
X50.39Y-140.56
X50.39Y-143.1
X50.39Y-145.64
X50.39Y-148.18
X50.39Y-150.72
X50.39Y-153.26
X50.39Y-155.8
X50.39Y-158.34
X50.39Y-160.88
X50.39Y-163.42
X55.39Y-94.84
X55.39Y-97.38
X55.39Y-99.92
X55.39Y-102.46
X55.39Y-105.0
X55.39Y-107.54
X55.39Y-110.08
X55.39Y-112.62
X55.39Y-115.16
X55.39Y-117.7
X55.39Y-120.24
X55.39Y-122.78
X55.39Y-125.32
X55.39Y-127.86
X55.39Y-130.4
X55.39Y-132.94
X55.39Y-135.48
X55.39Y-138.02
X55.39Y-140.56
X55.39Y-143.1
X55.39Y-145.64
X55.39Y-148.18
X55.39Y-150.72
X55.39Y-153.26
X55.39Y-155.8
X55.39Y-158.34
X55.39Y-160.88
X55.39Y-163.42
T3
X88.4Y-63.84
X88.42Y-66.85
X88.66Y-75.58
X91.15Y-63.91
X93.48Y-119.73
X93.84Y-63.91
X95.25Y-70.3
X95.25Y-72.84
X95.25Y-75.38
X96.64Y-64.0
X97.54Y-88.31
X97.63Y-82.82
X97.63Y-85.51
X97.7Y-80.07
X108.035Y-156.48
X110.575Y-156.48
X111.38Y-170.92
X113.115Y-156.48
X119.55Y-171.65
X122.09Y-171.65
X124.57Y-59.27
X124.63Y-171.65
X127.14Y-59.27
X127.17Y-171.65
X129.65Y-59.25
X129.71Y-171.65
X132.25Y-171.65
X134.61Y-59.28
X134.97Y-88.65
X137.27Y-59.34
X137.46Y-88.65
X143.21Y-166.34
X144.83Y-171.51
X145.75Y-166.34
X147.37Y-171.51
X148.29Y-166.34
X149.91Y-171.51
X152.45Y-171.51
X154.99Y-171.51
X157.53Y-171.51
X157.59Y-59.8
X157.59Y-62.34
X157.59Y-64.88
X157.59Y-67.42
X157.59Y-74.26
X157.59Y-76.8
X157.59Y-79.34
X157.59Y-81.88
X157.59Y-84.42
X158.97Y-150.69
X158.99Y-135.53
X159.04Y-153.26
X159.11Y-160.75
X159.23Y-117.73
X159.26Y-121.52
X159.32Y-124.09
T4
X101.725Y-63.96
X101.725Y-81.74
X101.73Y-98.57
X101.73Y-101.11
X101.73Y-103.65
X101.73Y-106.19
X101.73Y-108.73
X101.73Y-111.27
X101.73Y-113.81
X101.73Y-116.35
X101.73Y-118.89
X101.73Y-121.43
X101.73Y-123.97
X101.73Y-126.51
X101.73Y-129.05
X101.73Y-131.59
X101.73Y-134.13
X101.73Y-136.67
X101.73Y-139.21
X101.73Y-141.75
X101.73Y-144.29
X101.73Y-146.83
X101.955Y-70.31
X101.955Y-72.85
X101.955Y-75.39
X104.265Y-63.96
X104.265Y-81.74
X106.805Y-63.96
X106.805Y-81.74
X108.08Y-146.6
X109.345Y-63.96
X109.345Y-81.74
X110.62Y-146.6
X111.885Y-63.96
X111.885Y-81.74
X113.16Y-146.6
X114.425Y-63.96
X114.425Y-81.74
X116.965Y-63.96
X116.965Y-81.74
X119.505Y-63.96
X119.505Y-81.74
X119.51Y-98.57
X119.51Y-101.11
X119.51Y-103.65
X119.51Y-106.19
X119.51Y-108.73
X119.51Y-111.27
X119.51Y-113.81
X119.51Y-116.35
X119.51Y-118.89
X119.51Y-121.43
X119.51Y-123.97
X119.51Y-126.51
X119.51Y-129.05
X119.51Y-131.59
X119.51Y-134.13
X119.51Y-136.67
X119.51Y-139.21
X119.51Y-141.75
X119.51Y-144.29
X119.51Y-146.83
X122.045Y-63.96
X122.045Y-81.74
X124.585Y-63.96
X124.585Y-81.74
X127.125Y-63.96
X127.125Y-81.74
X129.665Y-63.96
X129.665Y-81.74
X132.205Y-63.96
X132.205Y-81.74
X134.745Y-63.96
X134.745Y-81.74
X136.82Y-112.575
X136.82Y-115.115
X136.82Y-117.655
X136.82Y-120.195
X136.82Y-122.735
X136.82Y-125.275
X136.82Y-127.815
X136.82Y-130.355
X136.82Y-132.895
X136.82Y-135.435
X136.82Y-137.975
X136.82Y-140.515
X136.82Y-143.055
X136.82Y-145.595
X136.82Y-148.135
X136.82Y-150.675
X136.82Y-153.215
X136.82Y-155.755
X136.82Y-158.295
X136.82Y-160.835
X137.285Y-63.96
X137.285Y-81.74
X139.825Y-63.96
X139.825Y-81.74
X142.365Y-63.96
X142.365Y-81.74
X143.17Y-160.605
X144.905Y-63.96
X144.905Y-81.74
X145.71Y-160.605
X147.445Y-63.96
X147.445Y-81.74
X148.25Y-160.605
X149.985Y-63.96
X149.985Y-81.74
X154.6Y-112.575
X154.6Y-115.115
X154.6Y-117.655
X154.6Y-120.195
X154.6Y-122.735
X154.6Y-125.275
X154.6Y-127.815
X154.6Y-130.355
X154.6Y-132.895
X154.6Y-135.435
X154.6Y-137.975
X154.6Y-140.515
X154.6Y-143.055
X154.6Y-145.595
X154.6Y-148.135
X154.6Y-150.675
X154.6Y-153.215
X154.6Y-155.755
X154.6Y-158.295
X154.6Y-160.835
T0
M30
