G04 #@! TF.GenerationSoftware,KiCad,Pcbnew,6.0.11-2627ca5db0~126~ubuntu22.04.1*
G04 #@! TF.CreationDate,2023-04-18T11:11:01+01:00*
G04 #@! TF.ProjectId,srom,73726f6d-2e6b-4696-9361-645f70636258,v1.1 to v1.2 WIP*
G04 #@! TF.SameCoordinates,Original*
G04 #@! TF.FileFunction,Soldermask,Top*
G04 #@! TF.FilePolarity,Negative*
%FSLAX46Y46*%
G04 Gerber Fmt 4.6, Leading zero omitted, Abs format (unit mm)*
G04 Created by KiCad (PCBNEW 6.0.11-2627ca5db0~126~ubuntu22.04.1) date 2023-04-18 11:11:01*
%MOMM*%
%LPD*%
G01*
G04 APERTURE LIST*
G04 Aperture macros list*
%AMRoundRect*
0 Rectangle with rounded corners*
0 $1 Rounding radius*
0 $2 $3 $4 $5 $6 $7 $8 $9 X,Y pos of 4 corners*
0 Add a 4 corners polygon primitive as box body*
4,1,4,$2,$3,$4,$5,$6,$7,$8,$9,$2,$3,0*
0 Add four circle primitives for the rounded corners*
1,1,$1+$1,$2,$3*
1,1,$1+$1,$4,$5*
1,1,$1+$1,$6,$7*
1,1,$1+$1,$8,$9*
0 Add four rect primitives between the rounded corners*
20,1,$1+$1,$2,$3,$4,$5,0*
20,1,$1+$1,$4,$5,$6,$7,0*
20,1,$1+$1,$6,$7,$8,$9,0*
20,1,$1+$1,$8,$9,$2,$3,0*%
G04 Aperture macros list end*
%ADD10R,2.000000X0.650000*%
%ADD11C,2.000000*%
%ADD12R,1.700000X1.700000*%
%ADD13O,1.700000X1.700000*%
%ADD14O,1.800000X1.800000*%
%ADD15O,1.500000X1.500000*%
%ADD16R,1.700000X3.500000*%
%ADD17R,3.500000X1.700000*%
%ADD18RoundRect,0.250000X-0.400000X-0.625000X0.400000X-0.625000X0.400000X0.625000X-0.400000X0.625000X0*%
%ADD19RoundRect,0.250000X-0.325000X-0.650000X0.325000X-0.650000X0.325000X0.650000X-0.325000X0.650000X0*%
%ADD20RoundRect,0.250000X-0.625000X0.400000X-0.625000X-0.400000X0.625000X-0.400000X0.625000X0.400000X0*%
%ADD21R,1.600000X0.700000*%
%ADD22R,2.200000X1.200000*%
%ADD23R,1.400000X1.600000*%
%ADD24R,1.400000X1.200000*%
%ADD25RoundRect,0.150000X-0.825000X-0.150000X0.825000X-0.150000X0.825000X0.150000X-0.825000X0.150000X0*%
%ADD26RoundRect,0.150000X-0.837500X-0.150000X0.837500X-0.150000X0.837500X0.150000X-0.837500X0.150000X0*%
%ADD27RoundRect,0.250000X0.325000X0.650000X-0.325000X0.650000X-0.325000X-0.650000X0.325000X-0.650000X0*%
%ADD28RoundRect,0.250000X-0.650000X0.325000X-0.650000X-0.325000X0.650000X-0.325000X0.650000X0.325000X0*%
%ADD29RoundRect,0.250001X0.462499X0.624999X-0.462499X0.624999X-0.462499X-0.624999X0.462499X-0.624999X0*%
%ADD30C,1.524000*%
G04 APERTURE END LIST*
D10*
X123360000Y-162530000D03*
X123360000Y-160630000D03*
X119940000Y-161580000D03*
D11*
X159320000Y-124090000D03*
X158970000Y-150690000D03*
X97700000Y-80070000D03*
X88420000Y-66850000D03*
D12*
X95250000Y-75380000D03*
D13*
X95250000Y-72840000D03*
X95250000Y-70300000D03*
D11*
X96640000Y-64000000D03*
X137270000Y-59340000D03*
D14*
X149855000Y-75575000D03*
D15*
X146825000Y-75275000D03*
D14*
X149855000Y-70125000D03*
D15*
X146825000Y-70425000D03*
D13*
X149985000Y-63960000D03*
D16*
X149985000Y-63060000D03*
D13*
X147445000Y-63960000D03*
D16*
X147445000Y-63060000D03*
X144905000Y-63060000D03*
D12*
X144905000Y-63960000D03*
D16*
X142365000Y-63060000D03*
D13*
X142365000Y-63960000D03*
X139825000Y-63960000D03*
D16*
X139825000Y-63060000D03*
D13*
X137285000Y-63960000D03*
D16*
X137285000Y-63060000D03*
D13*
X134745000Y-63960000D03*
D16*
X134745000Y-63060000D03*
D12*
X132205000Y-63960000D03*
D16*
X132205000Y-63060000D03*
D13*
X129665000Y-63960000D03*
D16*
X129665000Y-63060000D03*
D13*
X127125000Y-63960000D03*
D16*
X127125000Y-63060000D03*
D13*
X124585000Y-63960000D03*
D16*
X124585000Y-63060000D03*
D13*
X122045000Y-63960000D03*
D16*
X122045000Y-63060000D03*
D12*
X119505000Y-63960000D03*
D16*
X119505000Y-63060000D03*
D13*
X116965000Y-63960000D03*
D16*
X116965000Y-63060000D03*
D13*
X114425000Y-63960000D03*
D16*
X114425000Y-63060000D03*
D13*
X111885000Y-63960000D03*
D16*
X111885000Y-63060000D03*
X109345000Y-63060000D03*
D13*
X109345000Y-63960000D03*
D12*
X106805000Y-63960000D03*
D16*
X106805000Y-63060000D03*
X104265000Y-63060000D03*
D13*
X104265000Y-63960000D03*
D16*
X101725000Y-63060000D03*
D13*
X101725000Y-63960000D03*
X101725000Y-81740000D03*
D16*
X101725000Y-82640000D03*
X104265000Y-82640000D03*
D13*
X104265000Y-81740000D03*
D16*
X106805000Y-82640000D03*
D12*
X106805000Y-81740000D03*
D16*
X109345000Y-82640000D03*
D13*
X109345000Y-81740000D03*
X111885000Y-81740000D03*
D16*
X111885000Y-82640000D03*
D13*
X114425000Y-81740000D03*
D16*
X114425000Y-82640000D03*
X116965000Y-82640000D03*
D13*
X116965000Y-81740000D03*
D16*
X119505000Y-82640000D03*
D12*
X119505000Y-81740000D03*
D16*
X122045000Y-82640000D03*
D13*
X122045000Y-81740000D03*
X124585000Y-81740000D03*
D16*
X124585000Y-82640000D03*
X127125000Y-82640000D03*
D13*
X127125000Y-81740000D03*
X129665000Y-81740000D03*
D16*
X129665000Y-82640000D03*
X132205000Y-82640000D03*
D12*
X132205000Y-81740000D03*
D16*
X134745000Y-82640000D03*
D13*
X134745000Y-81740000D03*
D16*
X137285000Y-82640000D03*
D13*
X137285000Y-81740000D03*
D16*
X139825000Y-82640000D03*
D13*
X139825000Y-81740000D03*
D16*
X142365000Y-82640000D03*
D13*
X142365000Y-81740000D03*
D12*
X144905000Y-81740000D03*
D16*
X144905000Y-82640000D03*
X147445000Y-82640000D03*
D13*
X147445000Y-81740000D03*
X149985000Y-81740000D03*
D16*
X149985000Y-82640000D03*
D17*
X101055000Y-70310000D03*
D13*
X101955000Y-70310000D03*
D17*
X101055000Y-72850000D03*
D12*
X101955000Y-72850000D03*
D13*
X101955000Y-75390000D03*
D17*
X101055000Y-75390000D03*
D18*
X92200000Y-129570000D03*
X95300000Y-129570000D03*
D11*
X134610000Y-59280000D03*
D12*
X132250000Y-171650000D03*
D13*
X129710000Y-171650000D03*
X127170000Y-171650000D03*
X124630000Y-171650000D03*
X122090000Y-171650000D03*
X119550000Y-171650000D03*
D12*
X144830000Y-171510000D03*
D13*
X147370000Y-171510000D03*
X149910000Y-171510000D03*
X152450000Y-171510000D03*
X154990000Y-171510000D03*
X157530000Y-171510000D03*
D19*
X84455000Y-115900000D03*
X87405000Y-115900000D03*
D11*
X137460000Y-88650000D03*
D20*
X126730000Y-159440000D03*
X126730000Y-162540000D03*
D11*
X93480000Y-119730000D03*
D21*
X147460000Y-95200000D03*
X147460000Y-96300000D03*
X147460000Y-97400000D03*
X147460000Y-98500000D03*
X147460000Y-99600000D03*
X147460000Y-100700000D03*
D22*
X157560000Y-105150000D03*
D23*
X147960000Y-90550000D03*
D24*
X147960000Y-105150000D03*
D22*
X157560000Y-89650000D03*
D21*
X147460000Y-101800000D03*
X147460000Y-102900000D03*
X147460000Y-104000000D03*
D11*
X124570000Y-59270000D03*
X97540000Y-88310000D03*
D25*
X130750000Y-101590000D03*
X130750000Y-102860000D03*
X130750000Y-104130000D03*
X130750000Y-105400000D03*
X135700000Y-105400000D03*
X135700000Y-104130000D03*
X135700000Y-102860000D03*
X135700000Y-101590000D03*
D11*
X97630000Y-85510000D03*
D18*
X91510715Y-108083570D03*
X94610715Y-108083570D03*
D25*
X80305000Y-118610000D03*
X80305000Y-119880000D03*
X80305000Y-121150000D03*
X80305000Y-122420000D03*
X80305000Y-123690000D03*
X80305000Y-124960000D03*
X80305000Y-126230000D03*
X85255000Y-126230000D03*
X85255000Y-124960000D03*
X85255000Y-123690000D03*
X85255000Y-122420000D03*
X85255000Y-121150000D03*
X85255000Y-119880000D03*
X85255000Y-118610000D03*
D11*
X91150000Y-63910000D03*
X111380000Y-170920000D03*
D18*
X91510715Y-112892140D03*
X94610715Y-112892140D03*
D26*
X80127500Y-99695000D03*
X80127500Y-100965000D03*
X80127500Y-102235000D03*
X80127500Y-103505000D03*
X80127500Y-104775000D03*
X80127500Y-106045000D03*
X80127500Y-107315000D03*
X80127500Y-108585000D03*
X80127500Y-109855000D03*
X80127500Y-111125000D03*
X87052500Y-111125000D03*
X87052500Y-109855000D03*
X87052500Y-108585000D03*
X87052500Y-107315000D03*
X87052500Y-106045000D03*
X87052500Y-104775000D03*
X87052500Y-103505000D03*
X87052500Y-102235000D03*
X87052500Y-100965000D03*
X87052500Y-99695000D03*
D12*
X157590000Y-74260000D03*
D13*
X157590000Y-76800000D03*
X157590000Y-79340000D03*
X157590000Y-81880000D03*
X157590000Y-84420000D03*
D11*
X93840000Y-63910000D03*
D15*
X148135000Y-115735000D03*
X143285000Y-115735000D03*
D14*
X142985000Y-112705000D03*
X148435000Y-112705000D03*
D17*
X135920000Y-112575000D03*
D13*
X136820000Y-112575000D03*
X136820000Y-115115000D03*
D17*
X135920000Y-115115000D03*
X135920000Y-117655000D03*
D12*
X136820000Y-117655000D03*
D13*
X136820000Y-120195000D03*
D17*
X135920000Y-120195000D03*
D13*
X136820000Y-122735000D03*
D17*
X135920000Y-122735000D03*
D13*
X136820000Y-125275000D03*
D17*
X135920000Y-125275000D03*
X135920000Y-127815000D03*
D13*
X136820000Y-127815000D03*
D12*
X136820000Y-130355000D03*
D17*
X135920000Y-130355000D03*
D13*
X136820000Y-132895000D03*
D17*
X135920000Y-132895000D03*
D13*
X136820000Y-135435000D03*
D17*
X135920000Y-135435000D03*
X135920000Y-137975000D03*
D13*
X136820000Y-137975000D03*
X136820000Y-140515000D03*
D17*
X135920000Y-140515000D03*
X135920000Y-143055000D03*
D12*
X136820000Y-143055000D03*
D13*
X136820000Y-145595000D03*
D17*
X135920000Y-145595000D03*
D13*
X136820000Y-148135000D03*
D17*
X135920000Y-148135000D03*
X135920000Y-150675000D03*
D13*
X136820000Y-150675000D03*
D17*
X135920000Y-153215000D03*
D13*
X136820000Y-153215000D03*
D17*
X135920000Y-155755000D03*
D12*
X136820000Y-155755000D03*
D17*
X135920000Y-158295000D03*
D13*
X136820000Y-158295000D03*
X136820000Y-160835000D03*
D17*
X135920000Y-160835000D03*
X155500000Y-160835000D03*
D13*
X154600000Y-160835000D03*
X154600000Y-158295000D03*
D17*
X155500000Y-158295000D03*
X155500000Y-155755000D03*
D12*
X154600000Y-155755000D03*
D17*
X155500000Y-153215000D03*
D13*
X154600000Y-153215000D03*
D17*
X155500000Y-150675000D03*
D13*
X154600000Y-150675000D03*
X154600000Y-148135000D03*
D17*
X155500000Y-148135000D03*
D13*
X154600000Y-145595000D03*
D17*
X155500000Y-145595000D03*
D12*
X154600000Y-143055000D03*
D17*
X155500000Y-143055000D03*
D13*
X154600000Y-140515000D03*
D17*
X155500000Y-140515000D03*
D13*
X154600000Y-137975000D03*
D17*
X155500000Y-137975000D03*
X155500000Y-135435000D03*
D13*
X154600000Y-135435000D03*
D17*
X155500000Y-132895000D03*
D13*
X154600000Y-132895000D03*
D17*
X155500000Y-130355000D03*
D12*
X154600000Y-130355000D03*
D17*
X155500000Y-127815000D03*
D13*
X154600000Y-127815000D03*
D17*
X155500000Y-125275000D03*
D13*
X154600000Y-125275000D03*
D17*
X155500000Y-122735000D03*
D13*
X154600000Y-122735000D03*
X154600000Y-120195000D03*
D17*
X155500000Y-120195000D03*
D12*
X154600000Y-117655000D03*
D17*
X155500000Y-117655000D03*
D13*
X154600000Y-115115000D03*
D17*
X155500000Y-115115000D03*
X155500000Y-112575000D03*
D13*
X154600000Y-112575000D03*
D16*
X143170000Y-161505000D03*
D13*
X143170000Y-160605000D03*
D12*
X145710000Y-160605000D03*
D16*
X145710000Y-161505000D03*
D13*
X148250000Y-160605000D03*
D16*
X148250000Y-161505000D03*
D11*
X97630000Y-82820000D03*
X159260000Y-121520000D03*
X88660000Y-75580000D03*
D18*
X91510715Y-103275000D03*
X94610715Y-103275000D03*
D11*
X88400000Y-63840000D03*
D12*
X157590000Y-59800000D03*
D13*
X157590000Y-62340000D03*
X157590000Y-64880000D03*
X157590000Y-67420000D03*
D18*
X91510715Y-115296430D03*
X94610715Y-115296430D03*
D27*
X87685000Y-96290000D03*
X84735000Y-96290000D03*
D11*
X129650000Y-59250000D03*
D18*
X91510715Y-100870715D03*
X94610715Y-100870715D03*
D12*
X113115000Y-156480000D03*
D13*
X110575000Y-156480000D03*
X108035000Y-156480000D03*
D18*
X91510715Y-98466430D03*
X94610715Y-98466430D03*
D27*
X133480000Y-97950000D03*
X130530000Y-97950000D03*
D11*
X159110000Y-160750000D03*
X158990000Y-135530000D03*
D12*
X148290000Y-166340000D03*
D13*
X145750000Y-166340000D03*
X143210000Y-166340000D03*
D28*
X91520000Y-137195000D03*
X91520000Y-140145000D03*
D26*
X80357500Y-133875000D03*
X80357500Y-135145000D03*
X80357500Y-136415000D03*
X80357500Y-137685000D03*
X80357500Y-138955000D03*
X80357500Y-140225000D03*
X80357500Y-141495000D03*
X80357500Y-142765000D03*
X80357500Y-144035000D03*
X80357500Y-145305000D03*
X87282500Y-145305000D03*
X87282500Y-144035000D03*
X87282500Y-142765000D03*
X87282500Y-141495000D03*
X87282500Y-140225000D03*
X87282500Y-138955000D03*
X87282500Y-137685000D03*
X87282500Y-136415000D03*
X87282500Y-135145000D03*
X87282500Y-133875000D03*
D29*
X123397500Y-94580000D03*
X120422500Y-94580000D03*
D18*
X91510715Y-110487855D03*
X94610715Y-110487855D03*
D11*
X159040000Y-153260000D03*
X134970000Y-88650000D03*
D30*
X50390000Y-105000000D03*
X55390000Y-105000000D03*
X55390000Y-94840000D03*
X55390000Y-97380000D03*
X55390000Y-99920000D03*
X55390000Y-102460000D03*
X55390000Y-107540000D03*
X55390000Y-110080000D03*
X55390000Y-112620000D03*
X55390000Y-115160000D03*
X55390000Y-117700000D03*
X55390000Y-120240000D03*
X55390000Y-122780000D03*
X55390000Y-125320000D03*
X55390000Y-127860000D03*
X55390000Y-130400000D03*
X55390000Y-132940000D03*
X55390000Y-135480000D03*
X55390000Y-138020000D03*
X55390000Y-140560000D03*
X55390000Y-143100000D03*
X55390000Y-145640000D03*
X55390000Y-148180000D03*
X55390000Y-150720000D03*
X55390000Y-153260000D03*
X55390000Y-155800000D03*
X55390000Y-158340000D03*
X55390000Y-160880000D03*
X55390000Y-163420000D03*
X50390000Y-94840000D03*
X50390000Y-97380000D03*
X50390000Y-99920000D03*
X50390000Y-102460000D03*
X50390000Y-107540000D03*
X50390000Y-110080000D03*
X50390000Y-112620000D03*
X50390000Y-115160000D03*
X50390000Y-117700000D03*
X50390000Y-120240000D03*
X50390000Y-122780000D03*
X50390000Y-125320000D03*
X50390000Y-127860000D03*
X50390000Y-130400000D03*
X50390000Y-132940000D03*
X50390000Y-135480000D03*
X50390000Y-138020000D03*
X50390000Y-140560000D03*
X50390000Y-143100000D03*
X50390000Y-145640000D03*
X50390000Y-148180000D03*
X50390000Y-150720000D03*
X50390000Y-153260000D03*
X50390000Y-155800000D03*
X50390000Y-158340000D03*
X50390000Y-160880000D03*
X50390000Y-163420000D03*
D11*
X159230000Y-117730000D03*
D18*
X91510715Y-105679285D03*
X94610715Y-105679285D03*
D14*
X113345000Y-98700000D03*
X107895000Y-98700000D03*
D15*
X113045000Y-101730000D03*
X108195000Y-101730000D03*
D13*
X101730000Y-98570000D03*
D17*
X100830000Y-98570000D03*
D13*
X101730000Y-101110000D03*
D17*
X100830000Y-101110000D03*
D12*
X101730000Y-103650000D03*
D17*
X100830000Y-103650000D03*
D13*
X101730000Y-106190000D03*
D17*
X100830000Y-106190000D03*
X100830000Y-108730000D03*
D13*
X101730000Y-108730000D03*
X101730000Y-111270000D03*
D17*
X100830000Y-111270000D03*
X100830000Y-113810000D03*
D13*
X101730000Y-113810000D03*
D12*
X101730000Y-116350000D03*
D17*
X100830000Y-116350000D03*
X100830000Y-118890000D03*
D13*
X101730000Y-118890000D03*
D17*
X100830000Y-121430000D03*
D13*
X101730000Y-121430000D03*
D17*
X100830000Y-123970000D03*
D13*
X101730000Y-123970000D03*
D17*
X100830000Y-126510000D03*
D13*
X101730000Y-126510000D03*
D17*
X100830000Y-129050000D03*
D12*
X101730000Y-129050000D03*
D17*
X100830000Y-131590000D03*
D13*
X101730000Y-131590000D03*
D17*
X100830000Y-134130000D03*
D13*
X101730000Y-134130000D03*
D17*
X100830000Y-136670000D03*
D13*
X101730000Y-136670000D03*
X101730000Y-139210000D03*
D17*
X100830000Y-139210000D03*
X100830000Y-141750000D03*
D12*
X101730000Y-141750000D03*
D13*
X101730000Y-144290000D03*
D17*
X100830000Y-144290000D03*
D13*
X101730000Y-146830000D03*
D17*
X100830000Y-146830000D03*
X120410000Y-146830000D03*
D13*
X119510000Y-146830000D03*
X119510000Y-144290000D03*
D17*
X120410000Y-144290000D03*
D12*
X119510000Y-141750000D03*
D17*
X120410000Y-141750000D03*
X120410000Y-139210000D03*
D13*
X119510000Y-139210000D03*
X119510000Y-136670000D03*
D17*
X120410000Y-136670000D03*
D13*
X119510000Y-134130000D03*
D17*
X120410000Y-134130000D03*
X120410000Y-131590000D03*
D13*
X119510000Y-131590000D03*
D17*
X120410000Y-129050000D03*
D12*
X119510000Y-129050000D03*
D17*
X120410000Y-126510000D03*
D13*
X119510000Y-126510000D03*
X119510000Y-123970000D03*
D17*
X120410000Y-123970000D03*
D13*
X119510000Y-121430000D03*
D17*
X120410000Y-121430000D03*
X120410000Y-118890000D03*
D13*
X119510000Y-118890000D03*
D12*
X119510000Y-116350000D03*
D17*
X120410000Y-116350000D03*
X120410000Y-113810000D03*
D13*
X119510000Y-113810000D03*
D17*
X120410000Y-111270000D03*
D13*
X119510000Y-111270000D03*
D17*
X120410000Y-108730000D03*
D13*
X119510000Y-108730000D03*
D17*
X120410000Y-106190000D03*
D13*
X119510000Y-106190000D03*
D17*
X120410000Y-103650000D03*
D12*
X119510000Y-103650000D03*
D13*
X119510000Y-101110000D03*
D17*
X120410000Y-101110000D03*
D13*
X119510000Y-98570000D03*
D17*
X120410000Y-98570000D03*
D16*
X108080000Y-147500000D03*
D13*
X108080000Y-146600000D03*
D12*
X110620000Y-146600000D03*
D16*
X110620000Y-147500000D03*
X113160000Y-147500000D03*
D13*
X113160000Y-146600000D03*
D11*
X127140000Y-59270000D03*
M02*
