G04 #@! TF.GenerationSoftware,KiCad,Pcbnew,6.0.11-2627ca5db0~126~ubuntu22.04.1*
G04 #@! TF.CreationDate,2023-04-18T11:11:01+01:00*
G04 #@! TF.ProjectId,srom,73726f6d-2e6b-4696-9361-645f70636258,v1.1 to v1.2 WIP*
G04 #@! TF.SameCoordinates,Original*
G04 #@! TF.FileFunction,Copper,L1,Top*
G04 #@! TF.FilePolarity,Positive*
%FSLAX46Y46*%
G04 Gerber Fmt 4.6, Leading zero omitted, Abs format (unit mm)*
G04 Created by KiCad (PCBNEW 6.0.11-2627ca5db0~126~ubuntu22.04.1) date 2023-04-18 11:11:01*
%MOMM*%
%LPD*%
G01*
G04 APERTURE LIST*
G04 Aperture macros list*
%AMRoundRect*
0 Rectangle with rounded corners*
0 $1 Rounding radius*
0 $2 $3 $4 $5 $6 $7 $8 $9 X,Y pos of 4 corners*
0 Add a 4 corners polygon primitive as box body*
4,1,4,$2,$3,$4,$5,$6,$7,$8,$9,$2,$3,0*
0 Add four circle primitives for the rounded corners*
1,1,$1+$1,$2,$3*
1,1,$1+$1,$4,$5*
1,1,$1+$1,$6,$7*
1,1,$1+$1,$8,$9*
0 Add four rect primitives between the rounded corners*
20,1,$1+$1,$2,$3,$4,$5,0*
20,1,$1+$1,$4,$5,$6,$7,0*
20,1,$1+$1,$6,$7,$8,$9,0*
20,1,$1+$1,$8,$9,$2,$3,0*%
G04 Aperture macros list end*
G04 #@! TA.AperFunction,SMDPad,CuDef*
%ADD10R,2.000000X0.650000*%
G04 #@! TD*
G04 #@! TA.AperFunction,ComponentPad*
%ADD11C,2.000000*%
G04 #@! TD*
G04 #@! TA.AperFunction,ComponentPad*
%ADD12R,1.700000X1.700000*%
G04 #@! TD*
G04 #@! TA.AperFunction,ComponentPad*
%ADD13O,1.700000X1.700000*%
G04 #@! TD*
G04 #@! TA.AperFunction,SMDPad,CuDef*
%ADD14R,1.700000X3.500000*%
G04 #@! TD*
G04 #@! TA.AperFunction,SMDPad,CuDef*
%ADD15R,3.500000X1.700000*%
G04 #@! TD*
G04 #@! TA.AperFunction,SMDPad,CuDef*
%ADD16RoundRect,0.250000X-0.400000X-0.625000X0.400000X-0.625000X0.400000X0.625000X-0.400000X0.625000X0*%
G04 #@! TD*
G04 #@! TA.AperFunction,SMDPad,CuDef*
%ADD17RoundRect,0.250000X-0.325000X-0.650000X0.325000X-0.650000X0.325000X0.650000X-0.325000X0.650000X0*%
G04 #@! TD*
G04 #@! TA.AperFunction,SMDPad,CuDef*
%ADD18RoundRect,0.250000X-0.625000X0.400000X-0.625000X-0.400000X0.625000X-0.400000X0.625000X0.400000X0*%
G04 #@! TD*
G04 #@! TA.AperFunction,SMDPad,CuDef*
%ADD19R,1.600000X0.700000*%
G04 #@! TD*
G04 #@! TA.AperFunction,SMDPad,CuDef*
%ADD20R,2.200000X1.200000*%
G04 #@! TD*
G04 #@! TA.AperFunction,SMDPad,CuDef*
%ADD21R,1.400000X1.600000*%
G04 #@! TD*
G04 #@! TA.AperFunction,SMDPad,CuDef*
%ADD22R,1.400000X1.200000*%
G04 #@! TD*
G04 #@! TA.AperFunction,SMDPad,CuDef*
%ADD23RoundRect,0.150000X-0.825000X-0.150000X0.825000X-0.150000X0.825000X0.150000X-0.825000X0.150000X0*%
G04 #@! TD*
G04 #@! TA.AperFunction,SMDPad,CuDef*
%ADD24RoundRect,0.150000X-0.837500X-0.150000X0.837500X-0.150000X0.837500X0.150000X-0.837500X0.150000X0*%
G04 #@! TD*
G04 #@! TA.AperFunction,SMDPad,CuDef*
%ADD25RoundRect,0.250000X0.325000X0.650000X-0.325000X0.650000X-0.325000X-0.650000X0.325000X-0.650000X0*%
G04 #@! TD*
G04 #@! TA.AperFunction,SMDPad,CuDef*
%ADD26RoundRect,0.250000X-0.650000X0.325000X-0.650000X-0.325000X0.650000X-0.325000X0.650000X0.325000X0*%
G04 #@! TD*
G04 #@! TA.AperFunction,SMDPad,CuDef*
%ADD27RoundRect,0.250001X0.462499X0.624999X-0.462499X0.624999X-0.462499X-0.624999X0.462499X-0.624999X0*%
G04 #@! TD*
G04 #@! TA.AperFunction,ComponentPad*
%ADD28C,1.524000*%
G04 #@! TD*
G04 #@! TA.AperFunction,ViaPad*
%ADD29C,0.800000*%
G04 #@! TD*
G04 #@! TA.AperFunction,Conductor*
%ADD30C,0.750000*%
G04 #@! TD*
G04 #@! TA.AperFunction,Conductor*
%ADD31C,0.250000*%
G04 #@! TD*
G04 APERTURE END LIST*
D10*
X123360000Y-162530000D03*
X123360000Y-160630000D03*
X119940000Y-161580000D03*
D11*
X159320000Y-124090000D03*
X158970000Y-150690000D03*
X97700000Y-80070000D03*
X88420000Y-66850000D03*
D12*
X95250000Y-75380000D03*
D13*
X95250000Y-72840000D03*
X95250000Y-70300000D03*
D11*
X96640000Y-64000000D03*
X137270000Y-59340000D03*
D13*
X149985000Y-63960000D03*
D14*
X149985000Y-63060000D03*
D13*
X147445000Y-63960000D03*
D14*
X147445000Y-63060000D03*
X144905000Y-63060000D03*
D12*
X144905000Y-63960000D03*
D14*
X142365000Y-63060000D03*
D13*
X142365000Y-63960000D03*
X139825000Y-63960000D03*
D14*
X139825000Y-63060000D03*
D13*
X137285000Y-63960000D03*
D14*
X137285000Y-63060000D03*
D13*
X134745000Y-63960000D03*
D14*
X134745000Y-63060000D03*
D12*
X132205000Y-63960000D03*
D14*
X132205000Y-63060000D03*
D13*
X129665000Y-63960000D03*
D14*
X129665000Y-63060000D03*
D13*
X127125000Y-63960000D03*
D14*
X127125000Y-63060000D03*
D13*
X124585000Y-63960000D03*
D14*
X124585000Y-63060000D03*
D13*
X122045000Y-63960000D03*
D14*
X122045000Y-63060000D03*
D12*
X119505000Y-63960000D03*
D14*
X119505000Y-63060000D03*
D13*
X116965000Y-63960000D03*
D14*
X116965000Y-63060000D03*
D13*
X114425000Y-63960000D03*
D14*
X114425000Y-63060000D03*
D13*
X111885000Y-63960000D03*
D14*
X111885000Y-63060000D03*
X109345000Y-63060000D03*
D13*
X109345000Y-63960000D03*
D12*
X106805000Y-63960000D03*
D14*
X106805000Y-63060000D03*
X104265000Y-63060000D03*
D13*
X104265000Y-63960000D03*
D14*
X101725000Y-63060000D03*
D13*
X101725000Y-63960000D03*
X101725000Y-81740000D03*
D14*
X101725000Y-82640000D03*
X104265000Y-82640000D03*
D13*
X104265000Y-81740000D03*
D14*
X106805000Y-82640000D03*
D12*
X106805000Y-81740000D03*
D14*
X109345000Y-82640000D03*
D13*
X109345000Y-81740000D03*
X111885000Y-81740000D03*
D14*
X111885000Y-82640000D03*
D13*
X114425000Y-81740000D03*
D14*
X114425000Y-82640000D03*
X116965000Y-82640000D03*
D13*
X116965000Y-81740000D03*
D14*
X119505000Y-82640000D03*
D12*
X119505000Y-81740000D03*
D14*
X122045000Y-82640000D03*
D13*
X122045000Y-81740000D03*
X124585000Y-81740000D03*
D14*
X124585000Y-82640000D03*
X127125000Y-82640000D03*
D13*
X127125000Y-81740000D03*
X129665000Y-81740000D03*
D14*
X129665000Y-82640000D03*
X132205000Y-82640000D03*
D12*
X132205000Y-81740000D03*
D14*
X134745000Y-82640000D03*
D13*
X134745000Y-81740000D03*
D14*
X137285000Y-82640000D03*
D13*
X137285000Y-81740000D03*
D14*
X139825000Y-82640000D03*
D13*
X139825000Y-81740000D03*
D14*
X142365000Y-82640000D03*
D13*
X142365000Y-81740000D03*
D12*
X144905000Y-81740000D03*
D14*
X144905000Y-82640000D03*
X147445000Y-82640000D03*
D13*
X147445000Y-81740000D03*
X149985000Y-81740000D03*
D14*
X149985000Y-82640000D03*
D15*
X101055000Y-70310000D03*
D13*
X101955000Y-70310000D03*
D15*
X101055000Y-72850000D03*
D12*
X101955000Y-72850000D03*
D13*
X101955000Y-75390000D03*
D15*
X101055000Y-75390000D03*
D16*
X92200000Y-129570000D03*
X95300000Y-129570000D03*
D11*
X134610000Y-59280000D03*
D12*
X132250000Y-171650000D03*
D13*
X129710000Y-171650000D03*
X127170000Y-171650000D03*
X124630000Y-171650000D03*
X122090000Y-171650000D03*
X119550000Y-171650000D03*
D12*
X144830000Y-171510000D03*
D13*
X147370000Y-171510000D03*
X149910000Y-171510000D03*
X152450000Y-171510000D03*
X154990000Y-171510000D03*
X157530000Y-171510000D03*
D17*
X84455000Y-115900000D03*
X87405000Y-115900000D03*
D11*
X137460000Y-88650000D03*
D18*
X126730000Y-159440000D03*
X126730000Y-162540000D03*
D11*
X93480000Y-119730000D03*
D19*
X147460000Y-95200000D03*
X147460000Y-96300000D03*
X147460000Y-97400000D03*
X147460000Y-98500000D03*
X147460000Y-99600000D03*
X147460000Y-100700000D03*
D20*
X157560000Y-105150000D03*
D21*
X147960000Y-90550000D03*
D22*
X147960000Y-105150000D03*
D20*
X157560000Y-89650000D03*
D19*
X147460000Y-101800000D03*
X147460000Y-102900000D03*
X147460000Y-104000000D03*
D11*
X124570000Y-59270000D03*
X97540000Y-88310000D03*
D23*
X130750000Y-101590000D03*
X130750000Y-102860000D03*
X130750000Y-104130000D03*
X130750000Y-105400000D03*
X135700000Y-105400000D03*
X135700000Y-104130000D03*
X135700000Y-102860000D03*
X135700000Y-101590000D03*
D11*
X97630000Y-85510000D03*
D16*
X91510715Y-108083570D03*
X94610715Y-108083570D03*
D23*
X80305000Y-118610000D03*
X80305000Y-119880000D03*
X80305000Y-121150000D03*
X80305000Y-122420000D03*
X80305000Y-123690000D03*
X80305000Y-124960000D03*
X80305000Y-126230000D03*
X85255000Y-126230000D03*
X85255000Y-124960000D03*
X85255000Y-123690000D03*
X85255000Y-122420000D03*
X85255000Y-121150000D03*
X85255000Y-119880000D03*
X85255000Y-118610000D03*
D11*
X91150000Y-63910000D03*
X111380000Y-170920000D03*
D16*
X91510715Y-112892140D03*
X94610715Y-112892140D03*
D24*
X80127500Y-99695000D03*
X80127500Y-100965000D03*
X80127500Y-102235000D03*
X80127500Y-103505000D03*
X80127500Y-104775000D03*
X80127500Y-106045000D03*
X80127500Y-107315000D03*
X80127500Y-108585000D03*
X80127500Y-109855000D03*
X80127500Y-111125000D03*
X87052500Y-111125000D03*
X87052500Y-109855000D03*
X87052500Y-108585000D03*
X87052500Y-107315000D03*
X87052500Y-106045000D03*
X87052500Y-104775000D03*
X87052500Y-103505000D03*
X87052500Y-102235000D03*
X87052500Y-100965000D03*
X87052500Y-99695000D03*
D12*
X157590000Y-74260000D03*
D13*
X157590000Y-76800000D03*
X157590000Y-79340000D03*
X157590000Y-81880000D03*
X157590000Y-84420000D03*
D11*
X93840000Y-63910000D03*
D15*
X135920000Y-112575000D03*
D13*
X136820000Y-112575000D03*
X136820000Y-115115000D03*
D15*
X135920000Y-115115000D03*
X135920000Y-117655000D03*
D12*
X136820000Y-117655000D03*
D13*
X136820000Y-120195000D03*
D15*
X135920000Y-120195000D03*
D13*
X136820000Y-122735000D03*
D15*
X135920000Y-122735000D03*
D13*
X136820000Y-125275000D03*
D15*
X135920000Y-125275000D03*
X135920000Y-127815000D03*
D13*
X136820000Y-127815000D03*
D12*
X136820000Y-130355000D03*
D15*
X135920000Y-130355000D03*
D13*
X136820000Y-132895000D03*
D15*
X135920000Y-132895000D03*
D13*
X136820000Y-135435000D03*
D15*
X135920000Y-135435000D03*
X135920000Y-137975000D03*
D13*
X136820000Y-137975000D03*
X136820000Y-140515000D03*
D15*
X135920000Y-140515000D03*
X135920000Y-143055000D03*
D12*
X136820000Y-143055000D03*
D13*
X136820000Y-145595000D03*
D15*
X135920000Y-145595000D03*
D13*
X136820000Y-148135000D03*
D15*
X135920000Y-148135000D03*
X135920000Y-150675000D03*
D13*
X136820000Y-150675000D03*
D15*
X135920000Y-153215000D03*
D13*
X136820000Y-153215000D03*
D15*
X135920000Y-155755000D03*
D12*
X136820000Y-155755000D03*
D15*
X135920000Y-158295000D03*
D13*
X136820000Y-158295000D03*
X136820000Y-160835000D03*
D15*
X135920000Y-160835000D03*
X155500000Y-160835000D03*
D13*
X154600000Y-160835000D03*
X154600000Y-158295000D03*
D15*
X155500000Y-158295000D03*
X155500000Y-155755000D03*
D12*
X154600000Y-155755000D03*
D15*
X155500000Y-153215000D03*
D13*
X154600000Y-153215000D03*
D15*
X155500000Y-150675000D03*
D13*
X154600000Y-150675000D03*
X154600000Y-148135000D03*
D15*
X155500000Y-148135000D03*
D13*
X154600000Y-145595000D03*
D15*
X155500000Y-145595000D03*
D12*
X154600000Y-143055000D03*
D15*
X155500000Y-143055000D03*
D13*
X154600000Y-140515000D03*
D15*
X155500000Y-140515000D03*
D13*
X154600000Y-137975000D03*
D15*
X155500000Y-137975000D03*
X155500000Y-135435000D03*
D13*
X154600000Y-135435000D03*
D15*
X155500000Y-132895000D03*
D13*
X154600000Y-132895000D03*
D15*
X155500000Y-130355000D03*
D12*
X154600000Y-130355000D03*
D15*
X155500000Y-127815000D03*
D13*
X154600000Y-127815000D03*
D15*
X155500000Y-125275000D03*
D13*
X154600000Y-125275000D03*
D15*
X155500000Y-122735000D03*
D13*
X154600000Y-122735000D03*
X154600000Y-120195000D03*
D15*
X155500000Y-120195000D03*
D12*
X154600000Y-117655000D03*
D15*
X155500000Y-117655000D03*
D13*
X154600000Y-115115000D03*
D15*
X155500000Y-115115000D03*
X155500000Y-112575000D03*
D13*
X154600000Y-112575000D03*
D14*
X143170000Y-161505000D03*
D13*
X143170000Y-160605000D03*
D12*
X145710000Y-160605000D03*
D14*
X145710000Y-161505000D03*
D13*
X148250000Y-160605000D03*
D14*
X148250000Y-161505000D03*
D11*
X97630000Y-82820000D03*
X159260000Y-121520000D03*
X88660000Y-75580000D03*
D16*
X91510715Y-103275000D03*
X94610715Y-103275000D03*
D11*
X88400000Y-63840000D03*
D12*
X157590000Y-59800000D03*
D13*
X157590000Y-62340000D03*
X157590000Y-64880000D03*
X157590000Y-67420000D03*
D16*
X91510715Y-115296430D03*
X94610715Y-115296430D03*
D25*
X87685000Y-96290000D03*
X84735000Y-96290000D03*
D11*
X129650000Y-59250000D03*
D16*
X91510715Y-100870715D03*
X94610715Y-100870715D03*
D12*
X113115000Y-156480000D03*
D13*
X110575000Y-156480000D03*
X108035000Y-156480000D03*
D16*
X91510715Y-98466430D03*
X94610715Y-98466430D03*
D25*
X133480000Y-97950000D03*
X130530000Y-97950000D03*
D11*
X159110000Y-160750000D03*
X158990000Y-135530000D03*
D12*
X148290000Y-166340000D03*
D13*
X145750000Y-166340000D03*
X143210000Y-166340000D03*
D26*
X91520000Y-137195000D03*
X91520000Y-140145000D03*
D24*
X80357500Y-133875000D03*
X80357500Y-135145000D03*
X80357500Y-136415000D03*
X80357500Y-137685000D03*
X80357500Y-138955000D03*
X80357500Y-140225000D03*
X80357500Y-141495000D03*
X80357500Y-142765000D03*
X80357500Y-144035000D03*
X80357500Y-145305000D03*
X87282500Y-145305000D03*
X87282500Y-144035000D03*
X87282500Y-142765000D03*
X87282500Y-141495000D03*
X87282500Y-140225000D03*
X87282500Y-138955000D03*
X87282500Y-137685000D03*
X87282500Y-136415000D03*
X87282500Y-135145000D03*
X87282500Y-133875000D03*
D27*
X123397500Y-94580000D03*
X120422500Y-94580000D03*
D16*
X91510715Y-110487855D03*
X94610715Y-110487855D03*
D11*
X159040000Y-153260000D03*
X134970000Y-88650000D03*
D28*
X50390000Y-105000000D03*
X55390000Y-105000000D03*
X55390000Y-94840000D03*
X55390000Y-97380000D03*
X55390000Y-99920000D03*
X55390000Y-102460000D03*
X55390000Y-107540000D03*
X55390000Y-110080000D03*
X55390000Y-112620000D03*
X55390000Y-115160000D03*
X55390000Y-117700000D03*
X55390000Y-120240000D03*
X55390000Y-122780000D03*
X55390000Y-125320000D03*
X55390000Y-127860000D03*
X55390000Y-130400000D03*
X55390000Y-132940000D03*
X55390000Y-135480000D03*
X55390000Y-138020000D03*
X55390000Y-140560000D03*
X55390000Y-143100000D03*
X55390000Y-145640000D03*
X55390000Y-148180000D03*
X55390000Y-150720000D03*
X55390000Y-153260000D03*
X55390000Y-155800000D03*
X55390000Y-158340000D03*
X55390000Y-160880000D03*
X55390000Y-163420000D03*
X50390000Y-94840000D03*
X50390000Y-97380000D03*
X50390000Y-99920000D03*
X50390000Y-102460000D03*
X50390000Y-107540000D03*
X50390000Y-110080000D03*
X50390000Y-112620000D03*
X50390000Y-115160000D03*
X50390000Y-117700000D03*
X50390000Y-120240000D03*
X50390000Y-122780000D03*
X50390000Y-125320000D03*
X50390000Y-127860000D03*
X50390000Y-130400000D03*
X50390000Y-132940000D03*
X50390000Y-135480000D03*
X50390000Y-138020000D03*
X50390000Y-140560000D03*
X50390000Y-143100000D03*
X50390000Y-145640000D03*
X50390000Y-148180000D03*
X50390000Y-150720000D03*
X50390000Y-153260000D03*
X50390000Y-155800000D03*
X50390000Y-158340000D03*
X50390000Y-160880000D03*
X50390000Y-163420000D03*
D11*
X159230000Y-117730000D03*
D16*
X91510715Y-105679285D03*
X94610715Y-105679285D03*
D13*
X101730000Y-98570000D03*
D15*
X100830000Y-98570000D03*
D13*
X101730000Y-101110000D03*
D15*
X100830000Y-101110000D03*
D12*
X101730000Y-103650000D03*
D15*
X100830000Y-103650000D03*
D13*
X101730000Y-106190000D03*
D15*
X100830000Y-106190000D03*
X100830000Y-108730000D03*
D13*
X101730000Y-108730000D03*
X101730000Y-111270000D03*
D15*
X100830000Y-111270000D03*
X100830000Y-113810000D03*
D13*
X101730000Y-113810000D03*
D12*
X101730000Y-116350000D03*
D15*
X100830000Y-116350000D03*
X100830000Y-118890000D03*
D13*
X101730000Y-118890000D03*
D15*
X100830000Y-121430000D03*
D13*
X101730000Y-121430000D03*
D15*
X100830000Y-123970000D03*
D13*
X101730000Y-123970000D03*
D15*
X100830000Y-126510000D03*
D13*
X101730000Y-126510000D03*
D15*
X100830000Y-129050000D03*
D12*
X101730000Y-129050000D03*
D15*
X100830000Y-131590000D03*
D13*
X101730000Y-131590000D03*
D15*
X100830000Y-134130000D03*
D13*
X101730000Y-134130000D03*
D15*
X100830000Y-136670000D03*
D13*
X101730000Y-136670000D03*
X101730000Y-139210000D03*
D15*
X100830000Y-139210000D03*
X100830000Y-141750000D03*
D12*
X101730000Y-141750000D03*
D13*
X101730000Y-144290000D03*
D15*
X100830000Y-144290000D03*
D13*
X101730000Y-146830000D03*
D15*
X100830000Y-146830000D03*
X120410000Y-146830000D03*
D13*
X119510000Y-146830000D03*
X119510000Y-144290000D03*
D15*
X120410000Y-144290000D03*
D12*
X119510000Y-141750000D03*
D15*
X120410000Y-141750000D03*
X120410000Y-139210000D03*
D13*
X119510000Y-139210000D03*
X119510000Y-136670000D03*
D15*
X120410000Y-136670000D03*
D13*
X119510000Y-134130000D03*
D15*
X120410000Y-134130000D03*
X120410000Y-131590000D03*
D13*
X119510000Y-131590000D03*
D15*
X120410000Y-129050000D03*
D12*
X119510000Y-129050000D03*
D15*
X120410000Y-126510000D03*
D13*
X119510000Y-126510000D03*
X119510000Y-123970000D03*
D15*
X120410000Y-123970000D03*
D13*
X119510000Y-121430000D03*
D15*
X120410000Y-121430000D03*
X120410000Y-118890000D03*
D13*
X119510000Y-118890000D03*
D12*
X119510000Y-116350000D03*
D15*
X120410000Y-116350000D03*
X120410000Y-113810000D03*
D13*
X119510000Y-113810000D03*
D15*
X120410000Y-111270000D03*
D13*
X119510000Y-111270000D03*
D15*
X120410000Y-108730000D03*
D13*
X119510000Y-108730000D03*
D15*
X120410000Y-106190000D03*
D13*
X119510000Y-106190000D03*
D15*
X120410000Y-103650000D03*
D12*
X119510000Y-103650000D03*
D13*
X119510000Y-101110000D03*
D15*
X120410000Y-101110000D03*
D13*
X119510000Y-98570000D03*
D15*
X120410000Y-98570000D03*
D14*
X108080000Y-147500000D03*
D13*
X108080000Y-146600000D03*
D12*
X110620000Y-146600000D03*
D14*
X110620000Y-147500000D03*
X113160000Y-147500000D03*
D13*
X113160000Y-146600000D03*
D11*
X127140000Y-59270000D03*
D29*
X87660000Y-117910000D03*
X146480000Y-90550000D03*
X87170000Y-126250000D03*
X157620000Y-88150000D03*
X89020000Y-99840000D03*
X146190000Y-105150000D03*
X138220000Y-91470000D03*
X93250000Y-139060000D03*
X128860000Y-105420000D03*
X52170000Y-110180000D03*
X121260000Y-159300000D03*
X80160000Y-112130000D03*
X128880000Y-98070000D03*
X78470000Y-145270000D03*
X85060000Y-135170000D03*
X144910000Y-79980000D03*
X83140000Y-96290000D03*
X115390000Y-103720000D03*
X52190000Y-127940000D03*
X78450000Y-126230000D03*
X155260000Y-105750000D03*
X143310000Y-100640000D03*
X76670000Y-115850000D03*
X47900000Y-99900000D03*
X52840000Y-93050000D03*
X47990000Y-155820000D03*
X76710000Y-94420000D03*
X52860000Y-99890000D03*
X147490000Y-88380000D03*
X123180000Y-109270000D03*
X141410000Y-109050000D03*
X152040000Y-115010000D03*
X140090000Y-88690000D03*
X151950000Y-109330000D03*
X123180000Y-96120000D03*
X123180000Y-101080000D03*
X76420000Y-118600000D03*
X76400000Y-124960000D03*
X89840000Y-114750000D03*
X89849000Y-123980000D03*
X88567701Y-114822299D03*
X74840000Y-114970000D03*
X89124500Y-126500000D03*
X74840000Y-116430000D03*
X53190000Y-134240000D03*
X53164500Y-120250000D03*
X61010000Y-134260000D03*
X61070000Y-130890000D03*
X141770000Y-141660000D03*
X147390000Y-173490000D03*
X59100000Y-131360000D03*
X103570000Y-134110000D03*
X141780000Y-173440000D03*
X103570000Y-139930000D03*
X91490000Y-132030000D03*
X91490000Y-134020000D03*
X59070000Y-124200000D03*
X96310000Y-136560000D03*
X51980000Y-146990000D03*
X52060000Y-153300000D03*
X96260000Y-147610000D03*
X97550000Y-139110000D03*
X52890000Y-149590000D03*
X97590000Y-148965500D03*
X52860000Y-150720000D03*
X98340000Y-148090000D03*
X62020000Y-144400000D03*
X98220000Y-144290000D03*
X62040000Y-147720000D03*
X53430000Y-144410000D03*
X53420000Y-148260000D03*
X76040000Y-147020000D03*
X51950000Y-139110000D03*
X76030000Y-139210000D03*
X51970000Y-145640000D03*
X117760000Y-146870000D03*
X117940000Y-158330000D03*
X115190000Y-162830000D03*
X115160000Y-144310000D03*
X116930000Y-139260000D03*
X116920000Y-160890000D03*
X116113000Y-164507000D03*
X116110000Y-136650000D03*
X67780000Y-132950000D03*
X67750000Y-98730000D03*
X65280000Y-127900000D03*
X64960000Y-97430000D03*
X115110000Y-131570000D03*
X115080000Y-127930000D03*
X58200000Y-101020000D03*
X58160000Y-107630000D03*
X58960000Y-102260000D03*
X58960000Y-109980000D03*
X59850000Y-112560000D03*
X59850000Y-103460000D03*
X60910000Y-104750000D03*
X60910000Y-120280000D03*
X61850000Y-106070000D03*
X61850000Y-122680000D03*
X62650000Y-117660000D03*
X62610000Y-107270000D03*
X63500000Y-115130000D03*
X63500000Y-108560000D03*
X64030000Y-99820000D03*
X64300000Y-109880000D03*
X103673900Y-132269190D03*
X103630000Y-121460000D03*
X133570498Y-132830000D03*
X133610000Y-135430000D03*
X104310000Y-118920000D03*
X116225500Y-124680000D03*
X104400000Y-124680000D03*
X116110000Y-130130000D03*
X105360000Y-113710000D03*
X105540000Y-125404500D03*
X106140000Y-111280000D03*
X106440000Y-122230000D03*
X107164500Y-119220000D03*
X107050000Y-108750000D03*
X107940000Y-106230000D03*
X107980000Y-117070000D03*
X103920000Y-101110000D03*
X103980000Y-114960000D03*
X105010000Y-98490000D03*
X105000000Y-112400000D03*
X78360000Y-130480500D03*
X88460000Y-130480500D03*
X88400000Y-124880000D03*
X78410000Y-135160000D03*
X66830000Y-96130000D03*
X66880000Y-122420000D03*
X66020000Y-121130000D03*
X66010000Y-94860000D03*
X114190000Y-153760000D03*
X114400000Y-126510000D03*
X119280000Y-153920000D03*
X119410000Y-164900000D03*
X122060000Y-164940000D03*
X143175000Y-127815000D03*
X78100000Y-92890000D03*
X138910000Y-158360000D03*
X78100000Y-99760000D03*
X119600000Y-173580000D03*
X138360000Y-110420000D03*
X138480000Y-126510000D03*
X143150000Y-158360000D03*
X125260000Y-92930000D03*
X125340000Y-110450000D03*
X138930000Y-173610000D03*
X61860000Y-138060000D03*
X150680000Y-149300000D03*
X58390000Y-150700000D03*
X150690000Y-145580000D03*
X58080000Y-137960000D03*
X62680000Y-119850000D03*
X124590000Y-66630000D03*
X155320000Y-66970000D03*
X155470000Y-74260000D03*
X58080000Y-130460000D03*
X58060000Y-132980000D03*
X60010000Y-130430000D03*
X60190000Y-123680000D03*
X63470000Y-141880000D03*
X120004500Y-162640000D03*
X105680000Y-154630000D03*
X120135000Y-169625000D03*
X105700000Y-161710000D03*
X63480000Y-154520000D03*
X126790000Y-113840000D03*
X126770000Y-158060000D03*
X129220000Y-169260000D03*
X129220000Y-159450000D03*
X132250000Y-169290000D03*
X154595500Y-67679682D03*
X127120000Y-67514500D03*
X155410000Y-76800000D03*
X129680000Y-77940000D03*
X137290000Y-65610000D03*
X134710000Y-65870000D03*
X122870000Y-156370000D03*
X116950000Y-121550000D03*
X122845000Y-135305000D03*
X96570000Y-129570000D03*
X96600000Y-135140000D03*
X116950000Y-135300000D03*
X127150000Y-164730000D03*
X122900000Y-118910000D03*
X124090000Y-164710000D03*
X123594500Y-137910000D03*
X154990000Y-168240000D03*
X59760000Y-151510000D03*
X149260000Y-151780000D03*
X149770000Y-168220000D03*
X59770000Y-135500000D03*
X139510000Y-151790000D03*
X139510000Y-148190000D03*
X138940000Y-140490000D03*
X149810000Y-169320000D03*
X144570000Y-169280000D03*
X143970000Y-146880000D03*
X138940000Y-146870000D03*
X58900000Y-140530000D03*
X58940000Y-149690000D03*
X133525998Y-150674002D03*
X101730000Y-68130000D03*
X115710000Y-88290000D03*
X130585500Y-88204500D03*
X115130000Y-69090000D03*
X133600000Y-154540000D03*
X127920000Y-154640000D03*
X132015500Y-86147618D03*
X122440000Y-67110000D03*
X120660000Y-86370000D03*
X131950000Y-153750000D03*
X109350000Y-66760000D03*
X129190000Y-158310000D03*
X104290000Y-68000000D03*
X131205500Y-87144500D03*
X116950000Y-67990000D03*
X118170000Y-87480000D03*
X111870000Y-66120000D03*
X132780000Y-160800000D03*
X123290000Y-85260000D03*
X123150000Y-66270000D03*
X132780000Y-85400000D03*
X127980000Y-107030000D03*
X127910000Y-102870000D03*
X148450000Y-106970000D03*
X151920000Y-160850000D03*
X140310000Y-104080000D03*
X140310000Y-153230000D03*
X139510000Y-139040000D03*
X149260000Y-139040000D03*
X149270000Y-150700000D03*
X139585500Y-105360000D03*
X133464500Y-101590000D03*
X141470000Y-129140000D03*
X133490000Y-128700000D03*
X141490000Y-135420000D03*
X60960000Y-145650000D03*
X130910000Y-134540000D03*
X130870000Y-167530000D03*
X134430000Y-167590000D03*
X130860000Y-152770000D03*
X134430000Y-171500000D03*
X61040000Y-152830000D03*
X89855000Y-133875000D03*
X116980000Y-108730000D03*
X89130000Y-96300000D03*
X89860000Y-137190000D03*
X117020000Y-95380000D03*
X89010000Y-98340000D03*
X150740000Y-107980000D03*
X142470000Y-107940000D03*
X142460048Y-101839952D03*
X150790000Y-122660000D03*
X141810000Y-96170000D03*
X152620000Y-81880000D03*
X152720000Y-85270000D03*
X139825000Y-85275000D03*
X126250000Y-92100000D03*
X126280000Y-94700000D03*
X101730000Y-92205500D03*
X104320000Y-91375500D03*
X128580000Y-94000000D03*
X109340000Y-90651000D03*
X128420000Y-90470000D03*
X111910000Y-89745500D03*
X129470000Y-93124500D03*
X129400000Y-89450000D03*
X145140000Y-157654500D03*
X152850000Y-157730000D03*
X152880000Y-169330000D03*
X157430000Y-169360000D03*
X145020000Y-145690000D03*
X88450000Y-71630000D03*
X114360000Y-71660000D03*
D30*
X138220000Y-91470000D02*
X145560000Y-91470000D01*
X128880000Y-98070000D02*
X130410000Y-98070000D01*
X157620000Y-88150000D02*
X157560000Y-88210000D01*
D31*
X87150000Y-126230000D02*
X87170000Y-126250000D01*
D30*
X52170000Y-110180000D02*
X50490000Y-110180000D01*
D31*
X91520000Y-140145000D02*
X92605000Y-139060000D01*
X52170000Y-110180000D02*
X53340000Y-111350000D01*
X121260000Y-159300000D02*
X122030000Y-159300000D01*
D30*
X147400000Y-100640000D02*
X143310000Y-100640000D01*
D31*
X80127500Y-112097500D02*
X80160000Y-112130000D01*
D30*
X130750000Y-105400000D02*
X128880000Y-105400000D01*
X146480000Y-90550000D02*
X147960000Y-90550000D01*
D31*
X79902500Y-111350000D02*
X80127500Y-111125000D01*
D30*
X145560000Y-91470000D02*
X146480000Y-90550000D01*
D31*
X87405000Y-117655000D02*
X87660000Y-117910000D01*
X84735000Y-96290000D02*
X83140000Y-96290000D01*
X80127500Y-111125000D02*
X80127500Y-112097500D01*
X85085000Y-135145000D02*
X85060000Y-135170000D01*
X95260000Y-72850000D02*
X101955000Y-72850000D01*
D30*
X52110000Y-127860000D02*
X52190000Y-127940000D01*
D31*
X80305000Y-126230000D02*
X78450000Y-126230000D01*
D30*
X156960000Y-105750000D02*
X157560000Y-105150000D01*
X50390000Y-127860000D02*
X52110000Y-127860000D01*
X119510000Y-103650000D02*
X115460000Y-103650000D01*
X157560000Y-88210000D02*
X157560000Y-89650000D01*
X115460000Y-103650000D02*
X115390000Y-103720000D01*
D31*
X78470000Y-145270000D02*
X80322500Y-145270000D01*
X122030000Y-159300000D02*
X123360000Y-160630000D01*
X87405000Y-115900000D02*
X87405000Y-117655000D01*
X87895000Y-100965000D02*
X89020000Y-99840000D01*
X87282500Y-135145000D02*
X85085000Y-135145000D01*
D30*
X146190000Y-105150000D02*
X147960000Y-105150000D01*
D31*
X85255000Y-126230000D02*
X87150000Y-126230000D01*
D30*
X147460000Y-100700000D02*
X147400000Y-100640000D01*
X128880000Y-105400000D02*
X128860000Y-105420000D01*
D31*
X53340000Y-111350000D02*
X79902500Y-111350000D01*
D30*
X155260000Y-105750000D02*
X156960000Y-105750000D01*
X144905000Y-79985000D02*
X144910000Y-79980000D01*
D31*
X92605000Y-139060000D02*
X93250000Y-139060000D01*
D30*
X144905000Y-81740000D02*
X144905000Y-79985000D01*
X85255000Y-118610000D02*
X86680000Y-118610000D01*
X47990000Y-155820000D02*
X50370000Y-155820000D01*
X78800000Y-94420000D02*
X76710000Y-94420000D01*
X78815000Y-94405000D02*
X78800000Y-94420000D01*
X87800000Y-119730000D02*
X93480000Y-119730000D01*
X52830000Y-99920000D02*
X52860000Y-99890000D01*
X52920000Y-93130000D02*
X75420000Y-93130000D01*
X84455000Y-115900000D02*
X84455000Y-117810000D01*
X86680000Y-118610000D02*
X87800000Y-119730000D01*
X52840000Y-93050000D02*
X52920000Y-93130000D01*
X120247500Y-94405000D02*
X78815000Y-94405000D01*
X84455000Y-117810000D02*
X85255000Y-118610000D01*
X50390000Y-99920000D02*
X52830000Y-99920000D01*
X76670000Y-115850000D02*
X76720000Y-115900000D01*
X76720000Y-115900000D02*
X84455000Y-115900000D01*
D31*
X85030000Y-118730000D02*
X84480000Y-118180000D01*
D30*
X75420000Y-93130000D02*
X76710000Y-94420000D01*
X50390000Y-99920000D02*
X47920000Y-99920000D01*
X47920000Y-99920000D02*
X47900000Y-99900000D01*
X140090000Y-88690000D02*
X140400000Y-88380000D01*
X123180000Y-109270000D02*
X151890000Y-109270000D01*
X123150000Y-101110000D02*
X123180000Y-101080000D01*
X151890000Y-109270000D02*
X151950000Y-109330000D01*
X140400000Y-88380000D02*
X147490000Y-88380000D01*
X152040000Y-115010000D02*
X154495000Y-115010000D01*
X119510000Y-101110000D02*
X123150000Y-101110000D01*
X123180000Y-96120000D02*
X123180000Y-94797500D01*
D31*
X76430000Y-118610000D02*
X76420000Y-118600000D01*
X76400000Y-124960000D02*
X80305000Y-124960000D01*
X80305000Y-118610000D02*
X76430000Y-118610000D01*
X89859000Y-123970000D02*
X101730000Y-123970000D01*
X88970000Y-113890000D02*
X89740000Y-114660000D01*
X54600000Y-113890000D02*
X88970000Y-113890000D01*
X89740000Y-114660000D02*
X89830000Y-114750000D01*
X53330000Y-115160000D02*
X54600000Y-113890000D01*
X50390000Y-115160000D02*
X53330000Y-115160000D01*
X89830000Y-114750000D02*
X89840000Y-114750000D01*
X89849000Y-123980000D02*
X89859000Y-123970000D01*
X74820000Y-116450000D02*
X51640000Y-116450000D01*
X83060000Y-114970000D02*
X83460000Y-114570000D01*
X83460000Y-114570000D02*
X88315402Y-114570000D01*
X74840000Y-116430000D02*
X74820000Y-116450000D01*
X74840000Y-114970000D02*
X83060000Y-114970000D01*
X88315402Y-114570000D02*
X88567701Y-114822299D01*
X51640000Y-116450000D02*
X50390000Y-117700000D01*
X89124500Y-126500000D02*
X101720000Y-126500000D01*
X50390000Y-120240000D02*
X53154500Y-120240000D01*
X60990000Y-134240000D02*
X61010000Y-134260000D01*
X61070000Y-130890000D02*
X61385000Y-131205000D01*
X53190000Y-134240000D02*
X60990000Y-134240000D01*
X53154500Y-120240000D02*
X53164500Y-120250000D01*
X61385000Y-131205000D02*
X101345000Y-131205000D01*
X103550000Y-134130000D02*
X103570000Y-134110000D01*
X89095000Y-132035000D02*
X59775000Y-132035000D01*
X141780000Y-173440000D02*
X147340000Y-173440000D01*
X147340000Y-173440000D02*
X147390000Y-173490000D01*
X59775000Y-132035000D02*
X59100000Y-131360000D01*
X137965000Y-141660000D02*
X141770000Y-141660000D01*
X101730000Y-134130000D02*
X103550000Y-134130000D01*
X104155000Y-140515000D02*
X136820000Y-140515000D01*
X53480000Y-122780000D02*
X54900000Y-124200000D01*
X91490000Y-132030000D02*
X89095000Y-132035000D01*
X136820000Y-140515000D02*
X137965000Y-141660000D01*
X103570000Y-139930000D02*
X104155000Y-140515000D01*
X54900000Y-124200000D02*
X59070000Y-124200000D01*
X50390000Y-122780000D02*
X53480000Y-122780000D01*
X91490000Y-134020000D02*
X101620000Y-134020000D01*
X96260000Y-147610000D02*
X95990000Y-147880000D01*
X95990000Y-147880000D02*
X63225305Y-147880000D01*
X50390000Y-153260000D02*
X52020000Y-153260000D01*
X96310000Y-136560000D02*
X101620000Y-136560000D01*
X63225305Y-147880000D02*
X62335305Y-146990000D01*
X52020000Y-153260000D02*
X52060000Y-153300000D01*
X62335305Y-146990000D02*
X51980000Y-146990000D01*
X59435305Y-149160000D02*
X59240305Y-148965000D01*
X50390000Y-150720000D02*
X52860000Y-150720000D01*
X97550000Y-139110000D02*
X97650000Y-139210000D01*
X97650000Y-139210000D02*
X101730000Y-139210000D01*
X97590000Y-148965500D02*
X97395500Y-149160000D01*
X57195000Y-148965000D02*
X56570000Y-149590000D01*
X56570000Y-149590000D02*
X52890000Y-149590000D01*
X97395500Y-149160000D02*
X59435305Y-149160000D01*
X59240305Y-148965000D02*
X57195000Y-148965000D01*
X97890305Y-148240500D02*
X97289695Y-148240500D01*
X97010195Y-148520000D02*
X62840000Y-148520000D01*
X53340000Y-148180000D02*
X53420000Y-148260000D01*
X98340000Y-148090000D02*
X98039902Y-148390098D01*
X98220000Y-144290000D02*
X101730000Y-144290000D01*
X97289695Y-148240500D02*
X97010195Y-148520000D01*
X62840000Y-148520000D02*
X62040000Y-147720000D01*
X62010000Y-144410000D02*
X62020000Y-144400000D01*
X98039902Y-148390098D02*
X97890305Y-148240500D01*
X53430000Y-144410000D02*
X62010000Y-144410000D01*
X50390000Y-148180000D02*
X53340000Y-148180000D01*
X95500000Y-146830000D02*
X101730000Y-146830000D01*
X50390000Y-145640000D02*
X51970000Y-145640000D01*
X75930000Y-139110000D02*
X76030000Y-139210000D01*
X76040000Y-147020000D02*
X95310000Y-147020000D01*
X51950000Y-139110000D02*
X75930000Y-139110000D01*
X95310000Y-147020000D02*
X95500000Y-146830000D01*
X116630000Y-159640000D02*
X117940000Y-158330000D01*
X55390000Y-158340000D02*
X56690000Y-159640000D01*
X56690000Y-159640000D02*
X116630000Y-159640000D01*
X117760000Y-146870000D02*
X119470000Y-146870000D01*
X50390000Y-160880000D02*
X51477000Y-161967000D01*
X115160000Y-144310000D02*
X115180000Y-144290000D01*
X57217000Y-161967000D02*
X58160000Y-162910000D01*
X115180000Y-144290000D02*
X119510000Y-144290000D01*
X115110000Y-162910000D02*
X115190000Y-162830000D01*
X58160000Y-162910000D02*
X115110000Y-162910000D01*
X51477000Y-161967000D02*
X57217000Y-161967000D01*
X116930000Y-139260000D02*
X119460000Y-139260000D01*
X116910000Y-160880000D02*
X116920000Y-160890000D01*
X55390000Y-160880000D02*
X116910000Y-160880000D01*
X50390000Y-163420000D02*
X51477000Y-164507000D01*
X116130000Y-136670000D02*
X119510000Y-136670000D01*
X116110000Y-136650000D02*
X116130000Y-136670000D01*
X51477000Y-164507000D02*
X116113000Y-164507000D01*
X104555305Y-134070000D02*
X119450000Y-134070000D01*
X68960000Y-133000000D02*
X69005000Y-132955000D01*
X67830000Y-133000000D02*
X68960000Y-133000000D01*
X50390000Y-97380000D02*
X53530000Y-97380000D01*
X69005000Y-132955000D02*
X103440305Y-132955000D01*
X67780000Y-132950000D02*
X67830000Y-133000000D01*
X53530000Y-97380000D02*
X54800000Y-98650000D01*
X54880000Y-98730000D02*
X67750000Y-98730000D01*
X103440305Y-132955000D02*
X104555305Y-134070000D01*
X54800000Y-98650000D02*
X54880000Y-98730000D01*
X66185000Y-127875000D02*
X115025000Y-127875000D01*
X115025000Y-127875000D02*
X115080000Y-127930000D01*
X55390000Y-97380000D02*
X64910000Y-97380000D01*
X65280000Y-127900000D02*
X66185000Y-127875000D01*
X115110000Y-131570000D02*
X119490000Y-131570000D01*
X64910000Y-97380000D02*
X64960000Y-97430000D01*
X55390000Y-107540000D02*
X58070000Y-107540000D01*
X58070000Y-107540000D02*
X58160000Y-107630000D01*
X58200000Y-101020000D02*
X80072500Y-101020000D01*
X58960000Y-102260000D02*
X80102500Y-102260000D01*
X55390000Y-110080000D02*
X58860000Y-110080000D01*
X58860000Y-110080000D02*
X58960000Y-109980000D01*
X55390000Y-112620000D02*
X59790000Y-112620000D01*
X59790000Y-112620000D02*
X59850000Y-112560000D01*
X59850000Y-103460000D02*
X80082500Y-103460000D01*
X60870000Y-120240000D02*
X60910000Y-120280000D01*
X55390000Y-120240000D02*
X60870000Y-120240000D01*
X60910000Y-104750000D02*
X80102500Y-104750000D01*
X61750000Y-122780000D02*
X61850000Y-122680000D01*
X61850000Y-106070000D02*
X80102500Y-106070000D01*
X55390000Y-122780000D02*
X61750000Y-122780000D01*
X62610000Y-117700000D02*
X62650000Y-117660000D01*
X55390000Y-117700000D02*
X62610000Y-117700000D01*
X62610000Y-107270000D02*
X80082500Y-107270000D01*
X55390000Y-115160000D02*
X63470000Y-115160000D01*
X63470000Y-115160000D02*
X63500000Y-115130000D01*
X63500000Y-108560000D02*
X80102500Y-108560000D01*
X55390000Y-99920000D02*
X63930000Y-99920000D01*
X63930000Y-99920000D02*
X64030000Y-99820000D01*
X64300000Y-109880000D02*
X80102500Y-109880000D01*
X133610000Y-135430000D02*
X133615000Y-135435000D01*
X101730000Y-121430000D02*
X103600000Y-121430000D01*
X94656430Y-115296430D02*
X98150000Y-118790000D01*
X98150000Y-119650000D02*
X99930000Y-121430000D01*
X104224710Y-132820000D02*
X103673900Y-132269190D01*
X133570498Y-132830000D02*
X133560498Y-132820000D01*
X133615000Y-135435000D02*
X136820000Y-135435000D01*
X133560498Y-132820000D02*
X104224710Y-132820000D01*
X98150000Y-118790000D02*
X98150000Y-119650000D01*
X103600000Y-121430000D02*
X103630000Y-121460000D01*
X104400000Y-124680000D02*
X116225500Y-124680000D01*
X101730000Y-118890000D02*
X104280000Y-118890000D01*
X132540000Y-130225000D02*
X135210000Y-132895000D01*
X104280000Y-118890000D02*
X104310000Y-118920000D01*
X116110000Y-130130000D02*
X116205000Y-130225000D01*
X94610715Y-113315715D02*
X100185000Y-118890000D01*
X116205000Y-130225000D02*
X132540000Y-130225000D01*
X101730000Y-113810000D02*
X105260000Y-113810000D01*
X134215000Y-127815000D02*
X136820000Y-127815000D01*
X105540000Y-125404500D02*
X118265500Y-125404500D01*
X94837855Y-110487855D02*
X98160000Y-113810000D01*
X105260000Y-113810000D02*
X105360000Y-113710000D01*
X118265500Y-125404500D02*
X118335000Y-125335000D01*
X98160000Y-113810000D02*
X101730000Y-113810000D01*
X131735000Y-125335000D02*
X134215000Y-127815000D01*
X118335000Y-125335000D02*
X131735000Y-125335000D01*
X94610715Y-108083570D02*
X97797145Y-111270000D01*
X106440000Y-122230000D02*
X107005000Y-122795000D01*
X107005000Y-122795000D02*
X132265000Y-122795000D01*
X101730000Y-111270000D02*
X106130000Y-111270000D01*
X106130000Y-111270000D02*
X106140000Y-111280000D01*
X97797145Y-111270000D02*
X101730000Y-111270000D01*
X132265000Y-122795000D02*
X134745000Y-125275000D01*
X101750000Y-108750000D02*
X107050000Y-108750000D01*
X94779285Y-105679285D02*
X97830000Y-108730000D01*
X132540000Y-120065000D02*
X135210000Y-122735000D01*
X108009500Y-120065000D02*
X132540000Y-120065000D01*
X97830000Y-108730000D02*
X101730000Y-108730000D01*
X107164500Y-119220000D02*
X108009500Y-120065000D01*
X132540000Y-117525000D02*
X135210000Y-120195000D01*
X101730000Y-106190000D02*
X107900000Y-106190000D01*
X107900000Y-106190000D02*
X107940000Y-106230000D01*
X97525715Y-106190000D02*
X101730000Y-106190000D01*
X107980000Y-117070000D02*
X108435000Y-117525000D01*
X94610715Y-103275000D02*
X97525715Y-106190000D01*
X108435000Y-117525000D02*
X132540000Y-117525000D01*
X103980000Y-114960000D02*
X104135000Y-115115000D01*
X94850000Y-101110000D02*
X101730000Y-101110000D01*
X104135000Y-115115000D02*
X136820000Y-115115000D01*
X101730000Y-101110000D02*
X103920000Y-101110000D01*
X105000000Y-112400000D02*
X105045000Y-112445000D01*
X105045000Y-112445000D02*
X136690000Y-112445000D01*
X94714285Y-98570000D02*
X101730000Y-98570000D01*
X101730000Y-98570000D02*
X104930000Y-98570000D01*
X104930000Y-98570000D02*
X105010000Y-98490000D01*
X88320000Y-124960000D02*
X88400000Y-124880000D01*
X88460000Y-130480500D02*
X78360000Y-130480500D01*
X85255000Y-124960000D02*
X88320000Y-124960000D01*
X78410000Y-135160000D02*
X80342500Y-135160000D01*
X88460000Y-130480500D02*
X91109500Y-130480500D01*
X91109500Y-130480500D02*
X92030000Y-129560000D01*
X51670000Y-96120000D02*
X66820000Y-96120000D01*
X66880000Y-122420000D02*
X80305000Y-122420000D01*
X50390000Y-94840000D02*
X51670000Y-96120000D01*
X66820000Y-96120000D02*
X66830000Y-96130000D01*
X66020000Y-121130000D02*
X66040000Y-121150000D01*
X65990000Y-94840000D02*
X66010000Y-94860000D01*
X55390000Y-94840000D02*
X65990000Y-94840000D01*
X66040000Y-121150000D02*
X80305000Y-121150000D01*
X59650000Y-153240000D02*
X60160000Y-153750000D01*
X122020000Y-164900000D02*
X122060000Y-164940000D01*
X114190000Y-153760000D02*
X119120000Y-153760000D01*
X114400000Y-126510000D02*
X119510000Y-126510000D01*
X60170000Y-153760000D02*
X114190000Y-153760000D01*
X119120000Y-153760000D02*
X119280000Y-153920000D01*
X60160000Y-153750000D02*
X60170000Y-153760000D01*
X55650000Y-153240000D02*
X59650000Y-153240000D01*
X119410000Y-164900000D02*
X122020000Y-164900000D01*
X143150000Y-158360000D02*
X138910000Y-158360000D01*
X80127500Y-99695000D02*
X78165000Y-99695000D01*
X125340000Y-110450000D02*
X138330000Y-110450000D01*
X143175000Y-127815000D02*
X154600000Y-127815000D01*
X138330000Y-110450000D02*
X138360000Y-110420000D01*
X138930000Y-173610000D02*
X119630000Y-173610000D01*
X125260000Y-92930000D02*
X78140000Y-92930000D01*
X78140000Y-92930000D02*
X78100000Y-92890000D01*
X138480000Y-126510000D02*
X139785000Y-127815000D01*
X139785000Y-127815000D02*
X143175000Y-127815000D01*
X78165000Y-99695000D02*
X78100000Y-99760000D01*
X119630000Y-173610000D02*
X119600000Y-173580000D01*
X61760000Y-137960000D02*
X61860000Y-138060000D01*
X62680000Y-119850000D02*
X80275000Y-119850000D01*
X55390000Y-138020000D02*
X58020000Y-138020000D01*
X58390000Y-150700000D02*
X131440000Y-150600000D01*
X150705000Y-145595000D02*
X150690000Y-145580000D01*
X132660000Y-149330000D02*
X150885000Y-149310000D01*
X131440000Y-150600000D02*
X132660000Y-149330000D01*
X58020000Y-138020000D02*
X58080000Y-137960000D01*
X154600000Y-145595000D02*
X150705000Y-145595000D01*
X58080000Y-137960000D02*
X61760000Y-137960000D01*
X155470000Y-74260000D02*
X157590000Y-74260000D01*
X155320000Y-66970000D02*
X155140000Y-66790000D01*
X124750000Y-66790000D02*
X124590000Y-66630000D01*
X155140000Y-66790000D02*
X124750000Y-66790000D01*
X58080000Y-130460000D02*
X59980000Y-130460000D01*
X58020000Y-132940000D02*
X58060000Y-132980000D01*
X59980000Y-130460000D02*
X60010000Y-130430000D01*
X60190000Y-123680000D02*
X80295000Y-123680000D01*
X55390000Y-132940000D02*
X58020000Y-132940000D01*
X119940000Y-161580000D02*
X119940000Y-162575500D01*
X120135000Y-169625000D02*
X127685000Y-169625000D01*
X63590000Y-154630000D02*
X105680000Y-154630000D01*
X127685000Y-169625000D02*
X129710000Y-171650000D01*
X52550000Y-143180000D02*
X53850000Y-141880000D01*
X119940000Y-162575500D02*
X120004500Y-162640000D01*
X63480000Y-154520000D02*
X63590000Y-154630000D01*
X50370000Y-143180000D02*
X52550000Y-143180000D01*
X105700000Y-161710000D02*
X119810000Y-161710000D01*
X53850000Y-141880000D02*
X63470000Y-141880000D01*
X129210000Y-159440000D02*
X129220000Y-159450000D01*
X126730000Y-158100000D02*
X126770000Y-158060000D01*
X126730000Y-159440000D02*
X126730000Y-158100000D01*
X126730000Y-159440000D02*
X129210000Y-159440000D01*
X129220000Y-169260000D02*
X132220000Y-169260000D01*
X126790000Y-113840000D02*
X119540000Y-113840000D01*
X132220000Y-169260000D02*
X132250000Y-169290000D01*
X154595500Y-67679682D02*
X154415818Y-67500000D01*
X154415818Y-67500000D02*
X127134500Y-67500000D01*
X127134500Y-67500000D02*
X127120000Y-67514500D01*
X155410000Y-76800000D02*
X157590000Y-76800000D01*
X156190000Y-77940000D02*
X157590000Y-79340000D01*
X129680000Y-77940000D02*
X156190000Y-77940000D01*
X155960000Y-64610000D02*
X157320000Y-64610000D01*
X154960000Y-65610000D02*
X155960000Y-64610000D01*
X137290000Y-65610000D02*
X154960000Y-65610000D01*
X137590305Y-66335000D02*
X137865305Y-66060000D01*
X134710000Y-65870000D02*
X136565000Y-65870000D01*
X136989695Y-66335000D02*
X137590305Y-66335000D01*
X136565000Y-65910305D02*
X136989695Y-66335000D01*
X156230000Y-66060000D02*
X157590000Y-67420000D01*
X136565000Y-65870000D02*
X136565000Y-65910305D01*
X137865305Y-66060000D02*
X156230000Y-66060000D01*
X87707145Y-102270000D02*
X91510715Y-98466430D01*
X87193215Y-103540000D02*
X88841430Y-103540000D01*
X88841430Y-103540000D02*
X91510715Y-100870715D01*
X89975715Y-104810000D02*
X91510715Y-103275000D01*
X87193215Y-104810000D02*
X89975715Y-104810000D01*
X87193215Y-106080000D02*
X91110000Y-106080000D01*
X90777145Y-107350000D02*
X91510715Y-108083570D01*
X87193215Y-107350000D02*
X90777145Y-107350000D01*
X89642860Y-108620000D02*
X91510715Y-110487855D01*
X87193215Y-108620000D02*
X89642860Y-108620000D01*
X88508575Y-109890000D02*
X91510715Y-112892140D01*
X87193215Y-109890000D02*
X88508575Y-109890000D01*
X87374285Y-111160000D02*
X91510715Y-115296430D01*
X123430000Y-156930000D02*
X153235000Y-156930000D01*
X117070000Y-121430000D02*
X119510000Y-121430000D01*
X153235000Y-156930000D02*
X154600000Y-158295000D01*
X116910000Y-135340000D02*
X116950000Y-135300000D01*
X116955000Y-135305000D02*
X122845000Y-135305000D01*
X87282500Y-136415000D02*
X88459695Y-136415000D01*
X98570000Y-135120000D02*
X98790000Y-135340000D01*
X95130000Y-129560000D02*
X96560000Y-129560000D01*
X89754695Y-135120000D02*
X98570000Y-135120000D01*
X116950000Y-135300000D02*
X116955000Y-135305000D01*
X98790000Y-135340000D02*
X116910000Y-135340000D01*
X116950000Y-121550000D02*
X117070000Y-121430000D01*
X88459695Y-136415000D02*
X89754695Y-135120000D01*
X122870000Y-156370000D02*
X123430000Y-156930000D01*
X96560000Y-129560000D02*
X96570000Y-129570000D01*
X123644500Y-137960000D02*
X136805000Y-137960000D01*
X119510000Y-118890000D02*
X122880000Y-118890000D01*
X122880000Y-118890000D02*
X122900000Y-118910000D01*
X124110000Y-164730000D02*
X127150000Y-164730000D01*
X124090000Y-164710000D02*
X124110000Y-164730000D01*
X123594500Y-137910000D02*
X123644500Y-137960000D01*
X60100000Y-151850000D02*
X139450000Y-151850000D01*
X59760000Y-151510000D02*
X60100000Y-151850000D01*
X55390000Y-135480000D02*
X59750000Y-135480000D01*
X139510000Y-148190000D02*
X139565000Y-148135000D01*
X59750000Y-135480000D02*
X59770000Y-135500000D01*
X154970000Y-168220000D02*
X154990000Y-168240000D01*
X139510000Y-151790000D02*
X149250000Y-151790000D01*
X139450000Y-151850000D02*
X139510000Y-151790000D01*
X149250000Y-151790000D02*
X149260000Y-151780000D01*
X139565000Y-148135000D02*
X154600000Y-148135000D01*
X149770000Y-168220000D02*
X154970000Y-168220000D01*
X55390000Y-140560000D02*
X58870000Y-140560000D01*
X58940000Y-149690000D02*
X130925000Y-149690000D01*
X58870000Y-140560000D02*
X58900000Y-140530000D01*
X133745000Y-146870000D02*
X138940000Y-146870000D01*
X130925000Y-149690000D02*
X133745000Y-146870000D01*
X149770000Y-169280000D02*
X149810000Y-169320000D01*
X144570000Y-169280000D02*
X149770000Y-169280000D01*
X138940000Y-146870000D02*
X143960000Y-146870000D01*
X138940000Y-140490000D02*
X138965000Y-140515000D01*
X143960000Y-146870000D02*
X143970000Y-146880000D01*
X138965000Y-140515000D02*
X154600000Y-140515000D01*
X130585500Y-88204500D02*
X130500000Y-88290000D01*
X101725000Y-63960000D02*
X101685000Y-64000000D01*
X101685000Y-64000000D02*
X96640000Y-64000000D01*
X133525998Y-150674002D02*
X133526996Y-150675000D01*
X130500000Y-88290000D02*
X115710000Y-88290000D01*
X114880000Y-68840000D02*
X115130000Y-69090000D01*
X102440000Y-68840000D02*
X114880000Y-68840000D01*
X133526996Y-150675000D02*
X136820000Y-150675000D01*
X133500000Y-154640000D02*
X127920000Y-154640000D01*
X101730000Y-68130000D02*
X102440000Y-68840000D01*
X133600000Y-154540000D02*
X133500000Y-154640000D01*
X131743118Y-86420000D02*
X120710000Y-86420000D01*
X109700000Y-67110000D02*
X122440000Y-67110000D01*
X109345000Y-63960000D02*
X109345000Y-62350000D01*
X94910000Y-60150000D02*
X91150000Y-63910000D01*
X109350000Y-66760000D02*
X109700000Y-67110000D01*
X107145000Y-60150000D02*
X94910000Y-60150000D01*
X132015500Y-86147618D02*
X131743118Y-86420000D01*
X120710000Y-86420000D02*
X120660000Y-86370000D01*
X131950000Y-153750000D02*
X136285000Y-153750000D01*
X109345000Y-62350000D02*
X107145000Y-60150000D01*
X131205500Y-87144500D02*
X130870000Y-87480000D01*
X103090000Y-60600000D02*
X97150000Y-60600000D01*
X97150000Y-60600000D02*
X93840000Y-63910000D01*
X105210000Y-67990000D02*
X116950000Y-67990000D01*
X130870000Y-87480000D02*
X118170000Y-87480000D01*
X104290000Y-68000000D02*
X105200000Y-68000000D01*
X105200000Y-68000000D02*
X105210000Y-67990000D01*
X104265000Y-61775000D02*
X103090000Y-60600000D01*
X104265000Y-63960000D02*
X104265000Y-61775000D01*
X129190000Y-158310000D02*
X136805000Y-158310000D01*
X132815000Y-160835000D02*
X136820000Y-160835000D01*
X132780000Y-160800000D02*
X132815000Y-160835000D01*
X92540000Y-59700000D02*
X88400000Y-63840000D01*
X123100000Y-66220000D02*
X123150000Y-66270000D01*
X132730000Y-85350000D02*
X123380000Y-85350000D01*
X132780000Y-85400000D02*
X132730000Y-85350000D01*
X111885000Y-62350000D02*
X109235000Y-59700000D01*
X123380000Y-85350000D02*
X123290000Y-85260000D01*
X111970000Y-66220000D02*
X123100000Y-66220000D01*
X111885000Y-63960000D02*
X111885000Y-62350000D01*
X111870000Y-66120000D02*
X111970000Y-66220000D01*
X109235000Y-59700000D02*
X92540000Y-59700000D01*
X127980000Y-107030000D02*
X148390000Y-107030000D01*
X148390000Y-107030000D02*
X148450000Y-106970000D01*
X154685000Y-160750000D02*
X154600000Y-160835000D01*
X159110000Y-160750000D02*
X154685000Y-160750000D01*
X130750000Y-102860000D02*
X127920000Y-102860000D01*
X127920000Y-102860000D02*
X127910000Y-102870000D01*
X151920000Y-160850000D02*
X154585000Y-160850000D01*
X140310000Y-153230000D02*
X154585000Y-153230000D01*
X154645000Y-153260000D02*
X154600000Y-153215000D01*
X159040000Y-153260000D02*
X154645000Y-153260000D01*
X140260000Y-104130000D02*
X140310000Y-104080000D01*
X135700000Y-104130000D02*
X140260000Y-104130000D01*
X149270000Y-150700000D02*
X154575000Y-150700000D01*
X139510000Y-139040000D02*
X149260000Y-139040000D01*
X135700000Y-105400000D02*
X139545500Y-105400000D01*
X154615000Y-150690000D02*
X154600000Y-150675000D01*
X139545500Y-105400000D02*
X139585500Y-105360000D01*
X158970000Y-150690000D02*
X154615000Y-150690000D01*
X133490000Y-128700000D02*
X133930000Y-129140000D01*
X130750000Y-101590000D02*
X133464500Y-101590000D01*
X141490000Y-135420000D02*
X141505000Y-135435000D01*
X158990000Y-135530000D02*
X154695000Y-135530000D01*
X154695000Y-135530000D02*
X154600000Y-135435000D01*
X141505000Y-135435000D02*
X154600000Y-135435000D01*
X133930000Y-129140000D02*
X141470000Y-129140000D01*
X134440000Y-171510000D02*
X144830000Y-171510000D01*
X134370000Y-167530000D02*
X134430000Y-167590000D01*
X134430000Y-171500000D02*
X134440000Y-171510000D01*
X60950000Y-145640000D02*
X60960000Y-145650000D01*
X130910000Y-134540000D02*
X131190000Y-134260000D01*
X61040000Y-152830000D02*
X130800000Y-152830000D01*
X153235000Y-134260000D02*
X154600000Y-132895000D01*
X55390000Y-145640000D02*
X60950000Y-145640000D01*
X130800000Y-152830000D02*
X130860000Y-152770000D01*
X131190000Y-134260000D02*
X153235000Y-134260000D01*
X130870000Y-167530000D02*
X134370000Y-167530000D01*
X148250000Y-160605000D02*
X148250000Y-166300000D01*
X143145000Y-160630000D02*
X143145000Y-166275000D01*
X95250000Y-75380000D02*
X97620000Y-75380000D01*
X97620000Y-75380000D02*
X97630000Y-75390000D01*
X97630000Y-75390000D02*
X101955000Y-75390000D01*
X95370000Y-70420000D02*
X101845000Y-70420000D01*
X126720000Y-162530000D02*
X123360000Y-162530000D01*
D30*
X119510000Y-108730000D02*
X116980000Y-108730000D01*
D31*
X89855000Y-133875000D02*
X87282500Y-133875000D01*
D30*
X87685000Y-96290000D02*
X89120000Y-96290000D01*
X89120000Y-96290000D02*
X89130000Y-96300000D01*
D31*
X88407500Y-98340000D02*
X87052500Y-99695000D01*
D30*
X88595000Y-95380000D02*
X87685000Y-96290000D01*
X117020000Y-95380000D02*
X88595000Y-95380000D01*
D31*
X89860000Y-137190000D02*
X91515000Y-137190000D01*
X80357500Y-133875000D02*
X87282500Y-133875000D01*
X89010000Y-98340000D02*
X88407500Y-98340000D01*
D30*
X158045000Y-122735000D02*
X159260000Y-121520000D01*
X150865000Y-122735000D02*
X150790000Y-122660000D01*
X135700000Y-101590000D02*
X135700000Y-100170000D01*
X135949952Y-101839952D02*
X135700000Y-101590000D01*
X135700000Y-100170000D02*
X133480000Y-97950000D01*
X154600000Y-122735000D02*
X158045000Y-122735000D01*
X154600000Y-122735000D02*
X150865000Y-122735000D01*
X142510000Y-107980000D02*
X142470000Y-107940000D01*
X142460048Y-101839952D02*
X135949952Y-101839952D01*
X154600000Y-122735000D02*
X157965000Y-122735000D01*
X150740000Y-107980000D02*
X142510000Y-107980000D01*
X157965000Y-122735000D02*
X159320000Y-124090000D01*
X152620000Y-81880000D02*
X157590000Y-81880000D01*
D31*
X137460000Y-88650000D02*
X139825000Y-86285000D01*
D30*
X144040000Y-98400000D02*
X147360000Y-98400000D01*
D31*
X139825000Y-86285000D02*
X139825000Y-85275000D01*
D30*
X141810000Y-96170000D02*
X144040000Y-98400000D01*
X152715000Y-85275000D02*
X152720000Y-85270000D01*
X147360000Y-98400000D02*
X147460000Y-98500000D01*
D31*
X138345000Y-85275000D02*
X139825000Y-85275000D01*
D30*
X139825000Y-85275000D02*
X152715000Y-85275000D01*
D31*
X134970000Y-88650000D02*
X138345000Y-85275000D01*
X143444695Y-101800000D02*
X147460000Y-101800000D01*
X101435500Y-92205500D02*
X97540000Y-88310000D01*
X136414695Y-94770000D02*
X143444695Y-101800000D01*
X101835500Y-92100000D02*
X126250000Y-92100000D01*
X101730000Y-92205500D02*
X101435500Y-92205500D01*
X101730000Y-92205500D02*
X101835500Y-92100000D01*
X126280000Y-94700000D02*
X126350000Y-94770000D01*
X126350000Y-94770000D02*
X136414695Y-94770000D01*
X104265000Y-83350000D02*
X104265000Y-81740000D01*
X140460000Y-92400000D02*
X144360000Y-96300000D01*
X127420000Y-91641000D02*
X127154500Y-91375500D01*
X104320000Y-91375500D02*
X127154500Y-91375500D01*
X102105000Y-85510000D02*
X104265000Y-83350000D01*
X127420000Y-92400000D02*
X127420000Y-91641000D01*
X127420000Y-92400000D02*
X140460000Y-92400000D01*
X97630000Y-85510000D02*
X102105000Y-85510000D01*
X144360000Y-96300000D02*
X147460000Y-96300000D01*
X144214695Y-99600000D02*
X147460000Y-99600000D01*
X109340000Y-90651000D02*
X109521000Y-90470000D01*
X107845000Y-80240000D02*
X109345000Y-81740000D01*
X97630000Y-82820000D02*
X100210000Y-80240000D01*
X138674695Y-94060000D02*
X144214695Y-99600000D01*
X128640000Y-94060000D02*
X138674695Y-94060000D01*
X100210000Y-80240000D02*
X107845000Y-80240000D01*
X109521000Y-90470000D02*
X128420000Y-90470000D01*
X128580000Y-94000000D02*
X128640000Y-94060000D01*
X111910000Y-89745500D02*
X112205500Y-89450000D01*
X100190000Y-79500000D02*
X109645000Y-79500000D01*
X129470000Y-93124500D02*
X129494500Y-93100000D01*
X144360000Y-97400000D02*
X147460000Y-97400000D01*
X112205500Y-89450000D02*
X129400000Y-89450000D01*
X109645000Y-79500000D02*
X111885000Y-81740000D01*
X97700000Y-80070000D02*
X99620000Y-80070000D01*
X129494500Y-93100000D02*
X140060000Y-93100000D01*
X140060000Y-93100000D02*
X144360000Y-97400000D01*
X99620000Y-80070000D02*
X100190000Y-79500000D01*
X145215500Y-157730000D02*
X152850000Y-157730000D01*
X152880000Y-169330000D02*
X152910000Y-169360000D01*
X136820000Y-145595000D02*
X144925000Y-145595000D01*
X152910000Y-169360000D02*
X157430000Y-169360000D01*
X144925000Y-145595000D02*
X145020000Y-145690000D01*
X145140000Y-157654500D02*
X145215500Y-157730000D01*
X114330000Y-71630000D02*
X88450000Y-71630000D01*
X114360000Y-71660000D02*
X114330000Y-71630000D01*
M02*
