M48
; DRILL file {KiCad (6.0.0)} date Mon Nov  6 12:21:56 2023
; FORMAT={-:-/ absolute / inch / decimal}
; #@! TF.CreationDate,2023-11-06T12:21:56+00:00
; #@! TF.GenerationSoftware,Kicad,Pcbnew,(6.0.0)
; #@! TF.FileFunction,Plated,1,4,PTH
FMAT,2
INCH
; #@! TA.AperFunction,Plated,PTH,ViaDrill
T1C0.0157
; #@! TA.AperFunction,Plated,PTH,ComponentDrill
T2C0.0300
; #@! TA.AperFunction,Plated,PTH,ComponentDrill
T3C0.0394
; #@! TA.AperFunction,Plated,PTH,ComponentDrill
T4C0.0402
; #@! TA.AperFunction,Plated,PTH,ComponentDrill
T5C0.0512
%
G90
G05
T1
X1.9429Y-2.9543
X1.9705Y-3.3362
X2.0728Y-3.6551
X2.0736Y-3.9339
X2.2539Y-3.8032
X2.2539Y-5.2063
X2.2839Y-3.8339
X2.2854Y-6.4543
X2.313Y-3.8795
X2.313Y-6.4228
X2.3445Y-4.2535
X2.3445Y-4.3795
X2.376Y-4.4976
X2.3917Y-5.0016
X2.4232Y-3.6945
X2.4429Y-3.4228
X2.4587Y-3.537
X2.5059Y-5.7024
X2.5098Y-6.1866
X2.5256Y-3.0488
X2.5295Y-4.1472
X2.5295Y-4.3397
X2.5335Y-4.415
X2.5335Y-4.6197
X2.5353Y-4.6828
X2.5728Y-3.9346
X2.6043Y-6.4819
X2.6083Y-4.4701
X2.6083Y-5.7654
X2.6122Y-4.5331
X2.6122Y-4.6236
X2.6161Y-4.7417
X2.6791Y-2.9583
X2.6791Y-3.3362
X2.6791Y-5.4504
X2.7146Y-3.8244
X2.7358Y-3.0354
X2.7461Y-3.2969
X2.7461Y-3.4346
X2.7657Y-3.7969
X2.7736Y-5.9543
X2.7776Y-4.3323
X2.7854Y-3.2693
X2.7854Y-3.4661
X2.787Y-4.6339
X2.7973Y-3.1197
X2.8051Y-5.163
X2.8051Y-6.0606
X2.8051Y-6.2181
X2.813Y-3.8244
X2.8169Y-3.2339
X2.8209Y-3.3559
X2.8248Y-4.5055
X2.8248Y-4.8362
X2.8541Y-4.9511
X2.8563Y-3.2063
X2.8563Y-3.6394
X2.8642Y-4.4071
X2.8642Y-4.4858
X2.8642Y-4.7142
X2.8642Y-5.9937
X2.8681Y-4.285
X2.8799Y-3.0921
X2.8957Y-3.1709
X2.8959Y-3.6632
X2.9035Y-6.1197
X2.9075Y-4.9511
X2.9114Y-6.4858
X2.9232Y-4.285
X2.9232Y-3.8717
X2.935Y-3.6079
X2.9508Y-4.8614
X2.9547Y-5.1157
X2.9547Y-5.289
X2.9547Y-6.0291
X2.9587Y-3.1236
X2.9587Y-5.0055
X2.9626Y-3.8205
X2.9665Y-4.1118
X3.0059Y-5.9543
X3.0059Y-6.1157
X3.0177Y-4.8063
X3.0209Y-4.892
X3.0217Y-3.6906
X3.0256Y-3.4307
X3.0374Y-5.285
X3.0413Y-4.3441
X3.0413Y-4.4897
X3.0531Y-5.6433
X3.0571Y-3.5331
X3.0579Y-4.6611
X3.0728Y-2.9937
X3.0728Y-3.3559
X3.079Y-5.3221
X3.0846Y-4.4898
X3.1043Y-4.2339
X3.1043Y-4.4031
X3.1476Y-3.6
X3.1476Y-3.8126
X3.1634Y-5.415
X3.1634Y-5.9425
X3.2106Y-5.415
X3.2933Y-4.5173
X3.2933Y-4.6063
X3.3012Y-6.0961
X3.3091Y-5.163
X3.313Y-3.5961
X3.3366Y-4.6866
X3.3602Y-4.5016
X3.4114Y-5.2772
X3.4547Y-4.7063
X3.4547Y-5.1748
X3.4626Y-4.3768
X3.4941Y-4.7417
X3.502Y-4.392
X3.502Y-4.5882
X3.5059Y-5.9937
X3.5177Y-3.4937
X3.5366Y-5.3771
X3.5368Y-4.7435
X3.5571Y-4.5606
X3.565Y-3.9063
X3.5925Y-3.6079
X3.5965Y-4.7142
X3.6043Y-4.6
X3.6122Y-5.2771
X3.624Y-3.0803
X3.624Y-3.5488
X3.628Y-3.9063
X3.628Y-4.1079
X3.6516Y-4.1433
X3.6673Y-4.7457
X3.6791Y-3.3559
X3.6949Y-3.9063
X3.7067Y-3.1236
X3.7106Y-5.3047
X3.7146Y-3.8716
X3.7579Y-4.7457
X3.7657Y-3.0843
X3.7657Y-4.1433
X3.8051Y-5.4504
X3.8051Y-5.9425
X3.8524Y-4.7142
X3.8681Y-3.3598
X3.876Y-4.0173
X3.9626Y-3.9858
X3.9626Y-4.7456
X4.0059Y-4.8323
X4.0059Y-6.0291
X4.0138Y-5.3835
X4.0177Y-3.5094
X4.0295Y-4.6
X4.0295Y-4.6945
X4.0335Y-6.5055
X4.0492Y-4.0134
X4.061Y-3.6118
X4.1083Y-5.1748
X4.1122Y-4.6063
X4.1377Y-4.415
X4.1437Y-4.0134
X4.1752Y-4.4307
X4.2106Y-4.3756
X4.2146Y-3.5921
X4.2614Y-4.5799
X4.2657Y-4.3992
X4.3051Y-5.1669
X4.3091Y-6.4307
X4.313Y-4.6063
X4.3563Y-5.6827
X4.3602Y-4.6984
X4.3996Y-3.9976
X4.4035Y-5.2771
X4.435Y-4.474
X4.439Y-4.1118
X4.4626Y-4.3913
X4.498Y-4.6039
X4.5098Y-4.9346
X4.5098Y-5.3835
X4.5138Y-3.1906
X4.5138Y-3.4386
X4.5138Y-5.4858
X4.5437Y-5.4036
X4.5531Y-4.4228
X4.5531Y-4.6
X4.561Y-5.6394
X4.6083Y-4.7181
X4.6161Y-3.3008
X4.624Y-5.2378
X4.624Y-5.3771
X4.628Y-5.5606
X4.6555Y-4.9228
X4.6594Y-4.4701
X4.6594Y-4.6
X4.7028Y-4.7457
X4.7057Y-5.4884
X4.7067Y-5.2378
X4.7067Y-5.4307
X4.7185Y-3.1591
X4.7185Y-3.5488
X4.7397Y-4.4389
X4.7421Y-4.3953
X4.7421Y-5.1669
X4.7632Y-4.474
X4.7697Y-3.9031
X4.8113Y-4.474
X4.8287Y-5.6276
X4.8602Y-4.3953
X4.8602Y-5.2772
X4.9035Y-3.9614
X4.9211Y-4.5331
X4.9429Y-3.9819
X4.9587Y-6.5016
X5.0098Y-4.9228
X5.0177Y-3.0843
X5.0177Y-6.4268
X5.0571Y-5.3771
X5.0571Y-6.5016
X5.1083Y-4.3913
X5.1161Y-3.0961
X5.1476Y-3.8559
X5.1831Y-6.5016
X5.187Y-6.4346
X5.1949Y-3.0528
X5.1949Y-3.1591
X5.1982Y-3.352
X5.1982Y-3.5882
X5.1982Y-4.9228
X5.1982Y-6.0961
X5.2913Y-4.1246
X5.2963Y-4.2496
X5.3051Y-3.5213
X5.3051Y-3.6197
X5.3484Y-3.5488
X5.3681Y-5.7693
X5.3681Y-5.8205
X5.3681Y-5.8717
X5.3681Y-5.9189
X5.3681Y-5.9622
X5.3681Y-6.0016
X5.3681Y-6.0488
X5.3681Y-6.0961
X5.3681Y-6.1433
X5.3681Y-6.1906
X5.3681Y-6.2535
X5.3681Y-6.3402
X5.3681Y-6.3874
X5.3681Y-6.474
X5.372Y-5.0567
X5.372Y-4.8795
X5.372Y-4.6472
X5.372Y-4.6866
X5.372Y-4.7378
X5.372Y-4.789
X5.372Y-4.8402
X5.372Y-4.9189
X5.372Y-4.9661
X5.372Y-5.0094
X5.372Y-5.1354
X5.372Y-5.1787
X5.372Y-5.2299
X5.372Y-5.2811
X5.372Y-5.3362
X5.372Y-5.3835
X5.372Y-5.4268
X5.372Y-5.478
X5.372Y-5.5291
X5.372Y-5.5764
X5.372Y-5.6276
X5.372Y-5.6748
X5.372Y-5.7181
X5.376Y-4.1709
X5.376Y-4.2949
X5.376Y-4.348
X5.376Y-4.3992
X5.376Y-4.4465
X5.376Y-4.5055
X5.376Y-4.5606
X5.3799Y-3.7378
X5.3799Y-3.7771
X5.3799Y-3.8323
X5.3799Y-3.8795
X5.3799Y-3.9346
X5.3799Y-3.9937
X5.3799Y-4.0724
X5.3799Y-4.1197
X5.561Y-3.4465
T2
X1.9839Y-3.7339
X1.9839Y-3.8339
X1.9839Y-3.9339
X1.9839Y-4.0339
X1.9839Y-4.1339
X1.9839Y-4.2339
X1.9839Y-4.3339
X1.9839Y-4.4339
X1.9839Y-4.5339
X1.9839Y-4.6339
X1.9839Y-4.7339
X1.9839Y-4.8339
X1.9839Y-4.9339
X1.9839Y-5.0339
X1.9839Y-5.1339
X1.9839Y-5.2339
X1.9839Y-5.3339
X1.9839Y-5.4339
X1.9839Y-5.5339
X1.9839Y-5.6339
X1.9839Y-5.7339
X1.9839Y-5.8339
X1.9839Y-5.9339
X1.9839Y-6.0339
X1.9839Y-6.1339
X1.9839Y-6.2339
X1.9839Y-6.3339
X1.9839Y-6.4339
X2.1807Y-3.7339
X2.1807Y-3.8339
X2.1807Y-3.9339
X2.1807Y-4.0339
X2.1807Y-4.1339
X2.1807Y-4.2339
X2.1807Y-4.3339
X2.1807Y-4.4339
X2.1807Y-4.5339
X2.1807Y-4.6339
X2.1807Y-4.7339
X2.1807Y-4.8339
X2.1807Y-4.9339
X2.1807Y-5.0339
X2.1807Y-5.1339
X2.1807Y-5.2339
X2.1807Y-5.3339
X2.1807Y-5.4339
X2.1807Y-5.5339
X2.1807Y-5.6339
X2.1807Y-5.7339
X2.1807Y-5.8339
X2.1807Y-5.9339
X2.1807Y-6.0339
X2.1807Y-6.1339
X2.1807Y-6.2339
X2.1807Y-6.3339
X2.1807Y-6.4339
T3
X1.9783Y-3.5331
X2.4258Y-3.9858
X2.5258Y-3.9858
X2.6258Y-3.9858
X2.7258Y-3.9858
X2.7854Y-2.9071
X2.7933Y-4.163
X2.8258Y-3.9858
X2.9035Y-2.9071
X2.9258Y-3.9858
X3.0258Y-3.9858
X3.0295Y-2.911
X3.1258Y-3.9858
X3.2258Y-3.9858
X3.3258Y-3.9858
X3.6083Y-6.6236
X3.7972Y-6.6236
X4.2057Y-6.6157
X4.3057Y-6.6157
X4.4057Y-6.6157
X4.8573Y-6.5724
X4.9573Y-6.5724
X5.0573Y-6.5724
X5.1573Y-6.5724
X5.2573Y-6.5724
X5.3287Y-2.9504
X5.3287Y-3.0504
X5.3287Y-3.1504
X5.3287Y-3.2504
X5.3287Y-3.3504
X5.3287Y-3.4504
X5.4508Y-6.6236
X5.6014Y-2.9031
X5.6014Y-3.0803
X5.6053Y-3.3362
X5.6053Y-3.5134
T4
X2.5065Y-5.5886
X2.5065Y-6.2886
X2.5156Y-5.8386
X2.5156Y-5.9386
X2.5156Y-6.0386
X2.6065Y-5.5886
X2.6065Y-6.2886
X2.7065Y-5.5886
X2.7065Y-6.2886
X2.8065Y-5.5886
X2.8065Y-6.2886
X2.9065Y-5.5886
X2.9065Y-6.2886
X3.0065Y-5.5886
X3.0065Y-6.2886
X3.1065Y-5.5886
X3.1065Y-6.2886
X3.2065Y-5.5886
X3.2065Y-6.2886
X3.2094Y-4.2894
X3.2094Y-4.9894
X3.2152Y-2.9902
X3.2152Y-3.6902
X3.2185Y-4.5394
X3.2185Y-4.6394
X3.2185Y-4.7394
X3.2242Y-3.2402
X3.2242Y-3.3402
X3.2242Y-3.4402
X3.3065Y-5.5886
X3.3065Y-6.2886
X3.3094Y-4.2894
X3.3094Y-4.9894
X3.3152Y-2.9902
X3.3152Y-3.6902
X3.4065Y-5.5886
X3.4065Y-6.2886
X3.4094Y-4.2894
X3.4094Y-4.9894
X3.4152Y-2.9902
X3.4152Y-3.6902
X3.5065Y-5.5886
X3.5065Y-6.2886
X3.5094Y-4.2894
X3.5094Y-4.9894
X3.5152Y-2.9902
X3.5152Y-3.6902
X3.6065Y-5.5886
X3.6065Y-6.2886
X3.6094Y-4.2894
X3.6094Y-4.9894
X3.6152Y-2.9902
X3.6152Y-3.6902
X3.7065Y-5.5886
X3.7065Y-6.2886
X3.7094Y-4.2894
X3.7094Y-4.9894
X3.7152Y-2.9902
X3.7152Y-3.6902
X3.8065Y-5.5886
X3.8065Y-6.2886
X3.8094Y-4.2894
X3.8094Y-4.9894
X3.8152Y-2.9902
X3.8152Y-3.6902
X3.9065Y-5.5886
X3.9065Y-6.2886
X3.9094Y-4.2894
X3.9094Y-4.9894
X3.9152Y-2.9902
X3.9152Y-3.6902
X4.0065Y-5.5886
X4.0065Y-6.2886
X4.0094Y-4.2894
X4.0094Y-4.9894
X4.0152Y-2.9902
X4.0152Y-3.6902
X4.1065Y-5.5886
X4.1065Y-6.2886
X4.1094Y-4.2894
X4.1094Y-4.9894
X4.1152Y-2.9902
X4.1152Y-3.6902
X4.2065Y-5.5886
X4.2065Y-6.2886
X4.2094Y-4.2894
X4.2094Y-4.9894
X4.2152Y-2.9902
X4.2152Y-3.6902
X4.3065Y-5.5886
X4.3065Y-6.2886
X4.3094Y-4.2894
X4.3094Y-4.9894
X4.3152Y-2.9902
X4.3152Y-3.6902
X4.4065Y-5.5886
X4.4065Y-6.2886
X4.4094Y-4.2894
X4.4094Y-4.9894
X4.4152Y-2.9902
X4.4152Y-3.6902
X4.5094Y-4.2894
X4.5094Y-4.9894
X4.5152Y-2.9902
X4.5152Y-3.6902
X4.6094Y-4.2894
X4.6094Y-4.9894
X4.6152Y-2.9902
X4.6152Y-3.6902
X4.7094Y-4.2894
X4.7094Y-4.9894
X4.7152Y-2.9902
X4.7152Y-3.6902
X4.8094Y-4.2894
X4.8094Y-4.9894
X4.8152Y-2.9902
X4.8152Y-3.6902
X4.9094Y-4.2894
X4.9094Y-4.9894
X4.9152Y-2.9902
X4.9152Y-3.6902
X5.0094Y-4.2894
X5.0094Y-4.9894
X5.0152Y-2.9902
X5.0152Y-3.6902
X5.1094Y-4.2894
X5.1094Y-4.9894
X5.1152Y-2.9902
X5.1152Y-3.6902
T5
X5.503Y-2.8539
X5.503Y-3.1295
X5.5069Y-3.287
X5.5069Y-3.5626
T0
M30
