G04 #@! TF.GenerationSoftware,KiCad,Pcbnew,(6.0.0)*
G04 #@! TF.CreationDate,2023-11-06T12:19:40+00:00*
G04 #@! TF.ProjectId,srom,73726f6d-2e6b-4696-9361-645f70636258,v1.3 to v1.4*
G04 #@! TF.SameCoordinates,Original*
G04 #@! TF.FileFunction,Copper,L1,Top*
G04 #@! TF.FilePolarity,Positive*
%FSLAX46Y46*%
G04 Gerber Fmt 4.6, Leading zero omitted, Abs format (unit mm)*
G04 Created by KiCad (PCBNEW (6.0.0)) date 2023-11-06 12:19:40*
%MOMM*%
%LPD*%
G01*
G04 APERTURE LIST*
G04 Aperture macros list*
%AMRoundRect*
0 Rectangle with rounded corners*
0 $1 Rounding radius*
0 $2 $3 $4 $5 $6 $7 $8 $9 X,Y pos of 4 corners*
0 Add a 4 corners polygon primitive as box body*
4,1,4,$2,$3,$4,$5,$6,$7,$8,$9,$2,$3,0*
0 Add four circle primitives for the rounded corners*
1,1,$1+$1,$2,$3*
1,1,$1+$1,$4,$5*
1,1,$1+$1,$6,$7*
1,1,$1+$1,$8,$9*
0 Add four rect primitives between the rounded corners*
20,1,$1+$1,$2,$3,$4,$5,0*
20,1,$1+$1,$4,$5,$6,$7,0*
20,1,$1+$1,$6,$7,$8,$9,0*
20,1,$1+$1,$8,$9,$2,$3,0*%
G04 Aperture macros list end*
G04 #@! TA.AperFunction,ComponentPad*
%ADD10C,2.200000*%
G04 #@! TD*
G04 #@! TA.AperFunction,ComponentPad*
%ADD11C,1.700000*%
G04 #@! TD*
G04 #@! TA.AperFunction,ComponentPad*
%ADD12C,2.000000*%
G04 #@! TD*
G04 #@! TA.AperFunction,SMDPad,CuDef*
%ADD13R,7.620000X1.524000*%
G04 #@! TD*
G04 #@! TA.AperFunction,SMDPad,CuDef*
%ADD14RoundRect,0.250000X-0.625000X0.400000X-0.625000X-0.400000X0.625000X-0.400000X0.625000X0.400000X0*%
G04 #@! TD*
G04 #@! TA.AperFunction,ComponentPad*
%ADD15O,1.700000X1.700000*%
G04 #@! TD*
G04 #@! TA.AperFunction,SMDPad,CuDef*
%ADD16R,1.700000X3.500000*%
G04 #@! TD*
G04 #@! TA.AperFunction,ComponentPad*
%ADD17R,1.700000X1.700000*%
G04 #@! TD*
G04 #@! TA.AperFunction,SMDPad,CuDef*
%ADD18R,3.500000X1.700000*%
G04 #@! TD*
G04 #@! TA.AperFunction,SMDPad,CuDef*
%ADD19R,2.000000X0.650000*%
G04 #@! TD*
G04 #@! TA.AperFunction,SMDPad,CuDef*
%ADD20RoundRect,0.150000X-0.837500X-0.150000X0.837500X-0.150000X0.837500X0.150000X-0.837500X0.150000X0*%
G04 #@! TD*
G04 #@! TA.AperFunction,SMDPad,CuDef*
%ADD21RoundRect,0.250000X0.650000X-0.325000X0.650000X0.325000X-0.650000X0.325000X-0.650000X-0.325000X0*%
G04 #@! TD*
G04 #@! TA.AperFunction,SMDPad,CuDef*
%ADD22R,0.700000X1.600000*%
G04 #@! TD*
G04 #@! TA.AperFunction,SMDPad,CuDef*
%ADD23R,1.200000X2.200000*%
G04 #@! TD*
G04 #@! TA.AperFunction,SMDPad,CuDef*
%ADD24R,1.600000X1.400000*%
G04 #@! TD*
G04 #@! TA.AperFunction,SMDPad,CuDef*
%ADD25R,1.200000X1.400000*%
G04 #@! TD*
G04 #@! TA.AperFunction,SMDPad,CuDef*
%ADD26RoundRect,0.150000X0.150000X-0.825000X0.150000X0.825000X-0.150000X0.825000X-0.150000X-0.825000X0*%
G04 #@! TD*
G04 #@! TA.AperFunction,SMDPad,CuDef*
%ADD27RoundRect,0.250000X-0.400000X-0.625000X0.400000X-0.625000X0.400000X0.625000X-0.400000X0.625000X0*%
G04 #@! TD*
G04 #@! TA.AperFunction,SMDPad,CuDef*
%ADD28RoundRect,0.250000X-0.650000X0.325000X-0.650000X-0.325000X0.650000X-0.325000X0.650000X0.325000X0*%
G04 #@! TD*
G04 #@! TA.AperFunction,SMDPad,CuDef*
%ADD29RoundRect,0.150000X-0.150000X0.837500X-0.150000X-0.837500X0.150000X-0.837500X0.150000X0.837500X0*%
G04 #@! TD*
G04 #@! TA.AperFunction,SMDPad,CuDef*
%ADD30RoundRect,0.250001X-0.624999X0.462499X-0.624999X-0.462499X0.624999X-0.462499X0.624999X0.462499X0*%
G04 #@! TD*
G04 #@! TA.AperFunction,ComponentPad*
%ADD31C,1.524000*%
G04 #@! TD*
G04 #@! TA.AperFunction,ViaPad*
%ADD32C,0.800000*%
G04 #@! TD*
G04 #@! TA.AperFunction,Conductor*
%ADD33C,0.200000*%
G04 #@! TD*
G04 #@! TA.AperFunction,Conductor*
%ADD34C,0.750000*%
G04 #@! TD*
G04 #@! TA.AperFunction,Conductor*
%ADD35C,0.300000*%
G04 #@! TD*
G04 APERTURE END LIST*
D10*
X139875000Y-83490000D03*
X139875000Y-90490000D03*
D11*
X142375000Y-84740000D03*
X142375000Y-89240000D03*
D12*
X138450000Y-168240000D03*
D10*
X139775000Y-72490000D03*
X139775000Y-79490000D03*
D11*
X142275000Y-73740000D03*
X142275000Y-78240000D03*
D12*
X76950000Y-73940000D03*
D13*
X141450000Y-95120000D03*
X141450000Y-97660000D03*
X141450000Y-100200000D03*
X141450000Y-102740000D03*
X141450000Y-107820000D03*
X141450000Y-110360000D03*
X141450000Y-112900000D03*
X141450000Y-115440000D03*
X141450000Y-117980000D03*
X141450000Y-120520000D03*
X141450000Y-123060000D03*
X141450000Y-125600000D03*
X141450000Y-128140000D03*
X141450000Y-130680000D03*
X141450000Y-133220000D03*
X141450000Y-135760000D03*
X141450000Y-138300000D03*
X141450000Y-140840000D03*
X141450000Y-143380000D03*
X141450000Y-145920000D03*
X141450000Y-148460000D03*
X141450000Y-151000000D03*
X141450000Y-153540000D03*
X141450000Y-156080000D03*
X141450000Y-158620000D03*
X141450000Y-161160000D03*
X141450000Y-163700000D03*
D14*
X62212500Y-109625000D03*
X62212500Y-112725000D03*
D12*
X50250000Y-89740000D03*
D15*
X129925000Y-75950000D03*
D16*
X129925000Y-75050000D03*
D15*
X127385000Y-75950000D03*
D16*
X127385000Y-75050000D03*
X124845000Y-75050000D03*
D17*
X124845000Y-75950000D03*
D16*
X122305000Y-75050000D03*
D15*
X122305000Y-75950000D03*
X119765000Y-75950000D03*
D16*
X119765000Y-75050000D03*
D15*
X117225000Y-75950000D03*
D16*
X117225000Y-75050000D03*
D15*
X114685000Y-75950000D03*
D16*
X114685000Y-75050000D03*
D17*
X112145000Y-75950000D03*
D16*
X112145000Y-75050000D03*
D15*
X109605000Y-75950000D03*
D16*
X109605000Y-75050000D03*
D15*
X107065000Y-75950000D03*
D16*
X107065000Y-75050000D03*
D15*
X104525000Y-75950000D03*
D16*
X104525000Y-75050000D03*
D15*
X101985000Y-75950000D03*
D16*
X101985000Y-75050000D03*
D17*
X99445000Y-75950000D03*
D16*
X99445000Y-75050000D03*
D15*
X96905000Y-75950000D03*
D16*
X96905000Y-75050000D03*
D15*
X94365000Y-75950000D03*
D16*
X94365000Y-75050000D03*
D15*
X91825000Y-75950000D03*
D16*
X91825000Y-75050000D03*
X89285000Y-75050000D03*
D15*
X89285000Y-75950000D03*
D17*
X86745000Y-75950000D03*
D16*
X86745000Y-75050000D03*
X84205000Y-75050000D03*
D15*
X84205000Y-75950000D03*
D16*
X81665000Y-75050000D03*
D15*
X81665000Y-75950000D03*
X81665000Y-93730000D03*
D16*
X81665000Y-94630000D03*
X84205000Y-94630000D03*
D15*
X84205000Y-93730000D03*
D16*
X86745000Y-94630000D03*
D17*
X86745000Y-93730000D03*
D16*
X89285000Y-94630000D03*
D15*
X89285000Y-93730000D03*
X91825000Y-93730000D03*
D16*
X91825000Y-94630000D03*
D15*
X94365000Y-93730000D03*
D16*
X94365000Y-94630000D03*
X96905000Y-94630000D03*
D15*
X96905000Y-93730000D03*
D16*
X99445000Y-94630000D03*
D17*
X99445000Y-93730000D03*
D16*
X101985000Y-94630000D03*
D15*
X101985000Y-93730000D03*
X104525000Y-93730000D03*
D16*
X104525000Y-94630000D03*
X107065000Y-94630000D03*
D15*
X107065000Y-93730000D03*
X109605000Y-93730000D03*
D16*
X109605000Y-94630000D03*
X112145000Y-94630000D03*
D17*
X112145000Y-93730000D03*
D16*
X114685000Y-94630000D03*
D15*
X114685000Y-93730000D03*
D16*
X117225000Y-94630000D03*
D15*
X117225000Y-93730000D03*
D16*
X119765000Y-94630000D03*
D15*
X119765000Y-93730000D03*
D16*
X122305000Y-94630000D03*
D15*
X122305000Y-93730000D03*
D17*
X124845000Y-93730000D03*
D16*
X124845000Y-94630000D03*
X127385000Y-94630000D03*
D15*
X127385000Y-93730000D03*
X129925000Y-93730000D03*
D16*
X129925000Y-94630000D03*
D18*
X80995000Y-82300000D03*
D15*
X81895000Y-82300000D03*
D18*
X80995000Y-84840000D03*
D17*
X81895000Y-84840000D03*
D15*
X81895000Y-87380000D03*
D18*
X80995000Y-87380000D03*
D12*
X96450000Y-168240000D03*
X91650000Y-168240000D03*
D19*
X85260000Y-135390000D03*
X85260000Y-133490000D03*
X81840000Y-134440000D03*
D20*
X68450000Y-108860000D03*
X68450000Y-110130000D03*
X68450000Y-111400000D03*
X68450000Y-112670000D03*
X68450000Y-113940000D03*
X68450000Y-115210000D03*
X68450000Y-116480000D03*
X68450000Y-117750000D03*
X68450000Y-119020000D03*
X68450000Y-120290000D03*
X75375000Y-120290000D03*
X75375000Y-119020000D03*
X75375000Y-117750000D03*
X75375000Y-116480000D03*
X75375000Y-115210000D03*
X75375000Y-113940000D03*
X75375000Y-112670000D03*
X75375000Y-111400000D03*
X75375000Y-110130000D03*
X75375000Y-108860000D03*
D12*
X70950000Y-105740000D03*
D21*
X64300000Y-92800000D03*
X64300000Y-89850000D03*
D22*
X56550000Y-85240000D03*
X57650000Y-85240000D03*
X58750000Y-85240000D03*
X59850000Y-85240000D03*
X60950000Y-85240000D03*
X62050000Y-85240000D03*
D23*
X66500000Y-75140000D03*
D24*
X51900000Y-84740000D03*
D25*
X66500000Y-84740000D03*
D23*
X51000000Y-75140000D03*
D22*
X63150000Y-85240000D03*
X64250000Y-85240000D03*
X65350000Y-85240000D03*
D26*
X118845000Y-141115000D03*
X120115000Y-141115000D03*
X121385000Y-141115000D03*
X122655000Y-141115000D03*
X122655000Y-136165000D03*
X121385000Y-136165000D03*
X120115000Y-136165000D03*
X118845000Y-136165000D03*
D14*
X117350000Y-101190000D03*
X117350000Y-104290000D03*
D26*
X67640000Y-94815000D03*
X68910000Y-94815000D03*
X70180000Y-94815000D03*
X71450000Y-94815000D03*
X72720000Y-94815000D03*
X73990000Y-94815000D03*
X75260000Y-94815000D03*
X75260000Y-89865000D03*
X73990000Y-89865000D03*
X72720000Y-89865000D03*
X71450000Y-89865000D03*
X70180000Y-89865000D03*
X68910000Y-89865000D03*
X67640000Y-89865000D03*
D17*
X123375000Y-166940000D03*
D15*
X125915000Y-166940000D03*
X128455000Y-166940000D03*
X130995000Y-166940000D03*
X133535000Y-166940000D03*
D14*
X109550000Y-101190000D03*
X109550000Y-104290000D03*
D17*
X84475000Y-101240000D03*
D15*
X81935000Y-101240000D03*
X79395000Y-101240000D03*
X76855000Y-101240000D03*
X74315000Y-101240000D03*
X71775000Y-101240000D03*
X69235000Y-101240000D03*
X66695000Y-101240000D03*
X64155000Y-101240000D03*
X61615000Y-101240000D03*
D12*
X70750000Y-73840000D03*
D16*
X129780000Y-108050000D03*
D15*
X129780000Y-108950000D03*
X127240000Y-108950000D03*
D16*
X127240000Y-108050000D03*
X124700000Y-108050000D03*
D17*
X124700000Y-108950000D03*
D15*
X122160000Y-108950000D03*
D16*
X122160000Y-108050000D03*
D15*
X119620000Y-108950000D03*
D16*
X119620000Y-108050000D03*
D15*
X117080000Y-108950000D03*
D16*
X117080000Y-108050000D03*
X114540000Y-108050000D03*
D15*
X114540000Y-108950000D03*
D17*
X112000000Y-108950000D03*
D16*
X112000000Y-108050000D03*
D15*
X109460000Y-108950000D03*
D16*
X109460000Y-108050000D03*
D15*
X106920000Y-108950000D03*
D16*
X106920000Y-108050000D03*
X104380000Y-108050000D03*
D15*
X104380000Y-108950000D03*
X101840000Y-108950000D03*
D16*
X101840000Y-108050000D03*
X99300000Y-108050000D03*
D17*
X99300000Y-108950000D03*
D15*
X96760000Y-108950000D03*
D16*
X96760000Y-108050000D03*
D15*
X94220000Y-108950000D03*
D16*
X94220000Y-108050000D03*
X91680000Y-108050000D03*
D15*
X91680000Y-108950000D03*
D16*
X89140000Y-108050000D03*
D15*
X89140000Y-108950000D03*
D16*
X86600000Y-108050000D03*
D17*
X86600000Y-108950000D03*
D16*
X84060000Y-108050000D03*
D15*
X84060000Y-108950000D03*
X81520000Y-108950000D03*
D16*
X81520000Y-108050000D03*
X81520000Y-127630000D03*
D15*
X81520000Y-126730000D03*
X84060000Y-126730000D03*
D16*
X84060000Y-127630000D03*
X86600000Y-127630000D03*
D17*
X86600000Y-126730000D03*
D16*
X89140000Y-127630000D03*
D15*
X89140000Y-126730000D03*
D16*
X91680000Y-127630000D03*
D15*
X91680000Y-126730000D03*
X94220000Y-126730000D03*
D16*
X94220000Y-127630000D03*
D15*
X96760000Y-126730000D03*
D16*
X96760000Y-127630000D03*
D17*
X99300000Y-126730000D03*
D16*
X99300000Y-127630000D03*
D15*
X101840000Y-126730000D03*
D16*
X101840000Y-127630000D03*
D15*
X104380000Y-126730000D03*
D16*
X104380000Y-127630000D03*
X106920000Y-127630000D03*
D15*
X106920000Y-126730000D03*
D16*
X109460000Y-127630000D03*
D15*
X109460000Y-126730000D03*
D16*
X112000000Y-127630000D03*
D17*
X112000000Y-126730000D03*
D16*
X114540000Y-127630000D03*
D15*
X114540000Y-126730000D03*
D16*
X117080000Y-127630000D03*
D15*
X117080000Y-126730000D03*
D16*
X119620000Y-127630000D03*
D15*
X119620000Y-126730000D03*
X122160000Y-126730000D03*
D16*
X122160000Y-127630000D03*
D17*
X124700000Y-126730000D03*
D16*
X124700000Y-127630000D03*
D15*
X127240000Y-126730000D03*
D16*
X127240000Y-127630000D03*
X129780000Y-127630000D03*
D15*
X129780000Y-126730000D03*
D18*
X80850000Y-115300000D03*
D15*
X81750000Y-115300000D03*
D17*
X81750000Y-117840000D03*
D18*
X80850000Y-117840000D03*
D15*
X81750000Y-120380000D03*
D18*
X80850000Y-120380000D03*
D14*
X122650000Y-101190000D03*
X122650000Y-104290000D03*
D17*
X106825000Y-168040000D03*
D15*
X109365000Y-168040000D03*
X111905000Y-168040000D03*
D17*
X135350000Y-74940000D03*
D15*
X135350000Y-77480000D03*
X135350000Y-80020000D03*
X135350000Y-82560000D03*
X135350000Y-85100000D03*
X135350000Y-87640000D03*
D14*
X106950000Y-101190000D03*
X106950000Y-104290000D03*
D27*
X74800000Y-136940000D03*
X77900000Y-136940000D03*
D21*
X62212500Y-119815000D03*
X62212500Y-116865000D03*
D14*
X127250000Y-101190000D03*
X127250000Y-104290000D03*
D12*
X73750000Y-73840000D03*
D14*
X129650000Y-101190000D03*
X129650000Y-104290000D03*
D21*
X125550000Y-139715000D03*
X125550000Y-136765000D03*
D14*
X61550000Y-95390000D03*
X61550000Y-98490000D03*
D28*
X77550000Y-129165000D03*
X77550000Y-132115000D03*
D29*
X73765000Y-127377500D03*
X72495000Y-127377500D03*
X71225000Y-127377500D03*
X69955000Y-127377500D03*
X68685000Y-127377500D03*
X67415000Y-127377500D03*
X66145000Y-127377500D03*
X64875000Y-127377500D03*
X63605000Y-127377500D03*
X62335000Y-127377500D03*
X62335000Y-134302500D03*
X63605000Y-134302500D03*
X64875000Y-134302500D03*
X66145000Y-134302500D03*
X67415000Y-134302500D03*
X68685000Y-134302500D03*
X69955000Y-134302500D03*
X71225000Y-134302500D03*
X72495000Y-134302500D03*
X73765000Y-134302500D03*
D30*
X132950000Y-98852500D03*
X132950000Y-101827500D03*
D14*
X114650000Y-101190000D03*
X114650000Y-104290000D03*
D31*
X50390000Y-105000000D03*
X55390000Y-105000000D03*
X55390000Y-94840000D03*
X55390000Y-97380000D03*
X55390000Y-99920000D03*
X55390000Y-102460000D03*
X55390000Y-107540000D03*
X55390000Y-110080000D03*
X55390000Y-112620000D03*
X55390000Y-115160000D03*
X55390000Y-117700000D03*
X55390000Y-120240000D03*
X55390000Y-122780000D03*
X55390000Y-125320000D03*
X55390000Y-127860000D03*
X55390000Y-130400000D03*
X55390000Y-132940000D03*
X55390000Y-135480000D03*
X55390000Y-138020000D03*
X55390000Y-140560000D03*
X55390000Y-143100000D03*
X55390000Y-145640000D03*
X55390000Y-148180000D03*
X55390000Y-150720000D03*
X55390000Y-153260000D03*
X55390000Y-155800000D03*
X55390000Y-158340000D03*
X55390000Y-160880000D03*
X55390000Y-163420000D03*
X50390000Y-94840000D03*
X50390000Y-97380000D03*
X50390000Y-99920000D03*
X50390000Y-102460000D03*
X50390000Y-107540000D03*
X50390000Y-110080000D03*
X50390000Y-112620000D03*
X50390000Y-115160000D03*
X50390000Y-117700000D03*
X50390000Y-120240000D03*
X50390000Y-122780000D03*
X50390000Y-125320000D03*
X50390000Y-127860000D03*
X50390000Y-130400000D03*
X50390000Y-132940000D03*
X50390000Y-135480000D03*
X50390000Y-138020000D03*
X50390000Y-140560000D03*
X50390000Y-143100000D03*
X50390000Y-145640000D03*
X50390000Y-148180000D03*
X50390000Y-150720000D03*
X50390000Y-153260000D03*
X50390000Y-155800000D03*
X50390000Y-158340000D03*
X50390000Y-160880000D03*
X50390000Y-163420000D03*
D14*
X119950000Y-101190000D03*
X119950000Y-104290000D03*
D15*
X111925000Y-141950000D03*
D16*
X111925000Y-141050000D03*
D15*
X109385000Y-141950000D03*
D16*
X109385000Y-141050000D03*
D17*
X106845000Y-141950000D03*
D16*
X106845000Y-141050000D03*
D15*
X104305000Y-141950000D03*
D16*
X104305000Y-141050000D03*
X101765000Y-141050000D03*
D15*
X101765000Y-141950000D03*
X99225000Y-141950000D03*
D16*
X99225000Y-141050000D03*
X96685000Y-141050000D03*
D15*
X96685000Y-141950000D03*
D17*
X94145000Y-141950000D03*
D16*
X94145000Y-141050000D03*
X91605000Y-141050000D03*
D15*
X91605000Y-141950000D03*
D16*
X89065000Y-141050000D03*
D15*
X89065000Y-141950000D03*
D16*
X86525000Y-141050000D03*
D15*
X86525000Y-141950000D03*
D16*
X83985000Y-141050000D03*
D15*
X83985000Y-141950000D03*
D16*
X81445000Y-141050000D03*
D17*
X81445000Y-141950000D03*
D16*
X78905000Y-141050000D03*
D15*
X78905000Y-141950000D03*
D16*
X76365000Y-141050000D03*
D15*
X76365000Y-141950000D03*
D16*
X73825000Y-141050000D03*
D15*
X73825000Y-141950000D03*
X71285000Y-141950000D03*
D16*
X71285000Y-141050000D03*
X68745000Y-141050000D03*
D17*
X68745000Y-141950000D03*
D15*
X66205000Y-141950000D03*
D16*
X66205000Y-141050000D03*
D15*
X63665000Y-141950000D03*
D16*
X63665000Y-141050000D03*
X63665000Y-160630000D03*
D15*
X63665000Y-159730000D03*
X66205000Y-159730000D03*
D16*
X66205000Y-160630000D03*
D17*
X68745000Y-159730000D03*
D16*
X68745000Y-160630000D03*
X71285000Y-160630000D03*
D15*
X71285000Y-159730000D03*
X73825000Y-159730000D03*
D16*
X73825000Y-160630000D03*
D15*
X76365000Y-159730000D03*
D16*
X76365000Y-160630000D03*
X78905000Y-160630000D03*
D15*
X78905000Y-159730000D03*
D16*
X81445000Y-160630000D03*
D17*
X81445000Y-159730000D03*
D16*
X83985000Y-160630000D03*
D15*
X83985000Y-159730000D03*
X86525000Y-159730000D03*
D16*
X86525000Y-160630000D03*
D15*
X89065000Y-159730000D03*
D16*
X89065000Y-160630000D03*
X91605000Y-160630000D03*
D15*
X91605000Y-159730000D03*
D17*
X94145000Y-159730000D03*
D16*
X94145000Y-160630000D03*
X96685000Y-160630000D03*
D15*
X96685000Y-159730000D03*
D16*
X99225000Y-160630000D03*
D15*
X99225000Y-159730000D03*
D16*
X101765000Y-160630000D03*
D15*
X101765000Y-159730000D03*
D16*
X104305000Y-160630000D03*
D15*
X104305000Y-159730000D03*
D16*
X106845000Y-160630000D03*
D17*
X106845000Y-159730000D03*
D15*
X109385000Y-159730000D03*
D16*
X109385000Y-160630000D03*
D15*
X111925000Y-159730000D03*
D16*
X111925000Y-160630000D03*
D18*
X62995000Y-148300000D03*
D15*
X63895000Y-148300000D03*
D17*
X63895000Y-150840000D03*
D18*
X62995000Y-150840000D03*
X62995000Y-153380000D03*
D15*
X63895000Y-153380000D03*
D32*
X136550000Y-109090000D03*
X50050000Y-84740000D03*
X86650000Y-134040000D03*
X62050000Y-86940000D03*
X122650000Y-142940000D03*
X61550000Y-93840000D03*
X68050000Y-75140000D03*
X49350000Y-75040000D03*
X60350000Y-114240000D03*
X77650000Y-89740000D03*
X77150000Y-134240000D03*
X136447569Y-128440000D03*
X68050000Y-84740000D03*
X66450000Y-120440000D03*
X62450000Y-89840000D03*
X60750000Y-127040000D03*
X128450000Y-136579500D03*
X75250000Y-97040000D03*
X52670000Y-99920000D03*
X52650000Y-92840000D03*
X136650000Y-101440000D03*
X132035500Y-125040000D03*
X109450000Y-163340000D03*
X127250000Y-125040000D03*
X127450000Y-163240000D03*
X130750000Y-97940000D03*
X85350000Y-114339500D03*
X136550000Y-115840000D03*
X136450000Y-119040000D03*
X84750000Y-119040000D03*
X136450000Y-121640000D03*
X76650000Y-122080500D03*
X76732000Y-124258000D03*
X136448069Y-123939501D03*
X101750000Y-122740000D03*
X73750000Y-155440000D03*
X136350000Y-153640000D03*
X71250000Y-153940000D03*
X136350000Y-151440000D03*
X66250000Y-146440000D03*
X136350000Y-149140000D03*
X63650000Y-144840000D03*
X136350000Y-146540000D03*
X136350000Y-157240000D03*
X63750000Y-157140000D03*
X136350000Y-162240000D03*
X66150000Y-164639500D03*
X136350000Y-161040000D03*
X71250000Y-157940000D03*
X136350000Y-164440000D03*
X73950000Y-164740000D03*
X58750000Y-98540000D03*
X58750000Y-163140000D03*
X136650000Y-98540000D03*
X58010000Y-97380000D03*
X58050000Y-163940000D03*
X136650000Y-97340000D03*
X64250000Y-105340000D03*
X136650000Y-104640000D03*
X64250000Y-110229500D03*
X134400000Y-104765000D03*
X134525000Y-107939500D03*
X59550000Y-111240000D03*
X59550000Y-108040000D03*
X136550000Y-110440000D03*
X136550000Y-105940000D03*
X136550000Y-112940000D03*
X66250000Y-113540000D03*
X72750000Y-119739500D03*
X136450000Y-120340000D03*
X72750000Y-113940000D03*
X71750000Y-114440500D03*
X71750000Y-122840000D03*
X136450000Y-122940000D03*
X136450000Y-118040000D03*
X70790000Y-117700000D03*
X66350000Y-117440000D03*
X136550000Y-114440000D03*
X66350000Y-115140000D03*
X136650000Y-99940000D03*
X64395850Y-118941897D03*
X65350000Y-99940000D03*
X87950000Y-111170500D03*
X106950000Y-111139500D03*
X93150000Y-120540500D03*
X109550000Y-117000500D03*
X95450000Y-120540500D03*
X114250000Y-116940000D03*
X117050000Y-119840000D03*
X97850000Y-119739500D03*
X119450000Y-120540000D03*
X100650000Y-120539500D03*
X120388896Y-112748451D03*
X106050000Y-112540500D03*
X120450000Y-131240000D03*
X120984053Y-113640500D03*
X109350000Y-131240000D03*
X123450000Y-111640000D03*
X111850000Y-134039500D03*
X123450000Y-134040000D03*
X129750000Y-111540000D03*
X74550000Y-91640500D03*
X72495000Y-125757500D03*
X136650000Y-95939503D03*
X71450000Y-97140500D03*
X70250000Y-96440000D03*
X136650000Y-94940000D03*
X136350000Y-152440000D03*
X83850000Y-154840000D03*
X78850000Y-107540000D03*
X112650000Y-113640500D03*
X114550000Y-125340000D03*
X78850000Y-111840000D03*
X96650000Y-138440000D03*
X68050000Y-138440000D03*
X136450000Y-137840000D03*
X68950000Y-97140000D03*
X57250000Y-96601500D03*
X57250000Y-132240000D03*
X136450000Y-132840000D03*
X100650000Y-101240000D03*
X77550000Y-143340000D03*
X78205500Y-135180500D03*
X135850000Y-90140000D03*
X136450000Y-144140000D03*
X80350000Y-137540000D03*
X96650000Y-150940000D03*
X80350000Y-150940000D03*
X131650000Y-165140000D03*
X128450000Y-165139500D03*
X114650000Y-81040000D03*
X117250000Y-83840000D03*
X124550000Y-100619500D03*
X122206849Y-113640500D03*
X83650000Y-117000500D03*
X125550000Y-101140000D03*
X124996340Y-115139500D03*
X83650000Y-114739500D03*
X121150000Y-99140000D03*
X77250000Y-114039500D03*
X118350000Y-113540000D03*
X77250000Y-110340000D03*
X118350000Y-116839500D03*
X115650000Y-116840000D03*
X115650000Y-112340000D03*
X120450000Y-111640000D03*
X112750000Y-104440000D03*
X90350000Y-115840000D03*
X108350000Y-111740000D03*
X108240653Y-116330653D03*
X77669633Y-118391934D03*
X78350000Y-114040000D03*
X87750000Y-119540000D03*
X113350000Y-111540000D03*
X102350000Y-119240000D03*
X110750000Y-119340000D03*
X111750000Y-101540000D03*
X88750000Y-120440000D03*
X102350000Y-116840000D03*
X91550000Y-116840500D03*
X105096876Y-112140878D03*
X105250000Y-101940000D03*
X88950000Y-111558000D03*
X88950000Y-116540000D03*
X93849500Y-99220500D03*
X89834364Y-120486072D03*
X92150000Y-104339500D03*
X75350000Y-104440000D03*
X92150000Y-99220500D03*
X74950000Y-123479500D03*
X71250000Y-131140000D03*
X72750000Y-152240000D03*
X89050000Y-152240000D03*
X84050000Y-131140000D03*
X104450000Y-117000500D03*
X91350000Y-119739500D03*
X93450000Y-85240000D03*
X98450000Y-102040000D03*
X98250000Y-85340000D03*
X136450000Y-135540000D03*
X94250000Y-134740000D03*
X136450000Y-140440000D03*
X114550000Y-136740000D03*
X114650000Y-139340000D03*
X101950000Y-136740000D03*
X102850000Y-101940000D03*
X91250000Y-91640000D03*
X103150000Y-91740000D03*
X90550000Y-99220500D03*
X79950000Y-96840000D03*
X74250000Y-98340000D03*
X79950000Y-91440000D03*
X84150000Y-91340000D03*
X78050000Y-76040000D03*
X78050000Y-85240000D03*
X71650000Y-85240000D03*
X94350000Y-98339500D03*
X115410474Y-137251889D03*
X115850000Y-143240000D03*
X81550000Y-137540000D03*
X89830500Y-136579500D03*
X91750000Y-134039500D03*
X117550000Y-141239500D03*
X118250000Y-125040000D03*
X110650000Y-144340000D03*
X136450000Y-145240000D03*
X107050000Y-91240000D03*
X132035500Y-91140000D03*
X132035500Y-85140000D03*
X102050000Y-89140000D03*
X136350000Y-154840000D03*
X131750000Y-163440000D03*
X76350000Y-155340000D03*
X76350000Y-151240000D03*
X70450000Y-151240000D03*
X132035500Y-154840000D03*
X70550000Y-110040000D03*
X134750000Y-91940000D03*
X104350000Y-131440000D03*
X141250000Y-87540000D03*
X87750000Y-131440000D03*
X134750000Y-89440000D03*
X74249500Y-108840000D03*
X125950000Y-165140000D03*
X102450000Y-165240000D03*
X73850000Y-125757500D03*
X64350000Y-112140000D03*
X72850000Y-108840000D03*
X75050000Y-153140000D03*
X75150000Y-127140000D03*
X72750000Y-111940000D03*
X64350000Y-117340000D03*
X75050000Y-129940000D03*
X101750000Y-153140000D03*
X75050000Y-134340000D03*
X117450000Y-136579500D03*
X119550000Y-137940000D03*
X119524244Y-139405500D03*
X119550000Y-133040000D03*
X117450000Y-133040000D03*
X71550000Y-82140000D03*
X73150000Y-78540500D03*
X92050000Y-90140000D03*
X131950000Y-80240000D03*
X92050000Y-78240000D03*
X119850000Y-80240000D03*
X119850000Y-90140000D03*
X131950000Y-77540000D03*
X76850000Y-87140000D03*
X69750000Y-83740000D03*
X76750000Y-93740000D03*
X69750000Y-87240000D03*
X73550000Y-80540000D03*
X73555378Y-93045378D03*
X70750000Y-88040000D03*
X70750000Y-83040000D03*
X89350000Y-88740000D03*
X72550000Y-81440000D03*
X72550000Y-92440000D03*
X127450000Y-78340000D03*
X95650000Y-105239500D03*
X95650000Y-78340000D03*
X71050500Y-79240000D03*
X94150000Y-79340000D03*
X92750000Y-105239500D03*
X75150000Y-79340000D03*
X129950000Y-78640000D03*
X69490000Y-77100000D03*
X64150000Y-77440000D03*
X114650000Y-87340000D03*
X136450000Y-124940000D03*
X136450000Y-127240000D03*
X136450000Y-130440000D03*
X136450000Y-142940000D03*
X136350000Y-147840000D03*
X136350000Y-150340000D03*
X136350000Y-156040000D03*
X136650000Y-103440000D03*
X136550000Y-111740000D03*
X136450000Y-126140000D03*
X136450000Y-131540000D03*
X136450000Y-134140000D03*
X136450000Y-136740000D03*
X136450000Y-139140000D03*
X136450000Y-141640000D03*
X136350000Y-158840000D03*
D33*
X68450000Y-120290000D02*
X66600000Y-120290000D01*
X75260000Y-89865000D02*
X77525000Y-89865000D01*
X49350000Y-75040000D02*
X50900000Y-75040000D01*
X61865000Y-112725000D02*
X60350000Y-114240000D01*
X50050000Y-84740000D02*
X51900000Y-84740000D01*
X62212500Y-116865000D02*
X62212500Y-116102500D01*
X72495000Y-133948604D02*
X74328604Y-132115000D01*
X68050000Y-75140000D02*
X66500000Y-75140000D01*
X66600000Y-120290000D02*
X66450000Y-120440000D01*
X61087500Y-127377500D02*
X60750000Y-127040000D01*
X68050000Y-84740000D02*
X66500000Y-84740000D01*
X62212500Y-116102500D02*
X60350000Y-114240000D01*
X74328604Y-132115000D02*
X77550000Y-132115000D01*
X128264500Y-136765000D02*
X125550000Y-136765000D01*
X128450000Y-136579500D02*
X128264500Y-136765000D01*
X61550000Y-95390000D02*
X61550000Y-93840000D01*
X62335000Y-127377500D02*
X61087500Y-127377500D01*
X62450000Y-89840000D02*
X64290000Y-89840000D01*
X122655000Y-141115000D02*
X122655000Y-142935000D01*
X62050000Y-85240000D02*
X62050000Y-86940000D01*
X77150000Y-132515000D02*
X77150000Y-134240000D01*
X86650000Y-134040000D02*
X85810000Y-134040000D01*
X75250000Y-97040000D02*
X75250000Y-94825000D01*
X85810000Y-134040000D02*
X85260000Y-133490000D01*
X122655000Y-142935000D02*
X122650000Y-142940000D01*
D34*
X52650000Y-92840000D02*
X64260000Y-92840000D01*
X132450500Y-101640000D02*
X136450000Y-101640000D01*
X64705000Y-92800000D02*
X67640000Y-89865000D01*
X136450000Y-101640000D02*
X136650000Y-101440000D01*
X130750000Y-97940000D02*
X129150000Y-97940000D01*
X130750000Y-97940000D02*
X132037500Y-97940000D01*
D33*
X127350000Y-163340000D02*
X127450000Y-163240000D01*
D34*
X129150000Y-97940000D02*
X127385000Y-96175000D01*
X109450000Y-163340000D02*
X127350000Y-163340000D01*
X132037500Y-97940000D02*
X132950000Y-98852500D01*
X127250000Y-125040000D02*
X132035500Y-125040000D01*
D33*
X73056396Y-93540000D02*
X68350000Y-93540000D01*
X68350000Y-93540000D02*
X67950000Y-93940000D01*
X73990000Y-94473604D02*
X73056396Y-93540000D01*
X137730000Y-158620000D02*
X141450000Y-158620000D01*
X136350000Y-157240000D02*
X137730000Y-158620000D01*
X136350000Y-161040000D02*
X136470000Y-161160000D01*
X136470000Y-161160000D02*
X141450000Y-161160000D01*
X58750000Y-163140000D02*
X74515000Y-163140000D01*
X74515000Y-163140000D02*
X76365000Y-161290000D01*
X76255000Y-163940000D02*
X78905000Y-161290000D01*
X58050000Y-163940000D02*
X76255000Y-163940000D01*
X136970000Y-97660000D02*
X141450000Y-97660000D01*
X136650000Y-97340000D02*
X136970000Y-97660000D01*
X68450000Y-110130000D02*
X64349500Y-110130000D01*
X64349500Y-110130000D02*
X64250000Y-110229500D01*
X134695000Y-107820000D02*
X134645000Y-107820000D01*
X134645000Y-107820000D02*
X134644500Y-107820000D01*
X136525000Y-104765000D02*
X134400000Y-104765000D01*
X141450000Y-107820000D02*
X134695000Y-107820000D01*
X136650000Y-104640000D02*
X136525000Y-104765000D01*
X134644500Y-107820000D02*
X134525000Y-107939500D01*
X136630000Y-110360000D02*
X141450000Y-110360000D01*
X68450000Y-111400000D02*
X59710000Y-111400000D01*
X136550000Y-110440000D02*
X136630000Y-110360000D01*
X59710000Y-111400000D02*
X59550000Y-111240000D01*
X136550000Y-112940000D02*
X136590000Y-112900000D01*
X67120000Y-112670000D02*
X68450000Y-112670000D01*
X136590000Y-112900000D02*
X141450000Y-112900000D01*
X66250000Y-113540000D02*
X67120000Y-112670000D01*
X136630000Y-120520000D02*
X141450000Y-120520000D01*
X136450000Y-120340000D02*
X136630000Y-120520000D01*
X68650500Y-113739500D02*
X72549500Y-113739500D01*
X72549500Y-113739500D02*
X72750000Y-113940000D01*
X68450000Y-115210000D02*
X70980500Y-115210000D01*
X136570000Y-123060000D02*
X141450000Y-123060000D01*
X136450000Y-122940000D02*
X136570000Y-123060000D01*
X70980500Y-115210000D02*
X71750000Y-114440500D01*
X136450000Y-118040000D02*
X136510000Y-117980000D01*
X136510000Y-117980000D02*
X141450000Y-117980000D01*
X69570000Y-116480000D02*
X68450000Y-116480000D01*
X70790000Y-117700000D02*
X69570000Y-116480000D01*
X137550000Y-115440000D02*
X141450000Y-115440000D01*
X68140000Y-117440000D02*
X68450000Y-117750000D01*
X66350000Y-117440000D02*
X68140000Y-117440000D01*
X136550000Y-114440000D02*
X137550000Y-115440000D01*
X64473953Y-119020000D02*
X64395850Y-118941897D01*
X68450000Y-119020000D02*
X64473953Y-119020000D01*
X136910000Y-100200000D02*
X141450000Y-100200000D01*
X136650000Y-99940000D02*
X136910000Y-100200000D01*
X88262000Y-110858500D02*
X87950000Y-111170500D01*
X106920000Y-108950000D02*
X106920000Y-104320000D01*
X106669000Y-110858500D02*
X88262000Y-110858500D01*
X106950000Y-111139500D02*
X106669000Y-110858500D01*
X95150500Y-118540000D02*
X108010500Y-118540000D01*
X109460000Y-108950000D02*
X109460000Y-104380000D01*
X108010500Y-118540000D02*
X109550000Y-117000500D01*
X93150000Y-120540500D02*
X95150500Y-118540000D01*
X96951000Y-119039500D02*
X98139950Y-119039500D01*
X114540000Y-108950000D02*
X114540000Y-104400000D01*
X98139950Y-119039500D02*
X98439950Y-119339500D01*
X101806136Y-120140000D02*
X111050000Y-120140000D01*
X95450000Y-120540500D02*
X96951000Y-119039500D01*
X98439950Y-119339500D02*
X101005635Y-119339500D01*
X111050000Y-120140000D02*
X114250000Y-116940000D01*
X101005635Y-119339500D02*
X101806136Y-120140000D01*
X101640450Y-120540000D02*
X116350000Y-120540000D01*
X100839950Y-119739500D02*
X101640450Y-120540000D01*
X117080000Y-108950000D02*
X117080000Y-104560000D01*
X97850000Y-119739500D02*
X100839950Y-119739500D01*
X116350000Y-120540000D02*
X117050000Y-119840000D01*
X100650000Y-120539500D02*
X101050500Y-120940000D01*
X119050000Y-120940000D02*
X119450000Y-120540000D01*
X101050500Y-120940000D02*
X119050000Y-120940000D01*
X119620000Y-108950000D02*
X119620000Y-104620000D01*
X106050000Y-112540500D02*
X106249500Y-112740000D01*
X122160000Y-108950000D02*
X122160000Y-104780000D01*
X116605636Y-114340000D02*
X118797347Y-114340000D01*
X111994864Y-112740000D02*
X112194365Y-112540500D01*
X106249500Y-112740000D02*
X111994864Y-112740000D01*
X114806136Y-112540500D02*
X116605636Y-114340000D01*
X120388896Y-112748451D02*
X118797347Y-114340000D01*
X112194365Y-112540500D02*
X114806136Y-112540500D01*
X125331500Y-110858500D02*
X127240000Y-108950000D01*
X109350000Y-131240000D02*
X120450000Y-131240000D01*
X123241550Y-110858500D02*
X125331500Y-110858500D01*
X127240000Y-108950000D02*
X127240000Y-104300000D01*
X120984053Y-113115997D02*
X123241550Y-110858500D01*
X120984053Y-113640500D02*
X120984053Y-113115997D01*
X129650000Y-111640000D02*
X129750000Y-111540000D01*
X123450000Y-111640000D02*
X129650000Y-111640000D01*
X129780000Y-108950000D02*
X129780000Y-104420000D01*
X123449500Y-134039500D02*
X123450000Y-134040000D01*
X111850000Y-134039500D02*
X123449500Y-134039500D01*
X74550000Y-91640500D02*
X74550000Y-90425000D01*
X74550000Y-90425000D02*
X73990000Y-89865000D01*
X72495000Y-125757500D02*
X72495000Y-127377500D01*
X71450000Y-97140500D02*
X71450000Y-94815000D01*
X70250000Y-96440000D02*
X70250000Y-94885000D01*
X136830000Y-95120000D02*
X141450000Y-95120000D01*
X136650000Y-94940000D02*
X136830000Y-95120000D01*
X137450000Y-153540000D02*
X141450000Y-153540000D01*
X136350000Y-152440000D02*
X137450000Y-153540000D01*
X79280000Y-112270000D02*
X78850000Y-111840000D01*
X114540000Y-125350000D02*
X114550000Y-125340000D01*
X69770000Y-107540000D02*
X68450000Y-108860000D01*
X114540000Y-126730000D02*
X114540000Y-125350000D01*
X81585686Y-112270000D02*
X79280000Y-112270000D01*
X82955686Y-113640000D02*
X81585686Y-112270000D01*
X78850000Y-107540000D02*
X69770000Y-107540000D01*
X112650000Y-113640500D02*
X112649500Y-113640000D01*
X112649500Y-113640000D02*
X82955686Y-113640000D01*
X136910000Y-138300000D02*
X141450000Y-138300000D01*
X68910000Y-97100000D02*
X68910000Y-94815000D01*
X68950000Y-97140000D02*
X68910000Y-97100000D01*
X136450000Y-137840000D02*
X136910000Y-138300000D01*
X71739950Y-97840500D02*
X72720000Y-96860450D01*
X136830000Y-133220000D02*
X141450000Y-133220000D01*
X71159550Y-97840000D02*
X71160050Y-97840500D01*
X68350000Y-97840000D02*
X71159550Y-97840000D01*
X71160050Y-97840500D02*
X71739950Y-97840500D01*
X57250000Y-96601500D02*
X67111500Y-96601500D01*
X72720000Y-96860450D02*
X72720000Y-94815000D01*
X136450000Y-132840000D02*
X136830000Y-133220000D01*
X67111500Y-96601500D02*
X68350000Y-97840000D01*
X84475000Y-101240000D02*
X100650000Y-101240000D01*
X137250000Y-90140000D02*
X135850000Y-90140000D01*
X78946000Y-134440000D02*
X81840000Y-134440000D01*
X141525000Y-88390000D02*
X139000000Y-88390000D01*
X142375000Y-89240000D02*
X141525000Y-88390000D01*
X78205500Y-135180500D02*
X78946000Y-134440000D01*
X137250000Y-90140000D02*
X139000000Y-88390000D01*
X80350000Y-150940000D02*
X96650000Y-150940000D01*
X79550000Y-138340000D02*
X75850000Y-138340000D01*
X80350000Y-137540000D02*
X79550000Y-138340000D01*
X75850000Y-138340000D02*
X74800000Y-137290000D01*
X128450500Y-165140000D02*
X131650000Y-165140000D01*
X128450000Y-165139500D02*
X128450500Y-165140000D01*
X134430000Y-80940000D02*
X135350000Y-80020000D01*
X131374999Y-80864999D02*
X131450000Y-80940000D01*
X120039950Y-81040000D02*
X120214951Y-80864999D01*
X120214951Y-80864999D02*
X131374999Y-80864999D01*
X114650000Y-81040000D02*
X120039950Y-81040000D01*
X131450000Y-80940000D02*
X134430000Y-80940000D01*
X134070000Y-83840000D02*
X135350000Y-82560000D01*
X117250000Y-83840000D02*
X134070000Y-83840000D01*
X128700000Y-100240000D02*
X124929500Y-100240000D01*
X79869950Y-111870000D02*
X79150000Y-111150050D01*
X121107349Y-114740000D02*
X116439950Y-114740000D01*
X107850000Y-113140000D02*
X107750000Y-113240000D01*
X122206849Y-113640500D02*
X121107349Y-114740000D01*
X112160550Y-113140000D02*
X107850000Y-113140000D01*
X124929500Y-100240000D02*
X124550000Y-100619500D01*
X79150000Y-111150050D02*
X79150000Y-111040000D01*
X75735000Y-111040000D02*
X75375000Y-111400000D01*
X116439950Y-114740000D02*
X114640450Y-112940500D01*
X129650000Y-101190000D02*
X128700000Y-100240000D01*
X81751371Y-111870000D02*
X79869950Y-111870000D01*
X112360050Y-112940500D02*
X112160550Y-113140000D01*
X79150000Y-111040000D02*
X75735000Y-111040000D01*
X83121372Y-113240000D02*
X81751371Y-111870000D01*
X114640450Y-112940500D02*
X112360050Y-112940500D01*
X107750000Y-113240000D02*
X83121372Y-113240000D01*
X102920550Y-117540000D02*
X104160050Y-116300500D01*
X82090000Y-113340000D02*
X76045000Y-113340000D01*
X109260050Y-116300500D02*
X109839950Y-116300500D01*
X104160050Y-116300500D02*
X104739950Y-116300500D01*
X123996340Y-116139500D02*
X124996340Y-115139500D01*
X110079450Y-116540000D02*
X110479950Y-116139500D01*
X104739950Y-116300500D02*
X105479450Y-117040000D01*
X110479950Y-116139500D02*
X123996340Y-116139500D01*
X109839950Y-116300500D02*
X110079450Y-116540000D01*
X125600000Y-101190000D02*
X125550000Y-101140000D01*
X83650000Y-117000500D02*
X84189500Y-117540000D01*
X84189500Y-117540000D02*
X102920550Y-117540000D01*
X127250000Y-101190000D02*
X125600000Y-101190000D01*
X105479450Y-117040000D02*
X108520550Y-117040000D01*
X108520550Y-117040000D02*
X109260050Y-116300500D01*
X83489500Y-114739500D02*
X82090000Y-113340000D01*
X83650000Y-114739500D02*
X83489500Y-114739500D01*
X76045000Y-113340000D02*
X75375000Y-112670000D01*
X120450000Y-111640000D02*
X120250000Y-111640000D01*
X121150000Y-99140000D02*
X122400500Y-100390500D01*
X115650000Y-112340000D02*
X113750000Y-110440000D01*
X77368500Y-110458500D02*
X102668500Y-110458500D01*
X102687000Y-110440000D02*
X102668500Y-110458500D01*
X122400500Y-100390500D02*
X122400500Y-101190000D01*
X77368500Y-110458500D02*
X77250000Y-110340000D01*
X118350000Y-116839500D02*
X115650500Y-116839500D01*
X115650500Y-116839500D02*
X115650000Y-116840000D01*
X77250000Y-114039500D02*
X75474500Y-114039500D01*
X120250000Y-111640000D02*
X118350000Y-113540000D01*
X113750000Y-110440000D02*
X102687000Y-110440000D01*
X107750000Y-115840000D02*
X90350000Y-115840000D01*
X77750000Y-118240000D02*
X77669633Y-118320367D01*
X112850000Y-103340000D02*
X112750000Y-103440000D01*
X119250000Y-103340000D02*
X119950000Y-102640000D01*
X87750000Y-119540000D02*
X87550000Y-119740000D01*
X77180000Y-115210000D02*
X75375000Y-115210000D01*
X82500000Y-118990000D02*
X78500000Y-118990000D01*
X108550000Y-111540000D02*
X108350000Y-111740000D01*
X112750000Y-103440000D02*
X112750000Y-104440000D01*
X78500000Y-118990000D02*
X77750000Y-118240000D01*
X119950000Y-101190000D02*
X119950000Y-102640000D01*
X113350000Y-111540000D02*
X108550000Y-111540000D01*
X83250000Y-119740000D02*
X82500000Y-118990000D01*
X119250000Y-103340000D02*
X112850000Y-103340000D01*
X77669633Y-118320367D02*
X77669633Y-118391934D01*
X108240653Y-116330653D02*
X107750000Y-115840000D01*
X78350000Y-114040000D02*
X77180000Y-115210000D01*
X87550000Y-119740000D02*
X83250000Y-119740000D01*
X102450000Y-119340000D02*
X102350000Y-119240000D01*
X102350000Y-116840000D02*
X91750000Y-116840000D01*
X113150000Y-100240000D02*
X111850000Y-101540000D01*
X91750000Y-116840000D02*
X91550500Y-116840000D01*
X78250000Y-120201104D02*
X76398896Y-118350000D01*
X86450000Y-122740000D02*
X78950000Y-122740000D01*
X117350000Y-101190000D02*
X116400000Y-100240000D01*
X88750000Y-120440000D02*
X86450000Y-122740000D01*
X91550500Y-116840000D02*
X91550000Y-116840500D01*
X110750000Y-119340000D02*
X102450000Y-119340000D01*
X78950000Y-122740000D02*
X78250000Y-122040000D01*
X73760000Y-118350000D02*
X73550000Y-118140000D01*
X76398896Y-118350000D02*
X73760000Y-118350000D01*
X116400000Y-100240000D02*
X113150000Y-100240000D01*
X73550000Y-116540000D02*
X73650000Y-116440000D01*
X73550000Y-118140000D02*
X73550000Y-116540000D01*
X111850000Y-101540000D02*
X111750000Y-101540000D01*
X73650000Y-116440000D02*
X75335000Y-116440000D01*
X78250000Y-122040000D02*
X78250000Y-120201104D01*
X89168000Y-111340000D02*
X104295998Y-111340000D01*
X113499500Y-102340500D02*
X114650000Y-101190000D01*
X87010500Y-116300500D02*
X82889500Y-116300500D01*
X88950000Y-116540000D02*
X87250000Y-116540000D01*
X105096876Y-112140878D02*
X104295998Y-111340000D01*
X76788896Y-116690000D02*
X75728896Y-117750000D01*
X105250000Y-101940000D02*
X105650500Y-102340500D01*
X82500000Y-116690000D02*
X76788896Y-116690000D01*
X82889500Y-116300500D02*
X82500000Y-116690000D01*
X87250000Y-116540000D02*
X87010500Y-116300500D01*
X89168000Y-111340000D02*
X88950000Y-111558000D01*
X105650500Y-102340500D02*
X113499500Y-102340500D01*
X76662500Y-120652500D02*
X76662500Y-119953604D01*
X107580500Y-99220500D02*
X93849500Y-99220500D01*
X89834364Y-120486072D02*
X87080436Y-123240000D01*
X78650000Y-123240000D02*
X77540000Y-122130000D01*
X76662500Y-119953604D02*
X75728896Y-119020000D01*
X77540000Y-122130000D02*
X77540000Y-121530000D01*
X77540000Y-121530000D02*
X76662500Y-120652500D01*
X87080436Y-123240000D02*
X78650000Y-123240000D01*
X109550000Y-101190000D02*
X107580500Y-99220500D01*
X106950000Y-101190000D02*
X106300000Y-100540000D01*
X75450500Y-104339500D02*
X75350000Y-104440000D01*
X92150000Y-104339500D02*
X75450500Y-104339500D01*
X93469500Y-100540000D02*
X92150000Y-99220500D01*
X106300000Y-100540000D02*
X93469500Y-100540000D01*
X75375000Y-123054500D02*
X75375000Y-120290000D01*
X74950000Y-123479500D02*
X75375000Y-123054500D01*
X89050000Y-152240000D02*
X72750000Y-152240000D01*
X71250000Y-131140000D02*
X84050000Y-131140000D01*
X71250000Y-131140000D02*
X71250000Y-134277500D01*
X103310500Y-118140000D02*
X104450000Y-117000500D01*
X91350000Y-119739500D02*
X92949500Y-118140000D01*
X92949500Y-118140000D02*
X103310500Y-118140000D01*
X98250000Y-85340000D02*
X93550000Y-85340000D01*
X81935000Y-101240000D02*
X83085000Y-102390000D01*
X83085000Y-102390000D02*
X98100000Y-102390000D01*
X93550000Y-85340000D02*
X93450000Y-85240000D01*
X98100000Y-102390000D02*
X98450000Y-102040000D01*
X136450000Y-135540000D02*
X136670000Y-135760000D01*
X136670000Y-135760000D02*
X141450000Y-135760000D01*
X136850000Y-140840000D02*
X141450000Y-140840000D01*
X114550000Y-136740000D02*
X101950000Y-136740000D01*
X136450000Y-140440000D02*
X136850000Y-140840000D01*
X80945000Y-102790000D02*
X79395000Y-101240000D01*
X103150000Y-91740000D02*
X91350000Y-91740000D01*
X102000000Y-102790000D02*
X80945000Y-102790000D01*
X102850000Y-101940000D02*
X102000000Y-102790000D01*
X91350000Y-91740000D02*
X91250000Y-91640000D01*
X78874500Y-99220500D02*
X90550000Y-99220500D01*
X76855000Y-101240000D02*
X78874500Y-99220500D01*
X74250000Y-98340000D02*
X76950000Y-98340000D01*
X84050000Y-91440000D02*
X84150000Y-91340000D01*
X78450000Y-96840000D02*
X79950000Y-96840000D01*
X76950000Y-98340000D02*
X78450000Y-96840000D01*
X79950000Y-91440000D02*
X84050000Y-91440000D01*
X71650000Y-85240000D02*
X78050000Y-85240000D01*
X78050000Y-76040000D02*
X81575000Y-76040000D01*
X78750500Y-98339500D02*
X94350000Y-98339500D01*
X69235000Y-100355000D02*
X70950000Y-98640000D01*
X69235000Y-101240000D02*
X69235000Y-100355000D01*
X72994364Y-98640000D02*
X73794365Y-99440000D01*
X70950000Y-98640000D02*
X72994364Y-98640000D01*
X77650000Y-99440000D02*
X78750500Y-98339500D01*
X73794365Y-99440000D02*
X77650000Y-99440000D01*
X73160050Y-98240000D02*
X73960050Y-99040000D01*
X96905000Y-97485000D02*
X96905000Y-93730000D01*
X73960050Y-99040000D02*
X76815686Y-99040000D01*
X69695000Y-98240000D02*
X73160050Y-98240000D01*
X76815686Y-99040000D02*
X78215686Y-97640000D01*
X96750000Y-97640000D02*
X96905000Y-97485000D01*
X78215686Y-97640000D02*
X96750000Y-97640000D01*
X66695000Y-101240000D02*
X69695000Y-98240000D01*
X120150000Y-143240000D02*
X115850000Y-143240000D01*
X81550000Y-137540000D02*
X115122363Y-137540000D01*
X120115000Y-141115000D02*
X120115000Y-143205000D01*
X115122363Y-137540000D02*
X115410474Y-137251889D01*
X115110500Y-135540000D02*
X118210500Y-138640000D01*
X121450000Y-138040000D02*
X121450000Y-136230000D01*
X120850000Y-138640000D02*
X121450000Y-138040000D01*
X89830500Y-136579500D02*
X99810500Y-136579500D01*
X99810500Y-136579500D02*
X100850000Y-135540000D01*
X100850000Y-135540000D02*
X115110500Y-135540000D01*
X118210500Y-138640000D02*
X120850000Y-138640000D01*
X109649500Y-134039500D02*
X110450000Y-134840000D01*
X91750000Y-134039500D02*
X109649500Y-134039500D01*
X110450000Y-134840000D02*
X121671396Y-134840000D01*
X121671396Y-134840000D02*
X122655000Y-135823604D01*
X118845000Y-141115000D02*
X117674500Y-141115000D01*
X117674500Y-141115000D02*
X117550000Y-141239500D01*
X118250000Y-125040000D02*
X117850000Y-124640000D01*
X109010000Y-124640000D02*
X106920000Y-126730000D01*
X117850000Y-124640000D02*
X109010000Y-124640000D01*
X137130000Y-145920000D02*
X141450000Y-145920000D01*
X136450000Y-145240000D02*
X137130000Y-145920000D01*
X61615000Y-101240000D02*
X61615000Y-98555000D01*
X132075500Y-85100000D02*
X135350000Y-85100000D01*
X131935500Y-91240000D02*
X132035500Y-91140000D01*
X107050000Y-91240000D02*
X131935500Y-91240000D01*
X132035500Y-85140000D02*
X132075500Y-85100000D01*
X102050000Y-89140000D02*
X133850000Y-89140000D01*
X133850000Y-89140000D02*
X134750000Y-88240000D01*
X131750000Y-163440000D02*
X133650000Y-163440000D01*
X70640000Y-110130000D02*
X75375000Y-110130000D01*
X76350000Y-151240000D02*
X70450000Y-151240000D01*
X70550000Y-110040000D02*
X70640000Y-110130000D01*
X136350000Y-154840000D02*
X132035500Y-154840000D01*
X70040000Y-109530000D02*
X62307500Y-109530000D01*
X70550000Y-110040000D02*
X70040000Y-109530000D01*
X133650000Y-163440000D02*
X138450000Y-168240000D01*
X104350000Y-131440000D02*
X87750000Y-131440000D01*
X134750000Y-91940000D02*
X106315000Y-91940000D01*
X141250000Y-87540000D02*
X138750000Y-87540000D01*
X136850000Y-89440000D02*
X134750000Y-89440000D01*
X106315000Y-91940000D02*
X104525000Y-93730000D01*
X136850000Y-89440000D02*
X138750000Y-87540000D01*
X85260000Y-135390000D02*
X79700000Y-135390000D01*
X79700000Y-135390000D02*
X78150000Y-136940000D01*
X74002500Y-127140000D02*
X73765000Y-127377500D01*
X102550000Y-165140000D02*
X102450000Y-165240000D01*
D35*
X75150000Y-127140000D02*
X74002500Y-127140000D01*
D33*
X64350000Y-117340000D02*
X62212500Y-119477500D01*
X73765000Y-125842500D02*
X73850000Y-125757500D01*
X66690000Y-112000000D02*
X72690000Y-112000000D01*
X94750000Y-165140000D02*
X91650000Y-168240000D01*
X75012500Y-134302500D02*
X75050000Y-134340000D01*
X66550000Y-112140000D02*
X66690000Y-112000000D01*
X72690000Y-112000000D02*
X72750000Y-111940000D01*
X102550000Y-165140000D02*
X94750000Y-165140000D01*
X75050000Y-129940000D02*
X76775000Y-129940000D01*
X73765000Y-127377500D02*
X73765000Y-125842500D01*
X64350000Y-112140000D02*
X66550000Y-112140000D01*
D35*
X125950000Y-165140000D02*
X102550000Y-165140000D01*
D33*
X74249500Y-108840000D02*
X72850000Y-108840000D01*
X76775000Y-129940000D02*
X77550000Y-129165000D01*
X73765000Y-134302500D02*
X75012500Y-134302500D01*
D35*
X75050000Y-153140000D02*
X101750000Y-153140000D01*
D33*
X74249500Y-108840000D02*
X75355000Y-108840000D01*
D35*
X117864500Y-136165000D02*
X117450000Y-136579500D01*
X118845000Y-136165000D02*
X117864500Y-136165000D01*
X119524244Y-139405500D02*
X125240500Y-139405500D01*
X117450000Y-133040000D02*
X119550000Y-133040000D01*
X118845000Y-137235000D02*
X118845000Y-136165000D01*
X119550000Y-137940000D02*
X118845000Y-137235000D01*
X73500500Y-78190000D02*
X92000000Y-78190000D01*
X92000000Y-78190000D02*
X92050000Y-78240000D01*
D33*
X131715685Y-80440000D02*
X131732843Y-80457157D01*
D35*
X59850000Y-85240000D02*
X59850000Y-83940000D01*
X61650000Y-82140000D02*
X71550000Y-82140000D01*
X73150000Y-78540500D02*
X73500500Y-78190000D01*
D33*
X131950000Y-77540000D02*
X132010000Y-77480000D01*
D35*
X131515685Y-80240000D02*
X131715685Y-80440000D01*
X120050000Y-80440000D02*
X120250000Y-80240000D01*
X120250000Y-80240000D02*
X131515685Y-80240000D01*
X59850000Y-83940000D02*
X61650000Y-82140000D01*
D33*
X119850000Y-80240000D02*
X120050000Y-80440000D01*
D35*
X92050000Y-90140000D02*
X119850000Y-90140000D01*
D33*
X131732843Y-80457157D02*
X131950000Y-80240000D01*
D35*
X132010000Y-77480000D02*
X135350000Y-77480000D01*
D33*
X76750000Y-93740000D02*
X76760000Y-93730000D01*
X76760000Y-93730000D02*
X81665000Y-93730000D01*
X69750000Y-87240000D02*
X76750000Y-87240000D01*
X63150000Y-83740000D02*
X69750000Y-83740000D01*
X76750000Y-87240000D02*
X76850000Y-87140000D01*
X63150000Y-85240000D02*
X63150000Y-83740000D01*
X83055000Y-92580000D02*
X84205000Y-93730000D01*
X73555378Y-93045378D02*
X73560756Y-93040000D01*
X57650000Y-84040000D02*
X61250000Y-80440000D01*
X80515000Y-92580000D02*
X83055000Y-92580000D01*
X57650000Y-85240000D02*
X57650000Y-84040000D01*
X73450000Y-80440000D02*
X73550000Y-80540000D01*
X80055000Y-93040000D02*
X80515000Y-92580000D01*
X61250000Y-80440000D02*
X73450000Y-80440000D01*
X73560756Y-93040000D02*
X80055000Y-93040000D01*
X60950000Y-84640000D02*
X62650000Y-82940000D01*
X78950000Y-88740000D02*
X89350000Y-88740000D01*
X78250000Y-88040000D02*
X78950000Y-88740000D01*
X70650000Y-82940000D02*
X70750000Y-83040000D01*
X62650000Y-82940000D02*
X70650000Y-82940000D01*
X70750000Y-88040000D02*
X78250000Y-88040000D01*
X80349315Y-92180000D02*
X90275000Y-92180000D01*
X72650000Y-92340000D02*
X80189314Y-92340000D01*
X72550000Y-92440000D02*
X72650000Y-92340000D01*
X58750000Y-84040000D02*
X61350000Y-81440000D01*
X61350000Y-81440000D02*
X72550000Y-81440000D01*
X90275000Y-92180000D02*
X91825000Y-93730000D01*
X80189314Y-92340000D02*
X80349315Y-92180000D01*
X58750000Y-85240000D02*
X58750000Y-84040000D01*
X120305635Y-79140000D02*
X119394364Y-79140000D01*
X75439950Y-78640000D02*
X75739950Y-78940000D01*
X95650000Y-105239500D02*
X93830500Y-105239500D01*
X75739950Y-78940000D02*
X92339950Y-78940000D01*
X71050500Y-79240000D02*
X74260050Y-79240000D01*
X92339950Y-78940000D02*
X92939950Y-78340000D01*
X127450000Y-78340000D02*
X126450000Y-79340000D01*
X126450000Y-79340000D02*
X120505636Y-79340000D01*
X92939950Y-78340000D02*
X95650000Y-78340000D01*
X118694364Y-79840000D02*
X97150000Y-79840000D01*
X74260050Y-79240000D02*
X74860050Y-78640000D01*
X74860050Y-78640000D02*
X75439950Y-78640000D01*
X93830500Y-105239500D02*
X91680000Y-107390000D01*
X119394364Y-79140000D02*
X118694364Y-79840000D01*
X97150000Y-79840000D02*
X95650000Y-78340000D01*
X120505636Y-79340000D02*
X120305635Y-79140000D01*
X89140000Y-107390000D02*
X91290500Y-105239500D01*
X95050000Y-80240000D02*
X94150000Y-79340000D01*
X127839950Y-78940000D02*
X127039950Y-79740000D01*
X119560050Y-79540000D02*
X118860050Y-80240000D01*
X129950000Y-78640000D02*
X129650000Y-78940000D01*
X129650000Y-78940000D02*
X127839950Y-78940000D01*
X118860050Y-80240000D02*
X95050000Y-80240000D01*
X127039950Y-79740000D02*
X120339950Y-79740000D01*
X94150000Y-79340000D02*
X75150000Y-79340000D01*
X91290500Y-105239500D02*
X92750000Y-105239500D01*
X120339950Y-79740000D02*
X120139950Y-79540000D01*
X120139950Y-79540000D02*
X119560050Y-79540000D01*
X94940450Y-103540000D02*
X73150000Y-103540000D01*
X96760000Y-105359550D02*
X94940450Y-103540000D01*
X73150000Y-103540000D02*
X70950000Y-105740000D01*
X96760000Y-108950000D02*
X96760000Y-105359550D01*
X64490000Y-77100000D02*
X69490000Y-77100000D01*
X95755000Y-77100000D02*
X96905000Y-75950000D01*
X69490000Y-77100000D02*
X95755000Y-77100000D01*
X64150000Y-77440000D02*
X64490000Y-77100000D01*
X114650000Y-87340000D02*
X113540000Y-86230000D01*
X113540000Y-86230000D02*
X66090000Y-86230000D01*
X66090000Y-86230000D02*
X65350000Y-85490000D01*
X137110000Y-125600000D02*
X141450000Y-125600000D01*
X136450000Y-124940000D02*
X137110000Y-125600000D01*
X136450000Y-127240000D02*
X137350000Y-128140000D01*
X137350000Y-128140000D02*
X141450000Y-128140000D01*
X136450000Y-130440000D02*
X136690000Y-130680000D01*
X136690000Y-130680000D02*
X141450000Y-130680000D01*
X136450000Y-142940000D02*
X136890000Y-143380000D01*
X136890000Y-143380000D02*
X141450000Y-143380000D01*
X136970000Y-148460000D02*
X141450000Y-148460000D01*
X136350000Y-147840000D02*
X136970000Y-148460000D01*
X136350000Y-150340000D02*
X137010000Y-151000000D01*
X137010000Y-151000000D02*
X141450000Y-151000000D01*
X136390000Y-156080000D02*
X141450000Y-156080000D01*
X136350000Y-156040000D02*
X136390000Y-156080000D01*
M02*
