G04 #@! TF.GenerationSoftware,KiCad,Pcbnew,(6.0.0)*
G04 #@! TF.CreationDate,2023-11-06T12:19:40+00:00*
G04 #@! TF.ProjectId,srom,73726f6d-2e6b-4696-9361-645f70636258,v1.3 to v1.4*
G04 #@! TF.SameCoordinates,Original*
G04 #@! TF.FileFunction,Paste,Top*
G04 #@! TF.FilePolarity,Positive*
%FSLAX46Y46*%
G04 Gerber Fmt 4.6, Leading zero omitted, Abs format (unit mm)*
G04 Created by KiCad (PCBNEW (6.0.0)) date 2023-11-06 12:19:40*
%MOMM*%
%LPD*%
G01*
G04 APERTURE LIST*
G04 Aperture macros list*
%AMRoundRect*
0 Rectangle with rounded corners*
0 $1 Rounding radius*
0 $2 $3 $4 $5 $6 $7 $8 $9 X,Y pos of 4 corners*
0 Add a 4 corners polygon primitive as box body*
4,1,4,$2,$3,$4,$5,$6,$7,$8,$9,$2,$3,0*
0 Add four circle primitives for the rounded corners*
1,1,$1+$1,$2,$3*
1,1,$1+$1,$4,$5*
1,1,$1+$1,$6,$7*
1,1,$1+$1,$8,$9*
0 Add four rect primitives between the rounded corners*
20,1,$1+$1,$2,$3,$4,$5,0*
20,1,$1+$1,$4,$5,$6,$7,0*
20,1,$1+$1,$6,$7,$8,$9,0*
20,1,$1+$1,$8,$9,$2,$3,0*%
G04 Aperture macros list end*
%ADD10R,7.620000X1.524000*%
%ADD11RoundRect,0.250000X-0.625000X0.400000X-0.625000X-0.400000X0.625000X-0.400000X0.625000X0.400000X0*%
%ADD12R,2.000000X0.650000*%
%ADD13RoundRect,0.150000X-0.837500X-0.150000X0.837500X-0.150000X0.837500X0.150000X-0.837500X0.150000X0*%
%ADD14RoundRect,0.250000X0.650000X-0.325000X0.650000X0.325000X-0.650000X0.325000X-0.650000X-0.325000X0*%
%ADD15R,0.700000X1.600000*%
%ADD16R,1.200000X2.200000*%
%ADD17R,1.600000X1.400000*%
%ADD18R,1.200000X1.400000*%
%ADD19RoundRect,0.150000X0.150000X-0.825000X0.150000X0.825000X-0.150000X0.825000X-0.150000X-0.825000X0*%
%ADD20RoundRect,0.250000X-0.400000X-0.625000X0.400000X-0.625000X0.400000X0.625000X-0.400000X0.625000X0*%
%ADD21RoundRect,0.250000X-0.650000X0.325000X-0.650000X-0.325000X0.650000X-0.325000X0.650000X0.325000X0*%
%ADD22RoundRect,0.150000X-0.150000X0.837500X-0.150000X-0.837500X0.150000X-0.837500X0.150000X0.837500X0*%
%ADD23RoundRect,0.250001X-0.624999X0.462499X-0.624999X-0.462499X0.624999X-0.462499X0.624999X0.462499X0*%
G04 APERTURE END LIST*
D10*
X141450000Y-95120000D03*
X141450000Y-97660000D03*
X141450000Y-100200000D03*
X141450000Y-102740000D03*
X141450000Y-107820000D03*
X141450000Y-110360000D03*
X141450000Y-112900000D03*
X141450000Y-115440000D03*
X141450000Y-117980000D03*
X141450000Y-120520000D03*
X141450000Y-123060000D03*
X141450000Y-125600000D03*
X141450000Y-128140000D03*
X141450000Y-130680000D03*
X141450000Y-133220000D03*
X141450000Y-135760000D03*
X141450000Y-138300000D03*
X141450000Y-140840000D03*
X141450000Y-143380000D03*
X141450000Y-145920000D03*
X141450000Y-148460000D03*
X141450000Y-151000000D03*
X141450000Y-153540000D03*
X141450000Y-156080000D03*
X141450000Y-158620000D03*
X141450000Y-161160000D03*
X141450000Y-163700000D03*
D11*
X62212500Y-109625000D03*
X62212500Y-112725000D03*
D12*
X85260000Y-135390000D03*
X85260000Y-133490000D03*
X81840000Y-134440000D03*
D13*
X68450000Y-108860000D03*
X68450000Y-110130000D03*
X68450000Y-111400000D03*
X68450000Y-112670000D03*
X68450000Y-113940000D03*
X68450000Y-115210000D03*
X68450000Y-116480000D03*
X68450000Y-117750000D03*
X68450000Y-119020000D03*
X68450000Y-120290000D03*
X75375000Y-120290000D03*
X75375000Y-119020000D03*
X75375000Y-117750000D03*
X75375000Y-116480000D03*
X75375000Y-115210000D03*
X75375000Y-113940000D03*
X75375000Y-112670000D03*
X75375000Y-111400000D03*
X75375000Y-110130000D03*
X75375000Y-108860000D03*
D14*
X64300000Y-92800000D03*
X64300000Y-89850000D03*
D15*
X56550000Y-85240000D03*
X57650000Y-85240000D03*
X58750000Y-85240000D03*
X59850000Y-85240000D03*
X60950000Y-85240000D03*
X62050000Y-85240000D03*
D16*
X66500000Y-75140000D03*
D17*
X51900000Y-84740000D03*
D18*
X66500000Y-84740000D03*
D16*
X51000000Y-75140000D03*
D15*
X63150000Y-85240000D03*
X64250000Y-85240000D03*
X65350000Y-85240000D03*
D19*
X118845000Y-141115000D03*
X120115000Y-141115000D03*
X121385000Y-141115000D03*
X122655000Y-141115000D03*
X122655000Y-136165000D03*
X121385000Y-136165000D03*
X120115000Y-136165000D03*
X118845000Y-136165000D03*
D11*
X117350000Y-101190000D03*
X117350000Y-104290000D03*
D19*
X67640000Y-94815000D03*
X68910000Y-94815000D03*
X70180000Y-94815000D03*
X71450000Y-94815000D03*
X72720000Y-94815000D03*
X73990000Y-94815000D03*
X75260000Y-94815000D03*
X75260000Y-89865000D03*
X73990000Y-89865000D03*
X72720000Y-89865000D03*
X71450000Y-89865000D03*
X70180000Y-89865000D03*
X68910000Y-89865000D03*
X67640000Y-89865000D03*
D11*
X109550000Y-101190000D03*
X109550000Y-104290000D03*
X122650000Y-101190000D03*
X122650000Y-104290000D03*
X106950000Y-101190000D03*
X106950000Y-104290000D03*
D20*
X74800000Y-136940000D03*
X77900000Y-136940000D03*
D14*
X62212500Y-119815000D03*
X62212500Y-116865000D03*
D11*
X127250000Y-101190000D03*
X127250000Y-104290000D03*
X129650000Y-101190000D03*
X129650000Y-104290000D03*
D14*
X125550000Y-139715000D03*
X125550000Y-136765000D03*
D11*
X61550000Y-95390000D03*
X61550000Y-98490000D03*
D21*
X77550000Y-129165000D03*
X77550000Y-132115000D03*
D22*
X73765000Y-127377500D03*
X72495000Y-127377500D03*
X71225000Y-127377500D03*
X69955000Y-127377500D03*
X68685000Y-127377500D03*
X67415000Y-127377500D03*
X66145000Y-127377500D03*
X64875000Y-127377500D03*
X63605000Y-127377500D03*
X62335000Y-127377500D03*
X62335000Y-134302500D03*
X63605000Y-134302500D03*
X64875000Y-134302500D03*
X66145000Y-134302500D03*
X67415000Y-134302500D03*
X68685000Y-134302500D03*
X69955000Y-134302500D03*
X71225000Y-134302500D03*
X72495000Y-134302500D03*
X73765000Y-134302500D03*
D23*
X132950000Y-98852500D03*
X132950000Y-101827500D03*
D11*
X114650000Y-101190000D03*
X114650000Y-104290000D03*
X119950000Y-101190000D03*
X119950000Y-104290000D03*
M02*
