G04 #@! TF.GenerationSoftware,KiCad,Pcbnew,(6.0.0)*
G04 #@! TF.CreationDate,2023-11-06T12:19:40+00:00*
G04 #@! TF.ProjectId,srom,73726f6d-2e6b-4696-9361-645f70636258,v1.3 to v1.4*
G04 #@! TF.SameCoordinates,Original*
G04 #@! TF.FileFunction,Soldermask,Bot*
G04 #@! TF.FilePolarity,Negative*
%FSLAX46Y46*%
G04 Gerber Fmt 4.6, Leading zero omitted, Abs format (unit mm)*
G04 Created by KiCad (PCBNEW (6.0.0)) date 2023-11-06 12:19:40*
%MOMM*%
%LPD*%
G01*
G04 APERTURE LIST*
%ADD10C,2.200000*%
%ADD11C,1.700000*%
%ADD12C,4.300000*%
%ADD13C,2.000000*%
%ADD14R,7.620000X1.524000*%
%ADD15O,1.800000X1.800000*%
%ADD16O,1.500000X1.500000*%
%ADD17O,1.700000X1.700000*%
%ADD18R,1.700000X1.700000*%
%ADD19C,1.524000*%
G04 APERTURE END LIST*
D10*
X139875000Y-83490000D03*
X139875000Y-90490000D03*
D11*
X142375000Y-84740000D03*
X142375000Y-89240000D03*
D12*
X130050000Y-139440000D03*
D13*
X138450000Y-168240000D03*
D10*
X139775000Y-72490000D03*
X139775000Y-79490000D03*
D11*
X142275000Y-73740000D03*
X142275000Y-78240000D03*
D12*
X56450000Y-89340000D03*
D13*
X76950000Y-73940000D03*
D14*
X141450000Y-95120000D03*
X141450000Y-97660000D03*
X141450000Y-100200000D03*
X141450000Y-102740000D03*
X141450000Y-107820000D03*
X141450000Y-110360000D03*
X141450000Y-112900000D03*
X141450000Y-115440000D03*
X141450000Y-117980000D03*
X141450000Y-120520000D03*
X141450000Y-123060000D03*
X141450000Y-125600000D03*
X141450000Y-128140000D03*
X141450000Y-130680000D03*
X141450000Y-133220000D03*
X141450000Y-135760000D03*
X141450000Y-138300000D03*
X141450000Y-140840000D03*
X141450000Y-143380000D03*
X141450000Y-145920000D03*
X141450000Y-148460000D03*
X141450000Y-151000000D03*
X141450000Y-153540000D03*
X141450000Y-156080000D03*
X141450000Y-158620000D03*
X141450000Y-161160000D03*
X141450000Y-163700000D03*
D13*
X50250000Y-89740000D03*
D15*
X129795000Y-87565000D03*
D16*
X126765000Y-87265000D03*
D15*
X129795000Y-82115000D03*
D16*
X126765000Y-82415000D03*
D17*
X129925000Y-75950000D03*
X127385000Y-75950000D03*
D18*
X124845000Y-75950000D03*
D17*
X122305000Y-75950000D03*
X119765000Y-75950000D03*
X117225000Y-75950000D03*
X114685000Y-75950000D03*
D18*
X112145000Y-75950000D03*
D17*
X109605000Y-75950000D03*
X107065000Y-75950000D03*
X104525000Y-75950000D03*
X101985000Y-75950000D03*
D18*
X99445000Y-75950000D03*
D17*
X96905000Y-75950000D03*
X94365000Y-75950000D03*
X91825000Y-75950000D03*
X89285000Y-75950000D03*
D18*
X86745000Y-75950000D03*
D17*
X84205000Y-75950000D03*
X81665000Y-75950000D03*
X81665000Y-93730000D03*
X84205000Y-93730000D03*
D18*
X86745000Y-93730000D03*
D17*
X89285000Y-93730000D03*
X91825000Y-93730000D03*
X94365000Y-93730000D03*
X96905000Y-93730000D03*
D18*
X99445000Y-93730000D03*
D17*
X101985000Y-93730000D03*
X104525000Y-93730000D03*
X107065000Y-93730000D03*
X109605000Y-93730000D03*
D18*
X112145000Y-93730000D03*
D17*
X114685000Y-93730000D03*
X117225000Y-93730000D03*
X119765000Y-93730000D03*
X122305000Y-93730000D03*
D18*
X124845000Y-93730000D03*
D17*
X127385000Y-93730000D03*
X129925000Y-93730000D03*
X81895000Y-82300000D03*
D18*
X81895000Y-84840000D03*
D17*
X81895000Y-87380000D03*
D13*
X96450000Y-168240000D03*
X91650000Y-168240000D03*
X70950000Y-105740000D03*
D18*
X123375000Y-166940000D03*
D17*
X125915000Y-166940000D03*
X128455000Y-166940000D03*
X130995000Y-166940000D03*
X133535000Y-166940000D03*
D18*
X84475000Y-101240000D03*
D17*
X81935000Y-101240000D03*
X79395000Y-101240000D03*
X76855000Y-101240000D03*
X74315000Y-101240000D03*
X71775000Y-101240000D03*
X69235000Y-101240000D03*
X66695000Y-101240000D03*
X64155000Y-101240000D03*
X61615000Y-101240000D03*
D13*
X70750000Y-73840000D03*
D16*
X126620000Y-120265000D03*
X126620000Y-115415000D03*
D15*
X129650000Y-115115000D03*
X129650000Y-120565000D03*
D17*
X129780000Y-108950000D03*
X127240000Y-108950000D03*
D18*
X124700000Y-108950000D03*
D17*
X122160000Y-108950000D03*
X119620000Y-108950000D03*
X117080000Y-108950000D03*
X114540000Y-108950000D03*
D18*
X112000000Y-108950000D03*
D17*
X109460000Y-108950000D03*
X106920000Y-108950000D03*
X104380000Y-108950000D03*
X101840000Y-108950000D03*
D18*
X99300000Y-108950000D03*
D17*
X96760000Y-108950000D03*
X94220000Y-108950000D03*
X91680000Y-108950000D03*
X89140000Y-108950000D03*
D18*
X86600000Y-108950000D03*
D17*
X84060000Y-108950000D03*
X81520000Y-108950000D03*
X81520000Y-126730000D03*
X84060000Y-126730000D03*
D18*
X86600000Y-126730000D03*
D17*
X89140000Y-126730000D03*
X91680000Y-126730000D03*
X94220000Y-126730000D03*
X96760000Y-126730000D03*
D18*
X99300000Y-126730000D03*
D17*
X101840000Y-126730000D03*
X104380000Y-126730000D03*
X106920000Y-126730000D03*
X109460000Y-126730000D03*
D18*
X112000000Y-126730000D03*
D17*
X114540000Y-126730000D03*
X117080000Y-126730000D03*
X119620000Y-126730000D03*
X122160000Y-126730000D03*
D18*
X124700000Y-126730000D03*
D17*
X127240000Y-126730000D03*
X129780000Y-126730000D03*
X81750000Y-115300000D03*
D18*
X81750000Y-117840000D03*
D17*
X81750000Y-120380000D03*
D18*
X106825000Y-168040000D03*
D17*
X109365000Y-168040000D03*
X111905000Y-168040000D03*
D18*
X135350000Y-74940000D03*
D17*
X135350000Y-77480000D03*
X135350000Y-80020000D03*
X135350000Y-82560000D03*
X135350000Y-85100000D03*
X135350000Y-87640000D03*
D13*
X73750000Y-73840000D03*
D19*
X50390000Y-105000000D03*
X55390000Y-105000000D03*
X55390000Y-94840000D03*
X55390000Y-97380000D03*
X55390000Y-99920000D03*
X55390000Y-102460000D03*
X55390000Y-107540000D03*
X55390000Y-110080000D03*
X55390000Y-112620000D03*
X55390000Y-115160000D03*
X55390000Y-117700000D03*
X55390000Y-120240000D03*
X55390000Y-122780000D03*
X55390000Y-125320000D03*
X55390000Y-127860000D03*
X55390000Y-130400000D03*
X55390000Y-132940000D03*
X55390000Y-135480000D03*
X55390000Y-138020000D03*
X55390000Y-140560000D03*
X55390000Y-143100000D03*
X55390000Y-145640000D03*
X55390000Y-148180000D03*
X55390000Y-150720000D03*
X55390000Y-153260000D03*
X55390000Y-155800000D03*
X55390000Y-158340000D03*
X55390000Y-160880000D03*
X55390000Y-163420000D03*
X50390000Y-94840000D03*
X50390000Y-97380000D03*
X50390000Y-99920000D03*
X50390000Y-102460000D03*
X50390000Y-107540000D03*
X50390000Y-110080000D03*
X50390000Y-112620000D03*
X50390000Y-115160000D03*
X50390000Y-117700000D03*
X50390000Y-120240000D03*
X50390000Y-122780000D03*
X50390000Y-125320000D03*
X50390000Y-127860000D03*
X50390000Y-130400000D03*
X50390000Y-132940000D03*
X50390000Y-135480000D03*
X50390000Y-138020000D03*
X50390000Y-140560000D03*
X50390000Y-143100000D03*
X50390000Y-145640000D03*
X50390000Y-148180000D03*
X50390000Y-150720000D03*
X50390000Y-153260000D03*
X50390000Y-155800000D03*
X50390000Y-158340000D03*
X50390000Y-160880000D03*
X50390000Y-163420000D03*
D15*
X111795000Y-153565000D03*
X111795000Y-148115000D03*
D16*
X108765000Y-153265000D03*
X108765000Y-148415000D03*
D17*
X111925000Y-141950000D03*
X109385000Y-141950000D03*
D18*
X106845000Y-141950000D03*
D17*
X104305000Y-141950000D03*
X101765000Y-141950000D03*
X99225000Y-141950000D03*
X96685000Y-141950000D03*
D18*
X94145000Y-141950000D03*
D17*
X91605000Y-141950000D03*
X89065000Y-141950000D03*
X86525000Y-141950000D03*
X83985000Y-141950000D03*
D18*
X81445000Y-141950000D03*
D17*
X78905000Y-141950000D03*
X76365000Y-141950000D03*
X73825000Y-141950000D03*
X71285000Y-141950000D03*
D18*
X68745000Y-141950000D03*
D17*
X66205000Y-141950000D03*
X63665000Y-141950000D03*
X63665000Y-159730000D03*
X66205000Y-159730000D03*
D18*
X68745000Y-159730000D03*
D17*
X71285000Y-159730000D03*
X73825000Y-159730000D03*
X76365000Y-159730000D03*
X78905000Y-159730000D03*
D18*
X81445000Y-159730000D03*
D17*
X83985000Y-159730000D03*
X86525000Y-159730000D03*
X89065000Y-159730000D03*
X91605000Y-159730000D03*
D18*
X94145000Y-159730000D03*
D17*
X96685000Y-159730000D03*
X99225000Y-159730000D03*
X101765000Y-159730000D03*
X104305000Y-159730000D03*
D18*
X106845000Y-159730000D03*
D17*
X109385000Y-159730000D03*
X111925000Y-159730000D03*
X63895000Y-148300000D03*
D18*
X63895000Y-150840000D03*
D17*
X63895000Y-153380000D03*
M02*
