G04 #@! TF.GenerationSoftware,KiCad,Pcbnew,6.0.11-2627ca5db0~126~ubuntu22.04.1*
G04 #@! TF.CreationDate,2023-06-25T15:34:26+01:00*
G04 #@! TF.ProjectId,ui_daughterboard,75695f64-6175-4676-9874-6572626f6172,rev?*
G04 #@! TF.SameCoordinates,Original*
G04 #@! TF.FileFunction,Legend,Top*
G04 #@! TF.FilePolarity,Positive*
%FSLAX46Y46*%
G04 Gerber Fmt 4.6, Leading zero omitted, Abs format (unit mm)*
G04 Created by KiCad (PCBNEW 6.0.11-2627ca5db0~126~ubuntu22.04.1) date 2023-06-25 15:34:26*
%MOMM*%
%LPD*%
G01*
G04 APERTURE LIST*
%ADD10C,0.300000*%
%ADD11C,0.125000*%
%ADD12C,0.120000*%
%ADD13C,3.200000*%
%ADD14C,2.000000*%
%ADD15C,4.300000*%
%ADD16R,1.800000X1.800000*%
%ADD17C,1.800000*%
%ADD18R,1.700000X1.700000*%
%ADD19O,1.700000X1.700000*%
G04 APERTURE END LIST*
D10*
X89981428Y-167308571D02*
X89981428Y-168522857D01*
X90052857Y-168665714D01*
X90124285Y-168737142D01*
X90267142Y-168808571D01*
X90552857Y-168808571D01*
X90695714Y-168737142D01*
X90767142Y-168665714D01*
X90838571Y-168522857D01*
X90838571Y-167308571D01*
X91552857Y-167808571D02*
X91552857Y-169308571D01*
X91552857Y-167880000D02*
X91695714Y-167808571D01*
X91981428Y-167808571D01*
X92124285Y-167880000D01*
X92195714Y-167951428D01*
X92267142Y-168094285D01*
X92267142Y-168522857D01*
X92195714Y-168665714D01*
X92124285Y-168737142D01*
X91981428Y-168808571D01*
X91695714Y-168808571D01*
X91552857Y-168737142D01*
X92910000Y-167808571D02*
X92910000Y-169308571D01*
X92910000Y-167880000D02*
X93052857Y-167808571D01*
X93338571Y-167808571D01*
X93481428Y-167880000D01*
X93552857Y-167951428D01*
X93624285Y-168094285D01*
X93624285Y-168522857D01*
X93552857Y-168665714D01*
X93481428Y-168737142D01*
X93338571Y-168808571D01*
X93052857Y-168808571D01*
X92910000Y-168737142D01*
X94838571Y-168737142D02*
X94695714Y-168808571D01*
X94410000Y-168808571D01*
X94267142Y-168737142D01*
X94195714Y-168594285D01*
X94195714Y-168022857D01*
X94267142Y-167880000D01*
X94410000Y-167808571D01*
X94695714Y-167808571D01*
X94838571Y-167880000D01*
X94910000Y-168022857D01*
X94910000Y-168165714D01*
X94195714Y-168308571D01*
X95552857Y-168808571D02*
X95552857Y-167808571D01*
X95552857Y-168094285D02*
X95624285Y-167951428D01*
X95695714Y-167880000D01*
X95838571Y-167808571D01*
X95981428Y-167808571D01*
X97624285Y-168808571D02*
X97624285Y-167808571D01*
X97624285Y-167951428D02*
X97695714Y-167880000D01*
X97838571Y-167808571D01*
X98052857Y-167808571D01*
X98195714Y-167880000D01*
X98267142Y-168022857D01*
X98267142Y-168808571D01*
X98267142Y-168022857D02*
X98338571Y-167880000D01*
X98481428Y-167808571D01*
X98695714Y-167808571D01*
X98838571Y-167880000D01*
X98910000Y-168022857D01*
X98910000Y-168808571D01*
X99838571Y-168808571D02*
X99695714Y-168737142D01*
X99624285Y-168665714D01*
X99552857Y-168522857D01*
X99552857Y-168094285D01*
X99624285Y-167951428D01*
X99695714Y-167880000D01*
X99838571Y-167808571D01*
X100052857Y-167808571D01*
X100195714Y-167880000D01*
X100267142Y-167951428D01*
X100338571Y-168094285D01*
X100338571Y-168522857D01*
X100267142Y-168665714D01*
X100195714Y-168737142D01*
X100052857Y-168808571D01*
X99838571Y-168808571D01*
X101624285Y-167808571D02*
X101624285Y-168808571D01*
X100981428Y-167808571D02*
X100981428Y-168594285D01*
X101052857Y-168737142D01*
X101195714Y-168808571D01*
X101410000Y-168808571D01*
X101552857Y-168737142D01*
X101624285Y-168665714D01*
X102338571Y-167808571D02*
X102338571Y-168808571D01*
X102338571Y-167951428D02*
X102410000Y-167880000D01*
X102552857Y-167808571D01*
X102767142Y-167808571D01*
X102910000Y-167880000D01*
X102981428Y-168022857D01*
X102981428Y-168808571D01*
X103481428Y-167808571D02*
X104052857Y-167808571D01*
X103695714Y-167308571D02*
X103695714Y-168594285D01*
X103767142Y-168737142D01*
X103910000Y-168808571D01*
X104052857Y-168808571D01*
X84290000Y-155532500D02*
X85004285Y-155532500D01*
X84147142Y-155961071D02*
X84647142Y-154461071D01*
X85147142Y-155961071D01*
X86290000Y-155889642D02*
X86147142Y-155961071D01*
X85861428Y-155961071D01*
X85718571Y-155889642D01*
X85647142Y-155818214D01*
X85575714Y-155675357D01*
X85575714Y-155246785D01*
X85647142Y-155103928D01*
X85718571Y-155032500D01*
X85861428Y-154961071D01*
X86147142Y-154961071D01*
X86290000Y-155032500D01*
X87575714Y-155889642D02*
X87432857Y-155961071D01*
X87147142Y-155961071D01*
X87004285Y-155889642D01*
X86932857Y-155818214D01*
X86861428Y-155675357D01*
X86861428Y-155246785D01*
X86932857Y-155103928D01*
X87004285Y-155032500D01*
X87147142Y-154961071D01*
X87432857Y-154961071D01*
X87575714Y-155032500D01*
X88790000Y-155889642D02*
X88647142Y-155961071D01*
X88361428Y-155961071D01*
X88218571Y-155889642D01*
X88147142Y-155746785D01*
X88147142Y-155175357D01*
X88218571Y-155032500D01*
X88361428Y-154961071D01*
X88647142Y-154961071D01*
X88790000Y-155032500D01*
X88861428Y-155175357D01*
X88861428Y-155318214D01*
X88147142Y-155461071D01*
X89432857Y-155889642D02*
X89575714Y-155961071D01*
X89861428Y-155961071D01*
X90004285Y-155889642D01*
X90075714Y-155746785D01*
X90075714Y-155675357D01*
X90004285Y-155532500D01*
X89861428Y-155461071D01*
X89647142Y-155461071D01*
X89504285Y-155389642D01*
X89432857Y-155246785D01*
X89432857Y-155175357D01*
X89504285Y-155032500D01*
X89647142Y-154961071D01*
X89861428Y-154961071D01*
X90004285Y-155032500D01*
X90647142Y-155889642D02*
X90790000Y-155961071D01*
X91075714Y-155961071D01*
X91218571Y-155889642D01*
X91290000Y-155746785D01*
X91290000Y-155675357D01*
X91218571Y-155532500D01*
X91075714Y-155461071D01*
X90861428Y-155461071D01*
X90718571Y-155389642D01*
X90647142Y-155246785D01*
X90647142Y-155175357D01*
X90718571Y-155032500D01*
X90861428Y-154961071D01*
X91075714Y-154961071D01*
X91218571Y-155032500D01*
X85754285Y-158376071D02*
X85754285Y-156876071D01*
X86397142Y-158376071D02*
X86397142Y-157590357D01*
X86325714Y-157447500D01*
X86182857Y-157376071D01*
X85968571Y-157376071D01*
X85825714Y-157447500D01*
X85754285Y-157518928D01*
X87325714Y-158376071D02*
X87182857Y-158304642D01*
X87111428Y-158233214D01*
X87040000Y-158090357D01*
X87040000Y-157661785D01*
X87111428Y-157518928D01*
X87182857Y-157447500D01*
X87325714Y-157376071D01*
X87540000Y-157376071D01*
X87682857Y-157447500D01*
X87754285Y-157518928D01*
X87825714Y-157661785D01*
X87825714Y-158090357D01*
X87754285Y-158233214D01*
X87682857Y-158304642D01*
X87540000Y-158376071D01*
X87325714Y-158376071D01*
X88682857Y-158376071D02*
X88540000Y-158304642D01*
X88468571Y-158161785D01*
X88468571Y-156876071D01*
X89825714Y-158304642D02*
X89682857Y-158376071D01*
X89397142Y-158376071D01*
X89254285Y-158304642D01*
X89182857Y-158161785D01*
X89182857Y-157590357D01*
X89254285Y-157447500D01*
X89397142Y-157376071D01*
X89682857Y-157376071D01*
X89825714Y-157447500D01*
X89897142Y-157590357D01*
X89897142Y-157733214D01*
X89182857Y-157876071D01*
X70484285Y-166761071D02*
X70484285Y-165261071D01*
X71055714Y-165261071D01*
X71198571Y-165332500D01*
X71270000Y-165403928D01*
X71341428Y-165546785D01*
X71341428Y-165761071D01*
X71270000Y-165903928D01*
X71198571Y-165975357D01*
X71055714Y-166046785D01*
X70484285Y-166046785D01*
X72198571Y-166761071D02*
X72055714Y-166689642D01*
X71984285Y-166546785D01*
X71984285Y-165261071D01*
X73412857Y-166761071D02*
X73412857Y-165975357D01*
X73341428Y-165832500D01*
X73198571Y-165761071D01*
X72912857Y-165761071D01*
X72770000Y-165832500D01*
X73412857Y-166689642D02*
X73270000Y-166761071D01*
X72912857Y-166761071D01*
X72770000Y-166689642D01*
X72698571Y-166546785D01*
X72698571Y-166403928D01*
X72770000Y-166261071D01*
X72912857Y-166189642D01*
X73270000Y-166189642D01*
X73412857Y-166118214D01*
X73912857Y-165761071D02*
X74484285Y-165761071D01*
X74127142Y-165261071D02*
X74127142Y-166546785D01*
X74198571Y-166689642D01*
X74341428Y-166761071D01*
X74484285Y-166761071D01*
X75555714Y-166689642D02*
X75412857Y-166761071D01*
X75127142Y-166761071D01*
X74984285Y-166689642D01*
X74912857Y-166546785D01*
X74912857Y-165975357D01*
X74984285Y-165832500D01*
X75127142Y-165761071D01*
X75412857Y-165761071D01*
X75555714Y-165832500D01*
X75627142Y-165975357D01*
X75627142Y-166118214D01*
X74912857Y-166261071D01*
X69912857Y-169176071D02*
X69912857Y-168176071D01*
X69912857Y-168318928D02*
X69984285Y-168247500D01*
X70127142Y-168176071D01*
X70341428Y-168176071D01*
X70484285Y-168247500D01*
X70555714Y-168390357D01*
X70555714Y-169176071D01*
X70555714Y-168390357D02*
X70627142Y-168247500D01*
X70770000Y-168176071D01*
X70984285Y-168176071D01*
X71127142Y-168247500D01*
X71198571Y-168390357D01*
X71198571Y-169176071D01*
X72127142Y-169176071D02*
X71984285Y-169104642D01*
X71912857Y-169033214D01*
X71841428Y-168890357D01*
X71841428Y-168461785D01*
X71912857Y-168318928D01*
X71984285Y-168247500D01*
X72127142Y-168176071D01*
X72341428Y-168176071D01*
X72484285Y-168247500D01*
X72555714Y-168318928D01*
X72627142Y-168461785D01*
X72627142Y-168890357D01*
X72555714Y-169033214D01*
X72484285Y-169104642D01*
X72341428Y-169176071D01*
X72127142Y-169176071D01*
X73912857Y-168176071D02*
X73912857Y-169176071D01*
X73270000Y-168176071D02*
X73270000Y-168961785D01*
X73341428Y-169104642D01*
X73484285Y-169176071D01*
X73698571Y-169176071D01*
X73841428Y-169104642D01*
X73912857Y-169033214D01*
X74627142Y-168176071D02*
X74627142Y-169176071D01*
X74627142Y-168318928D02*
X74698571Y-168247500D01*
X74841428Y-168176071D01*
X75055714Y-168176071D01*
X75198571Y-168247500D01*
X75270000Y-168390357D01*
X75270000Y-169176071D01*
X75770000Y-168176071D02*
X76341428Y-168176071D01*
X75984285Y-167676071D02*
X75984285Y-168961785D01*
X76055714Y-169104642D01*
X76198571Y-169176071D01*
X76341428Y-169176071D01*
X54044285Y-166621071D02*
X54044285Y-165121071D01*
X54615714Y-165121071D01*
X54758571Y-165192500D01*
X54830000Y-165263928D01*
X54901428Y-165406785D01*
X54901428Y-165621071D01*
X54830000Y-165763928D01*
X54758571Y-165835357D01*
X54615714Y-165906785D01*
X54044285Y-165906785D01*
X55758571Y-166621071D02*
X55615714Y-166549642D01*
X55544285Y-166406785D01*
X55544285Y-165121071D01*
X56972857Y-166621071D02*
X56972857Y-165835357D01*
X56901428Y-165692500D01*
X56758571Y-165621071D01*
X56472857Y-165621071D01*
X56330000Y-165692500D01*
X56972857Y-166549642D02*
X56830000Y-166621071D01*
X56472857Y-166621071D01*
X56330000Y-166549642D01*
X56258571Y-166406785D01*
X56258571Y-166263928D01*
X56330000Y-166121071D01*
X56472857Y-166049642D01*
X56830000Y-166049642D01*
X56972857Y-165978214D01*
X57472857Y-165621071D02*
X58044285Y-165621071D01*
X57687142Y-165121071D02*
X57687142Y-166406785D01*
X57758571Y-166549642D01*
X57901428Y-166621071D01*
X58044285Y-166621071D01*
X59115714Y-166549642D02*
X58972857Y-166621071D01*
X58687142Y-166621071D01*
X58544285Y-166549642D01*
X58472857Y-166406785D01*
X58472857Y-165835357D01*
X58544285Y-165692500D01*
X58687142Y-165621071D01*
X58972857Y-165621071D01*
X59115714Y-165692500D01*
X59187142Y-165835357D01*
X59187142Y-165978214D01*
X58472857Y-166121071D01*
X53472857Y-169036071D02*
X53472857Y-168036071D01*
X53472857Y-168178928D02*
X53544285Y-168107500D01*
X53687142Y-168036071D01*
X53901428Y-168036071D01*
X54044285Y-168107500D01*
X54115714Y-168250357D01*
X54115714Y-169036071D01*
X54115714Y-168250357D02*
X54187142Y-168107500D01*
X54330000Y-168036071D01*
X54544285Y-168036071D01*
X54687142Y-168107500D01*
X54758571Y-168250357D01*
X54758571Y-169036071D01*
X55687142Y-169036071D02*
X55544285Y-168964642D01*
X55472857Y-168893214D01*
X55401428Y-168750357D01*
X55401428Y-168321785D01*
X55472857Y-168178928D01*
X55544285Y-168107500D01*
X55687142Y-168036071D01*
X55901428Y-168036071D01*
X56044285Y-168107500D01*
X56115714Y-168178928D01*
X56187142Y-168321785D01*
X56187142Y-168750357D01*
X56115714Y-168893214D01*
X56044285Y-168964642D01*
X55901428Y-169036071D01*
X55687142Y-169036071D01*
X57472857Y-168036071D02*
X57472857Y-169036071D01*
X56830000Y-168036071D02*
X56830000Y-168821785D01*
X56901428Y-168964642D01*
X57044285Y-169036071D01*
X57258571Y-169036071D01*
X57401428Y-168964642D01*
X57472857Y-168893214D01*
X58187142Y-168036071D02*
X58187142Y-169036071D01*
X58187142Y-168178928D02*
X58258571Y-168107500D01*
X58401428Y-168036071D01*
X58615714Y-168036071D01*
X58758571Y-168107500D01*
X58830000Y-168250357D01*
X58830000Y-169036071D01*
X59330000Y-168036071D02*
X59901428Y-168036071D01*
X59544285Y-167536071D02*
X59544285Y-168821785D01*
X59615714Y-168964642D01*
X59758571Y-169036071D01*
X59901428Y-169036071D01*
X70194285Y-72691071D02*
X70194285Y-71191071D01*
X70765714Y-71191071D01*
X70908571Y-71262500D01*
X70980000Y-71333928D01*
X71051428Y-71476785D01*
X71051428Y-71691071D01*
X70980000Y-71833928D01*
X70908571Y-71905357D01*
X70765714Y-71976785D01*
X70194285Y-71976785D01*
X71908571Y-72691071D02*
X71765714Y-72619642D01*
X71694285Y-72476785D01*
X71694285Y-71191071D01*
X73122857Y-72691071D02*
X73122857Y-71905357D01*
X73051428Y-71762500D01*
X72908571Y-71691071D01*
X72622857Y-71691071D01*
X72480000Y-71762500D01*
X73122857Y-72619642D02*
X72980000Y-72691071D01*
X72622857Y-72691071D01*
X72480000Y-72619642D01*
X72408571Y-72476785D01*
X72408571Y-72333928D01*
X72480000Y-72191071D01*
X72622857Y-72119642D01*
X72980000Y-72119642D01*
X73122857Y-72048214D01*
X73622857Y-71691071D02*
X74194285Y-71691071D01*
X73837142Y-71191071D02*
X73837142Y-72476785D01*
X73908571Y-72619642D01*
X74051428Y-72691071D01*
X74194285Y-72691071D01*
X75265714Y-72619642D02*
X75122857Y-72691071D01*
X74837142Y-72691071D01*
X74694285Y-72619642D01*
X74622857Y-72476785D01*
X74622857Y-71905357D01*
X74694285Y-71762500D01*
X74837142Y-71691071D01*
X75122857Y-71691071D01*
X75265714Y-71762500D01*
X75337142Y-71905357D01*
X75337142Y-72048214D01*
X74622857Y-72191071D01*
X69622857Y-75106071D02*
X69622857Y-74106071D01*
X69622857Y-74248928D02*
X69694285Y-74177500D01*
X69837142Y-74106071D01*
X70051428Y-74106071D01*
X70194285Y-74177500D01*
X70265714Y-74320357D01*
X70265714Y-75106071D01*
X70265714Y-74320357D02*
X70337142Y-74177500D01*
X70480000Y-74106071D01*
X70694285Y-74106071D01*
X70837142Y-74177500D01*
X70908571Y-74320357D01*
X70908571Y-75106071D01*
X71837142Y-75106071D02*
X71694285Y-75034642D01*
X71622857Y-74963214D01*
X71551428Y-74820357D01*
X71551428Y-74391785D01*
X71622857Y-74248928D01*
X71694285Y-74177500D01*
X71837142Y-74106071D01*
X72051428Y-74106071D01*
X72194285Y-74177500D01*
X72265714Y-74248928D01*
X72337142Y-74391785D01*
X72337142Y-74820357D01*
X72265714Y-74963214D01*
X72194285Y-75034642D01*
X72051428Y-75106071D01*
X71837142Y-75106071D01*
X73622857Y-74106071D02*
X73622857Y-75106071D01*
X72980000Y-74106071D02*
X72980000Y-74891785D01*
X73051428Y-75034642D01*
X73194285Y-75106071D01*
X73408571Y-75106071D01*
X73551428Y-75034642D01*
X73622857Y-74963214D01*
X74337142Y-74106071D02*
X74337142Y-75106071D01*
X74337142Y-74248928D02*
X74408571Y-74177500D01*
X74551428Y-74106071D01*
X74765714Y-74106071D01*
X74908571Y-74177500D01*
X74980000Y-74320357D01*
X74980000Y-75106071D01*
X75480000Y-74106071D02*
X76051428Y-74106071D01*
X75694285Y-73606071D02*
X75694285Y-74891785D01*
X75765714Y-75034642D01*
X75908571Y-75106071D01*
X76051428Y-75106071D01*
X53834285Y-72701071D02*
X53834285Y-71201071D01*
X54405714Y-71201071D01*
X54548571Y-71272500D01*
X54620000Y-71343928D01*
X54691428Y-71486785D01*
X54691428Y-71701071D01*
X54620000Y-71843928D01*
X54548571Y-71915357D01*
X54405714Y-71986785D01*
X53834285Y-71986785D01*
X55548571Y-72701071D02*
X55405714Y-72629642D01*
X55334285Y-72486785D01*
X55334285Y-71201071D01*
X56762857Y-72701071D02*
X56762857Y-71915357D01*
X56691428Y-71772500D01*
X56548571Y-71701071D01*
X56262857Y-71701071D01*
X56120000Y-71772500D01*
X56762857Y-72629642D02*
X56620000Y-72701071D01*
X56262857Y-72701071D01*
X56120000Y-72629642D01*
X56048571Y-72486785D01*
X56048571Y-72343928D01*
X56120000Y-72201071D01*
X56262857Y-72129642D01*
X56620000Y-72129642D01*
X56762857Y-72058214D01*
X57262857Y-71701071D02*
X57834285Y-71701071D01*
X57477142Y-71201071D02*
X57477142Y-72486785D01*
X57548571Y-72629642D01*
X57691428Y-72701071D01*
X57834285Y-72701071D01*
X58905714Y-72629642D02*
X58762857Y-72701071D01*
X58477142Y-72701071D01*
X58334285Y-72629642D01*
X58262857Y-72486785D01*
X58262857Y-71915357D01*
X58334285Y-71772500D01*
X58477142Y-71701071D01*
X58762857Y-71701071D01*
X58905714Y-71772500D01*
X58977142Y-71915357D01*
X58977142Y-72058214D01*
X58262857Y-72201071D01*
X53262857Y-75116071D02*
X53262857Y-74116071D01*
X53262857Y-74258928D02*
X53334285Y-74187500D01*
X53477142Y-74116071D01*
X53691428Y-74116071D01*
X53834285Y-74187500D01*
X53905714Y-74330357D01*
X53905714Y-75116071D01*
X53905714Y-74330357D02*
X53977142Y-74187500D01*
X54120000Y-74116071D01*
X54334285Y-74116071D01*
X54477142Y-74187500D01*
X54548571Y-74330357D01*
X54548571Y-75116071D01*
X55477142Y-75116071D02*
X55334285Y-75044642D01*
X55262857Y-74973214D01*
X55191428Y-74830357D01*
X55191428Y-74401785D01*
X55262857Y-74258928D01*
X55334285Y-74187500D01*
X55477142Y-74116071D01*
X55691428Y-74116071D01*
X55834285Y-74187500D01*
X55905714Y-74258928D01*
X55977142Y-74401785D01*
X55977142Y-74830357D01*
X55905714Y-74973214D01*
X55834285Y-75044642D01*
X55691428Y-75116071D01*
X55477142Y-75116071D01*
X57262857Y-74116071D02*
X57262857Y-75116071D01*
X56620000Y-74116071D02*
X56620000Y-74901785D01*
X56691428Y-75044642D01*
X56834285Y-75116071D01*
X57048571Y-75116071D01*
X57191428Y-75044642D01*
X57262857Y-74973214D01*
X57977142Y-74116071D02*
X57977142Y-75116071D01*
X57977142Y-74258928D02*
X58048571Y-74187500D01*
X58191428Y-74116071D01*
X58405714Y-74116071D01*
X58548571Y-74187500D01*
X58620000Y-74330357D01*
X58620000Y-75116071D01*
X59120000Y-74116071D02*
X59691428Y-74116071D01*
X59334285Y-73616071D02*
X59334285Y-74901785D01*
X59405714Y-75044642D01*
X59548571Y-75116071D01*
X59691428Y-75116071D01*
X47327142Y-91911071D02*
X47327142Y-93125357D01*
X47398571Y-93268214D01*
X47470000Y-93339642D01*
X47612857Y-93411071D01*
X47898571Y-93411071D01*
X48041428Y-93339642D01*
X48112857Y-93268214D01*
X48184285Y-93125357D01*
X48184285Y-91911071D01*
X48898571Y-92411071D02*
X48898571Y-93911071D01*
X48898571Y-92482500D02*
X49041428Y-92411071D01*
X49327142Y-92411071D01*
X49470000Y-92482500D01*
X49541428Y-92553928D01*
X49612857Y-92696785D01*
X49612857Y-93125357D01*
X49541428Y-93268214D01*
X49470000Y-93339642D01*
X49327142Y-93411071D01*
X49041428Y-93411071D01*
X48898571Y-93339642D01*
X50255714Y-92411071D02*
X50255714Y-93911071D01*
X50255714Y-92482500D02*
X50398571Y-92411071D01*
X50684285Y-92411071D01*
X50827142Y-92482500D01*
X50898571Y-92553928D01*
X50970000Y-92696785D01*
X50970000Y-93125357D01*
X50898571Y-93268214D01*
X50827142Y-93339642D01*
X50684285Y-93411071D01*
X50398571Y-93411071D01*
X50255714Y-93339642D01*
X52184285Y-93339642D02*
X52041428Y-93411071D01*
X51755714Y-93411071D01*
X51612857Y-93339642D01*
X51541428Y-93196785D01*
X51541428Y-92625357D01*
X51612857Y-92482500D01*
X51755714Y-92411071D01*
X52041428Y-92411071D01*
X52184285Y-92482500D01*
X52255714Y-92625357D01*
X52255714Y-92768214D01*
X51541428Y-92911071D01*
X52898571Y-93411071D02*
X52898571Y-92411071D01*
X52898571Y-92696785D02*
X52970000Y-92553928D01*
X53041428Y-92482500D01*
X53184285Y-92411071D01*
X53327142Y-92411071D01*
X47112857Y-95826071D02*
X47112857Y-94826071D01*
X47112857Y-94968928D02*
X47184285Y-94897500D01*
X47327142Y-94826071D01*
X47541428Y-94826071D01*
X47684285Y-94897500D01*
X47755714Y-95040357D01*
X47755714Y-95826071D01*
X47755714Y-95040357D02*
X47827142Y-94897500D01*
X47970000Y-94826071D01*
X48184285Y-94826071D01*
X48327142Y-94897500D01*
X48398571Y-95040357D01*
X48398571Y-95826071D01*
X49327142Y-95826071D02*
X49184285Y-95754642D01*
X49112857Y-95683214D01*
X49041428Y-95540357D01*
X49041428Y-95111785D01*
X49112857Y-94968928D01*
X49184285Y-94897500D01*
X49327142Y-94826071D01*
X49541428Y-94826071D01*
X49684285Y-94897500D01*
X49755714Y-94968928D01*
X49827142Y-95111785D01*
X49827142Y-95540357D01*
X49755714Y-95683214D01*
X49684285Y-95754642D01*
X49541428Y-95826071D01*
X49327142Y-95826071D01*
X51112857Y-94826071D02*
X51112857Y-95826071D01*
X50470000Y-94826071D02*
X50470000Y-95611785D01*
X50541428Y-95754642D01*
X50684285Y-95826071D01*
X50898571Y-95826071D01*
X51041428Y-95754642D01*
X51112857Y-95683214D01*
X51827142Y-94826071D02*
X51827142Y-95826071D01*
X51827142Y-94968928D02*
X51898571Y-94897500D01*
X52041428Y-94826071D01*
X52255714Y-94826071D01*
X52398571Y-94897500D01*
X52470000Y-95040357D01*
X52470000Y-95826071D01*
X52970000Y-94826071D02*
X53541428Y-94826071D01*
X53184285Y-94326071D02*
X53184285Y-95611785D01*
X53255714Y-95754642D01*
X53398571Y-95826071D01*
X53541428Y-95826071D01*
X123201428Y-133888571D02*
X123201428Y-135102857D01*
X123272857Y-135245714D01*
X123344285Y-135317142D01*
X123487142Y-135388571D01*
X123772857Y-135388571D01*
X123915714Y-135317142D01*
X123987142Y-135245714D01*
X124058571Y-135102857D01*
X124058571Y-133888571D01*
X124772857Y-134388571D02*
X124772857Y-135888571D01*
X124772857Y-134460000D02*
X124915714Y-134388571D01*
X125201428Y-134388571D01*
X125344285Y-134460000D01*
X125415714Y-134531428D01*
X125487142Y-134674285D01*
X125487142Y-135102857D01*
X125415714Y-135245714D01*
X125344285Y-135317142D01*
X125201428Y-135388571D01*
X124915714Y-135388571D01*
X124772857Y-135317142D01*
X126130000Y-134388571D02*
X126130000Y-135888571D01*
X126130000Y-134460000D02*
X126272857Y-134388571D01*
X126558571Y-134388571D01*
X126701428Y-134460000D01*
X126772857Y-134531428D01*
X126844285Y-134674285D01*
X126844285Y-135102857D01*
X126772857Y-135245714D01*
X126701428Y-135317142D01*
X126558571Y-135388571D01*
X126272857Y-135388571D01*
X126130000Y-135317142D01*
X128058571Y-135317142D02*
X127915714Y-135388571D01*
X127630000Y-135388571D01*
X127487142Y-135317142D01*
X127415714Y-135174285D01*
X127415714Y-134602857D01*
X127487142Y-134460000D01*
X127630000Y-134388571D01*
X127915714Y-134388571D01*
X128058571Y-134460000D01*
X128130000Y-134602857D01*
X128130000Y-134745714D01*
X127415714Y-134888571D01*
X128772857Y-135388571D02*
X128772857Y-134388571D01*
X128772857Y-134674285D02*
X128844285Y-134531428D01*
X128915714Y-134460000D01*
X129058571Y-134388571D01*
X129201428Y-134388571D01*
X130844285Y-135388571D02*
X130844285Y-134388571D01*
X130844285Y-134531428D02*
X130915714Y-134460000D01*
X131058571Y-134388571D01*
X131272857Y-134388571D01*
X131415714Y-134460000D01*
X131487142Y-134602857D01*
X131487142Y-135388571D01*
X131487142Y-134602857D02*
X131558571Y-134460000D01*
X131701428Y-134388571D01*
X131915714Y-134388571D01*
X132058571Y-134460000D01*
X132130000Y-134602857D01*
X132130000Y-135388571D01*
X133058571Y-135388571D02*
X132915714Y-135317142D01*
X132844285Y-135245714D01*
X132772857Y-135102857D01*
X132772857Y-134674285D01*
X132844285Y-134531428D01*
X132915714Y-134460000D01*
X133058571Y-134388571D01*
X133272857Y-134388571D01*
X133415714Y-134460000D01*
X133487142Y-134531428D01*
X133558571Y-134674285D01*
X133558571Y-135102857D01*
X133487142Y-135245714D01*
X133415714Y-135317142D01*
X133272857Y-135388571D01*
X133058571Y-135388571D01*
X134844285Y-134388571D02*
X134844285Y-135388571D01*
X134201428Y-134388571D02*
X134201428Y-135174285D01*
X134272857Y-135317142D01*
X134415714Y-135388571D01*
X134630000Y-135388571D01*
X134772857Y-135317142D01*
X134844285Y-135245714D01*
X135558571Y-134388571D02*
X135558571Y-135388571D01*
X135558571Y-134531428D02*
X135630000Y-134460000D01*
X135772857Y-134388571D01*
X135987142Y-134388571D01*
X136130000Y-134460000D01*
X136201428Y-134602857D01*
X136201428Y-135388571D01*
X136701428Y-134388571D02*
X137272857Y-134388571D01*
X136915714Y-133888571D02*
X136915714Y-135174285D01*
X136987142Y-135317142D01*
X137130000Y-135388571D01*
X137272857Y-135388571D01*
D11*
X95022857Y-72685714D02*
X95022857Y-73495238D01*
X94999047Y-73590476D01*
X94975238Y-73638095D01*
X94927619Y-73685714D01*
X94856190Y-73685714D01*
X94808571Y-73638095D01*
X95022857Y-73304761D02*
X94975238Y-73352380D01*
X94880000Y-73352380D01*
X94832380Y-73304761D01*
X94808571Y-73257142D01*
X94784761Y-73161904D01*
X94784761Y-72876190D01*
X94808571Y-72780952D01*
X94832380Y-72733333D01*
X94880000Y-72685714D01*
X94975238Y-72685714D01*
X95022857Y-72733333D01*
X95260952Y-73352380D02*
X95260952Y-72685714D01*
X95260952Y-72352380D02*
X95237142Y-72400000D01*
X95260952Y-72447619D01*
X95284761Y-72400000D01*
X95260952Y-72352380D01*
X95260952Y-72447619D01*
X95427619Y-72685714D02*
X95618095Y-72685714D01*
X95499047Y-72352380D02*
X95499047Y-73209523D01*
X95522857Y-73304761D01*
X95570476Y-73352380D01*
X95618095Y-73352380D01*
X95784761Y-73352380D02*
X95784761Y-72352380D01*
X95999047Y-73352380D02*
X95999047Y-72828571D01*
X95975238Y-72733333D01*
X95927619Y-72685714D01*
X95856190Y-72685714D01*
X95808571Y-72733333D01*
X95784761Y-72780952D01*
X96451428Y-72685714D02*
X96451428Y-73352380D01*
X96237142Y-72685714D02*
X96237142Y-73209523D01*
X96260952Y-73304761D01*
X96308571Y-73352380D01*
X96380000Y-73352380D01*
X96427619Y-73304761D01*
X96451428Y-73257142D01*
X96689523Y-73352380D02*
X96689523Y-72352380D01*
X96689523Y-72733333D02*
X96737142Y-72685714D01*
X96832380Y-72685714D01*
X96880000Y-72733333D01*
X96903809Y-72780952D01*
X96927619Y-72876190D01*
X96927619Y-73161904D01*
X96903809Y-73257142D01*
X96880000Y-73304761D01*
X96832380Y-73352380D01*
X96737142Y-73352380D01*
X96689523Y-73304761D01*
X97141904Y-73257142D02*
X97165714Y-73304761D01*
X97141904Y-73352380D01*
X97118095Y-73304761D01*
X97141904Y-73257142D01*
X97141904Y-73352380D01*
X97594285Y-73304761D02*
X97546666Y-73352380D01*
X97451428Y-73352380D01*
X97403809Y-73304761D01*
X97380000Y-73257142D01*
X97356190Y-73161904D01*
X97356190Y-72876190D01*
X97380000Y-72780952D01*
X97403809Y-72733333D01*
X97451428Y-72685714D01*
X97546666Y-72685714D01*
X97594285Y-72733333D01*
X97880000Y-73352380D02*
X97832380Y-73304761D01*
X97808571Y-73257142D01*
X97784761Y-73161904D01*
X97784761Y-72876190D01*
X97808571Y-72780952D01*
X97832380Y-72733333D01*
X97880000Y-72685714D01*
X97951428Y-72685714D01*
X97999047Y-72733333D01*
X98022857Y-72780952D01*
X98046666Y-72876190D01*
X98046666Y-73161904D01*
X98022857Y-73257142D01*
X97999047Y-73304761D01*
X97951428Y-73352380D01*
X97880000Y-73352380D01*
X98260952Y-73352380D02*
X98260952Y-72685714D01*
X98260952Y-72780952D02*
X98284761Y-72733333D01*
X98332380Y-72685714D01*
X98403809Y-72685714D01*
X98451428Y-72733333D01*
X98475238Y-72828571D01*
X98475238Y-73352380D01*
X98475238Y-72828571D02*
X98499047Y-72733333D01*
X98546666Y-72685714D01*
X98618095Y-72685714D01*
X98665714Y-72733333D01*
X98689523Y-72828571D01*
X98689523Y-73352380D01*
X99284761Y-72304761D02*
X98856190Y-73590476D01*
X99665714Y-73352380D02*
X99665714Y-72352380D01*
X99665714Y-73304761D02*
X99618095Y-73352380D01*
X99522857Y-73352380D01*
X99475238Y-73304761D01*
X99451428Y-73257142D01*
X99427619Y-73161904D01*
X99427619Y-72876190D01*
X99451428Y-72780952D01*
X99475238Y-72733333D01*
X99522857Y-72685714D01*
X99618095Y-72685714D01*
X99665714Y-72733333D01*
X100094285Y-73304761D02*
X100046666Y-73352380D01*
X99951428Y-73352380D01*
X99903809Y-73304761D01*
X99880000Y-73209523D01*
X99880000Y-72828571D01*
X99903809Y-72733333D01*
X99951428Y-72685714D01*
X100046666Y-72685714D01*
X100094285Y-72733333D01*
X100118095Y-72828571D01*
X100118095Y-72923809D01*
X99880000Y-73019047D01*
X100332380Y-73352380D02*
X100332380Y-72685714D01*
X100332380Y-72876190D02*
X100356190Y-72780952D01*
X100380000Y-72733333D01*
X100427619Y-72685714D01*
X100475238Y-72685714D01*
X100832380Y-73304761D02*
X100784761Y-73352380D01*
X100689523Y-73352380D01*
X100641904Y-73304761D01*
X100618095Y-73209523D01*
X100618095Y-72828571D01*
X100641904Y-72733333D01*
X100689523Y-72685714D01*
X100784761Y-72685714D01*
X100832380Y-72733333D01*
X100856190Y-72828571D01*
X100856190Y-72923809D01*
X100618095Y-73019047D01*
X101070476Y-73352380D02*
X101070476Y-72352380D01*
X101118095Y-72971428D02*
X101260952Y-73352380D01*
X101260952Y-72685714D02*
X101070476Y-73066666D01*
X101403809Y-72685714D02*
X101594285Y-72685714D01*
X101475238Y-73352380D02*
X101475238Y-72495238D01*
X101499047Y-72400000D01*
X101546666Y-72352380D01*
X101594285Y-72352380D01*
X101832380Y-73352380D02*
X101784761Y-73304761D01*
X101760952Y-73257142D01*
X101737142Y-73161904D01*
X101737142Y-72876190D01*
X101760952Y-72780952D01*
X101784761Y-72733333D01*
X101832380Y-72685714D01*
X101903809Y-72685714D01*
X101951428Y-72733333D01*
X101975238Y-72780952D01*
X101999047Y-72876190D01*
X101999047Y-73161904D01*
X101975238Y-73257142D01*
X101951428Y-73304761D01*
X101903809Y-73352380D01*
X101832380Y-73352380D01*
X102427619Y-72685714D02*
X102427619Y-73352380D01*
X102213333Y-72685714D02*
X102213333Y-73209523D01*
X102237142Y-73304761D01*
X102284761Y-73352380D01*
X102356190Y-73352380D01*
X102403809Y-73304761D01*
X102427619Y-73257142D01*
X102665714Y-72685714D02*
X102665714Y-73352380D01*
X102665714Y-72780952D02*
X102689523Y-72733333D01*
X102737142Y-72685714D01*
X102808571Y-72685714D01*
X102856190Y-72733333D01*
X102880000Y-72828571D01*
X102880000Y-73352380D01*
X103046666Y-72685714D02*
X103237142Y-72685714D01*
X103118095Y-72352380D02*
X103118095Y-73209523D01*
X103141904Y-73304761D01*
X103189523Y-73352380D01*
X103237142Y-73352380D01*
X103618095Y-73352380D02*
X103618095Y-72828571D01*
X103594285Y-72733333D01*
X103546666Y-72685714D01*
X103451428Y-72685714D01*
X103403809Y-72733333D01*
X103618095Y-73304761D02*
X103570476Y-73352380D01*
X103451428Y-73352380D01*
X103403809Y-73304761D01*
X103380000Y-73209523D01*
X103380000Y-73114285D01*
X103403809Y-73019047D01*
X103451428Y-72971428D01*
X103570476Y-72971428D01*
X103618095Y-72923809D01*
X103856190Y-73352380D02*
X103856190Y-72685714D01*
X103856190Y-72352380D02*
X103832380Y-72400000D01*
X103856190Y-72447619D01*
X103880000Y-72400000D01*
X103856190Y-72352380D01*
X103856190Y-72447619D01*
X104094285Y-72685714D02*
X104094285Y-73352380D01*
X104094285Y-72780952D02*
X104118095Y-72733333D01*
X104165714Y-72685714D01*
X104237142Y-72685714D01*
X104284761Y-72733333D01*
X104308571Y-72828571D01*
X104308571Y-73352380D01*
X104903809Y-72304761D02*
X104475238Y-73590476D01*
X105022857Y-72685714D02*
X105284761Y-72685714D01*
X105022857Y-73352380D01*
X105284761Y-73352380D01*
X105427619Y-73352380D02*
X105689523Y-72685714D01*
X105427619Y-72685714D02*
X105689523Y-73352380D01*
X105880000Y-72971428D02*
X106260952Y-72971428D01*
X106475238Y-73304761D02*
X106522857Y-73352380D01*
X106618095Y-73352380D01*
X106665714Y-73304761D01*
X106689523Y-73209523D01*
X106689523Y-73161904D01*
X106665714Y-73066666D01*
X106618095Y-73019047D01*
X106546666Y-73019047D01*
X106499047Y-72971428D01*
X106475238Y-72876190D01*
X106475238Y-72828571D01*
X106499047Y-72733333D01*
X106546666Y-72685714D01*
X106618095Y-72685714D01*
X106665714Y-72733333D01*
X106903809Y-72685714D02*
X106903809Y-73685714D01*
X106903809Y-72733333D02*
X106951428Y-72685714D01*
X107046666Y-72685714D01*
X107094285Y-72733333D01*
X107118095Y-72780952D01*
X107141904Y-72876190D01*
X107141904Y-73161904D01*
X107118095Y-73257142D01*
X107094285Y-73304761D01*
X107046666Y-73352380D01*
X106951428Y-73352380D01*
X106903809Y-73304761D01*
X107546666Y-73304761D02*
X107499047Y-73352380D01*
X107403809Y-73352380D01*
X107356190Y-73304761D01*
X107332380Y-73209523D01*
X107332380Y-72828571D01*
X107356190Y-72733333D01*
X107403809Y-72685714D01*
X107499047Y-72685714D01*
X107546666Y-72733333D01*
X107570476Y-72828571D01*
X107570476Y-72923809D01*
X107332380Y-73019047D01*
X107999047Y-73304761D02*
X107951428Y-73352380D01*
X107856190Y-73352380D01*
X107808571Y-73304761D01*
X107784761Y-73257142D01*
X107760952Y-73161904D01*
X107760952Y-72876190D01*
X107784761Y-72780952D01*
X107808571Y-72733333D01*
X107856190Y-72685714D01*
X107951428Y-72685714D01*
X107999047Y-72733333D01*
X108141904Y-72685714D02*
X108332380Y-72685714D01*
X108213333Y-72352380D02*
X108213333Y-73209523D01*
X108237142Y-73304761D01*
X108284761Y-73352380D01*
X108332380Y-73352380D01*
X108499047Y-73352380D02*
X108499047Y-72685714D01*
X108499047Y-72876190D02*
X108522857Y-72780952D01*
X108546666Y-72733333D01*
X108594285Y-72685714D01*
X108641904Y-72685714D01*
X109022857Y-72685714D02*
X109022857Y-73352380D01*
X108808571Y-72685714D02*
X108808571Y-73209523D01*
X108832380Y-73304761D01*
X108880000Y-73352380D01*
X108951428Y-73352380D01*
X108999047Y-73304761D01*
X109022857Y-73257142D01*
X109260952Y-73352380D02*
X109260952Y-72685714D01*
X109260952Y-72780952D02*
X109284761Y-72733333D01*
X109332380Y-72685714D01*
X109403809Y-72685714D01*
X109451428Y-72733333D01*
X109475238Y-72828571D01*
X109475238Y-73352380D01*
X109475238Y-72828571D02*
X109499047Y-72733333D01*
X109546666Y-72685714D01*
X109618095Y-72685714D01*
X109665714Y-72733333D01*
X109689523Y-72828571D01*
X109689523Y-73352380D01*
X109927619Y-72971428D02*
X110308571Y-72971428D01*
X110546666Y-72685714D02*
X110546666Y-73685714D01*
X110546666Y-72733333D02*
X110594285Y-72685714D01*
X110689523Y-72685714D01*
X110737142Y-72733333D01*
X110760952Y-72780952D01*
X110784761Y-72876190D01*
X110784761Y-73161904D01*
X110760952Y-73257142D01*
X110737142Y-73304761D01*
X110689523Y-73352380D01*
X110594285Y-73352380D01*
X110546666Y-73304761D01*
X110999047Y-73352380D02*
X110999047Y-72685714D01*
X110999047Y-72352380D02*
X110975238Y-72400000D01*
X110999047Y-72447619D01*
X111022857Y-72400000D01*
X110999047Y-72352380D01*
X110999047Y-72447619D01*
X111451428Y-73304761D02*
X111403809Y-73352380D01*
X111308571Y-73352380D01*
X111260952Y-73304761D01*
X111237142Y-73257142D01*
X111213333Y-73161904D01*
X111213333Y-72876190D01*
X111237142Y-72780952D01*
X111260952Y-72733333D01*
X111308571Y-72685714D01*
X111403809Y-72685714D01*
X111451428Y-72733333D01*
X111737142Y-73352380D02*
X111689523Y-73304761D01*
X111665714Y-73257142D01*
X111641904Y-73161904D01*
X111641904Y-72876190D01*
X111665714Y-72780952D01*
X111689523Y-72733333D01*
X111737142Y-72685714D01*
X111808571Y-72685714D01*
X111856190Y-72733333D01*
X111880000Y-72780952D01*
X111903809Y-72876190D01*
X111903809Y-73161904D01*
X111880000Y-73257142D01*
X111856190Y-73304761D01*
X111808571Y-73352380D01*
X111737142Y-73352380D01*
X112118095Y-72971428D02*
X112499047Y-72971428D01*
X112737142Y-73352380D02*
X112737142Y-72685714D01*
X112737142Y-72352380D02*
X112713333Y-72400000D01*
X112737142Y-72447619D01*
X112760952Y-72400000D01*
X112737142Y-72352380D01*
X112737142Y-72447619D01*
X112903809Y-72685714D02*
X113094285Y-72685714D01*
X112975238Y-73352380D02*
X112975238Y-72495238D01*
X112999047Y-72400000D01*
X113046666Y-72352380D01*
X113094285Y-72352380D01*
X113522857Y-73352380D02*
X113237142Y-73352380D01*
X113380000Y-73352380D02*
X113380000Y-72352380D01*
X113332380Y-72495238D01*
X113284761Y-72590476D01*
X113237142Y-72638095D01*
X114070476Y-72685714D02*
X114189523Y-73352380D01*
X114308571Y-72685714D01*
X114760952Y-73352380D02*
X114475238Y-73352380D01*
X114618095Y-73352380D02*
X114618095Y-72352380D01*
X114570476Y-72495238D01*
X114522857Y-72590476D01*
X114475238Y-72638095D01*
X114975238Y-73257142D02*
X114999047Y-73304761D01*
X114975238Y-73352380D01*
X114951428Y-73304761D01*
X114975238Y-73257142D01*
X114975238Y-73352380D01*
X115427619Y-72685714D02*
X115427619Y-73352380D01*
X115308571Y-72304761D02*
X115189523Y-73019047D01*
X115499047Y-73019047D01*
D12*
X111710000Y-79310000D02*
G75*
G03*
X111710000Y-79310000I-1200000J0D01*
G01*
X120440000Y-79310000D02*
G75*
G03*
X120440000Y-79310000I-1200000J0D01*
G01*
X63255000Y-124385428D02*
X63255000Y-124541428D01*
X63255000Y-126701428D02*
X63255000Y-126857428D01*
X65856130Y-124541591D02*
G75*
G03*
X63774039Y-124541428I-1041130J-1079837D01*
G01*
X63255000Y-126856944D02*
G75*
G03*
X66487335Y-126700036I1560000J1235516D01*
G01*
X63774039Y-126701428D02*
G75*
G03*
X65856130Y-126701265I1040961J1080000D01*
G01*
X66487335Y-124542820D02*
G75*
G03*
X63255000Y-124385912I-1672335J-1078608D01*
G01*
X97450000Y-136940000D02*
X97450000Y-141440000D01*
X103950000Y-141440000D02*
X103950000Y-136940000D01*
X101450000Y-135690000D02*
X99950000Y-135690000D01*
X99950000Y-142690000D02*
X101450000Y-142690000D01*
X97550000Y-154810000D02*
X97550000Y-159310000D01*
X104050000Y-159310000D02*
X104050000Y-154810000D01*
X101550000Y-153560000D02*
X100050000Y-153560000D01*
X100050000Y-160560000D02*
X101550000Y-160560000D01*
X125200000Y-100800000D02*
G75*
G03*
X125200000Y-100800000I-1200000J0D01*
G01*
X129380000Y-117500000D02*
X129380000Y-125180000D01*
X126720000Y-116230000D02*
X126720000Y-114900000D01*
X126720000Y-125180000D02*
X129380000Y-125180000D01*
X126720000Y-117500000D02*
X129380000Y-117500000D01*
X126720000Y-114900000D02*
X128050000Y-114900000D01*
X126720000Y-117500000D02*
X126720000Y-125180000D01*
X84475000Y-99910000D02*
X85805000Y-99910000D01*
X83205000Y-102570000D02*
X60285000Y-102570000D01*
X83205000Y-99910000D02*
X60285000Y-99910000D01*
X85805000Y-99910000D02*
X85805000Y-101240000D01*
X83205000Y-99910000D02*
X83205000Y-102570000D01*
X60285000Y-99910000D02*
X60285000Y-102570000D01*
X134020000Y-76210000D02*
X134020000Y-88970000D01*
X134020000Y-74940000D02*
X134020000Y-73610000D01*
X134020000Y-73610000D02*
X135350000Y-73610000D01*
X134020000Y-76210000D02*
X136680000Y-76210000D01*
X134020000Y-88970000D02*
X136680000Y-88970000D01*
X136680000Y-76210000D02*
X136680000Y-88970000D01*
X63255000Y-81934000D02*
X63255000Y-82090000D01*
X63255000Y-84250000D02*
X63255000Y-84406000D01*
X65856130Y-82090163D02*
G75*
G03*
X63774039Y-82090000I-1041130J-1079837D01*
G01*
X63255000Y-84405516D02*
G75*
G03*
X66487335Y-84248608I1560000J1235516D01*
G01*
X63774039Y-84250000D02*
G75*
G03*
X65856130Y-84249837I1040961J1080000D01*
G01*
X66487335Y-82091392D02*
G75*
G03*
X63255000Y-81934484I-1672335J-1078608D01*
G01*
X63255000Y-92546857D02*
X63255000Y-92702857D01*
X63255000Y-94862857D02*
X63255000Y-95018857D01*
X65856130Y-92703020D02*
G75*
G03*
X63774039Y-92702857I-1041130J-1079837D01*
G01*
X63255000Y-95018373D02*
G75*
G03*
X66487335Y-94861465I1560000J1235516D01*
G01*
X63774039Y-94862857D02*
G75*
G03*
X65856130Y-94862694I1040961J1080000D01*
G01*
X66487335Y-92704249D02*
G75*
G03*
X63255000Y-92547341I-1672335J-1078608D01*
G01*
X63255000Y-103159714D02*
X63255000Y-103315714D01*
X63255000Y-105475714D02*
X63255000Y-105631714D01*
X65856130Y-103315877D02*
G75*
G03*
X63774039Y-103315714I-1041130J-1079837D01*
G01*
X63255000Y-105631230D02*
G75*
G03*
X66487335Y-105474322I1560000J1235516D01*
G01*
X63774039Y-105475714D02*
G75*
G03*
X65856130Y-105475551I1040961J1080000D01*
G01*
X66487335Y-103317106D02*
G75*
G03*
X63255000Y-103160198I-1672335J-1078608D01*
G01*
X63255000Y-113772571D02*
X63255000Y-113928571D01*
X63255000Y-116088571D02*
X63255000Y-116244571D01*
X65856130Y-113928734D02*
G75*
G03*
X63774039Y-113928571I-1041130J-1079837D01*
G01*
X63255000Y-116244087D02*
G75*
G03*
X66487335Y-116087179I1560000J1235516D01*
G01*
X63774039Y-116088571D02*
G75*
G03*
X65856130Y-116088408I1040961J1080000D01*
G01*
X66487335Y-113929963D02*
G75*
G03*
X63255000Y-113773055I-1672335J-1078608D01*
G01*
X63255000Y-134998285D02*
X63255000Y-135154285D01*
X63255000Y-137314285D02*
X63255000Y-137470285D01*
X65856130Y-135154448D02*
G75*
G03*
X63774039Y-135154285I-1041130J-1079837D01*
G01*
X63255000Y-137469801D02*
G75*
G03*
X66487335Y-137312893I1560000J1235516D01*
G01*
X63774039Y-137314285D02*
G75*
G03*
X65856130Y-137314122I1040961J1080000D01*
G01*
X66487335Y-135155677D02*
G75*
G03*
X63255000Y-134998769I-1672335J-1078608D01*
G01*
X63255000Y-145611142D02*
X63255000Y-145767142D01*
X63255000Y-147927142D02*
X63255000Y-148083142D01*
X65856130Y-145767305D02*
G75*
G03*
X63774039Y-145767142I-1041130J-1079837D01*
G01*
X63255000Y-148082658D02*
G75*
G03*
X66487335Y-147925750I1560000J1235516D01*
G01*
X63774039Y-147927142D02*
G75*
G03*
X65856130Y-147926979I1040961J1080000D01*
G01*
X66487335Y-145768534D02*
G75*
G03*
X63255000Y-145611626I-1672335J-1078608D01*
G01*
X66487335Y-156381392D02*
G75*
G03*
X63255000Y-156224484I-1672335J-1078608D01*
G01*
X63774039Y-158540000D02*
G75*
G03*
X65856130Y-158539837I1040961J1080000D01*
G01*
X63255000Y-158695516D02*
G75*
G03*
X66487335Y-158538608I1560000J1235516D01*
G01*
X65856130Y-156380163D02*
G75*
G03*
X63774039Y-156380000I-1041130J-1079837D01*
G01*
X63255000Y-158540000D02*
X63255000Y-158696000D01*
X63255000Y-156224000D02*
X63255000Y-156380000D01*
X105520000Y-169370000D02*
X105520000Y-168040000D01*
X106850000Y-169370000D02*
X105520000Y-169370000D01*
X108120000Y-169370000D02*
X108120000Y-166710000D01*
X108120000Y-169370000D02*
X113260000Y-169370000D01*
X108120000Y-166710000D02*
X113260000Y-166710000D01*
X113260000Y-169370000D02*
X113260000Y-166710000D01*
%LPC*%
D13*
X130060000Y-139450113D03*
X56460000Y-89350113D03*
D14*
X110510000Y-79310000D03*
X119240000Y-79310000D03*
D15*
X88220000Y-148460000D03*
D16*
X63545000Y-125621428D03*
D17*
X66085000Y-125621428D03*
D13*
X73030000Y-161302856D03*
X56590000Y-79052856D03*
X56610000Y-161242856D03*
X72990000Y-79110000D03*
D14*
X102950000Y-135940000D03*
X102950000Y-142440000D03*
X98450000Y-142440000D03*
X98450000Y-135940000D03*
X103050000Y-153810000D03*
X103050000Y-160310000D03*
X98550000Y-160310000D03*
X98550000Y-153810000D03*
X124000000Y-100800000D03*
D18*
X128050000Y-116230000D03*
D19*
X128050000Y-118770000D03*
X128050000Y-121310000D03*
X128050000Y-123850000D03*
X61615000Y-101240000D03*
X64155000Y-101240000D03*
X66695000Y-101240000D03*
X69235000Y-101240000D03*
X71775000Y-101240000D03*
X74315000Y-101240000D03*
X76855000Y-101240000D03*
X79395000Y-101240000D03*
X81935000Y-101240000D03*
D18*
X84475000Y-101240000D03*
X135350000Y-74940000D03*
D19*
X135350000Y-77480000D03*
X135350000Y-80020000D03*
X135350000Y-82560000D03*
X135350000Y-85100000D03*
X135350000Y-87640000D03*
D16*
X63545000Y-83170000D03*
D17*
X66085000Y-83170000D03*
D16*
X63545000Y-93782857D03*
D17*
X66085000Y-93782857D03*
D16*
X63545000Y-104395714D03*
D17*
X66085000Y-104395714D03*
D16*
X63545000Y-115008571D03*
D17*
X66085000Y-115008571D03*
D16*
X63545000Y-136234285D03*
D17*
X66085000Y-136234285D03*
D16*
X63545000Y-146847142D03*
D17*
X66085000Y-146847142D03*
X66085000Y-157460000D03*
D16*
X63545000Y-157460000D03*
D18*
X106850000Y-168040000D03*
D19*
X109390000Y-168040000D03*
X111930000Y-168040000D03*
M02*
