G04 #@! TF.GenerationSoftware,KiCad,Pcbnew,6.0.11-2627ca5db0~126~ubuntu22.04.1*
G04 #@! TF.CreationDate,2023-06-25T15:34:26+01:00*
G04 #@! TF.ProjectId,ui_daughterboard,75695f64-6175-4676-9874-6572626f6172,rev?*
G04 #@! TF.SameCoordinates,Original*
G04 #@! TF.FileFunction,Copper,L1,Top*
G04 #@! TF.FilePolarity,Positive*
%FSLAX46Y46*%
G04 Gerber Fmt 4.6, Leading zero omitted, Abs format (unit mm)*
G04 Created by KiCad (PCBNEW 6.0.11-2627ca5db0~126~ubuntu22.04.1) date 2023-06-25 15:34:26*
%MOMM*%
%LPD*%
G01*
G04 APERTURE LIST*
G04 #@! TA.AperFunction,ComponentPad*
%ADD10C,2.000000*%
G04 #@! TD*
G04 #@! TA.AperFunction,ComponentPad*
%ADD11R,1.800000X1.800000*%
G04 #@! TD*
G04 #@! TA.AperFunction,ComponentPad*
%ADD12C,1.800000*%
G04 #@! TD*
G04 #@! TA.AperFunction,ComponentPad*
%ADD13R,1.700000X1.700000*%
G04 #@! TD*
G04 #@! TA.AperFunction,ComponentPad*
%ADD14O,1.700000X1.700000*%
G04 #@! TD*
G04 #@! TA.AperFunction,ViaPad*
%ADD15C,0.800000*%
G04 #@! TD*
G04 #@! TA.AperFunction,Conductor*
%ADD16C,0.250000*%
G04 #@! TD*
G04 #@! TA.AperFunction,Conductor*
%ADD17C,0.750000*%
G04 #@! TD*
G04 APERTURE END LIST*
D10*
X110510000Y-79310000D03*
X119240000Y-79310000D03*
D11*
X63545000Y-125621428D03*
D12*
X66085000Y-125621428D03*
D10*
X102950000Y-135940000D03*
X102950000Y-142440000D03*
X98450000Y-142440000D03*
X98450000Y-135940000D03*
X103050000Y-153810000D03*
X103050000Y-160310000D03*
X98550000Y-160310000D03*
X98550000Y-153810000D03*
X124000000Y-100800000D03*
D13*
X128050000Y-116230000D03*
D14*
X128050000Y-118770000D03*
X128050000Y-121310000D03*
X128050000Y-123850000D03*
X61615000Y-101240000D03*
X64155000Y-101240000D03*
X66695000Y-101240000D03*
X69235000Y-101240000D03*
X71775000Y-101240000D03*
X74315000Y-101240000D03*
X76855000Y-101240000D03*
X79395000Y-101240000D03*
X81935000Y-101240000D03*
D13*
X84475000Y-101240000D03*
X135350000Y-74940000D03*
D14*
X135350000Y-77480000D03*
X135350000Y-80020000D03*
X135350000Y-82560000D03*
X135350000Y-85100000D03*
X135350000Y-87640000D03*
D11*
X63545000Y-83170000D03*
D12*
X66085000Y-83170000D03*
D11*
X63545000Y-93782857D03*
D12*
X66085000Y-93782857D03*
D11*
X63545000Y-104395714D03*
D12*
X66085000Y-104395714D03*
D11*
X63545000Y-115008571D03*
D12*
X66085000Y-115008571D03*
D11*
X63545000Y-136234285D03*
D12*
X66085000Y-136234285D03*
D11*
X63545000Y-146847142D03*
D12*
X66085000Y-146847142D03*
X66085000Y-157460000D03*
D11*
X63545000Y-157460000D03*
D13*
X106850000Y-168040000D03*
D14*
X109390000Y-168040000D03*
X111930000Y-168040000D03*
D15*
X128050000Y-79290000D03*
X143170000Y-77500000D03*
X143050000Y-118760000D03*
X141110000Y-80030000D03*
X141060000Y-121210000D03*
X139370000Y-82500000D03*
X139380000Y-123740000D03*
X115390000Y-116270000D03*
X115390000Y-135900000D03*
X98380000Y-87680000D03*
X98610000Y-148480000D03*
X108720000Y-85050000D03*
X108680000Y-148460000D03*
D16*
X84475000Y-101240000D02*
X76340000Y-109375000D01*
X76340000Y-109375000D02*
X76340000Y-147205000D01*
X76340000Y-147205000D02*
X66085000Y-157460000D01*
X66085000Y-146847142D02*
X75440000Y-137492142D01*
X75440000Y-137492142D02*
X75440000Y-105195000D01*
X75440000Y-105195000D02*
X79395000Y-101240000D01*
D17*
X128050000Y-82240000D02*
X128050000Y-79290000D01*
X128050000Y-116230000D02*
X128050000Y-82240000D01*
X128050000Y-82240000D02*
X135350000Y-74940000D01*
X143050000Y-118760000D02*
X143050000Y-77620000D01*
D16*
X143050000Y-77620000D02*
X143170000Y-77500000D01*
X141060000Y-80080000D02*
X141110000Y-80030000D01*
X141060000Y-121210000D02*
X141060000Y-80080000D01*
X139380000Y-123740000D02*
X139380000Y-82510000D01*
X139380000Y-82510000D02*
X139370000Y-82500000D01*
D17*
X115390000Y-135900000D02*
X115390000Y-116270000D01*
D16*
X98450000Y-87750000D02*
X98380000Y-87680000D01*
X98450000Y-135940000D02*
X98450000Y-87750000D01*
X98450000Y-142440000D02*
X98450000Y-135940000D01*
X108680000Y-148460000D02*
X108720000Y-148420000D01*
X98550000Y-148540000D02*
X98610000Y-148480000D01*
X98550000Y-153810000D02*
X98550000Y-148540000D01*
X108720000Y-148420000D02*
X108720000Y-85050000D01*
X98550000Y-160310000D02*
X98550000Y-153810000D01*
D17*
X103050000Y-160310000D02*
X103050000Y-153810000D01*
X102950000Y-142440000D02*
X102950000Y-135940000D01*
X103050000Y-153810000D02*
X103050000Y-142540000D01*
D16*
X74315000Y-101240000D02*
X74315000Y-128004285D01*
X74315000Y-128004285D02*
X66085000Y-136234285D01*
X69235000Y-101240000D02*
X69235000Y-122471428D01*
X69235000Y-122471428D02*
X66085000Y-125621428D01*
X66695000Y-101240000D02*
X67545000Y-102090000D01*
X67545000Y-102090000D02*
X67545000Y-113548571D01*
X67545000Y-113548571D02*
X66085000Y-115008571D01*
X66085000Y-93782857D02*
X69397857Y-93782857D01*
X69397857Y-93782857D02*
X76855000Y-101240000D01*
X66085000Y-83170000D02*
X66085000Y-85390000D01*
X66085000Y-85390000D02*
X81935000Y-101240000D01*
X63545000Y-146847142D02*
X63545000Y-157460000D01*
X63545000Y-136234285D02*
X63545000Y-146847142D01*
X63545000Y-125621428D02*
X63545000Y-136234285D01*
X63545000Y-115008571D02*
X63545000Y-125621428D01*
X63545000Y-104395714D02*
X63545000Y-115008571D01*
X61615000Y-101240000D02*
X61615000Y-102465714D01*
X61615000Y-102465714D02*
X63545000Y-104395714D01*
X63545000Y-93782857D02*
X63545000Y-99310000D01*
X63545000Y-99310000D02*
X61615000Y-101240000D01*
X63545000Y-83170000D02*
X63545000Y-93782857D01*
M02*
