%TF.GenerationSoftware,KiCad,Pcbnew,6.0.11-2627ca5db0~126~ubuntu22.04.1*%
%TF.CreationDate,2023-06-25T15:34:46+01:00*%
%TF.ProjectId,ui_daughterboard,75695f64-6175-4676-9874-6572626f6172,rev?*%
%TF.SameCoordinates,Original*%
%TF.FileFunction,Drillmap*%
%TF.FilePolarity,Positive*%
%FSLAX45Y45*%
G04 Gerber Fmt 4.5, Leading zero omitted, Abs format (unit mm)*
G04 Created by KiCad (PCBNEW 6.0.11-2627ca5db0~126~ubuntu22.04.1) date 2023-06-25 15:34:46*
%MOMM*%
%LPD*%
G01*
G04 APERTURE LIST*
%ADD10C,0.150000*%
%ADD11C,0.100000*%
%ADD12C,0.200000*%
%ADD13C,0.040000*%
%ADD14C,0.090000*%
%ADD15C,0.110000*%
G04 APERTURE END LIST*
D10*
X7795000Y-11274000D02*
X8545000Y-11274000D01*
X8545000Y-11274000D02*
X8545000Y-12274000D01*
X8545000Y-12274000D02*
X7795000Y-12274000D01*
X7795000Y-12274000D02*
X7795000Y-11274000D01*
X7795000Y-8024000D02*
X8545000Y-8024000D01*
X8545000Y-8024000D02*
X8545000Y-9024000D01*
X8545000Y-9024000D02*
X7795000Y-9024000D01*
X7795000Y-9024000D02*
X7795000Y-8024000D01*
D11*
X14538000Y-7022000D02*
X14537000Y-14478000D01*
X4541000Y-17006000D02*
X4543000Y-7021000D01*
X14537000Y-14478000D02*
X11496000Y-14478000D01*
X4543000Y-7021000D02*
X14538000Y-7022000D01*
X11497000Y-17006000D02*
X4541000Y-17006000D01*
X11496000Y-14478000D02*
X11497000Y-17006000D01*
D12*
D13*
X9818000Y-8748000D02*
X9858000Y-8788000D01*
X9858000Y-8748000D02*
X9818000Y-8788000D01*
X9841000Y-14828000D02*
X9881000Y-14868000D01*
X9881000Y-14828000D02*
X9841000Y-14868000D01*
X10848000Y-14826000D02*
X10888000Y-14866000D01*
X10888000Y-14826000D02*
X10848000Y-14866000D01*
X10852000Y-8485000D02*
X10892000Y-8525000D01*
X10892000Y-8485000D02*
X10852000Y-8525000D01*
X11519000Y-11607000D02*
X11559000Y-11647000D01*
X11559000Y-11607000D02*
X11519000Y-11647000D01*
X11519000Y-13570000D02*
X11559000Y-13610000D01*
X11559000Y-13570000D02*
X11519000Y-13610000D01*
X12785000Y-7909000D02*
X12825000Y-7949000D01*
X12825000Y-7909000D02*
X12785000Y-7949000D01*
X13917000Y-8230000D02*
X13957000Y-8270000D01*
X13957000Y-8230000D02*
X13917000Y-8270000D01*
X13918000Y-12354000D02*
X13958000Y-12394000D01*
X13958000Y-12354000D02*
X13918000Y-12394000D01*
X14086000Y-12101000D02*
X14126000Y-12141000D01*
X14126000Y-12101000D02*
X14086000Y-12141000D01*
X14091000Y-7983000D02*
X14131000Y-8023000D01*
X14131000Y-7983000D02*
X14091000Y-8023000D01*
X14285000Y-11856000D02*
X14325000Y-11896000D01*
X14325000Y-11856000D02*
X14285000Y-11896000D01*
X14297000Y-7730000D02*
X14337000Y-7770000D01*
X14337000Y-7730000D02*
X14297000Y-7770000D01*
D14*
X6399500Y-8317000D02*
G75*
G03*
X6399500Y-8317000I-45000J0D01*
G01*
X6399500Y-9378286D02*
G75*
G03*
X6399500Y-9378286I-45000J0D01*
G01*
X6399500Y-10439571D02*
G75*
G03*
X6399500Y-10439571I-45000J0D01*
G01*
X6399500Y-11500857D02*
G75*
G03*
X6399500Y-11500857I-45000J0D01*
G01*
X6399500Y-12562143D02*
G75*
G03*
X6399500Y-12562143I-45000J0D01*
G01*
X6399500Y-13623428D02*
G75*
G03*
X6399500Y-13623428I-45000J0D01*
G01*
X6399500Y-14684714D02*
G75*
G03*
X6399500Y-14684714I-45000J0D01*
G01*
X6399500Y-15746000D02*
G75*
G03*
X6399500Y-15746000I-45000J0D01*
G01*
X6653500Y-8317000D02*
G75*
G03*
X6653500Y-8317000I-45000J0D01*
G01*
X6653500Y-9378286D02*
G75*
G03*
X6653500Y-9378286I-45000J0D01*
G01*
X6653500Y-10439571D02*
G75*
G03*
X6653500Y-10439571I-45000J0D01*
G01*
X6653500Y-11500857D02*
G75*
G03*
X6653500Y-11500857I-45000J0D01*
G01*
X6653500Y-12562143D02*
G75*
G03*
X6653500Y-12562143I-45000J0D01*
G01*
X6653500Y-13623428D02*
G75*
G03*
X6653500Y-13623428I-45000J0D01*
G01*
X6653500Y-14684714D02*
G75*
G03*
X6653500Y-14684714I-45000J0D01*
G01*
X6653500Y-15746000D02*
G75*
G03*
X6653500Y-15746000I-45000J0D01*
G01*
D11*
X6161500Y-10074000D02*
X6161500Y-10174000D01*
X6111500Y-10124000D02*
X6211500Y-10124000D01*
X6415500Y-10074000D02*
X6415500Y-10174000D01*
X6365500Y-10124000D02*
X6465500Y-10124000D01*
X6669500Y-10074000D02*
X6669500Y-10174000D01*
X6619500Y-10124000D02*
X6719500Y-10124000D01*
X6923500Y-10074000D02*
X6923500Y-10174000D01*
X6873500Y-10124000D02*
X6973500Y-10124000D01*
X7177500Y-10074000D02*
X7177500Y-10174000D01*
X7127500Y-10124000D02*
X7227500Y-10124000D01*
X7431500Y-10074000D02*
X7431500Y-10174000D01*
X7381500Y-10124000D02*
X7481500Y-10124000D01*
X7685500Y-10074000D02*
X7685500Y-10174000D01*
X7635500Y-10124000D02*
X7735500Y-10124000D01*
X7939500Y-10074000D02*
X7939500Y-10174000D01*
X7889500Y-10124000D02*
X7989500Y-10124000D01*
X8193500Y-10074000D02*
X8193500Y-10174000D01*
X8143500Y-10124000D02*
X8243500Y-10124000D01*
X8447500Y-10074000D02*
X8447500Y-10174000D01*
X8397500Y-10124000D02*
X8497500Y-10124000D01*
X10685000Y-16754000D02*
X10685000Y-16854000D01*
X10635000Y-16804000D02*
X10735000Y-16804000D01*
X10939000Y-16754000D02*
X10939000Y-16854000D01*
X10889000Y-16804000D02*
X10989000Y-16804000D01*
X11051000Y-7881000D02*
X11051000Y-7981000D01*
X11001000Y-7931000D02*
X11101000Y-7931000D01*
X11193000Y-16754000D02*
X11193000Y-16854000D01*
X11143000Y-16804000D02*
X11243000Y-16804000D01*
X11924000Y-7881000D02*
X11924000Y-7981000D01*
X11874000Y-7931000D02*
X11974000Y-7931000D01*
X12400000Y-10030000D02*
X12400000Y-10130000D01*
X12350000Y-10080000D02*
X12450000Y-10080000D01*
X12805000Y-11573000D02*
X12805000Y-11673000D01*
X12755000Y-11623000D02*
X12855000Y-11623000D01*
X12805000Y-11827000D02*
X12805000Y-11927000D01*
X12755000Y-11877000D02*
X12855000Y-11877000D01*
X12805000Y-12081000D02*
X12805000Y-12181000D01*
X12755000Y-12131000D02*
X12855000Y-12131000D01*
X12805000Y-12335000D02*
X12805000Y-12435000D01*
X12755000Y-12385000D02*
X12855000Y-12385000D01*
X13535000Y-7444000D02*
X13535000Y-7544000D01*
X13485000Y-7494000D02*
X13585000Y-7494000D01*
X13535000Y-7698000D02*
X13535000Y-7798000D01*
X13485000Y-7748000D02*
X13585000Y-7748000D01*
X13535000Y-7952000D02*
X13535000Y-8052000D01*
X13485000Y-8002000D02*
X13585000Y-8002000D01*
X13535000Y-8206000D02*
X13535000Y-8306000D01*
X13485000Y-8256000D02*
X13585000Y-8256000D01*
X13535000Y-8460000D02*
X13535000Y-8560000D01*
X13485000Y-8510000D02*
X13585000Y-8510000D01*
X13535000Y-8714000D02*
X13535000Y-8814000D01*
X13485000Y-8764000D02*
X13585000Y-8764000D01*
D15*
X9883891Y-13632891D02*
X9883891Y-13555109D01*
X9806109Y-13555109D01*
X9806109Y-13632891D01*
X9883891Y-13632891D01*
X9883891Y-14282891D02*
X9883891Y-14205109D01*
X9806109Y-14205109D01*
X9806109Y-14282891D01*
X9883891Y-14282891D01*
X9893891Y-15419891D02*
X9893891Y-15342109D01*
X9816109Y-15342109D01*
X9816109Y-15419891D01*
X9893891Y-15419891D01*
X9893891Y-16069891D02*
X9893891Y-15992109D01*
X9816109Y-15992109D01*
X9816109Y-16069891D01*
X9893891Y-16069891D01*
X10333891Y-13632891D02*
X10333891Y-13555109D01*
X10256109Y-13555109D01*
X10256109Y-13632891D01*
X10333891Y-13632891D01*
X10333891Y-14282891D02*
X10333891Y-14205109D01*
X10256109Y-14205109D01*
X10256109Y-14282891D01*
X10333891Y-14282891D01*
X10343891Y-15419891D02*
X10343891Y-15342109D01*
X10266109Y-15342109D01*
X10266109Y-15419891D01*
X10343891Y-15419891D01*
X10343891Y-16069891D02*
X10343891Y-15992109D01*
X10266109Y-15992109D01*
X10266109Y-16069891D01*
X10343891Y-16069891D01*
D12*
X4793619Y-17321476D02*
X4793619Y-17121476D01*
X4841238Y-17121476D01*
X4869810Y-17131000D01*
X4888857Y-17150048D01*
X4898381Y-17169095D01*
X4907905Y-17207190D01*
X4907905Y-17235762D01*
X4898381Y-17273857D01*
X4888857Y-17292905D01*
X4869810Y-17311952D01*
X4841238Y-17321476D01*
X4793619Y-17321476D01*
X4993619Y-17321476D02*
X4993619Y-17188143D01*
X4993619Y-17226238D02*
X5003143Y-17207190D01*
X5012667Y-17197667D01*
X5031714Y-17188143D01*
X5050762Y-17188143D01*
X5117429Y-17321476D02*
X5117429Y-17188143D01*
X5117429Y-17121476D02*
X5107905Y-17131000D01*
X5117429Y-17140524D01*
X5126952Y-17131000D01*
X5117429Y-17121476D01*
X5117429Y-17140524D01*
X5241238Y-17321476D02*
X5222190Y-17311952D01*
X5212667Y-17292905D01*
X5212667Y-17121476D01*
X5346000Y-17321476D02*
X5326952Y-17311952D01*
X5317429Y-17292905D01*
X5317429Y-17121476D01*
X5574571Y-17321476D02*
X5574571Y-17121476D01*
X5641238Y-17264333D01*
X5707905Y-17121476D01*
X5707905Y-17321476D01*
X5888857Y-17321476D02*
X5888857Y-17216714D01*
X5879333Y-17197667D01*
X5860286Y-17188143D01*
X5822190Y-17188143D01*
X5803143Y-17197667D01*
X5888857Y-17311952D02*
X5869809Y-17321476D01*
X5822190Y-17321476D01*
X5803143Y-17311952D01*
X5793619Y-17292905D01*
X5793619Y-17273857D01*
X5803143Y-17254810D01*
X5822190Y-17245286D01*
X5869809Y-17245286D01*
X5888857Y-17235762D01*
X5984095Y-17188143D02*
X5984095Y-17388143D01*
X5984095Y-17197667D02*
X6003143Y-17188143D01*
X6041238Y-17188143D01*
X6060286Y-17197667D01*
X6069809Y-17207190D01*
X6079333Y-17226238D01*
X6079333Y-17283381D01*
X6069809Y-17302429D01*
X6060286Y-17311952D01*
X6041238Y-17321476D01*
X6003143Y-17321476D01*
X5984095Y-17311952D01*
X6165048Y-17302429D02*
X6174571Y-17311952D01*
X6165048Y-17321476D01*
X6155524Y-17311952D01*
X6165048Y-17302429D01*
X6165048Y-17321476D01*
X6165048Y-17197667D02*
X6174571Y-17207190D01*
X6165048Y-17216714D01*
X6155524Y-17207190D01*
X6165048Y-17197667D01*
X6165048Y-17216714D01*
D13*
X4496000Y-17631000D02*
X4536000Y-17671000D01*
X4536000Y-17631000D02*
X4496000Y-17671000D01*
D12*
X4831714Y-17541476D02*
X4850762Y-17541476D01*
X4869810Y-17551000D01*
X4879333Y-17560524D01*
X4888857Y-17579571D01*
X4898381Y-17617667D01*
X4898381Y-17665286D01*
X4888857Y-17703381D01*
X4879333Y-17722429D01*
X4869810Y-17731952D01*
X4850762Y-17741476D01*
X4831714Y-17741476D01*
X4812667Y-17731952D01*
X4803143Y-17722429D01*
X4793619Y-17703381D01*
X4784095Y-17665286D01*
X4784095Y-17617667D01*
X4793619Y-17579571D01*
X4803143Y-17560524D01*
X4812667Y-17551000D01*
X4831714Y-17541476D01*
X4984095Y-17722429D02*
X4993619Y-17731952D01*
X4984095Y-17741476D01*
X4974571Y-17731952D01*
X4984095Y-17722429D01*
X4984095Y-17741476D01*
X5165048Y-17608143D02*
X5165048Y-17741476D01*
X5117429Y-17531952D02*
X5069810Y-17674810D01*
X5193619Y-17674810D01*
X5307905Y-17541476D02*
X5326952Y-17541476D01*
X5346000Y-17551000D01*
X5355524Y-17560524D01*
X5365048Y-17579571D01*
X5374571Y-17617667D01*
X5374571Y-17665286D01*
X5365048Y-17703381D01*
X5355524Y-17722429D01*
X5346000Y-17731952D01*
X5326952Y-17741476D01*
X5307905Y-17741476D01*
X5288857Y-17731952D01*
X5279333Y-17722429D01*
X5269810Y-17703381D01*
X5260286Y-17665286D01*
X5260286Y-17617667D01*
X5269810Y-17579571D01*
X5279333Y-17560524D01*
X5288857Y-17551000D01*
X5307905Y-17541476D01*
X5498381Y-17541476D02*
X5517429Y-17541476D01*
X5536476Y-17551000D01*
X5546000Y-17560524D01*
X5555524Y-17579571D01*
X5565048Y-17617667D01*
X5565048Y-17665286D01*
X5555524Y-17703381D01*
X5546000Y-17722429D01*
X5536476Y-17731952D01*
X5517429Y-17741476D01*
X5498381Y-17741476D01*
X5479333Y-17731952D01*
X5469810Y-17722429D01*
X5460286Y-17703381D01*
X5450762Y-17665286D01*
X5450762Y-17617667D01*
X5460286Y-17579571D01*
X5469810Y-17560524D01*
X5479333Y-17551000D01*
X5498381Y-17541476D01*
X5650762Y-17741476D02*
X5650762Y-17608143D01*
X5650762Y-17627190D02*
X5660286Y-17617667D01*
X5679333Y-17608143D01*
X5707905Y-17608143D01*
X5726952Y-17617667D01*
X5736476Y-17636714D01*
X5736476Y-17741476D01*
X5736476Y-17636714D02*
X5746000Y-17617667D01*
X5765048Y-17608143D01*
X5793619Y-17608143D01*
X5812667Y-17617667D01*
X5822190Y-17636714D01*
X5822190Y-17741476D01*
X5917428Y-17741476D02*
X5917428Y-17608143D01*
X5917428Y-17627190D02*
X5926952Y-17617667D01*
X5946000Y-17608143D01*
X5974571Y-17608143D01*
X5993619Y-17617667D01*
X6003143Y-17636714D01*
X6003143Y-17741476D01*
X6003143Y-17636714D02*
X6012667Y-17617667D01*
X6031714Y-17608143D01*
X6060286Y-17608143D01*
X6079333Y-17617667D01*
X6088857Y-17636714D01*
X6088857Y-17741476D01*
X6479333Y-17531952D02*
X6307905Y-17789095D01*
X6736476Y-17541476D02*
X6755524Y-17541476D01*
X6774571Y-17551000D01*
X6784095Y-17560524D01*
X6793619Y-17579571D01*
X6803143Y-17617667D01*
X6803143Y-17665286D01*
X6793619Y-17703381D01*
X6784095Y-17722429D01*
X6774571Y-17731952D01*
X6755524Y-17741476D01*
X6736476Y-17741476D01*
X6717428Y-17731952D01*
X6707905Y-17722429D01*
X6698381Y-17703381D01*
X6688857Y-17665286D01*
X6688857Y-17617667D01*
X6698381Y-17579571D01*
X6707905Y-17560524D01*
X6717428Y-17551000D01*
X6736476Y-17541476D01*
X6888857Y-17722429D02*
X6898381Y-17731952D01*
X6888857Y-17741476D01*
X6879333Y-17731952D01*
X6888857Y-17722429D01*
X6888857Y-17741476D01*
X7022190Y-17541476D02*
X7041238Y-17541476D01*
X7060286Y-17551000D01*
X7069809Y-17560524D01*
X7079333Y-17579571D01*
X7088857Y-17617667D01*
X7088857Y-17665286D01*
X7079333Y-17703381D01*
X7069809Y-17722429D01*
X7060286Y-17731952D01*
X7041238Y-17741476D01*
X7022190Y-17741476D01*
X7003143Y-17731952D01*
X6993619Y-17722429D01*
X6984095Y-17703381D01*
X6974571Y-17665286D01*
X6974571Y-17617667D01*
X6984095Y-17579571D01*
X6993619Y-17560524D01*
X7003143Y-17551000D01*
X7022190Y-17541476D01*
X7279333Y-17741476D02*
X7165048Y-17741476D01*
X7222190Y-17741476D02*
X7222190Y-17541476D01*
X7203143Y-17570048D01*
X7184095Y-17589095D01*
X7165048Y-17598619D01*
X7460286Y-17541476D02*
X7365048Y-17541476D01*
X7355524Y-17636714D01*
X7365048Y-17627190D01*
X7384095Y-17617667D01*
X7431714Y-17617667D01*
X7450762Y-17627190D01*
X7460286Y-17636714D01*
X7469809Y-17655762D01*
X7469809Y-17703381D01*
X7460286Y-17722429D01*
X7450762Y-17731952D01*
X7431714Y-17741476D01*
X7384095Y-17741476D01*
X7365048Y-17731952D01*
X7355524Y-17722429D01*
X7536476Y-17541476D02*
X7669809Y-17541476D01*
X7584095Y-17741476D01*
X7736476Y-17541476D02*
X7736476Y-17579571D01*
X7812667Y-17541476D02*
X7812667Y-17579571D01*
X8107905Y-17817667D02*
X8098381Y-17808143D01*
X8079333Y-17779571D01*
X8069809Y-17760524D01*
X8060286Y-17731952D01*
X8050762Y-17684333D01*
X8050762Y-17646238D01*
X8060286Y-17598619D01*
X8069809Y-17570048D01*
X8079333Y-17551000D01*
X8098381Y-17522429D01*
X8107905Y-17512905D01*
X8288857Y-17741476D02*
X8174571Y-17741476D01*
X8231714Y-17741476D02*
X8231714Y-17541476D01*
X8212667Y-17570048D01*
X8193619Y-17589095D01*
X8174571Y-17598619D01*
X8355524Y-17541476D02*
X8479333Y-17541476D01*
X8412667Y-17617667D01*
X8441238Y-17617667D01*
X8460286Y-17627190D01*
X8469810Y-17636714D01*
X8479333Y-17655762D01*
X8479333Y-17703381D01*
X8469810Y-17722429D01*
X8460286Y-17731952D01*
X8441238Y-17741476D01*
X8384095Y-17741476D01*
X8365048Y-17731952D01*
X8355524Y-17722429D01*
X8717429Y-17741476D02*
X8717429Y-17541476D01*
X8803143Y-17741476D02*
X8803143Y-17636714D01*
X8793619Y-17617667D01*
X8774571Y-17608143D01*
X8746000Y-17608143D01*
X8726952Y-17617667D01*
X8717429Y-17627190D01*
X8926952Y-17741476D02*
X8907905Y-17731952D01*
X8898381Y-17722429D01*
X8888857Y-17703381D01*
X8888857Y-17646238D01*
X8898381Y-17627190D01*
X8907905Y-17617667D01*
X8926952Y-17608143D01*
X8955524Y-17608143D01*
X8974571Y-17617667D01*
X8984095Y-17627190D01*
X8993619Y-17646238D01*
X8993619Y-17703381D01*
X8984095Y-17722429D01*
X8974571Y-17731952D01*
X8955524Y-17741476D01*
X8926952Y-17741476D01*
X9107905Y-17741476D02*
X9088857Y-17731952D01*
X9079333Y-17712905D01*
X9079333Y-17541476D01*
X9260286Y-17731952D02*
X9241238Y-17741476D01*
X9203143Y-17741476D01*
X9184095Y-17731952D01*
X9174571Y-17712905D01*
X9174571Y-17636714D01*
X9184095Y-17617667D01*
X9203143Y-17608143D01*
X9241238Y-17608143D01*
X9260286Y-17617667D01*
X9269810Y-17636714D01*
X9269810Y-17655762D01*
X9174571Y-17674810D01*
X9346000Y-17731952D02*
X9365048Y-17741476D01*
X9403143Y-17741476D01*
X9422190Y-17731952D01*
X9431714Y-17712905D01*
X9431714Y-17703381D01*
X9422190Y-17684333D01*
X9403143Y-17674810D01*
X9374571Y-17674810D01*
X9355524Y-17665286D01*
X9346000Y-17646238D01*
X9346000Y-17636714D01*
X9355524Y-17617667D01*
X9374571Y-17608143D01*
X9403143Y-17608143D01*
X9422190Y-17617667D01*
X9498381Y-17817667D02*
X9507905Y-17808143D01*
X9526952Y-17779571D01*
X9536476Y-17760524D01*
X9546000Y-17731952D01*
X9555524Y-17684333D01*
X9555524Y-17646238D01*
X9546000Y-17598619D01*
X9536476Y-17570048D01*
X9526952Y-17551000D01*
X9507905Y-17522429D01*
X9498381Y-17512905D01*
D14*
X4536000Y-17915000D02*
G75*
G03*
X4536000Y-17915000I-45000J0D01*
G01*
D12*
X4831714Y-17805476D02*
X4850762Y-17805476D01*
X4869810Y-17815000D01*
X4879333Y-17824524D01*
X4888857Y-17843571D01*
X4898381Y-17881667D01*
X4898381Y-17929286D01*
X4888857Y-17967381D01*
X4879333Y-17986429D01*
X4869810Y-17995952D01*
X4850762Y-18005476D01*
X4831714Y-18005476D01*
X4812667Y-17995952D01*
X4803143Y-17986429D01*
X4793619Y-17967381D01*
X4784095Y-17929286D01*
X4784095Y-17881667D01*
X4793619Y-17843571D01*
X4803143Y-17824524D01*
X4812667Y-17815000D01*
X4831714Y-17805476D01*
X4984095Y-17986429D02*
X4993619Y-17995952D01*
X4984095Y-18005476D01*
X4974571Y-17995952D01*
X4984095Y-17986429D01*
X4984095Y-18005476D01*
X5088857Y-18005476D02*
X5126952Y-18005476D01*
X5146000Y-17995952D01*
X5155524Y-17986429D01*
X5174571Y-17957857D01*
X5184095Y-17919762D01*
X5184095Y-17843571D01*
X5174571Y-17824524D01*
X5165048Y-17815000D01*
X5146000Y-17805476D01*
X5107905Y-17805476D01*
X5088857Y-17815000D01*
X5079333Y-17824524D01*
X5069810Y-17843571D01*
X5069810Y-17891190D01*
X5079333Y-17910238D01*
X5088857Y-17919762D01*
X5107905Y-17929286D01*
X5146000Y-17929286D01*
X5165048Y-17919762D01*
X5174571Y-17910238D01*
X5184095Y-17891190D01*
X5307905Y-17805476D02*
X5326952Y-17805476D01*
X5346000Y-17815000D01*
X5355524Y-17824524D01*
X5365048Y-17843571D01*
X5374571Y-17881667D01*
X5374571Y-17929286D01*
X5365048Y-17967381D01*
X5355524Y-17986429D01*
X5346000Y-17995952D01*
X5326952Y-18005476D01*
X5307905Y-18005476D01*
X5288857Y-17995952D01*
X5279333Y-17986429D01*
X5269810Y-17967381D01*
X5260286Y-17929286D01*
X5260286Y-17881667D01*
X5269810Y-17843571D01*
X5279333Y-17824524D01*
X5288857Y-17815000D01*
X5307905Y-17805476D01*
X5498381Y-17805476D02*
X5517429Y-17805476D01*
X5536476Y-17815000D01*
X5546000Y-17824524D01*
X5555524Y-17843571D01*
X5565048Y-17881667D01*
X5565048Y-17929286D01*
X5555524Y-17967381D01*
X5546000Y-17986429D01*
X5536476Y-17995952D01*
X5517429Y-18005476D01*
X5498381Y-18005476D01*
X5479333Y-17995952D01*
X5469810Y-17986429D01*
X5460286Y-17967381D01*
X5450762Y-17929286D01*
X5450762Y-17881667D01*
X5460286Y-17843571D01*
X5469810Y-17824524D01*
X5479333Y-17815000D01*
X5498381Y-17805476D01*
X5650762Y-18005476D02*
X5650762Y-17872143D01*
X5650762Y-17891190D02*
X5660286Y-17881667D01*
X5679333Y-17872143D01*
X5707905Y-17872143D01*
X5726952Y-17881667D01*
X5736476Y-17900714D01*
X5736476Y-18005476D01*
X5736476Y-17900714D02*
X5746000Y-17881667D01*
X5765048Y-17872143D01*
X5793619Y-17872143D01*
X5812667Y-17881667D01*
X5822190Y-17900714D01*
X5822190Y-18005476D01*
X5917428Y-18005476D02*
X5917428Y-17872143D01*
X5917428Y-17891190D02*
X5926952Y-17881667D01*
X5946000Y-17872143D01*
X5974571Y-17872143D01*
X5993619Y-17881667D01*
X6003143Y-17900714D01*
X6003143Y-18005476D01*
X6003143Y-17900714D02*
X6012667Y-17881667D01*
X6031714Y-17872143D01*
X6060286Y-17872143D01*
X6079333Y-17881667D01*
X6088857Y-17900714D01*
X6088857Y-18005476D01*
X6479333Y-17795952D02*
X6307905Y-18053095D01*
X6736476Y-17805476D02*
X6755524Y-17805476D01*
X6774571Y-17815000D01*
X6784095Y-17824524D01*
X6793619Y-17843571D01*
X6803143Y-17881667D01*
X6803143Y-17929286D01*
X6793619Y-17967381D01*
X6784095Y-17986429D01*
X6774571Y-17995952D01*
X6755524Y-18005476D01*
X6736476Y-18005476D01*
X6717428Y-17995952D01*
X6707905Y-17986429D01*
X6698381Y-17967381D01*
X6688857Y-17929286D01*
X6688857Y-17881667D01*
X6698381Y-17843571D01*
X6707905Y-17824524D01*
X6717428Y-17815000D01*
X6736476Y-17805476D01*
X6888857Y-17986429D02*
X6898381Y-17995952D01*
X6888857Y-18005476D01*
X6879333Y-17995952D01*
X6888857Y-17986429D01*
X6888857Y-18005476D01*
X7022190Y-17805476D02*
X7041238Y-17805476D01*
X7060286Y-17815000D01*
X7069809Y-17824524D01*
X7079333Y-17843571D01*
X7088857Y-17881667D01*
X7088857Y-17929286D01*
X7079333Y-17967381D01*
X7069809Y-17986429D01*
X7060286Y-17995952D01*
X7041238Y-18005476D01*
X7022190Y-18005476D01*
X7003143Y-17995952D01*
X6993619Y-17986429D01*
X6984095Y-17967381D01*
X6974571Y-17929286D01*
X6974571Y-17881667D01*
X6984095Y-17843571D01*
X6993619Y-17824524D01*
X7003143Y-17815000D01*
X7022190Y-17805476D01*
X7155524Y-17805476D02*
X7279333Y-17805476D01*
X7212667Y-17881667D01*
X7241238Y-17881667D01*
X7260286Y-17891190D01*
X7269809Y-17900714D01*
X7279333Y-17919762D01*
X7279333Y-17967381D01*
X7269809Y-17986429D01*
X7260286Y-17995952D01*
X7241238Y-18005476D01*
X7184095Y-18005476D01*
X7165048Y-17995952D01*
X7155524Y-17986429D01*
X7460286Y-17805476D02*
X7365048Y-17805476D01*
X7355524Y-17900714D01*
X7365048Y-17891190D01*
X7384095Y-17881667D01*
X7431714Y-17881667D01*
X7450762Y-17891190D01*
X7460286Y-17900714D01*
X7469809Y-17919762D01*
X7469809Y-17967381D01*
X7460286Y-17986429D01*
X7450762Y-17995952D01*
X7431714Y-18005476D01*
X7384095Y-18005476D01*
X7365048Y-17995952D01*
X7355524Y-17986429D01*
X7641238Y-17872143D02*
X7641238Y-18005476D01*
X7593619Y-17795952D02*
X7546000Y-17938810D01*
X7669809Y-17938810D01*
X7736476Y-17805476D02*
X7736476Y-17843571D01*
X7812667Y-17805476D02*
X7812667Y-17843571D01*
X8107905Y-18081667D02*
X8098381Y-18072143D01*
X8079333Y-18043571D01*
X8069809Y-18024524D01*
X8060286Y-17995952D01*
X8050762Y-17948333D01*
X8050762Y-17910238D01*
X8060286Y-17862619D01*
X8069809Y-17834048D01*
X8079333Y-17815000D01*
X8098381Y-17786429D01*
X8107905Y-17776905D01*
X8288857Y-18005476D02*
X8174571Y-18005476D01*
X8231714Y-18005476D02*
X8231714Y-17805476D01*
X8212667Y-17834048D01*
X8193619Y-17853095D01*
X8174571Y-17862619D01*
X8460286Y-17805476D02*
X8422190Y-17805476D01*
X8403143Y-17815000D01*
X8393619Y-17824524D01*
X8374571Y-17853095D01*
X8365048Y-17891190D01*
X8365048Y-17967381D01*
X8374571Y-17986429D01*
X8384095Y-17995952D01*
X8403143Y-18005476D01*
X8441238Y-18005476D01*
X8460286Y-17995952D01*
X8469810Y-17986429D01*
X8479333Y-17967381D01*
X8479333Y-17919762D01*
X8469810Y-17900714D01*
X8460286Y-17891190D01*
X8441238Y-17881667D01*
X8403143Y-17881667D01*
X8384095Y-17891190D01*
X8374571Y-17900714D01*
X8365048Y-17919762D01*
X8717429Y-18005476D02*
X8717429Y-17805476D01*
X8803143Y-18005476D02*
X8803143Y-17900714D01*
X8793619Y-17881667D01*
X8774571Y-17872143D01*
X8746000Y-17872143D01*
X8726952Y-17881667D01*
X8717429Y-17891190D01*
X8926952Y-18005476D02*
X8907905Y-17995952D01*
X8898381Y-17986429D01*
X8888857Y-17967381D01*
X8888857Y-17910238D01*
X8898381Y-17891190D01*
X8907905Y-17881667D01*
X8926952Y-17872143D01*
X8955524Y-17872143D01*
X8974571Y-17881667D01*
X8984095Y-17891190D01*
X8993619Y-17910238D01*
X8993619Y-17967381D01*
X8984095Y-17986429D01*
X8974571Y-17995952D01*
X8955524Y-18005476D01*
X8926952Y-18005476D01*
X9107905Y-18005476D02*
X9088857Y-17995952D01*
X9079333Y-17976905D01*
X9079333Y-17805476D01*
X9260286Y-17995952D02*
X9241238Y-18005476D01*
X9203143Y-18005476D01*
X9184095Y-17995952D01*
X9174571Y-17976905D01*
X9174571Y-17900714D01*
X9184095Y-17881667D01*
X9203143Y-17872143D01*
X9241238Y-17872143D01*
X9260286Y-17881667D01*
X9269810Y-17900714D01*
X9269810Y-17919762D01*
X9174571Y-17938810D01*
X9346000Y-17995952D02*
X9365048Y-18005476D01*
X9403143Y-18005476D01*
X9422190Y-17995952D01*
X9431714Y-17976905D01*
X9431714Y-17967381D01*
X9422190Y-17948333D01*
X9403143Y-17938810D01*
X9374571Y-17938810D01*
X9355524Y-17929286D01*
X9346000Y-17910238D01*
X9346000Y-17900714D01*
X9355524Y-17881667D01*
X9374571Y-17872143D01*
X9403143Y-17872143D01*
X9422190Y-17881667D01*
X9498381Y-18081667D02*
X9507905Y-18072143D01*
X9526952Y-18043571D01*
X9536476Y-18024524D01*
X9546000Y-17995952D01*
X9555524Y-17948333D01*
X9555524Y-17910238D01*
X9546000Y-17862619D01*
X9536476Y-17834048D01*
X9526952Y-17815000D01*
X9507905Y-17786429D01*
X9498381Y-17776905D01*
D11*
X4486000Y-18129000D02*
X4486000Y-18229000D01*
X4436000Y-18179000D02*
X4536000Y-18179000D01*
D12*
X4898381Y-18269476D02*
X4784095Y-18269476D01*
X4841238Y-18269476D02*
X4841238Y-18069476D01*
X4822190Y-18098048D01*
X4803143Y-18117095D01*
X4784095Y-18126619D01*
X4984095Y-18250429D02*
X4993619Y-18259952D01*
X4984095Y-18269476D01*
X4974571Y-18259952D01*
X4984095Y-18250429D01*
X4984095Y-18269476D01*
X5117429Y-18069476D02*
X5136476Y-18069476D01*
X5155524Y-18079000D01*
X5165048Y-18088524D01*
X5174571Y-18107571D01*
X5184095Y-18145667D01*
X5184095Y-18193286D01*
X5174571Y-18231381D01*
X5165048Y-18250429D01*
X5155524Y-18259952D01*
X5136476Y-18269476D01*
X5117429Y-18269476D01*
X5098381Y-18259952D01*
X5088857Y-18250429D01*
X5079333Y-18231381D01*
X5069810Y-18193286D01*
X5069810Y-18145667D01*
X5079333Y-18107571D01*
X5088857Y-18088524D01*
X5098381Y-18079000D01*
X5117429Y-18069476D01*
X5307905Y-18069476D02*
X5326952Y-18069476D01*
X5346000Y-18079000D01*
X5355524Y-18088524D01*
X5365048Y-18107571D01*
X5374571Y-18145667D01*
X5374571Y-18193286D01*
X5365048Y-18231381D01*
X5355524Y-18250429D01*
X5346000Y-18259952D01*
X5326952Y-18269476D01*
X5307905Y-18269476D01*
X5288857Y-18259952D01*
X5279333Y-18250429D01*
X5269810Y-18231381D01*
X5260286Y-18193286D01*
X5260286Y-18145667D01*
X5269810Y-18107571D01*
X5279333Y-18088524D01*
X5288857Y-18079000D01*
X5307905Y-18069476D01*
X5498381Y-18069476D02*
X5517429Y-18069476D01*
X5536476Y-18079000D01*
X5546000Y-18088524D01*
X5555524Y-18107571D01*
X5565048Y-18145667D01*
X5565048Y-18193286D01*
X5555524Y-18231381D01*
X5546000Y-18250429D01*
X5536476Y-18259952D01*
X5517429Y-18269476D01*
X5498381Y-18269476D01*
X5479333Y-18259952D01*
X5469810Y-18250429D01*
X5460286Y-18231381D01*
X5450762Y-18193286D01*
X5450762Y-18145667D01*
X5460286Y-18107571D01*
X5469810Y-18088524D01*
X5479333Y-18079000D01*
X5498381Y-18069476D01*
X5650762Y-18269476D02*
X5650762Y-18136143D01*
X5650762Y-18155190D02*
X5660286Y-18145667D01*
X5679333Y-18136143D01*
X5707905Y-18136143D01*
X5726952Y-18145667D01*
X5736476Y-18164714D01*
X5736476Y-18269476D01*
X5736476Y-18164714D02*
X5746000Y-18145667D01*
X5765048Y-18136143D01*
X5793619Y-18136143D01*
X5812667Y-18145667D01*
X5822190Y-18164714D01*
X5822190Y-18269476D01*
X5917428Y-18269476D02*
X5917428Y-18136143D01*
X5917428Y-18155190D02*
X5926952Y-18145667D01*
X5946000Y-18136143D01*
X5974571Y-18136143D01*
X5993619Y-18145667D01*
X6003143Y-18164714D01*
X6003143Y-18269476D01*
X6003143Y-18164714D02*
X6012667Y-18145667D01*
X6031714Y-18136143D01*
X6060286Y-18136143D01*
X6079333Y-18145667D01*
X6088857Y-18164714D01*
X6088857Y-18269476D01*
X6479333Y-18059952D02*
X6307905Y-18317095D01*
X6736476Y-18069476D02*
X6755524Y-18069476D01*
X6774571Y-18079000D01*
X6784095Y-18088524D01*
X6793619Y-18107571D01*
X6803143Y-18145667D01*
X6803143Y-18193286D01*
X6793619Y-18231381D01*
X6784095Y-18250429D01*
X6774571Y-18259952D01*
X6755524Y-18269476D01*
X6736476Y-18269476D01*
X6717428Y-18259952D01*
X6707905Y-18250429D01*
X6698381Y-18231381D01*
X6688857Y-18193286D01*
X6688857Y-18145667D01*
X6698381Y-18107571D01*
X6707905Y-18088524D01*
X6717428Y-18079000D01*
X6736476Y-18069476D01*
X6888857Y-18250429D02*
X6898381Y-18259952D01*
X6888857Y-18269476D01*
X6879333Y-18259952D01*
X6888857Y-18250429D01*
X6888857Y-18269476D01*
X7022190Y-18069476D02*
X7041238Y-18069476D01*
X7060286Y-18079000D01*
X7069809Y-18088524D01*
X7079333Y-18107571D01*
X7088857Y-18145667D01*
X7088857Y-18193286D01*
X7079333Y-18231381D01*
X7069809Y-18250429D01*
X7060286Y-18259952D01*
X7041238Y-18269476D01*
X7022190Y-18269476D01*
X7003143Y-18259952D01*
X6993619Y-18250429D01*
X6984095Y-18231381D01*
X6974571Y-18193286D01*
X6974571Y-18145667D01*
X6984095Y-18107571D01*
X6993619Y-18088524D01*
X7003143Y-18079000D01*
X7022190Y-18069476D01*
X7155524Y-18069476D02*
X7279333Y-18069476D01*
X7212667Y-18145667D01*
X7241238Y-18145667D01*
X7260286Y-18155190D01*
X7269809Y-18164714D01*
X7279333Y-18183762D01*
X7279333Y-18231381D01*
X7269809Y-18250429D01*
X7260286Y-18259952D01*
X7241238Y-18269476D01*
X7184095Y-18269476D01*
X7165048Y-18259952D01*
X7155524Y-18250429D01*
X7374571Y-18269476D02*
X7412667Y-18269476D01*
X7431714Y-18259952D01*
X7441238Y-18250429D01*
X7460286Y-18221857D01*
X7469809Y-18183762D01*
X7469809Y-18107571D01*
X7460286Y-18088524D01*
X7450762Y-18079000D01*
X7431714Y-18069476D01*
X7393619Y-18069476D01*
X7374571Y-18079000D01*
X7365048Y-18088524D01*
X7355524Y-18107571D01*
X7355524Y-18155190D01*
X7365048Y-18174238D01*
X7374571Y-18183762D01*
X7393619Y-18193286D01*
X7431714Y-18193286D01*
X7450762Y-18183762D01*
X7460286Y-18174238D01*
X7469809Y-18155190D01*
X7641238Y-18136143D02*
X7641238Y-18269476D01*
X7593619Y-18059952D02*
X7546000Y-18202810D01*
X7669809Y-18202810D01*
X7736476Y-18069476D02*
X7736476Y-18107571D01*
X7812667Y-18069476D02*
X7812667Y-18107571D01*
X8107905Y-18345667D02*
X8098381Y-18336143D01*
X8079333Y-18307571D01*
X8069809Y-18288524D01*
X8060286Y-18259952D01*
X8050762Y-18212333D01*
X8050762Y-18174238D01*
X8060286Y-18126619D01*
X8069809Y-18098048D01*
X8079333Y-18079000D01*
X8098381Y-18050429D01*
X8107905Y-18040905D01*
X8174571Y-18088524D02*
X8184095Y-18079000D01*
X8203143Y-18069476D01*
X8250762Y-18069476D01*
X8269809Y-18079000D01*
X8279333Y-18088524D01*
X8288857Y-18107571D01*
X8288857Y-18126619D01*
X8279333Y-18155190D01*
X8165048Y-18269476D01*
X8288857Y-18269476D01*
X8460286Y-18069476D02*
X8422190Y-18069476D01*
X8403143Y-18079000D01*
X8393619Y-18088524D01*
X8374571Y-18117095D01*
X8365048Y-18155190D01*
X8365048Y-18231381D01*
X8374571Y-18250429D01*
X8384095Y-18259952D01*
X8403143Y-18269476D01*
X8441238Y-18269476D01*
X8460286Y-18259952D01*
X8469810Y-18250429D01*
X8479333Y-18231381D01*
X8479333Y-18183762D01*
X8469810Y-18164714D01*
X8460286Y-18155190D01*
X8441238Y-18145667D01*
X8403143Y-18145667D01*
X8384095Y-18155190D01*
X8374571Y-18164714D01*
X8365048Y-18183762D01*
X8717429Y-18269476D02*
X8717429Y-18069476D01*
X8803143Y-18269476D02*
X8803143Y-18164714D01*
X8793619Y-18145667D01*
X8774571Y-18136143D01*
X8746000Y-18136143D01*
X8726952Y-18145667D01*
X8717429Y-18155190D01*
X8926952Y-18269476D02*
X8907905Y-18259952D01*
X8898381Y-18250429D01*
X8888857Y-18231381D01*
X8888857Y-18174238D01*
X8898381Y-18155190D01*
X8907905Y-18145667D01*
X8926952Y-18136143D01*
X8955524Y-18136143D01*
X8974571Y-18145667D01*
X8984095Y-18155190D01*
X8993619Y-18174238D01*
X8993619Y-18231381D01*
X8984095Y-18250429D01*
X8974571Y-18259952D01*
X8955524Y-18269476D01*
X8926952Y-18269476D01*
X9107905Y-18269476D02*
X9088857Y-18259952D01*
X9079333Y-18240905D01*
X9079333Y-18069476D01*
X9260286Y-18259952D02*
X9241238Y-18269476D01*
X9203143Y-18269476D01*
X9184095Y-18259952D01*
X9174571Y-18240905D01*
X9174571Y-18164714D01*
X9184095Y-18145667D01*
X9203143Y-18136143D01*
X9241238Y-18136143D01*
X9260286Y-18145667D01*
X9269810Y-18164714D01*
X9269810Y-18183762D01*
X9174571Y-18202810D01*
X9346000Y-18259952D02*
X9365048Y-18269476D01*
X9403143Y-18269476D01*
X9422190Y-18259952D01*
X9431714Y-18240905D01*
X9431714Y-18231381D01*
X9422190Y-18212333D01*
X9403143Y-18202810D01*
X9374571Y-18202810D01*
X9355524Y-18193286D01*
X9346000Y-18174238D01*
X9346000Y-18164714D01*
X9355524Y-18145667D01*
X9374571Y-18136143D01*
X9403143Y-18136143D01*
X9422190Y-18145667D01*
X9498381Y-18345667D02*
X9507905Y-18336143D01*
X9526952Y-18307571D01*
X9536476Y-18288524D01*
X9546000Y-18259952D01*
X9555524Y-18212333D01*
X9555524Y-18174238D01*
X9546000Y-18126619D01*
X9536476Y-18098048D01*
X9526952Y-18079000D01*
X9507905Y-18050429D01*
X9498381Y-18040905D01*
D15*
X4519891Y-18481891D02*
X4519891Y-18404109D01*
X4442109Y-18404109D01*
X4442109Y-18481891D01*
X4519891Y-18481891D01*
D12*
X4898381Y-18533476D02*
X4784095Y-18533476D01*
X4841238Y-18533476D02*
X4841238Y-18333476D01*
X4822190Y-18362048D01*
X4803143Y-18381095D01*
X4784095Y-18390619D01*
X4984095Y-18514429D02*
X4993619Y-18523952D01*
X4984095Y-18533476D01*
X4974571Y-18523952D01*
X4984095Y-18514429D01*
X4984095Y-18533476D01*
X5184095Y-18533476D02*
X5069810Y-18533476D01*
X5126952Y-18533476D02*
X5126952Y-18333476D01*
X5107905Y-18362048D01*
X5088857Y-18381095D01*
X5069810Y-18390619D01*
X5307905Y-18333476D02*
X5326952Y-18333476D01*
X5346000Y-18343000D01*
X5355524Y-18352524D01*
X5365048Y-18371571D01*
X5374571Y-18409667D01*
X5374571Y-18457286D01*
X5365048Y-18495381D01*
X5355524Y-18514429D01*
X5346000Y-18523952D01*
X5326952Y-18533476D01*
X5307905Y-18533476D01*
X5288857Y-18523952D01*
X5279333Y-18514429D01*
X5269810Y-18495381D01*
X5260286Y-18457286D01*
X5260286Y-18409667D01*
X5269810Y-18371571D01*
X5279333Y-18352524D01*
X5288857Y-18343000D01*
X5307905Y-18333476D01*
X5498381Y-18333476D02*
X5517429Y-18333476D01*
X5536476Y-18343000D01*
X5546000Y-18352524D01*
X5555524Y-18371571D01*
X5565048Y-18409667D01*
X5565048Y-18457286D01*
X5555524Y-18495381D01*
X5546000Y-18514429D01*
X5536476Y-18523952D01*
X5517429Y-18533476D01*
X5498381Y-18533476D01*
X5479333Y-18523952D01*
X5469810Y-18514429D01*
X5460286Y-18495381D01*
X5450762Y-18457286D01*
X5450762Y-18409667D01*
X5460286Y-18371571D01*
X5469810Y-18352524D01*
X5479333Y-18343000D01*
X5498381Y-18333476D01*
X5650762Y-18533476D02*
X5650762Y-18400143D01*
X5650762Y-18419190D02*
X5660286Y-18409667D01*
X5679333Y-18400143D01*
X5707905Y-18400143D01*
X5726952Y-18409667D01*
X5736476Y-18428714D01*
X5736476Y-18533476D01*
X5736476Y-18428714D02*
X5746000Y-18409667D01*
X5765048Y-18400143D01*
X5793619Y-18400143D01*
X5812667Y-18409667D01*
X5822190Y-18428714D01*
X5822190Y-18533476D01*
X5917428Y-18533476D02*
X5917428Y-18400143D01*
X5917428Y-18419190D02*
X5926952Y-18409667D01*
X5946000Y-18400143D01*
X5974571Y-18400143D01*
X5993619Y-18409667D01*
X6003143Y-18428714D01*
X6003143Y-18533476D01*
X6003143Y-18428714D02*
X6012667Y-18409667D01*
X6031714Y-18400143D01*
X6060286Y-18400143D01*
X6079333Y-18409667D01*
X6088857Y-18428714D01*
X6088857Y-18533476D01*
X6479333Y-18323952D02*
X6307905Y-18581095D01*
X6736476Y-18333476D02*
X6755524Y-18333476D01*
X6774571Y-18343000D01*
X6784095Y-18352524D01*
X6793619Y-18371571D01*
X6803143Y-18409667D01*
X6803143Y-18457286D01*
X6793619Y-18495381D01*
X6784095Y-18514429D01*
X6774571Y-18523952D01*
X6755524Y-18533476D01*
X6736476Y-18533476D01*
X6717428Y-18523952D01*
X6707905Y-18514429D01*
X6698381Y-18495381D01*
X6688857Y-18457286D01*
X6688857Y-18409667D01*
X6698381Y-18371571D01*
X6707905Y-18352524D01*
X6717428Y-18343000D01*
X6736476Y-18333476D01*
X6888857Y-18514429D02*
X6898381Y-18523952D01*
X6888857Y-18533476D01*
X6879333Y-18523952D01*
X6888857Y-18514429D01*
X6888857Y-18533476D01*
X7022190Y-18333476D02*
X7041238Y-18333476D01*
X7060286Y-18343000D01*
X7069809Y-18352524D01*
X7079333Y-18371571D01*
X7088857Y-18409667D01*
X7088857Y-18457286D01*
X7079333Y-18495381D01*
X7069809Y-18514429D01*
X7060286Y-18523952D01*
X7041238Y-18533476D01*
X7022190Y-18533476D01*
X7003143Y-18523952D01*
X6993619Y-18514429D01*
X6984095Y-18495381D01*
X6974571Y-18457286D01*
X6974571Y-18409667D01*
X6984095Y-18371571D01*
X6993619Y-18352524D01*
X7003143Y-18343000D01*
X7022190Y-18333476D01*
X7260286Y-18400143D02*
X7260286Y-18533476D01*
X7212667Y-18323952D02*
X7165048Y-18466810D01*
X7288857Y-18466810D01*
X7346000Y-18333476D02*
X7469809Y-18333476D01*
X7403143Y-18409667D01*
X7431714Y-18409667D01*
X7450762Y-18419190D01*
X7460286Y-18428714D01*
X7469809Y-18447762D01*
X7469809Y-18495381D01*
X7460286Y-18514429D01*
X7450762Y-18523952D01*
X7431714Y-18533476D01*
X7374571Y-18533476D01*
X7355524Y-18523952D01*
X7346000Y-18514429D01*
X7536476Y-18333476D02*
X7660286Y-18333476D01*
X7593619Y-18409667D01*
X7622190Y-18409667D01*
X7641238Y-18419190D01*
X7650762Y-18428714D01*
X7660286Y-18447762D01*
X7660286Y-18495381D01*
X7650762Y-18514429D01*
X7641238Y-18523952D01*
X7622190Y-18533476D01*
X7565048Y-18533476D01*
X7546000Y-18523952D01*
X7536476Y-18514429D01*
X7736476Y-18333476D02*
X7736476Y-18371571D01*
X7812667Y-18333476D02*
X7812667Y-18371571D01*
X8107905Y-18609667D02*
X8098381Y-18600143D01*
X8079333Y-18571571D01*
X8069809Y-18552524D01*
X8060286Y-18523952D01*
X8050762Y-18476333D01*
X8050762Y-18438238D01*
X8060286Y-18390619D01*
X8069809Y-18362048D01*
X8079333Y-18343000D01*
X8098381Y-18314429D01*
X8107905Y-18304905D01*
X8212667Y-18419190D02*
X8193619Y-18409667D01*
X8184095Y-18400143D01*
X8174571Y-18381095D01*
X8174571Y-18371571D01*
X8184095Y-18352524D01*
X8193619Y-18343000D01*
X8212667Y-18333476D01*
X8250762Y-18333476D01*
X8269809Y-18343000D01*
X8279333Y-18352524D01*
X8288857Y-18371571D01*
X8288857Y-18381095D01*
X8279333Y-18400143D01*
X8269809Y-18409667D01*
X8250762Y-18419190D01*
X8212667Y-18419190D01*
X8193619Y-18428714D01*
X8184095Y-18438238D01*
X8174571Y-18457286D01*
X8174571Y-18495381D01*
X8184095Y-18514429D01*
X8193619Y-18523952D01*
X8212667Y-18533476D01*
X8250762Y-18533476D01*
X8269809Y-18523952D01*
X8279333Y-18514429D01*
X8288857Y-18495381D01*
X8288857Y-18457286D01*
X8279333Y-18438238D01*
X8269809Y-18428714D01*
X8250762Y-18419190D01*
X8526952Y-18533476D02*
X8526952Y-18333476D01*
X8612667Y-18533476D02*
X8612667Y-18428714D01*
X8603143Y-18409667D01*
X8584095Y-18400143D01*
X8555524Y-18400143D01*
X8536476Y-18409667D01*
X8526952Y-18419190D01*
X8736476Y-18533476D02*
X8717429Y-18523952D01*
X8707905Y-18514429D01*
X8698381Y-18495381D01*
X8698381Y-18438238D01*
X8707905Y-18419190D01*
X8717429Y-18409667D01*
X8736476Y-18400143D01*
X8765048Y-18400143D01*
X8784095Y-18409667D01*
X8793619Y-18419190D01*
X8803143Y-18438238D01*
X8803143Y-18495381D01*
X8793619Y-18514429D01*
X8784095Y-18523952D01*
X8765048Y-18533476D01*
X8736476Y-18533476D01*
X8917429Y-18533476D02*
X8898381Y-18523952D01*
X8888857Y-18504905D01*
X8888857Y-18333476D01*
X9069810Y-18523952D02*
X9050762Y-18533476D01*
X9012667Y-18533476D01*
X8993619Y-18523952D01*
X8984095Y-18504905D01*
X8984095Y-18428714D01*
X8993619Y-18409667D01*
X9012667Y-18400143D01*
X9050762Y-18400143D01*
X9069810Y-18409667D01*
X9079333Y-18428714D01*
X9079333Y-18447762D01*
X8984095Y-18466810D01*
X9155524Y-18523952D02*
X9174571Y-18533476D01*
X9212667Y-18533476D01*
X9231714Y-18523952D01*
X9241238Y-18504905D01*
X9241238Y-18495381D01*
X9231714Y-18476333D01*
X9212667Y-18466810D01*
X9184095Y-18466810D01*
X9165048Y-18457286D01*
X9155524Y-18438238D01*
X9155524Y-18428714D01*
X9165048Y-18409667D01*
X9184095Y-18400143D01*
X9212667Y-18400143D01*
X9231714Y-18409667D01*
X9307905Y-18609667D02*
X9317429Y-18600143D01*
X9336476Y-18571571D01*
X9346000Y-18552524D01*
X9355524Y-18523952D01*
X9365048Y-18476333D01*
X9365048Y-18438238D01*
X9355524Y-18390619D01*
X9346000Y-18362048D01*
X9336476Y-18343000D01*
X9317429Y-18314429D01*
X9307905Y-18304905D01*
M02*
