M48
; DRILL file {KiCad 6.0.11-2627ca5db0~126~ubuntu22.04.1} date Sun 25 Jun 2023 15:34:45 BST
; FORMAT={-:-/ absolute / metric / decimal}
; #@! TF.CreationDate,2023-06-25T15:34:45+01:00
; #@! TF.GenerationSoftware,Kicad,Pcbnew,6.0.11-2627ca5db0~126~ubuntu22.04.1
; #@! TF.FileFunction,Plated,1,2,PTH
FMAT,2
METRIC
; #@! TA.AperFunction,Plated,PTH,ViaDrill
T1C0.400
; #@! TA.AperFunction,Plated,PTH,ComponentDrill
T2C0.900
; #@! TA.AperFunction,Plated,PTH,ComponentDrill
T3C1.000
; #@! TA.AperFunction,Plated,PTH,ComponentDrill
T4C1.100
%
G90
G05
T1
X98.38Y-87.68
X98.61Y-148.48
X108.68Y-148.46
X108.72Y-85.05
X115.39Y-116.27
X115.39Y-135.9
X128.05Y-79.29
X139.37Y-82.5
X139.38Y-123.74
X141.06Y-121.21
X141.11Y-80.03
X143.05Y-118.76
X143.17Y-77.5
T2
X63.545Y-83.17
X63.545Y-93.783
X63.545Y-104.396
X63.545Y-115.009
X63.545Y-125.621
X63.545Y-136.234
X63.545Y-146.847
X63.545Y-157.46
X66.085Y-83.17
X66.085Y-93.783
X66.085Y-104.396
X66.085Y-115.009
X66.085Y-125.621
X66.085Y-136.234
X66.085Y-146.847
X66.085Y-157.46
T3
X61.615Y-101.24
X64.155Y-101.24
X66.695Y-101.24
X69.235Y-101.24
X71.775Y-101.24
X74.315Y-101.24
X76.855Y-101.24
X79.395Y-101.24
X81.935Y-101.24
X84.475Y-101.24
X106.85Y-168.04
X109.39Y-168.04
X110.51Y-79.31
X111.93Y-168.04
X119.24Y-79.31
X124.0Y-100.8
X128.05Y-116.23
X128.05Y-118.77
X128.05Y-121.31
X128.05Y-123.85
X135.35Y-74.94
X135.35Y-77.48
X135.35Y-80.02
X135.35Y-82.56
X135.35Y-85.1
X135.35Y-87.64
T4
X98.45Y-135.94
X98.45Y-142.44
X98.55Y-153.81
X98.55Y-160.31
X102.95Y-135.94
X102.95Y-142.44
X103.05Y-153.81
X103.05Y-160.31
T0
M30
