G04 #@! TF.GenerationSoftware,KiCad,Pcbnew,6.0.11-2627ca5db0~126~ubuntu22.04.1*
G04 #@! TF.CreationDate,2023-06-25T15:34:26+01:00*
G04 #@! TF.ProjectId,ui_daughterboard,75695f64-6175-4676-9874-6572626f6172,rev?*
G04 #@! TF.SameCoordinates,Original*
G04 #@! TF.FileFunction,Copper,L2,Bot*
G04 #@! TF.FilePolarity,Positive*
%FSLAX46Y46*%
G04 Gerber Fmt 4.6, Leading zero omitted, Abs format (unit mm)*
G04 Created by KiCad (PCBNEW 6.0.11-2627ca5db0~126~ubuntu22.04.1) date 2023-06-25 15:34:26*
%MOMM*%
%LPD*%
G01*
G04 APERTURE LIST*
G04 #@! TA.AperFunction,ComponentPad*
%ADD10C,2.000000*%
G04 #@! TD*
G04 #@! TA.AperFunction,ComponentPad*
%ADD11R,1.800000X1.800000*%
G04 #@! TD*
G04 #@! TA.AperFunction,ComponentPad*
%ADD12C,1.800000*%
G04 #@! TD*
G04 #@! TA.AperFunction,ComponentPad*
%ADD13R,1.700000X1.700000*%
G04 #@! TD*
G04 #@! TA.AperFunction,ComponentPad*
%ADD14O,1.700000X1.700000*%
G04 #@! TD*
G04 #@! TA.AperFunction,ViaPad*
%ADD15C,0.800000*%
G04 #@! TD*
G04 #@! TA.AperFunction,Conductor*
%ADD16C,0.750000*%
G04 #@! TD*
G04 #@! TA.AperFunction,Conductor*
%ADD17C,0.250000*%
G04 #@! TD*
G04 APERTURE END LIST*
D10*
X110510000Y-79310000D03*
X119240000Y-79310000D03*
D11*
X63545000Y-125621428D03*
D12*
X66085000Y-125621428D03*
D10*
X102950000Y-135940000D03*
X102950000Y-142440000D03*
X98450000Y-142440000D03*
X98450000Y-135940000D03*
X103050000Y-153810000D03*
X103050000Y-160310000D03*
X98550000Y-160310000D03*
X98550000Y-153810000D03*
X124000000Y-100800000D03*
D13*
X128050000Y-116230000D03*
D14*
X128050000Y-118770000D03*
X128050000Y-121310000D03*
X128050000Y-123850000D03*
X61615000Y-101240000D03*
X64155000Y-101240000D03*
X66695000Y-101240000D03*
X69235000Y-101240000D03*
X71775000Y-101240000D03*
X74315000Y-101240000D03*
X76855000Y-101240000D03*
X79395000Y-101240000D03*
X81935000Y-101240000D03*
D13*
X84475000Y-101240000D03*
X135350000Y-74940000D03*
D14*
X135350000Y-77480000D03*
X135350000Y-80020000D03*
X135350000Y-82560000D03*
X135350000Y-85100000D03*
X135350000Y-87640000D03*
D11*
X63545000Y-83170000D03*
D12*
X66085000Y-83170000D03*
D11*
X63545000Y-93782857D03*
D12*
X66085000Y-93782857D03*
D11*
X63545000Y-104395714D03*
D12*
X66085000Y-104395714D03*
D11*
X63545000Y-115008571D03*
D12*
X66085000Y-115008571D03*
D11*
X63545000Y-136234285D03*
D12*
X66085000Y-136234285D03*
D11*
X63545000Y-146847142D03*
D12*
X66085000Y-146847142D03*
X66085000Y-157460000D03*
D11*
X63545000Y-157460000D03*
D13*
X106850000Y-168040000D03*
D14*
X109390000Y-168040000D03*
X111930000Y-168040000D03*
D15*
X128050000Y-79290000D03*
X143170000Y-77500000D03*
X143050000Y-118760000D03*
X141110000Y-80030000D03*
X141060000Y-121210000D03*
X139370000Y-82500000D03*
X139380000Y-123740000D03*
X115390000Y-116270000D03*
X115390000Y-135900000D03*
X98380000Y-87680000D03*
X98610000Y-148480000D03*
X108720000Y-85050000D03*
X108680000Y-148460000D03*
D16*
X135350000Y-77480000D02*
X112340000Y-77480000D01*
X112340000Y-77480000D02*
X110510000Y-79310000D01*
D17*
X128050000Y-79290000D02*
X128030000Y-79310000D01*
D16*
X128030000Y-79310000D02*
X119240000Y-79310000D01*
X128050000Y-118770000D02*
X143040000Y-118770000D01*
D17*
X143040000Y-118770000D02*
X143050000Y-118760000D01*
X143170000Y-77500000D02*
X143150000Y-77480000D01*
D16*
X143150000Y-77480000D02*
X135350000Y-77480000D01*
D17*
X128050000Y-121310000D02*
X140960000Y-121310000D01*
X140960000Y-121310000D02*
X141060000Y-121210000D01*
X141110000Y-80030000D02*
X141100000Y-80020000D01*
X141100000Y-80020000D02*
X135350000Y-80020000D01*
X139370000Y-82500000D02*
X139310000Y-82560000D01*
X128050000Y-123850000D02*
X139270000Y-123850000D01*
X139270000Y-123850000D02*
X139380000Y-123740000D01*
X139310000Y-82560000D02*
X135350000Y-82560000D01*
D16*
X102950000Y-135940000D02*
X115350000Y-135940000D01*
D17*
X115350000Y-135940000D02*
X115390000Y-135900000D01*
X115390000Y-116270000D02*
X115430000Y-116230000D01*
D16*
X115430000Y-116230000D02*
X128050000Y-116230000D01*
D17*
X98380000Y-87680000D02*
X98420000Y-87640000D01*
X98420000Y-87640000D02*
X135350000Y-87640000D01*
X98610000Y-148480000D02*
X108660000Y-148480000D01*
X108660000Y-148480000D02*
X108680000Y-148460000D01*
X108770000Y-85100000D02*
X135350000Y-85100000D01*
X108720000Y-85050000D02*
X108770000Y-85100000D01*
X64155000Y-101240000D02*
X67425000Y-97970000D01*
X67425000Y-97970000D02*
X121170000Y-97970000D01*
X121170000Y-97970000D02*
X124000000Y-100800000D01*
X66085000Y-104395714D02*
X68619286Y-104395714D01*
X68619286Y-104395714D02*
X71775000Y-101240000D01*
M02*
