%TF.GenerationSoftware,KiCad,Pcbnew,6.0.11-2627ca5db0~126~ubuntu22.04.1*%
%TF.CreationDate,2023-06-25T15:34:46+01:00*%
%TF.ProjectId,ui_daughterboard,75695f64-6175-4676-9874-6572626f6172,rev?*%
%TF.SameCoordinates,Original*%
%TF.FileFunction,Drillmap*%
%TF.FilePolarity,Positive*%
%FSLAX45Y45*%
G04 Gerber Fmt 4.5, Leading zero omitted, Abs format (unit mm)*
G04 Created by KiCad (PCBNEW 6.0.11-2627ca5db0~126~ubuntu22.04.1) date 2023-06-25 15:34:46*
%MOMM*%
%LPD*%
G01*
G04 APERTURE LIST*
%ADD10C,0.150000*%
%ADD11C,0.100000*%
%ADD12C,0.200000*%
%ADD13C,0.320000*%
%ADD14C,0.430000*%
G04 APERTURE END LIST*
D10*
X7795000Y-11274000D02*
X8545000Y-11274000D01*
X8545000Y-11274000D02*
X8545000Y-12274000D01*
X8545000Y-12274000D02*
X7795000Y-12274000D01*
X7795000Y-12274000D02*
X7795000Y-11274000D01*
X7795000Y-8024000D02*
X8545000Y-8024000D01*
X8545000Y-8024000D02*
X8545000Y-9024000D01*
X8545000Y-9024000D02*
X7795000Y-9024000D01*
X7795000Y-9024000D02*
X7795000Y-8024000D01*
D11*
X14538000Y-7022000D02*
X14537000Y-14478000D01*
X4541000Y-17006000D02*
X4543000Y-7021000D01*
X14537000Y-14478000D02*
X11496000Y-14478000D01*
X4543000Y-7021000D02*
X14538000Y-7022000D01*
X11497000Y-17006000D02*
X4541000Y-17006000D01*
X11496000Y-14478000D02*
X11497000Y-17006000D01*
D12*
D13*
X5486000Y-8775011D02*
X5806000Y-9095011D01*
X5806000Y-8775011D02*
X5486000Y-9095011D01*
X5499000Y-7745286D02*
X5819000Y-8065286D01*
X5819000Y-7745286D02*
X5499000Y-8065286D01*
X5501000Y-15964286D02*
X5821000Y-16284286D01*
X5821000Y-15964286D02*
X5501000Y-16284286D01*
X7139000Y-7751000D02*
X7459000Y-8071000D01*
X7459000Y-7751000D02*
X7139000Y-8071000D01*
X7143000Y-15970286D02*
X7463000Y-16290286D01*
X7463000Y-15970286D02*
X7143000Y-16290286D01*
X12846000Y-13785011D02*
X13166000Y-14105011D01*
X13166000Y-13785011D02*
X12846000Y-14105011D01*
D14*
X9037000Y-14846000D02*
G75*
G03*
X9037000Y-14846000I-215000J0D01*
G01*
D12*
X4793619Y-17321476D02*
X4793619Y-17121476D01*
X4841238Y-17121476D01*
X4869810Y-17131000D01*
X4888857Y-17150048D01*
X4898381Y-17169095D01*
X4907905Y-17207190D01*
X4907905Y-17235762D01*
X4898381Y-17273857D01*
X4888857Y-17292905D01*
X4869810Y-17311952D01*
X4841238Y-17321476D01*
X4793619Y-17321476D01*
X4993619Y-17321476D02*
X4993619Y-17188143D01*
X4993619Y-17226238D02*
X5003143Y-17207190D01*
X5012667Y-17197667D01*
X5031714Y-17188143D01*
X5050762Y-17188143D01*
X5117429Y-17321476D02*
X5117429Y-17188143D01*
X5117429Y-17121476D02*
X5107905Y-17131000D01*
X5117429Y-17140524D01*
X5126952Y-17131000D01*
X5117429Y-17121476D01*
X5117429Y-17140524D01*
X5241238Y-17321476D02*
X5222190Y-17311952D01*
X5212667Y-17292905D01*
X5212667Y-17121476D01*
X5346000Y-17321476D02*
X5326952Y-17311952D01*
X5317429Y-17292905D01*
X5317429Y-17121476D01*
X5574571Y-17321476D02*
X5574571Y-17121476D01*
X5641238Y-17264333D01*
X5707905Y-17121476D01*
X5707905Y-17321476D01*
X5888857Y-17321476D02*
X5888857Y-17216714D01*
X5879333Y-17197667D01*
X5860286Y-17188143D01*
X5822190Y-17188143D01*
X5803143Y-17197667D01*
X5888857Y-17311952D02*
X5869809Y-17321476D01*
X5822190Y-17321476D01*
X5803143Y-17311952D01*
X5793619Y-17292905D01*
X5793619Y-17273857D01*
X5803143Y-17254810D01*
X5822190Y-17245286D01*
X5869809Y-17245286D01*
X5888857Y-17235762D01*
X5984095Y-17188143D02*
X5984095Y-17388143D01*
X5984095Y-17197667D02*
X6003143Y-17188143D01*
X6041238Y-17188143D01*
X6060286Y-17197667D01*
X6069809Y-17207190D01*
X6079333Y-17226238D01*
X6079333Y-17283381D01*
X6069809Y-17302429D01*
X6060286Y-17311952D01*
X6041238Y-17321476D01*
X6003143Y-17321476D01*
X5984095Y-17311952D01*
X6165048Y-17302429D02*
X6174571Y-17311952D01*
X6165048Y-17321476D01*
X6155524Y-17311952D01*
X6165048Y-17302429D01*
X6165048Y-17321476D01*
X6165048Y-17197667D02*
X6174571Y-17207190D01*
X6165048Y-17216714D01*
X6155524Y-17207190D01*
X6165048Y-17197667D01*
X6165048Y-17216714D01*
X4336000Y-17551000D02*
X4536000Y-17751000D01*
X4536000Y-17551000D02*
X4336000Y-17751000D01*
X4774571Y-17541476D02*
X4898381Y-17541476D01*
X4831714Y-17617667D01*
X4860286Y-17617667D01*
X4879333Y-17627190D01*
X4888857Y-17636714D01*
X4898381Y-17655762D01*
X4898381Y-17703381D01*
X4888857Y-17722429D01*
X4879333Y-17731952D01*
X4860286Y-17741476D01*
X4803143Y-17741476D01*
X4784095Y-17731952D01*
X4774571Y-17722429D01*
X4984095Y-17722429D02*
X4993619Y-17731952D01*
X4984095Y-17741476D01*
X4974571Y-17731952D01*
X4984095Y-17722429D01*
X4984095Y-17741476D01*
X5069810Y-17560524D02*
X5079333Y-17551000D01*
X5098381Y-17541476D01*
X5146000Y-17541476D01*
X5165048Y-17551000D01*
X5174571Y-17560524D01*
X5184095Y-17579571D01*
X5184095Y-17598619D01*
X5174571Y-17627190D01*
X5060286Y-17741476D01*
X5184095Y-17741476D01*
X5307905Y-17541476D02*
X5326952Y-17541476D01*
X5346000Y-17551000D01*
X5355524Y-17560524D01*
X5365048Y-17579571D01*
X5374571Y-17617667D01*
X5374571Y-17665286D01*
X5365048Y-17703381D01*
X5355524Y-17722429D01*
X5346000Y-17731952D01*
X5326952Y-17741476D01*
X5307905Y-17741476D01*
X5288857Y-17731952D01*
X5279333Y-17722429D01*
X5269810Y-17703381D01*
X5260286Y-17665286D01*
X5260286Y-17617667D01*
X5269810Y-17579571D01*
X5279333Y-17560524D01*
X5288857Y-17551000D01*
X5307905Y-17541476D01*
X5498381Y-17541476D02*
X5517429Y-17541476D01*
X5536476Y-17551000D01*
X5546000Y-17560524D01*
X5555524Y-17579571D01*
X5565048Y-17617667D01*
X5565048Y-17665286D01*
X5555524Y-17703381D01*
X5546000Y-17722429D01*
X5536476Y-17731952D01*
X5517429Y-17741476D01*
X5498381Y-17741476D01*
X5479333Y-17731952D01*
X5469810Y-17722429D01*
X5460286Y-17703381D01*
X5450762Y-17665286D01*
X5450762Y-17617667D01*
X5460286Y-17579571D01*
X5469810Y-17560524D01*
X5479333Y-17551000D01*
X5498381Y-17541476D01*
X5650762Y-17741476D02*
X5650762Y-17608143D01*
X5650762Y-17627190D02*
X5660286Y-17617667D01*
X5679333Y-17608143D01*
X5707905Y-17608143D01*
X5726952Y-17617667D01*
X5736476Y-17636714D01*
X5736476Y-17741476D01*
X5736476Y-17636714D02*
X5746000Y-17617667D01*
X5765048Y-17608143D01*
X5793619Y-17608143D01*
X5812667Y-17617667D01*
X5822190Y-17636714D01*
X5822190Y-17741476D01*
X5917428Y-17741476D02*
X5917428Y-17608143D01*
X5917428Y-17627190D02*
X5926952Y-17617667D01*
X5946000Y-17608143D01*
X5974571Y-17608143D01*
X5993619Y-17617667D01*
X6003143Y-17636714D01*
X6003143Y-17741476D01*
X6003143Y-17636714D02*
X6012667Y-17617667D01*
X6031714Y-17608143D01*
X6060286Y-17608143D01*
X6079333Y-17617667D01*
X6088857Y-17636714D01*
X6088857Y-17741476D01*
X6479333Y-17531952D02*
X6307905Y-17789095D01*
X6736476Y-17541476D02*
X6755524Y-17541476D01*
X6774571Y-17551000D01*
X6784095Y-17560524D01*
X6793619Y-17579571D01*
X6803143Y-17617667D01*
X6803143Y-17665286D01*
X6793619Y-17703381D01*
X6784095Y-17722429D01*
X6774571Y-17731952D01*
X6755524Y-17741476D01*
X6736476Y-17741476D01*
X6717428Y-17731952D01*
X6707905Y-17722429D01*
X6698381Y-17703381D01*
X6688857Y-17665286D01*
X6688857Y-17617667D01*
X6698381Y-17579571D01*
X6707905Y-17560524D01*
X6717428Y-17551000D01*
X6736476Y-17541476D01*
X6888857Y-17722429D02*
X6898381Y-17731952D01*
X6888857Y-17741476D01*
X6879333Y-17731952D01*
X6888857Y-17722429D01*
X6888857Y-17741476D01*
X7088857Y-17741476D02*
X6974571Y-17741476D01*
X7031714Y-17741476D02*
X7031714Y-17541476D01*
X7012667Y-17570048D01*
X6993619Y-17589095D01*
X6974571Y-17598619D01*
X7165048Y-17560524D02*
X7174571Y-17551000D01*
X7193619Y-17541476D01*
X7241238Y-17541476D01*
X7260286Y-17551000D01*
X7269809Y-17560524D01*
X7279333Y-17579571D01*
X7279333Y-17598619D01*
X7269809Y-17627190D01*
X7155524Y-17741476D01*
X7279333Y-17741476D01*
X7450762Y-17541476D02*
X7412667Y-17541476D01*
X7393619Y-17551000D01*
X7384095Y-17560524D01*
X7365048Y-17589095D01*
X7355524Y-17627190D01*
X7355524Y-17703381D01*
X7365048Y-17722429D01*
X7374571Y-17731952D01*
X7393619Y-17741476D01*
X7431714Y-17741476D01*
X7450762Y-17731952D01*
X7460286Y-17722429D01*
X7469809Y-17703381D01*
X7469809Y-17655762D01*
X7460286Y-17636714D01*
X7450762Y-17627190D01*
X7431714Y-17617667D01*
X7393619Y-17617667D01*
X7374571Y-17627190D01*
X7365048Y-17636714D01*
X7355524Y-17655762D01*
X7593619Y-17541476D02*
X7612667Y-17541476D01*
X7631714Y-17551000D01*
X7641238Y-17560524D01*
X7650762Y-17579571D01*
X7660286Y-17617667D01*
X7660286Y-17665286D01*
X7650762Y-17703381D01*
X7641238Y-17722429D01*
X7631714Y-17731952D01*
X7612667Y-17741476D01*
X7593619Y-17741476D01*
X7574571Y-17731952D01*
X7565048Y-17722429D01*
X7555524Y-17703381D01*
X7546000Y-17665286D01*
X7546000Y-17617667D01*
X7555524Y-17579571D01*
X7565048Y-17560524D01*
X7574571Y-17551000D01*
X7593619Y-17541476D01*
X7736476Y-17541476D02*
X7736476Y-17579571D01*
X7812667Y-17541476D02*
X7812667Y-17579571D01*
X8107905Y-17817667D02*
X8098381Y-17808143D01*
X8079333Y-17779571D01*
X8069809Y-17760524D01*
X8060286Y-17731952D01*
X8050762Y-17684333D01*
X8050762Y-17646238D01*
X8060286Y-17598619D01*
X8069809Y-17570048D01*
X8079333Y-17551000D01*
X8098381Y-17522429D01*
X8107905Y-17512905D01*
X8269809Y-17541476D02*
X8231714Y-17541476D01*
X8212667Y-17551000D01*
X8203143Y-17560524D01*
X8184095Y-17589095D01*
X8174571Y-17627190D01*
X8174571Y-17703381D01*
X8184095Y-17722429D01*
X8193619Y-17731952D01*
X8212667Y-17741476D01*
X8250762Y-17741476D01*
X8269809Y-17731952D01*
X8279333Y-17722429D01*
X8288857Y-17703381D01*
X8288857Y-17655762D01*
X8279333Y-17636714D01*
X8269809Y-17627190D01*
X8250762Y-17617667D01*
X8212667Y-17617667D01*
X8193619Y-17627190D01*
X8184095Y-17636714D01*
X8174571Y-17655762D01*
X8526952Y-17741476D02*
X8526952Y-17541476D01*
X8612667Y-17741476D02*
X8612667Y-17636714D01*
X8603143Y-17617667D01*
X8584095Y-17608143D01*
X8555524Y-17608143D01*
X8536476Y-17617667D01*
X8526952Y-17627190D01*
X8736476Y-17741476D02*
X8717429Y-17731952D01*
X8707905Y-17722429D01*
X8698381Y-17703381D01*
X8698381Y-17646238D01*
X8707905Y-17627190D01*
X8717429Y-17617667D01*
X8736476Y-17608143D01*
X8765048Y-17608143D01*
X8784095Y-17617667D01*
X8793619Y-17627190D01*
X8803143Y-17646238D01*
X8803143Y-17703381D01*
X8793619Y-17722429D01*
X8784095Y-17731952D01*
X8765048Y-17741476D01*
X8736476Y-17741476D01*
X8917429Y-17741476D02*
X8898381Y-17731952D01*
X8888857Y-17712905D01*
X8888857Y-17541476D01*
X9069810Y-17731952D02*
X9050762Y-17741476D01*
X9012667Y-17741476D01*
X8993619Y-17731952D01*
X8984095Y-17712905D01*
X8984095Y-17636714D01*
X8993619Y-17617667D01*
X9012667Y-17608143D01*
X9050762Y-17608143D01*
X9069810Y-17617667D01*
X9079333Y-17636714D01*
X9079333Y-17655762D01*
X8984095Y-17674810D01*
X9155524Y-17731952D02*
X9174571Y-17741476D01*
X9212667Y-17741476D01*
X9231714Y-17731952D01*
X9241238Y-17712905D01*
X9241238Y-17703381D01*
X9231714Y-17684333D01*
X9212667Y-17674810D01*
X9184095Y-17674810D01*
X9165048Y-17665286D01*
X9155524Y-17646238D01*
X9155524Y-17636714D01*
X9165048Y-17617667D01*
X9184095Y-17608143D01*
X9212667Y-17608143D01*
X9231714Y-17617667D01*
X9307905Y-17817667D02*
X9317429Y-17808143D01*
X9336476Y-17779571D01*
X9346000Y-17760524D01*
X9355524Y-17731952D01*
X9365048Y-17684333D01*
X9365048Y-17646238D01*
X9355524Y-17598619D01*
X9346000Y-17570048D01*
X9336476Y-17551000D01*
X9317429Y-17522429D01*
X9307905Y-17512905D01*
X9669810Y-17817667D02*
X9660286Y-17808143D01*
X9641238Y-17779571D01*
X9631714Y-17760524D01*
X9622190Y-17731952D01*
X9612667Y-17684333D01*
X9612667Y-17646238D01*
X9622190Y-17598619D01*
X9631714Y-17570048D01*
X9641238Y-17551000D01*
X9660286Y-17522429D01*
X9669810Y-17512905D01*
X9746000Y-17608143D02*
X9746000Y-17741476D01*
X9746000Y-17627190D02*
X9755524Y-17617667D01*
X9774571Y-17608143D01*
X9803143Y-17608143D01*
X9822190Y-17617667D01*
X9831714Y-17636714D01*
X9831714Y-17741476D01*
X9955524Y-17741476D02*
X9936476Y-17731952D01*
X9926952Y-17722429D01*
X9917429Y-17703381D01*
X9917429Y-17646238D01*
X9926952Y-17627190D01*
X9936476Y-17617667D01*
X9955524Y-17608143D01*
X9984095Y-17608143D01*
X10003143Y-17617667D01*
X10012667Y-17627190D01*
X10022190Y-17646238D01*
X10022190Y-17703381D01*
X10012667Y-17722429D01*
X10003143Y-17731952D01*
X9984095Y-17741476D01*
X9955524Y-17741476D01*
X10079333Y-17608143D02*
X10155524Y-17608143D01*
X10107905Y-17541476D02*
X10107905Y-17712905D01*
X10117429Y-17731952D01*
X10136476Y-17741476D01*
X10155524Y-17741476D01*
X10374571Y-17608143D02*
X10374571Y-17808143D01*
X10374571Y-17617667D02*
X10393619Y-17608143D01*
X10431714Y-17608143D01*
X10450762Y-17617667D01*
X10460286Y-17627190D01*
X10469810Y-17646238D01*
X10469810Y-17703381D01*
X10460286Y-17722429D01*
X10450762Y-17731952D01*
X10431714Y-17741476D01*
X10393619Y-17741476D01*
X10374571Y-17731952D01*
X10584095Y-17741476D02*
X10565048Y-17731952D01*
X10555524Y-17712905D01*
X10555524Y-17541476D01*
X10746000Y-17741476D02*
X10746000Y-17636714D01*
X10736476Y-17617667D01*
X10717429Y-17608143D01*
X10679333Y-17608143D01*
X10660286Y-17617667D01*
X10746000Y-17731952D02*
X10726952Y-17741476D01*
X10679333Y-17741476D01*
X10660286Y-17731952D01*
X10650762Y-17712905D01*
X10650762Y-17693857D01*
X10660286Y-17674810D01*
X10679333Y-17665286D01*
X10726952Y-17665286D01*
X10746000Y-17655762D01*
X10812667Y-17608143D02*
X10888857Y-17608143D01*
X10841238Y-17541476D02*
X10841238Y-17712905D01*
X10850762Y-17731952D01*
X10869810Y-17741476D01*
X10888857Y-17741476D01*
X11031714Y-17731952D02*
X11012667Y-17741476D01*
X10974571Y-17741476D01*
X10955524Y-17731952D01*
X10946000Y-17712905D01*
X10946000Y-17636714D01*
X10955524Y-17617667D01*
X10974571Y-17608143D01*
X11012667Y-17608143D01*
X11031714Y-17617667D01*
X11041238Y-17636714D01*
X11041238Y-17655762D01*
X10946000Y-17674810D01*
X11212667Y-17741476D02*
X11212667Y-17541476D01*
X11212667Y-17731952D02*
X11193619Y-17741476D01*
X11155524Y-17741476D01*
X11136476Y-17731952D01*
X11126952Y-17722429D01*
X11117429Y-17703381D01*
X11117429Y-17646238D01*
X11126952Y-17627190D01*
X11136476Y-17617667D01*
X11155524Y-17608143D01*
X11193619Y-17608143D01*
X11212667Y-17617667D01*
X11288857Y-17817667D02*
X11298381Y-17808143D01*
X11317428Y-17779571D01*
X11326952Y-17760524D01*
X11336476Y-17731952D01*
X11346000Y-17684333D01*
X11346000Y-17646238D01*
X11336476Y-17598619D01*
X11326952Y-17570048D01*
X11317428Y-17551000D01*
X11298381Y-17522429D01*
X11288857Y-17512905D01*
X4536000Y-17971000D02*
G75*
G03*
X4536000Y-17971000I-100000J0D01*
G01*
X4879333Y-17928143D02*
X4879333Y-18061476D01*
X4831714Y-17851952D02*
X4784095Y-17994810D01*
X4907905Y-17994810D01*
X4984095Y-18042429D02*
X4993619Y-18051952D01*
X4984095Y-18061476D01*
X4974571Y-18051952D01*
X4984095Y-18042429D01*
X4984095Y-18061476D01*
X5060286Y-17861476D02*
X5184095Y-17861476D01*
X5117429Y-17937667D01*
X5146000Y-17937667D01*
X5165048Y-17947190D01*
X5174571Y-17956714D01*
X5184095Y-17975762D01*
X5184095Y-18023381D01*
X5174571Y-18042429D01*
X5165048Y-18051952D01*
X5146000Y-18061476D01*
X5088857Y-18061476D01*
X5069810Y-18051952D01*
X5060286Y-18042429D01*
X5307905Y-17861476D02*
X5326952Y-17861476D01*
X5346000Y-17871000D01*
X5355524Y-17880524D01*
X5365048Y-17899571D01*
X5374571Y-17937667D01*
X5374571Y-17985286D01*
X5365048Y-18023381D01*
X5355524Y-18042429D01*
X5346000Y-18051952D01*
X5326952Y-18061476D01*
X5307905Y-18061476D01*
X5288857Y-18051952D01*
X5279333Y-18042429D01*
X5269810Y-18023381D01*
X5260286Y-17985286D01*
X5260286Y-17937667D01*
X5269810Y-17899571D01*
X5279333Y-17880524D01*
X5288857Y-17871000D01*
X5307905Y-17861476D01*
X5498381Y-17861476D02*
X5517429Y-17861476D01*
X5536476Y-17871000D01*
X5546000Y-17880524D01*
X5555524Y-17899571D01*
X5565048Y-17937667D01*
X5565048Y-17985286D01*
X5555524Y-18023381D01*
X5546000Y-18042429D01*
X5536476Y-18051952D01*
X5517429Y-18061476D01*
X5498381Y-18061476D01*
X5479333Y-18051952D01*
X5469810Y-18042429D01*
X5460286Y-18023381D01*
X5450762Y-17985286D01*
X5450762Y-17937667D01*
X5460286Y-17899571D01*
X5469810Y-17880524D01*
X5479333Y-17871000D01*
X5498381Y-17861476D01*
X5650762Y-18061476D02*
X5650762Y-17928143D01*
X5650762Y-17947190D02*
X5660286Y-17937667D01*
X5679333Y-17928143D01*
X5707905Y-17928143D01*
X5726952Y-17937667D01*
X5736476Y-17956714D01*
X5736476Y-18061476D01*
X5736476Y-17956714D02*
X5746000Y-17937667D01*
X5765048Y-17928143D01*
X5793619Y-17928143D01*
X5812667Y-17937667D01*
X5822190Y-17956714D01*
X5822190Y-18061476D01*
X5917428Y-18061476D02*
X5917428Y-17928143D01*
X5917428Y-17947190D02*
X5926952Y-17937667D01*
X5946000Y-17928143D01*
X5974571Y-17928143D01*
X5993619Y-17937667D01*
X6003143Y-17956714D01*
X6003143Y-18061476D01*
X6003143Y-17956714D02*
X6012667Y-17937667D01*
X6031714Y-17928143D01*
X6060286Y-17928143D01*
X6079333Y-17937667D01*
X6088857Y-17956714D01*
X6088857Y-18061476D01*
X6479333Y-17851952D02*
X6307905Y-18109095D01*
X6736476Y-17861476D02*
X6755524Y-17861476D01*
X6774571Y-17871000D01*
X6784095Y-17880524D01*
X6793619Y-17899571D01*
X6803143Y-17937667D01*
X6803143Y-17985286D01*
X6793619Y-18023381D01*
X6784095Y-18042429D01*
X6774571Y-18051952D01*
X6755524Y-18061476D01*
X6736476Y-18061476D01*
X6717428Y-18051952D01*
X6707905Y-18042429D01*
X6698381Y-18023381D01*
X6688857Y-17985286D01*
X6688857Y-17937667D01*
X6698381Y-17899571D01*
X6707905Y-17880524D01*
X6717428Y-17871000D01*
X6736476Y-17861476D01*
X6888857Y-18042429D02*
X6898381Y-18051952D01*
X6888857Y-18061476D01*
X6879333Y-18051952D01*
X6888857Y-18042429D01*
X6888857Y-18061476D01*
X7088857Y-18061476D02*
X6974571Y-18061476D01*
X7031714Y-18061476D02*
X7031714Y-17861476D01*
X7012667Y-17890048D01*
X6993619Y-17909095D01*
X6974571Y-17918619D01*
X7260286Y-17861476D02*
X7222190Y-17861476D01*
X7203143Y-17871000D01*
X7193619Y-17880524D01*
X7174571Y-17909095D01*
X7165048Y-17947190D01*
X7165048Y-18023381D01*
X7174571Y-18042429D01*
X7184095Y-18051952D01*
X7203143Y-18061476D01*
X7241238Y-18061476D01*
X7260286Y-18051952D01*
X7269809Y-18042429D01*
X7279333Y-18023381D01*
X7279333Y-17975762D01*
X7269809Y-17956714D01*
X7260286Y-17947190D01*
X7241238Y-17937667D01*
X7203143Y-17937667D01*
X7184095Y-17947190D01*
X7174571Y-17956714D01*
X7165048Y-17975762D01*
X7374571Y-18061476D02*
X7412667Y-18061476D01*
X7431714Y-18051952D01*
X7441238Y-18042429D01*
X7460286Y-18013857D01*
X7469809Y-17975762D01*
X7469809Y-17899571D01*
X7460286Y-17880524D01*
X7450762Y-17871000D01*
X7431714Y-17861476D01*
X7393619Y-17861476D01*
X7374571Y-17871000D01*
X7365048Y-17880524D01*
X7355524Y-17899571D01*
X7355524Y-17947190D01*
X7365048Y-17966238D01*
X7374571Y-17975762D01*
X7393619Y-17985286D01*
X7431714Y-17985286D01*
X7450762Y-17975762D01*
X7460286Y-17966238D01*
X7469809Y-17947190D01*
X7536476Y-17861476D02*
X7660286Y-17861476D01*
X7593619Y-17937667D01*
X7622190Y-17937667D01*
X7641238Y-17947190D01*
X7650762Y-17956714D01*
X7660286Y-17975762D01*
X7660286Y-18023381D01*
X7650762Y-18042429D01*
X7641238Y-18051952D01*
X7622190Y-18061476D01*
X7565048Y-18061476D01*
X7546000Y-18051952D01*
X7536476Y-18042429D01*
X7736476Y-17861476D02*
X7736476Y-17899571D01*
X7812667Y-17861476D02*
X7812667Y-17899571D01*
X8107905Y-18137667D02*
X8098381Y-18128143D01*
X8079333Y-18099571D01*
X8069809Y-18080524D01*
X8060286Y-18051952D01*
X8050762Y-18004333D01*
X8050762Y-17966238D01*
X8060286Y-17918619D01*
X8069809Y-17890048D01*
X8079333Y-17871000D01*
X8098381Y-17842429D01*
X8107905Y-17832905D01*
X8288857Y-18061476D02*
X8174571Y-18061476D01*
X8231714Y-18061476D02*
X8231714Y-17861476D01*
X8212667Y-17890048D01*
X8193619Y-17909095D01*
X8174571Y-17918619D01*
X8526952Y-18061476D02*
X8526952Y-17861476D01*
X8612667Y-18061476D02*
X8612667Y-17956714D01*
X8603143Y-17937667D01*
X8584095Y-17928143D01*
X8555524Y-17928143D01*
X8536476Y-17937667D01*
X8526952Y-17947190D01*
X8736476Y-18061476D02*
X8717429Y-18051952D01*
X8707905Y-18042429D01*
X8698381Y-18023381D01*
X8698381Y-17966238D01*
X8707905Y-17947190D01*
X8717429Y-17937667D01*
X8736476Y-17928143D01*
X8765048Y-17928143D01*
X8784095Y-17937667D01*
X8793619Y-17947190D01*
X8803143Y-17966238D01*
X8803143Y-18023381D01*
X8793619Y-18042429D01*
X8784095Y-18051952D01*
X8765048Y-18061476D01*
X8736476Y-18061476D01*
X8917429Y-18061476D02*
X8898381Y-18051952D01*
X8888857Y-18032905D01*
X8888857Y-17861476D01*
X9069810Y-18051952D02*
X9050762Y-18061476D01*
X9012667Y-18061476D01*
X8993619Y-18051952D01*
X8984095Y-18032905D01*
X8984095Y-17956714D01*
X8993619Y-17937667D01*
X9012667Y-17928143D01*
X9050762Y-17928143D01*
X9069810Y-17937667D01*
X9079333Y-17956714D01*
X9079333Y-17975762D01*
X8984095Y-17994810D01*
X9146000Y-18137667D02*
X9155524Y-18128143D01*
X9174571Y-18099571D01*
X9184095Y-18080524D01*
X9193619Y-18051952D01*
X9203143Y-18004333D01*
X9203143Y-17966238D01*
X9193619Y-17918619D01*
X9184095Y-17890048D01*
X9174571Y-17871000D01*
X9155524Y-17842429D01*
X9146000Y-17832905D01*
X9507905Y-18137667D02*
X9498381Y-18128143D01*
X9479333Y-18099571D01*
X9469810Y-18080524D01*
X9460286Y-18051952D01*
X9450762Y-18004333D01*
X9450762Y-17966238D01*
X9460286Y-17918619D01*
X9469810Y-17890048D01*
X9479333Y-17871000D01*
X9498381Y-17842429D01*
X9507905Y-17832905D01*
X9584095Y-17928143D02*
X9584095Y-18061476D01*
X9584095Y-17947190D02*
X9593619Y-17937667D01*
X9612667Y-17928143D01*
X9641238Y-17928143D01*
X9660286Y-17937667D01*
X9669810Y-17956714D01*
X9669810Y-18061476D01*
X9793619Y-18061476D02*
X9774571Y-18051952D01*
X9765048Y-18042429D01*
X9755524Y-18023381D01*
X9755524Y-17966238D01*
X9765048Y-17947190D01*
X9774571Y-17937667D01*
X9793619Y-17928143D01*
X9822190Y-17928143D01*
X9841238Y-17937667D01*
X9850762Y-17947190D01*
X9860286Y-17966238D01*
X9860286Y-18023381D01*
X9850762Y-18042429D01*
X9841238Y-18051952D01*
X9822190Y-18061476D01*
X9793619Y-18061476D01*
X9917429Y-17928143D02*
X9993619Y-17928143D01*
X9946000Y-17861476D02*
X9946000Y-18032905D01*
X9955524Y-18051952D01*
X9974571Y-18061476D01*
X9993619Y-18061476D01*
X10212667Y-17928143D02*
X10212667Y-18128143D01*
X10212667Y-17937667D02*
X10231714Y-17928143D01*
X10269810Y-17928143D01*
X10288857Y-17937667D01*
X10298381Y-17947190D01*
X10307905Y-17966238D01*
X10307905Y-18023381D01*
X10298381Y-18042429D01*
X10288857Y-18051952D01*
X10269810Y-18061476D01*
X10231714Y-18061476D01*
X10212667Y-18051952D01*
X10422190Y-18061476D02*
X10403143Y-18051952D01*
X10393619Y-18032905D01*
X10393619Y-17861476D01*
X10584095Y-18061476D02*
X10584095Y-17956714D01*
X10574571Y-17937667D01*
X10555524Y-17928143D01*
X10517429Y-17928143D01*
X10498381Y-17937667D01*
X10584095Y-18051952D02*
X10565048Y-18061476D01*
X10517429Y-18061476D01*
X10498381Y-18051952D01*
X10488857Y-18032905D01*
X10488857Y-18013857D01*
X10498381Y-17994810D01*
X10517429Y-17985286D01*
X10565048Y-17985286D01*
X10584095Y-17975762D01*
X10650762Y-17928143D02*
X10726952Y-17928143D01*
X10679333Y-17861476D02*
X10679333Y-18032905D01*
X10688857Y-18051952D01*
X10707905Y-18061476D01*
X10726952Y-18061476D01*
X10869810Y-18051952D02*
X10850762Y-18061476D01*
X10812667Y-18061476D01*
X10793619Y-18051952D01*
X10784095Y-18032905D01*
X10784095Y-17956714D01*
X10793619Y-17937667D01*
X10812667Y-17928143D01*
X10850762Y-17928143D01*
X10869810Y-17937667D01*
X10879333Y-17956714D01*
X10879333Y-17975762D01*
X10784095Y-17994810D01*
X11050762Y-18061476D02*
X11050762Y-17861476D01*
X11050762Y-18051952D02*
X11031714Y-18061476D01*
X10993619Y-18061476D01*
X10974571Y-18051952D01*
X10965048Y-18042429D01*
X10955524Y-18023381D01*
X10955524Y-17966238D01*
X10965048Y-17947190D01*
X10974571Y-17937667D01*
X10993619Y-17928143D01*
X11031714Y-17928143D01*
X11050762Y-17937667D01*
X11126952Y-18137667D02*
X11136476Y-18128143D01*
X11155524Y-18099571D01*
X11165048Y-18080524D01*
X11174571Y-18051952D01*
X11184095Y-18004333D01*
X11184095Y-17966238D01*
X11174571Y-17918619D01*
X11165048Y-17890048D01*
X11155524Y-17871000D01*
X11136476Y-17842429D01*
X11126952Y-17832905D01*
M02*
