G04 #@! TF.GenerationSoftware,KiCad,Pcbnew,6.0.11-2627ca5db0~126~ubuntu22.04.1*
G04 #@! TF.CreationDate,2023-06-25T15:34:26+01:00*
G04 #@! TF.ProjectId,ui_daughterboard,75695f64-6175-4676-9874-6572626f6172,rev?*
G04 #@! TF.SameCoordinates,Original*
G04 #@! TF.FileFunction,Legend,Bot*
G04 #@! TF.FilePolarity,Positive*
%FSLAX46Y46*%
G04 Gerber Fmt 4.6, Leading zero omitted, Abs format (unit mm)*
G04 Created by KiCad (PCBNEW 6.0.11-2627ca5db0~126~ubuntu22.04.1) date 2023-06-25 15:34:26*
%MOMM*%
%LPD*%
G01*
G04 APERTURE LIST*
%ADD10C,3.200000*%
%ADD11C,2.000000*%
%ADD12C,4.300000*%
%ADD13R,1.800000X1.800000*%
%ADD14C,1.800000*%
%ADD15R,1.700000X1.700000*%
%ADD16O,1.700000X1.700000*%
G04 APERTURE END LIST*
%LPC*%
D10*
X130060000Y-139450113D03*
X56460000Y-89350113D03*
D11*
X110510000Y-79310000D03*
X119240000Y-79310000D03*
D12*
X88220000Y-148460000D03*
D13*
X63545000Y-125621428D03*
D14*
X66085000Y-125621428D03*
D10*
X73030000Y-161302856D03*
X56590000Y-79052856D03*
X56610000Y-161242856D03*
X72990000Y-79110000D03*
D11*
X102950000Y-135940000D03*
X102950000Y-142440000D03*
X98450000Y-142440000D03*
X98450000Y-135940000D03*
X103050000Y-153810000D03*
X103050000Y-160310000D03*
X98550000Y-160310000D03*
X98550000Y-153810000D03*
X124000000Y-100800000D03*
D15*
X128050000Y-116230000D03*
D16*
X128050000Y-118770000D03*
X128050000Y-121310000D03*
X128050000Y-123850000D03*
X61615000Y-101240000D03*
X64155000Y-101240000D03*
X66695000Y-101240000D03*
X69235000Y-101240000D03*
X71775000Y-101240000D03*
X74315000Y-101240000D03*
X76855000Y-101240000D03*
X79395000Y-101240000D03*
X81935000Y-101240000D03*
D15*
X84475000Y-101240000D03*
X135350000Y-74940000D03*
D16*
X135350000Y-77480000D03*
X135350000Y-80020000D03*
X135350000Y-82560000D03*
X135350000Y-85100000D03*
X135350000Y-87640000D03*
D13*
X63545000Y-83170000D03*
D14*
X66085000Y-83170000D03*
D13*
X63545000Y-93782857D03*
D14*
X66085000Y-93782857D03*
D13*
X63545000Y-104395714D03*
D14*
X66085000Y-104395714D03*
D13*
X63545000Y-115008571D03*
D14*
X66085000Y-115008571D03*
D13*
X63545000Y-136234285D03*
D14*
X66085000Y-136234285D03*
D13*
X63545000Y-146847142D03*
D14*
X66085000Y-146847142D03*
X66085000Y-157460000D03*
D13*
X63545000Y-157460000D03*
D15*
X106850000Y-168040000D03*
D16*
X109390000Y-168040000D03*
X111930000Y-168040000D03*
M02*
