%TF.GenerationSoftware,KiCad,Pcbnew,6.0.11-2627ca5db0~126~ubuntu22.04.1*%
%TF.CreationDate,2023-06-25T15:36:30+01:00*%
%TF.ProjectId,top_panel,746f705f-7061-46e6-956c-2e6b69636164,rev?*%
%TF.SameCoordinates,Original*%
%TF.FileFunction,Drillmap*%
%TF.FilePolarity,Positive*%
%FSLAX45Y45*%
G04 Gerber Fmt 4.5, Leading zero omitted, Abs format (unit mm)*
G04 Created by KiCad (PCBNEW 6.0.11-2627ca5db0~126~ubuntu22.04.1) date 2023-06-25 15:36:30*
%MOMM*%
%LPD*%
G01*
G04 APERTURE LIST*
%ADD10C,0.100000*%
%ADD11C,0.200000*%
%ADD12C,0.320000*%
G04 APERTURE END LIST*
D10*
X9997000Y-7087000D02*
X9994000Y-8904000D01*
X10297000Y-6787000D02*
G75*
G03*
X9997000Y-7087000I0J-300000D01*
G01*
X9994000Y-8904000D02*
G75*
G03*
X10294000Y-9204000I300000J0D01*
G01*
X18694000Y-9204000D02*
X10294000Y-9204000D01*
X10297000Y-6787000D02*
X18697000Y-6787000D01*
X18997000Y-7087000D02*
G75*
G03*
X18697000Y-6787000I-300000J0D01*
G01*
X18694000Y-9204000D02*
G75*
G03*
X18994000Y-8904000I0J300000D01*
G01*
X18994000Y-8904000D02*
X18997000Y-7087000D01*
D11*
D12*
X10222000Y-8658000D02*
X10542000Y-8978000D01*
X10542000Y-8658000D02*
X10222000Y-8978000D01*
X10229000Y-7016000D02*
X10549000Y-7336000D01*
X10549000Y-7016000D02*
X10229000Y-7336000D01*
X10634429Y-7834000D02*
X10954429Y-8154000D01*
X10954429Y-7834000D02*
X10634429Y-8154000D01*
X11695572Y-7837000D02*
X12015572Y-8157000D01*
X12015572Y-7837000D02*
X11695572Y-8157000D01*
X12756714Y-7837000D02*
X13076714Y-8157000D01*
X13076714Y-7837000D02*
X12756714Y-8157000D01*
X13817857Y-7837000D02*
X14137857Y-8157000D01*
X14137857Y-7837000D02*
X13817857Y-8157000D01*
X14879000Y-7837000D02*
X15199000Y-8157000D01*
X15199000Y-7837000D02*
X14879000Y-8157000D01*
X15940143Y-7837000D02*
X16260143Y-8157000D01*
X16260143Y-7837000D02*
X15940143Y-8157000D01*
X17001286Y-7837000D02*
X17321286Y-8157000D01*
X17321286Y-7837000D02*
X17001286Y-8157000D01*
X18062429Y-7837000D02*
X18382429Y-8157000D01*
X18382429Y-7837000D02*
X18062429Y-8157000D01*
X18441000Y-8656000D02*
X18761000Y-8976000D01*
X18761000Y-8656000D02*
X18441000Y-8976000D01*
X18447000Y-7014000D02*
X18767000Y-7334000D01*
X18767000Y-7014000D02*
X18447000Y-7334000D01*
D11*
X10246619Y-9519476D02*
X10246619Y-9319476D01*
X10294238Y-9319476D01*
X10322810Y-9329000D01*
X10341857Y-9348048D01*
X10351381Y-9367095D01*
X10360905Y-9405190D01*
X10360905Y-9433762D01*
X10351381Y-9471857D01*
X10341857Y-9490905D01*
X10322810Y-9509952D01*
X10294238Y-9519476D01*
X10246619Y-9519476D01*
X10446619Y-9519476D02*
X10446619Y-9386143D01*
X10446619Y-9424238D02*
X10456143Y-9405190D01*
X10465667Y-9395667D01*
X10484714Y-9386143D01*
X10503762Y-9386143D01*
X10570429Y-9519476D02*
X10570429Y-9386143D01*
X10570429Y-9319476D02*
X10560905Y-9329000D01*
X10570429Y-9338524D01*
X10579952Y-9329000D01*
X10570429Y-9319476D01*
X10570429Y-9338524D01*
X10694238Y-9519476D02*
X10675190Y-9509952D01*
X10665667Y-9490905D01*
X10665667Y-9319476D01*
X10799000Y-9519476D02*
X10779952Y-9509952D01*
X10770429Y-9490905D01*
X10770429Y-9319476D01*
X11027571Y-9519476D02*
X11027571Y-9319476D01*
X11094238Y-9462333D01*
X11160905Y-9319476D01*
X11160905Y-9519476D01*
X11341857Y-9519476D02*
X11341857Y-9414714D01*
X11332333Y-9395667D01*
X11313286Y-9386143D01*
X11275190Y-9386143D01*
X11256143Y-9395667D01*
X11341857Y-9509952D02*
X11322809Y-9519476D01*
X11275190Y-9519476D01*
X11256143Y-9509952D01*
X11246619Y-9490905D01*
X11246619Y-9471857D01*
X11256143Y-9452810D01*
X11275190Y-9443286D01*
X11322809Y-9443286D01*
X11341857Y-9433762D01*
X11437095Y-9386143D02*
X11437095Y-9586143D01*
X11437095Y-9395667D02*
X11456143Y-9386143D01*
X11494238Y-9386143D01*
X11513286Y-9395667D01*
X11522809Y-9405190D01*
X11532333Y-9424238D01*
X11532333Y-9481381D01*
X11522809Y-9500429D01*
X11513286Y-9509952D01*
X11494238Y-9519476D01*
X11456143Y-9519476D01*
X11437095Y-9509952D01*
X11618048Y-9500429D02*
X11627571Y-9509952D01*
X11618048Y-9519476D01*
X11608524Y-9509952D01*
X11618048Y-9500429D01*
X11618048Y-9519476D01*
X11618048Y-9395667D02*
X11627571Y-9405190D01*
X11618048Y-9414714D01*
X11608524Y-9405190D01*
X11618048Y-9395667D01*
X11618048Y-9414714D01*
X9789000Y-9749000D02*
X9989000Y-9949000D01*
X9989000Y-9749000D02*
X9789000Y-9949000D01*
X10227571Y-9739476D02*
X10351381Y-9739476D01*
X10284714Y-9815667D01*
X10313286Y-9815667D01*
X10332333Y-9825190D01*
X10341857Y-9834714D01*
X10351381Y-9853762D01*
X10351381Y-9901381D01*
X10341857Y-9920429D01*
X10332333Y-9929952D01*
X10313286Y-9939476D01*
X10256143Y-9939476D01*
X10237095Y-9929952D01*
X10227571Y-9920429D01*
X10437095Y-9920429D02*
X10446619Y-9929952D01*
X10437095Y-9939476D01*
X10427571Y-9929952D01*
X10437095Y-9920429D01*
X10437095Y-9939476D01*
X10522810Y-9758524D02*
X10532333Y-9749000D01*
X10551381Y-9739476D01*
X10599000Y-9739476D01*
X10618048Y-9749000D01*
X10627571Y-9758524D01*
X10637095Y-9777571D01*
X10637095Y-9796619D01*
X10627571Y-9825190D01*
X10513286Y-9939476D01*
X10637095Y-9939476D01*
X10760905Y-9739476D02*
X10779952Y-9739476D01*
X10799000Y-9749000D01*
X10808524Y-9758524D01*
X10818048Y-9777571D01*
X10827571Y-9815667D01*
X10827571Y-9863286D01*
X10818048Y-9901381D01*
X10808524Y-9920429D01*
X10799000Y-9929952D01*
X10779952Y-9939476D01*
X10760905Y-9939476D01*
X10741857Y-9929952D01*
X10732333Y-9920429D01*
X10722810Y-9901381D01*
X10713286Y-9863286D01*
X10713286Y-9815667D01*
X10722810Y-9777571D01*
X10732333Y-9758524D01*
X10741857Y-9749000D01*
X10760905Y-9739476D01*
X10951381Y-9739476D02*
X10970429Y-9739476D01*
X10989476Y-9749000D01*
X10999000Y-9758524D01*
X11008524Y-9777571D01*
X11018048Y-9815667D01*
X11018048Y-9863286D01*
X11008524Y-9901381D01*
X10999000Y-9920429D01*
X10989476Y-9929952D01*
X10970429Y-9939476D01*
X10951381Y-9939476D01*
X10932333Y-9929952D01*
X10922810Y-9920429D01*
X10913286Y-9901381D01*
X10903762Y-9863286D01*
X10903762Y-9815667D01*
X10913286Y-9777571D01*
X10922810Y-9758524D01*
X10932333Y-9749000D01*
X10951381Y-9739476D01*
X11103762Y-9939476D02*
X11103762Y-9806143D01*
X11103762Y-9825190D02*
X11113286Y-9815667D01*
X11132333Y-9806143D01*
X11160905Y-9806143D01*
X11179952Y-9815667D01*
X11189476Y-9834714D01*
X11189476Y-9939476D01*
X11189476Y-9834714D02*
X11199000Y-9815667D01*
X11218048Y-9806143D01*
X11246619Y-9806143D01*
X11265667Y-9815667D01*
X11275190Y-9834714D01*
X11275190Y-9939476D01*
X11370428Y-9939476D02*
X11370428Y-9806143D01*
X11370428Y-9825190D02*
X11379952Y-9815667D01*
X11399000Y-9806143D01*
X11427571Y-9806143D01*
X11446619Y-9815667D01*
X11456143Y-9834714D01*
X11456143Y-9939476D01*
X11456143Y-9834714D02*
X11465667Y-9815667D01*
X11484714Y-9806143D01*
X11513286Y-9806143D01*
X11532333Y-9815667D01*
X11541857Y-9834714D01*
X11541857Y-9939476D01*
X11932333Y-9729952D02*
X11760905Y-9987095D01*
X12189476Y-9739476D02*
X12208524Y-9739476D01*
X12227571Y-9749000D01*
X12237095Y-9758524D01*
X12246619Y-9777571D01*
X12256143Y-9815667D01*
X12256143Y-9863286D01*
X12246619Y-9901381D01*
X12237095Y-9920429D01*
X12227571Y-9929952D01*
X12208524Y-9939476D01*
X12189476Y-9939476D01*
X12170428Y-9929952D01*
X12160905Y-9920429D01*
X12151381Y-9901381D01*
X12141857Y-9863286D01*
X12141857Y-9815667D01*
X12151381Y-9777571D01*
X12160905Y-9758524D01*
X12170428Y-9749000D01*
X12189476Y-9739476D01*
X12341857Y-9920429D02*
X12351381Y-9929952D01*
X12341857Y-9939476D01*
X12332333Y-9929952D01*
X12341857Y-9920429D01*
X12341857Y-9939476D01*
X12541857Y-9939476D02*
X12427571Y-9939476D01*
X12484714Y-9939476D02*
X12484714Y-9739476D01*
X12465667Y-9768048D01*
X12446619Y-9787095D01*
X12427571Y-9796619D01*
X12618048Y-9758524D02*
X12627571Y-9749000D01*
X12646619Y-9739476D01*
X12694238Y-9739476D01*
X12713286Y-9749000D01*
X12722809Y-9758524D01*
X12732333Y-9777571D01*
X12732333Y-9796619D01*
X12722809Y-9825190D01*
X12608524Y-9939476D01*
X12732333Y-9939476D01*
X12903762Y-9739476D02*
X12865667Y-9739476D01*
X12846619Y-9749000D01*
X12837095Y-9758524D01*
X12818048Y-9787095D01*
X12808524Y-9825190D01*
X12808524Y-9901381D01*
X12818048Y-9920429D01*
X12827571Y-9929952D01*
X12846619Y-9939476D01*
X12884714Y-9939476D01*
X12903762Y-9929952D01*
X12913286Y-9920429D01*
X12922809Y-9901381D01*
X12922809Y-9853762D01*
X12913286Y-9834714D01*
X12903762Y-9825190D01*
X12884714Y-9815667D01*
X12846619Y-9815667D01*
X12827571Y-9825190D01*
X12818048Y-9834714D01*
X12808524Y-9853762D01*
X13046619Y-9739476D02*
X13065667Y-9739476D01*
X13084714Y-9749000D01*
X13094238Y-9758524D01*
X13103762Y-9777571D01*
X13113286Y-9815667D01*
X13113286Y-9863286D01*
X13103762Y-9901381D01*
X13094238Y-9920429D01*
X13084714Y-9929952D01*
X13065667Y-9939476D01*
X13046619Y-9939476D01*
X13027571Y-9929952D01*
X13018048Y-9920429D01*
X13008524Y-9901381D01*
X12999000Y-9863286D01*
X12999000Y-9815667D01*
X13008524Y-9777571D01*
X13018048Y-9758524D01*
X13027571Y-9749000D01*
X13046619Y-9739476D01*
X13189476Y-9739476D02*
X13189476Y-9777571D01*
X13265667Y-9739476D02*
X13265667Y-9777571D01*
X13560905Y-10015667D02*
X13551381Y-10006143D01*
X13532333Y-9977571D01*
X13522809Y-9958524D01*
X13513286Y-9929952D01*
X13503762Y-9882333D01*
X13503762Y-9844238D01*
X13513286Y-9796619D01*
X13522809Y-9768048D01*
X13532333Y-9749000D01*
X13551381Y-9720429D01*
X13560905Y-9710905D01*
X13741857Y-9939476D02*
X13627571Y-9939476D01*
X13684714Y-9939476D02*
X13684714Y-9739476D01*
X13665667Y-9768048D01*
X13646619Y-9787095D01*
X13627571Y-9796619D01*
X13818048Y-9758524D02*
X13827571Y-9749000D01*
X13846619Y-9739476D01*
X13894238Y-9739476D01*
X13913286Y-9749000D01*
X13922809Y-9758524D01*
X13932333Y-9777571D01*
X13932333Y-9796619D01*
X13922809Y-9825190D01*
X13808524Y-9939476D01*
X13932333Y-9939476D01*
X14170428Y-9939476D02*
X14170428Y-9739476D01*
X14256143Y-9939476D02*
X14256143Y-9834714D01*
X14246619Y-9815667D01*
X14227571Y-9806143D01*
X14199000Y-9806143D01*
X14179952Y-9815667D01*
X14170428Y-9825190D01*
X14379952Y-9939476D02*
X14360905Y-9929952D01*
X14351381Y-9920429D01*
X14341857Y-9901381D01*
X14341857Y-9844238D01*
X14351381Y-9825190D01*
X14360905Y-9815667D01*
X14379952Y-9806143D01*
X14408524Y-9806143D01*
X14427571Y-9815667D01*
X14437095Y-9825190D01*
X14446619Y-9844238D01*
X14446619Y-9901381D01*
X14437095Y-9920429D01*
X14427571Y-9929952D01*
X14408524Y-9939476D01*
X14379952Y-9939476D01*
X14560905Y-9939476D02*
X14541857Y-9929952D01*
X14532333Y-9910905D01*
X14532333Y-9739476D01*
X14713286Y-9929952D02*
X14694238Y-9939476D01*
X14656143Y-9939476D01*
X14637095Y-9929952D01*
X14627571Y-9910905D01*
X14627571Y-9834714D01*
X14637095Y-9815667D01*
X14656143Y-9806143D01*
X14694238Y-9806143D01*
X14713286Y-9815667D01*
X14722809Y-9834714D01*
X14722809Y-9853762D01*
X14627571Y-9872810D01*
X14799000Y-9929952D02*
X14818048Y-9939476D01*
X14856143Y-9939476D01*
X14875190Y-9929952D01*
X14884714Y-9910905D01*
X14884714Y-9901381D01*
X14875190Y-9882333D01*
X14856143Y-9872810D01*
X14827571Y-9872810D01*
X14808524Y-9863286D01*
X14799000Y-9844238D01*
X14799000Y-9834714D01*
X14808524Y-9815667D01*
X14827571Y-9806143D01*
X14856143Y-9806143D01*
X14875190Y-9815667D01*
X14951381Y-10015667D02*
X14960905Y-10006143D01*
X14979952Y-9977571D01*
X14989476Y-9958524D01*
X14999000Y-9929952D01*
X15008524Y-9882333D01*
X15008524Y-9844238D01*
X14999000Y-9796619D01*
X14989476Y-9768048D01*
X14979952Y-9749000D01*
X14960905Y-9720429D01*
X14951381Y-9710905D01*
X15313286Y-10015667D02*
X15303762Y-10006143D01*
X15284714Y-9977571D01*
X15275190Y-9958524D01*
X15265667Y-9929952D01*
X15256143Y-9882333D01*
X15256143Y-9844238D01*
X15265667Y-9796619D01*
X15275190Y-9768048D01*
X15284714Y-9749000D01*
X15303762Y-9720429D01*
X15313286Y-9710905D01*
X15389476Y-9806143D02*
X15389476Y-9939476D01*
X15389476Y-9825190D02*
X15399000Y-9815667D01*
X15418048Y-9806143D01*
X15446619Y-9806143D01*
X15465667Y-9815667D01*
X15475190Y-9834714D01*
X15475190Y-9939476D01*
X15599000Y-9939476D02*
X15579952Y-9929952D01*
X15570428Y-9920429D01*
X15560905Y-9901381D01*
X15560905Y-9844238D01*
X15570428Y-9825190D01*
X15579952Y-9815667D01*
X15599000Y-9806143D01*
X15627571Y-9806143D01*
X15646619Y-9815667D01*
X15656143Y-9825190D01*
X15665667Y-9844238D01*
X15665667Y-9901381D01*
X15656143Y-9920429D01*
X15646619Y-9929952D01*
X15627571Y-9939476D01*
X15599000Y-9939476D01*
X15722809Y-9806143D02*
X15799000Y-9806143D01*
X15751381Y-9739476D02*
X15751381Y-9910905D01*
X15760905Y-9929952D01*
X15779952Y-9939476D01*
X15799000Y-9939476D01*
X16018048Y-9806143D02*
X16018048Y-10006143D01*
X16018048Y-9815667D02*
X16037095Y-9806143D01*
X16075190Y-9806143D01*
X16094238Y-9815667D01*
X16103762Y-9825190D01*
X16113286Y-9844238D01*
X16113286Y-9901381D01*
X16103762Y-9920429D01*
X16094238Y-9929952D01*
X16075190Y-9939476D01*
X16037095Y-9939476D01*
X16018048Y-9929952D01*
X16227571Y-9939476D02*
X16208524Y-9929952D01*
X16199000Y-9910905D01*
X16199000Y-9739476D01*
X16389476Y-9939476D02*
X16389476Y-9834714D01*
X16379952Y-9815667D01*
X16360905Y-9806143D01*
X16322809Y-9806143D01*
X16303762Y-9815667D01*
X16389476Y-9929952D02*
X16370428Y-9939476D01*
X16322809Y-9939476D01*
X16303762Y-9929952D01*
X16294238Y-9910905D01*
X16294238Y-9891857D01*
X16303762Y-9872810D01*
X16322809Y-9863286D01*
X16370428Y-9863286D01*
X16389476Y-9853762D01*
X16456143Y-9806143D02*
X16532333Y-9806143D01*
X16484714Y-9739476D02*
X16484714Y-9910905D01*
X16494238Y-9929952D01*
X16513286Y-9939476D01*
X16532333Y-9939476D01*
X16675190Y-9929952D02*
X16656143Y-9939476D01*
X16618048Y-9939476D01*
X16599000Y-9929952D01*
X16589476Y-9910905D01*
X16589476Y-9834714D01*
X16599000Y-9815667D01*
X16618048Y-9806143D01*
X16656143Y-9806143D01*
X16675190Y-9815667D01*
X16684714Y-9834714D01*
X16684714Y-9853762D01*
X16589476Y-9872810D01*
X16856143Y-9939476D02*
X16856143Y-9739476D01*
X16856143Y-9929952D02*
X16837095Y-9939476D01*
X16799000Y-9939476D01*
X16779952Y-9929952D01*
X16770428Y-9920429D01*
X16760905Y-9901381D01*
X16760905Y-9844238D01*
X16770428Y-9825190D01*
X16779952Y-9815667D01*
X16799000Y-9806143D01*
X16837095Y-9806143D01*
X16856143Y-9815667D01*
X16932333Y-10015667D02*
X16941857Y-10006143D01*
X16960905Y-9977571D01*
X16970429Y-9958524D01*
X16979952Y-9929952D01*
X16989476Y-9882333D01*
X16989476Y-9844238D01*
X16979952Y-9796619D01*
X16970429Y-9768048D01*
X16960905Y-9749000D01*
X16941857Y-9720429D01*
X16932333Y-9710905D01*
M02*
