%TF.GenerationSoftware,KiCad,Pcbnew,6.0.11-2627ca5db0~126~ubuntu22.04.1*%
%TF.CreationDate,2023-06-25T15:36:30+01:00*%
%TF.ProjectId,top_panel,746f705f-7061-46e6-956c-2e6b69636164,rev?*%
%TF.SameCoordinates,Original*%
%TF.FileFunction,Drillmap*%
%TF.FilePolarity,Positive*%
%FSLAX45Y45*%
G04 Gerber Fmt 4.5, Leading zero omitted, Abs format (unit mm)*
G04 Created by KiCad (PCBNEW 6.0.11-2627ca5db0~126~ubuntu22.04.1) date 2023-06-25 15:36:30*
%MOMM*%
%LPD*%
G01*
G04 APERTURE LIST*
%ADD10C,0.100000*%
%ADD11C,0.200000*%
G04 APERTURE END LIST*
D10*
X9997000Y-7087000D02*
X9994000Y-8904000D01*
X10297000Y-6787000D02*
G75*
G03*
X9997000Y-7087000I0J-300000D01*
G01*
X9994000Y-8904000D02*
G75*
G03*
X10294000Y-9204000I300000J0D01*
G01*
X18694000Y-9204000D02*
X10294000Y-9204000D01*
X10297000Y-6787000D02*
X18697000Y-6787000D01*
X18997000Y-7087000D02*
G75*
G03*
X18697000Y-6787000I-300000J0D01*
G01*
X18694000Y-9204000D02*
G75*
G03*
X18994000Y-8904000I0J300000D01*
G01*
X18994000Y-8904000D02*
X18997000Y-7087000D01*
D11*
X10246619Y-9519476D02*
X10246619Y-9319476D01*
X10294238Y-9319476D01*
X10322810Y-9329000D01*
X10341857Y-9348048D01*
X10351381Y-9367095D01*
X10360905Y-9405190D01*
X10360905Y-9433762D01*
X10351381Y-9471857D01*
X10341857Y-9490905D01*
X10322810Y-9509952D01*
X10294238Y-9519476D01*
X10246619Y-9519476D01*
X10446619Y-9519476D02*
X10446619Y-9386143D01*
X10446619Y-9424238D02*
X10456143Y-9405190D01*
X10465667Y-9395667D01*
X10484714Y-9386143D01*
X10503762Y-9386143D01*
X10570429Y-9519476D02*
X10570429Y-9386143D01*
X10570429Y-9319476D02*
X10560905Y-9329000D01*
X10570429Y-9338524D01*
X10579952Y-9329000D01*
X10570429Y-9319476D01*
X10570429Y-9338524D01*
X10694238Y-9519476D02*
X10675190Y-9509952D01*
X10665667Y-9490905D01*
X10665667Y-9319476D01*
X10799000Y-9519476D02*
X10779952Y-9509952D01*
X10770429Y-9490905D01*
X10770429Y-9319476D01*
X11027571Y-9519476D02*
X11027571Y-9319476D01*
X11094238Y-9462333D01*
X11160905Y-9319476D01*
X11160905Y-9519476D01*
X11341857Y-9519476D02*
X11341857Y-9414714D01*
X11332333Y-9395667D01*
X11313286Y-9386143D01*
X11275190Y-9386143D01*
X11256143Y-9395667D01*
X11341857Y-9509952D02*
X11322809Y-9519476D01*
X11275190Y-9519476D01*
X11256143Y-9509952D01*
X11246619Y-9490905D01*
X11246619Y-9471857D01*
X11256143Y-9452810D01*
X11275190Y-9443286D01*
X11322809Y-9443286D01*
X11341857Y-9433762D01*
X11437095Y-9386143D02*
X11437095Y-9586143D01*
X11437095Y-9395667D02*
X11456143Y-9386143D01*
X11494238Y-9386143D01*
X11513286Y-9395667D01*
X11522809Y-9405190D01*
X11532333Y-9424238D01*
X11532333Y-9481381D01*
X11522809Y-9500429D01*
X11513286Y-9509952D01*
X11494238Y-9519476D01*
X11456143Y-9519476D01*
X11437095Y-9509952D01*
X11618048Y-9500429D02*
X11627571Y-9509952D01*
X11618048Y-9519476D01*
X11608524Y-9509952D01*
X11618048Y-9500429D01*
X11618048Y-9519476D01*
X11618048Y-9395667D02*
X11627571Y-9405190D01*
X11618048Y-9414714D01*
X11608524Y-9405190D01*
X11618048Y-9395667D01*
X11618048Y-9414714D01*
M02*
